<svg width="23" height="23" viewBox="0 0 23 23" fill="none" xmlns="http://www.w3.org/2000/svg">
<path d="M15.3137 7.2121C14.018 7.2121 12.7234 7.22341 11.4277 7.2121C10.103 7.19828 9.06234 6.62768 8.35727 5.50912C7.00494 3.35746 8.27557 0.505748 10.7754 0.0558091C11.0012 0.0173108 11.23 -0.00119347 11.4591 0.000510005C14.033 0.000510005 16.6074 0.000510005 19.1822 0.000510005C20.0154 -0.01353 20.8276 0.262693 21.4795 0.781832C22.1314 1.30097 22.5825 2.0307 22.7553 2.84593C23.1965 4.74749 21.9246 6.74205 20.0092 7.12538C19.7382 7.17997 19.4624 7.20775 19.186 7.20833C17.8927 7.2121 16.6032 7.2121 15.3137 7.2121Z" fill="#537FFF"/>
<path d="M0 19.1971C0.000365663 18.3287 0.315495 17.49 0.886991 16.8362C1.45849 16.1824 2.2476 15.758 3.1081 15.6416C3.47634 15.5913 3.85213 15.6001 4.22038 15.5486C5.05063 15.4313 5.82596 15.0656 6.44442 14.4994C7.06288 13.9332 7.4955 13.1931 7.68541 12.3764C7.76299 12.0505 7.80513 11.7172 7.81109 11.3822C7.81481 10.6885 8.01828 10.0106 8.39715 9.42951C8.77602 8.84841 9.31425 8.38875 9.94749 8.1055C10.5807 7.82225 11.2821 7.7274 11.9679 7.83229C12.6536 7.93719 13.2946 8.23739 13.8142 8.69699C14.3338 9.15659 14.71 9.75614 14.8978 10.4239C15.0856 11.0917 15.0771 11.7995 14.8733 12.4625C14.6695 13.1256 14.279 13.7159 13.7485 14.1629C13.218 14.6099 12.57 14.8946 11.8819 14.983C11.5501 15.027 11.2108 15.0081 10.8765 15.0534C9.51784 15.2394 8.48851 15.9331 7.78721 17.1083C7.41832 17.7232 7.22409 18.4272 7.22542 19.1443C7.21536 20.8774 6.12948 22.2863 4.48305 22.7074C2.43068 23.2352 0.319231 21.8163 0.0439892 19.7199C0.0226234 19.5465 0.0150818 19.3718 0 19.1971Z" fill="#537FFF"/>
<path d="M3.61192 15.0042C2.89896 15.003 2.20238 14.7903 1.61028 14.3932C1.01818 13.996 0.557164 13.4322 0.285531 12.773C0.0138991 12.1138 -0.0561447 11.3889 0.0842584 10.6899C0.224661 9.99087 0.569205 9.3492 1.07431 8.84603C1.57942 8.34285 2.2224 8.00078 2.92194 7.86306C3.62147 7.72534 4.34614 7.79816 5.00428 8.07232C5.66243 8.34648 6.22448 8.80966 6.61937 9.40327C7.01426 9.99689 7.22423 10.6943 7.22274 11.4072C7.21843 12.3623 6.83618 13.2768 6.15955 13.9508C5.48293 14.6248 4.56698 15.0036 3.61192 15.0042Z" fill="#537FFF"/>
<path d="M3.61835 7.21183C2.9054 7.21084 2.20876 6.99852 1.61645 6.6017C1.02414 6.20489 0.562757 5.6414 0.290614 4.98244C0.0184707 4.32348 -0.0522196 3.59863 0.087478 2.8995C0.227176 2.20038 0.57099 1.55836 1.07547 1.05458C1.57995 0.550807 2.22245 0.207887 2.92177 0.0691632C3.62108 -0.0695602 4.34583 0.00213959 5.00441 0.275201C5.66299 0.548262 6.22584 1.01043 6.62183 1.60329C7.01782 2.19615 7.22917 2.89309 7.22917 3.60604C7.22684 4.56251 6.84551 5.47907 6.16871 6.15492C5.49191 6.83078 4.57482 7.21084 3.61835 7.21183Z" fill="#537FFF"/>
</svg>
