<svg width="279" height="481" viewBox="0 0 279 481" fill="none" xmlns="http://www.w3.org/2000/svg">
<mask id="mask0_1_448" style="mask-type:alpha" maskUnits="userSpaceOnUse" x="0" y="0" width="279" height="481">
<rect width="279" height="481" rx="139.5" transform="matrix(1 0 0 -1 0 481)" fill="#4E59EB"/>
</mask>
<g mask="url(#mask0_1_448)">
<rect width="279" height="481" rx="139.5" transform="matrix(1 0 0 -1 0 481)" fill="#5B84CD"/>
<path opacity="0.1" d="M221.836 267.568C224.687 267.568 227.252 268.85 228.82 270.988C230.958 267.995 234.521 266 238.512 266C243.215 266 247.348 268.85 249.201 272.841C249.486 272.841 249.914 272.841 250.341 272.841C254.474 272.841 257.895 275.834 258.465 279.682H250.199H242.217H230.245H226.967H213.57C213.143 278.685 213 277.544 213 276.547C213 271.558 216.991 267.568 221.836 267.568Z" fill="#F2F2F2"/>
<path opacity="0.1" d="M48.9813 235.678C46.8435 235.678 44.8481 236.105 42.9953 236.818C41.1425 227.269 32.7336 220 22.472 220C11.4977 220 2.37617 228.551 1.52103 239.383C-0.474298 238.243 -2.8972 237.673 -5.32009 237.673C-13.1589 237.673 -19.4299 243.801 -20 251.355H4.22897H9.35981H33.1612H40.715H64.8014C64.8014 242.661 57.8178 235.678 48.9813 235.678Z" fill="#F2F2F2"/>
<path d="M282 360.72V482.007H215.441V401.481C215.441 384.379 225.988 369.699 240.811 363.713C245.514 361.717 250.787 360.72 256.346 360.72H282Z" fill="#FEDE8C"/>
<path d="M92.953 282.902V366.278H56.4671V309.839C56.4671 309.126 56.3245 308.556 55.897 307.986C55.4694 307.416 55.0418 306.846 54.3292 306.561C53.9016 306.276 53.3315 306.133 52.7614 306.133H15.9904V269.647H79.5558C82.8339 269.647 85.8269 270.787 88.1072 272.783C88.6773 273.21 89.1049 273.638 89.5325 274.208C89.96 274.635 90.2451 275.206 90.6727 275.633C92.0979 277.628 92.953 280.194 92.953 282.902Z" fill="#A7D3B0"/>
<path d="M63.8782 344.044C63.8782 350.458 69.0091 355.589 75.4226 355.589C81.8362 355.589 86.967 350.458 86.967 344.044C86.967 337.631 81.8362 332.5 75.4226 332.5C69.0091 332.5 63.8782 337.631 63.8782 344.044Z" fill="#FEDE8C"/>
<path d="M66.4439 344.044C66.4439 348.89 70.4346 352.881 75.2804 352.881C80.1262 352.881 84.1168 348.89 84.1168 344.044C84.1168 339.199 80.1262 335.208 75.2804 335.208C70.4346 335.065 66.4439 339.056 66.4439 344.044Z" fill="#FECC4D"/>
<path d="M17.2735 287.463C17.2735 293.876 22.4044 299.007 28.8179 299.007C35.2315 299.007 40.3623 293.876 40.3623 287.463C40.3623 281.049 35.2315 275.918 28.8179 275.918C22.4044 275.918 17.2735 281.049 17.2735 287.463Z" fill="#FEDE8C"/>
<path d="M19.9814 287.463C19.9814 292.308 23.9721 296.299 28.8178 296.299C33.6636 296.299 37.6543 292.308 37.6543 287.463C37.6543 282.617 33.6636 278.626 28.8178 278.626C23.9721 278.626 19.9814 282.474 19.9814 287.463Z" fill="#FECC4D"/>
<path d="M60.4577 293.021C60.4577 299.435 65.5886 304.565 72.0021 304.565C78.4157 304.565 83.5465 299.435 83.5465 293.021C83.5465 286.607 78.4157 281.477 72.0021 281.477C65.5886 281.477 60.4577 286.607 60.4577 293.021Z" fill="#FEDE8C"/>
<path d="M63.0228 293.021C63.0228 297.867 67.0135 301.857 71.8593 301.857C76.7051 301.857 80.6957 297.867 80.6957 293.021C80.6957 288.175 76.7051 284.185 71.8593 284.185C67.0135 284.185 63.0228 288.033 63.0228 293.021Z" fill="#FECC4D"/>
<path d="M92.9534 282.902V366.278H56.4674V309.839C56.4674 309.126 56.3249 308.556 55.8973 307.986C55.4698 307.416 55.0422 306.846 54.3296 306.561C53.902 306.276 53.3319 306.133 52.7618 306.133H15.9908V269.647H79.5562C82.8342 269.647 85.8272 270.787 88.1076 272.783C88.6777 273.21 89.1053 273.638 89.5328 274.208C89.9604 274.635 90.2455 275.206 90.673 275.633C92.0983 277.628 92.9534 280.194 92.9534 282.902Z" fill="#A7D3B0"/>
<path d="M12 406.185H15.9907V482.007H33.9486H99.0818H114.189C114.759 481.579 115.187 481.294 115.614 480.867C115.9 480.582 116.185 480.297 116.47 480.012C118.607 477.589 119.89 474.453 119.89 470.89V466.044V433.977V419.439C119.89 415.876 118.607 412.598 116.327 410.175C116.042 409.89 115.9 409.748 115.614 409.463C115.329 409.178 115.187 409.035 114.902 408.75C114.332 408.322 113.762 407.895 113.192 407.61C112.907 407.467 112.764 407.325 112.479 407.182C112.194 407.04 111.909 406.897 111.624 406.755C110.341 406.185 108.916 405.899 107.491 405.899H96.0888V379.533L110.626 362.715L117.895 354.306L116.185 352.738L110.626 359.152L93.9509 378.535H55.0421L47.7734 370.126L36.514 357.014L35.8014 356.159L32.8084 352.738L31.0981 354.306L34.0911 357.869L36.514 360.577L44.7804 370.126L52.6192 379.248V406.185H36.514H15.9907H12Z" fill="#6D75E7"/>
<mask id="mask1_1_448" style="mask-type:alpha" maskUnits="userSpaceOnUse" x="15" y="352" width="105" height="131">
<path d="M119.89 419.439V470.89C119.89 474.453 118.607 477.589 116.469 480.012C116.184 480.297 115.899 480.582 115.614 480.867C115.186 481.294 114.616 481.722 114.189 482.007H15.9902V406.185H52.6187V379.248L44.78 370.126L36.5136 360.577L34.0907 357.869L31.0977 354.306L32.808 352.738L35.6585 356.159L36.3711 357.014L47.6304 370.126L54.8991 378.535H93.808L110.483 359.294L116.042 352.881L117.752 354.449L110.483 362.857L96.0884 379.533V406.185H107.49C108.915 406.185 110.341 406.47 111.623 407.04C111.908 407.182 112.193 407.325 112.479 407.467C112.764 407.61 113.049 407.752 113.191 407.895C113.761 408.18 114.331 408.607 114.901 409.035C115.186 409.32 115.472 409.463 115.614 409.748C115.899 410.033 116.042 410.175 116.327 410.46C118.607 412.598 119.89 415.876 119.89 419.439Z" fill="#F4B0AE"/>
</mask>
<g mask="url(#mask1_1_448)">
<path d="M119.89 419.439V470.89C119.89 474.453 118.607 477.589 116.469 480.012C116.184 480.297 115.899 480.582 115.614 480.867C115.186 481.294 114.616 481.722 114.189 482.007H15.9902V406.185H52.6187V379.248L44.78 370.126L36.5136 360.577L34.0907 357.869L31.0977 354.306L32.808 352.738L35.6585 356.159L36.3711 357.014L47.6304 370.126L54.8991 378.535H93.808L110.483 359.294L116.042 352.881L117.752 354.449L110.483 362.857L96.0884 379.533V406.185H107.49C108.915 406.185 110.341 406.47 111.623 407.04C111.908 407.182 112.193 407.325 112.479 407.467C112.764 407.61 113.049 407.752 113.191 407.895C113.761 408.18 114.331 408.607 114.901 409.035C115.186 409.32 115.472 409.463 115.614 409.748C115.899 410.033 116.042 410.175 116.327 410.46C118.607 412.598 119.89 415.876 119.89 419.439Z" fill="#F4B0AE"/>
<g opacity="0.3">
<path d="M69.519 369.131C77.4935 372.468 85.0484 376.849 92.1836 381.646C99.7384 386.861 106.874 392.91 113.379 399.377C119.885 405.843 125.971 412.935 131.007 420.653C135.834 427.745 140.031 435.463 143.179 443.807C144.648 447.561 145.697 451.525 146.537 455.488C147.376 459.243 147.586 462.997 146.956 466.752C145.907 473.427 141.92 479.476 136.463 483.439C131.007 487.402 124.082 489.28 117.576 488.445C114.009 488.028 110.651 486.777 107.503 484.899C104.985 483.439 102.676 481.353 100.158 479.685C96.5906 476.764 93.023 473.635 89.2455 470.715C85.678 468.003 82.1104 465.709 77.9133 464.249C72.8767 462.371 67.4204 461.537 61.9641 461.328C53.7796 460.911 45.3854 461.954 37.2009 462.997C32.5841 463.623 27.9672 464.666 23.1405 464.666C18.9433 464.666 14.7462 464.249 10.549 463.414C2.57445 461.537 -5.19026 457.782 -11.2761 452.359C-17.5718 446.936 -22.3986 439.844 -25.3366 431.917C-27.8549 424.825 -28.9041 417.107 -27.2253 409.806C-25.3366 402.088 -20.5099 395.413 -14.0043 391.033C-10.4367 388.53 -6.4494 386.235 -2.25225 384.984C1.94489 383.524 6.14202 382.898 10.549 382.481C18.5236 381.646 27.1278 381.646 34.6826 378.935C36.3615 378.309 38.0404 377.683 39.7192 376.64C41.3981 375.597 42.8671 374.346 44.3361 373.094C47.9036 370.174 52.1008 368.297 56.7176 367.671C61.1246 366.836 65.5317 367.462 69.519 369.131C70.1485 369.339 70.3584 368.505 69.7288 368.297C61.3345 364.959 51.6811 366.002 44.5459 371.425C42.8671 372.677 41.3981 374.137 39.7192 375.389C38.0404 376.432 36.1516 377.266 34.4728 377.892C30.6954 379.143 26.4982 379.769 22.5109 380.186C13.9068 381.021 4.8829 381.229 -3.30154 384.149C-5.40011 384.984 -7.28884 385.818 -9.17755 386.861C-11.0663 388.113 -13.1649 389.156 -15.0536 390.616C-18.4113 393.119 -21.1394 395.831 -23.4479 399.377C-27.645 405.634 -29.114 413.144 -28.4844 420.444C-27.8549 428.371 -24.9169 436.297 -20.3 442.764C-15.6831 449.647 -9.17755 455.488 -1.83255 459.243C5.51246 463.206 13.9068 465.292 22.3011 465.292C26.9179 465.292 31.5348 464.457 36.1516 463.832C40.9784 462.997 45.8051 462.58 50.6318 462.163C57.3472 461.746 64.4824 461.537 71.1978 462.789C75.8147 463.623 80.4316 465.5 84.4188 468.003C88.4061 470.298 91.7638 473.427 95.3314 476.347C97.2201 478.016 99.3187 479.685 101.417 481.145C103.936 483.231 106.454 485.108 109.392 486.568C115.688 489.697 122.823 490.114 129.538 488.028C136.044 485.942 141.5 481.77 145.068 475.93C146.956 473.01 148.006 469.672 148.635 466.126C149.265 462.371 148.845 458.617 148.006 454.862C146.327 446.518 143.389 438.592 139.401 431.291C135.204 423.156 129.958 415.647 124.082 408.555C117.996 401.254 111.281 394.579 103.936 388.53C97.0103 382.689 89.4554 377.475 81.4808 373.094C77.9132 371.008 74.1358 369.339 70.3584 367.671C69.3091 368.088 69.0992 368.922 69.519 369.131Z" fill="white"/>
<path d="M124.136 456.138C124.345 458.913 124.345 462.328 122.469 464.676C120.803 466.383 118.302 466.597 116.218 466.383C112.676 465.956 109.342 464.462 106.217 462.968C102.049 461.047 97.8817 458.699 93.7143 456.351C89.1301 453.79 84.546 451.015 79.9618 448.454C75.3776 445.679 70.7935 443.118 66.0009 440.77C61.8335 438.636 57.4577 436.501 52.8736 435.007C49.3312 433.726 45.3722 432.659 41.6215 432.873C40.1629 432.873 38.4959 433.086 37.0373 433.727C34.3285 434.794 31.6197 435.434 28.7025 435.861C23.2848 436.715 17.6588 436.288 12.4496 434.367C8.28215 432.659 4.53144 429.885 1.61425 426.256C-0.886205 423.054 -2.3448 418.999 -2.55317 414.944C-2.76154 410.888 -1.30294 406.833 1.19751 403.631C4.53145 399.576 9.32399 397.014 14.3249 395.52C17.8672 394.453 21.6179 393.813 25.3686 394.026C27.869 394.24 30.5778 394.667 33.0783 394.667C35.162 394.667 37.4541 394.453 39.5378 393.813C43.7052 392.746 47.6643 390.398 50.7898 387.196C52.8736 385.062 55.374 383.141 58.2912 382.073C63.5005 380.153 69.1265 381.22 73.919 383.568C80.1702 386.769 85.3795 391.892 89.9636 397.228C95.5896 403.845 100.591 410.888 105.175 418.359C110.176 426.256 114.551 434.58 118.927 442.905C121.428 446.96 123.72 451.015 124.136 456.138C124.136 456.778 125.178 456.778 125.178 456.138C124.97 453.577 124.345 451.229 123.303 448.881C122.47 446.746 121.219 444.612 120.177 442.478C118.094 438.209 115.802 433.94 113.51 429.885C108.925 421.774 104.133 413.663 98.5068 406.192C93.7143 399.789 88.7134 393.386 82.4622 388.263C77.8781 384.421 72.4604 380.793 66.4177 380.153C60.5833 379.512 55.1656 381.86 50.9982 385.915C49.3313 387.41 47.6643 388.904 45.789 390.184C43.9136 391.465 41.6215 392.319 39.5378 392.959C37.2457 393.599 34.9536 393.813 32.6616 393.813C29.9527 393.599 27.2439 393.386 24.3267 393.172C22.4514 393.172 20.3677 393.386 18.4923 393.813C16.8254 394.026 15.1584 394.453 13.6998 395.093C10.991 395.947 8.28214 397.014 5.99006 398.722C2.23938 401.07 -0.886192 404.698 -2.34479 408.967C-3.59502 412.809 -3.595 417.078 -2.13641 420.92C-0.677808 424.975 2.031 428.604 5.36493 431.379C9.32399 434.58 13.9081 436.501 18.9091 437.142C21.8263 437.568 24.7434 437.568 27.6606 437.355C29.3276 437.142 30.7862 436.928 32.4532 436.501C33.9118 436.074 35.5787 435.861 37.0373 435.221C40.1629 433.94 43.7052 434.153 46.8308 434.58C51.2066 435.434 55.374 437.142 59.3331 438.849C64.1256 440.984 68.7098 443.545 73.2939 446.106C78.0865 448.881 82.879 451.656 87.6715 454.43C92.0473 456.992 96.6315 459.553 101.007 461.901C104.758 463.822 108.509 465.743 112.468 466.81C115.177 467.664 118.094 468.304 120.803 467.45C123.303 466.597 124.553 464.462 125.178 461.901C125.595 460.193 125.595 458.272 125.387 456.565C124.97 455.498 123.928 455.498 124.136 456.138Z" fill="white"/>
<path d="M100.208 427.727C103.747 432.901 108.118 437.661 110.2 443.662C111.032 445.939 111.657 448.836 110.616 451.319C109.992 452.561 108.534 453.389 107.077 453.389C106.037 453.389 105.204 452.768 104.163 452.147C97.7104 448.008 91.6739 443.248 85.8455 438.488C79.3927 433.315 73.1481 427.727 67.9442 421.105C65.8626 418.208 61.2832 411.792 66.2789 409.309C67.5279 408.688 68.985 408.481 70.4421 408.274C71.4828 408.274 72.5236 408.067 73.5644 408.274C75.4378 408.481 77.103 409.102 78.7683 409.723C85.6374 412.62 91.6739 417.587 96.4615 423.174C98.1267 424.623 99.1675 426.072 100.208 427.727C100.625 428.141 101.457 427.727 101.041 427.313C96.6696 421.105 91.0494 415.517 84.3885 411.585C81.058 409.516 77.5193 407.86 73.5644 407.447C71.691 407.24 69.6094 407.447 67.9442 407.86C65.6545 408.481 63.5729 409.723 63.1566 411.999C62.7403 414.483 64.1974 417.173 65.4463 419.036C67.5279 422.347 70.0257 425.037 72.7317 427.934C76.0622 431.245 79.3927 434.35 82.9314 437.247C89.176 442.627 95.837 447.801 102.706 452.354C104.371 453.596 106.245 454.63 108.326 454.009C111.032 453.182 111.865 450.491 111.865 447.801C111.865 444.904 110.408 442.007 109.159 439.523C107.494 436.626 105.62 433.729 103.539 431.038C102.706 429.797 101.665 428.555 100.833 427.106C100.833 426.693 100 427.106 100.208 427.727Z" fill="white"/>
</g>
</g>
<path d="M245.881 309.981V482.007H214.811V337.488C214.811 335.778 214.24 334.21 213.243 333.07C212.815 332.5 212.388 332.072 211.818 331.645C210.677 330.79 209.11 330.22 207.542 330.22H161.222C160.652 330.22 160.082 330.22 159.511 330.077C157.659 329.792 155.806 329.079 154.381 327.939C153.668 327.369 152.955 326.799 152.385 326.086C151.958 325.516 151.53 324.946 151.103 324.376C150.533 323.521 150.105 322.523 149.82 321.383C149.535 320.386 149.392 319.388 149.392 318.39V241H179.75C180.035 241 180.177 241.143 180.462 241.285V293.164C180.462 293.734 180.605 294.304 180.747 294.874C181.033 295.586 181.318 296.157 181.745 296.727C182.885 298.152 184.596 299.007 186.448 299.007H234.764C237.472 299.007 239.895 300.005 241.747 301.572C242.175 302 242.603 302.285 243.03 302.855C244.883 304.85 245.881 307.273 245.881 309.981Z" fill="#A7D3B0"/>
<path d="M170 249H111V402H170V249Z" fill="#F3AFAE"/>
<path d="M221.082 389.794L214.811 397.063L193.005 422.432L189.442 426.423L181.175 435.972V482.007H99.0817V435.259L59.7453 389.652C59.3177 389.224 59.1752 388.797 59.1752 388.227C59.1752 387.657 59.4602 387.087 59.8878 386.659C60.7429 385.946 62.1682 385.946 63.0233 386.944L103.5 433.977H177.327L185.166 424.998L189.584 419.867L214.953 390.365L217.946 386.944C218.801 386.089 220.084 385.946 221.082 386.659C221.794 387.514 221.937 388.797 221.082 389.794Z" fill="#1B4F9A"/>
<path d="M121.173 403.477C121.173 414.166 129.867 422.717 140.413 422.717C151.103 422.717 159.654 414.023 159.654 403.477C159.654 392.787 150.96 384.236 140.413 384.236C129.724 384.093 121.173 392.787 121.173 403.477Z" fill="#FFE8AE"/>
<path d="M125.591 403.477C125.591 411.743 132.29 418.299 140.414 418.299C148.538 418.299 155.236 411.6 155.236 403.477C155.236 395.21 148.538 388.654 140.414 388.654C132.29 388.654 125.591 395.21 125.591 403.477Z" fill="#FECC4D"/>
<path d="M242.888 303.425L213.386 332.928C212.958 333.355 212.246 333.355 211.818 332.928C211.39 332.5 211.39 331.787 211.818 331.36L241.463 301.857C241.89 301.43 242.603 301.43 243.031 301.857C243.316 302.285 243.316 302.998 242.888 303.425Z" fill="#F3AFAE"/>
<path d="M182.03 296.584L152.671 326.086C152.243 326.514 151.53 326.514 151.103 326.086C150.675 325.659 150.675 324.946 151.103 324.519L180.605 295.159C181.033 294.731 181.745 294.731 182.173 295.159C182.458 295.586 182.458 296.156 182.03 296.584Z" fill="#F3AFAE"/>
<path d="M246.308 346.182H215.095C214.525 346.182 214.098 345.755 214.098 345.185C214.098 344.615 214.525 344.187 215.095 344.187H246.308C246.878 344.187 247.306 344.615 247.306 345.185C247.306 345.612 246.878 346.182 246.308 346.182Z" fill="#F3AFAE"/>
<path d="M246.308 379.39H215.095C214.525 379.39 214.098 378.963 214.098 378.393C214.098 377.822 214.525 377.395 215.095 377.395H246.308C246.878 377.395 247.306 377.822 247.306 378.393C247.306 378.82 246.878 379.39 246.308 379.39Z" fill="#F3AFAE"/>
<path d="M198.421 329.792V298.579C198.421 298.009 198.848 297.582 199.418 297.582C199.988 297.582 200.416 298.009 200.416 298.579V329.792C200.416 330.362 199.988 330.79 199.418 330.79C198.848 330.79 198.421 330.362 198.421 329.792Z" fill="#F3AFAE"/>
<path d="M181.033 241.998C181.033 242.283 180.891 242.71 180.606 242.853C180.463 242.995 180.178 243.138 179.893 243.138H148.68C148.11 243.138 147.683 242.71 147.683 242.14C147.683 241.57 148.11 241.142 148.68 241.142H179.893C180.178 241.142 180.321 241.285 180.606 241.428C180.891 241.428 181.033 241.713 181.033 241.998Z" fill="#F3AFAE"/>
<path d="M179.893 276.346H148.68C148.11 276.346 147.683 275.918 147.683 275.348C147.683 274.778 148.11 274.35 148.68 274.35H179.893C180.463 274.35 180.891 274.778 180.891 275.348C180.891 275.918 180.606 276.346 179.893 276.346Z" fill="#F3AFAE"/>
<path d="M121.173 332.785C121.173 343.474 129.867 352.026 140.413 352.026C151.103 352.026 159.654 343.332 159.654 332.785C159.654 322.096 150.96 313.544 140.413 313.544C129.724 313.402 121.173 322.096 121.173 332.785Z" fill="#FEDE8C"/>
<path d="M125.591 332.785C125.591 341.051 132.29 347.608 140.414 347.608C148.538 347.608 155.236 340.909 155.236 332.785C155.236 324.519 148.538 317.963 140.414 317.963C132.29 317.963 125.591 324.519 125.591 332.785Z" fill="#FECC4D"/>
<path d="M170 248H111V402H170V248Z" fill="url(#paint0_linear_1_448)"/>
<path d="M171.627 270.645H109.201C108.061 270.645 107.064 269.647 107.064 268.507C107.064 267.367 108.061 266.369 109.201 266.369H171.627C172.767 266.369 173.765 267.367 173.765 268.507C173.765 269.647 172.909 270.645 171.627 270.645Z" fill="#E65F5C"/>
<path d="M171.627 337.061H109.201C108.061 337.061 107.064 336.063 107.064 334.923C107.064 333.783 108.061 332.785 109.201 332.785H171.627C172.767 332.785 173.765 333.783 173.765 334.923C173.765 336.063 172.909 337.061 171.627 337.061Z" fill="#E65F5C"/>
<path d="M171.627 403.477H109.201C108.061 403.477 107.064 402.479 107.064 401.339C107.064 400.199 108.061 399.201 109.201 399.201H171.627C172.767 399.201 173.765 400.199 173.765 401.339C173.765 402.479 172.909 403.477 171.627 403.477Z" fill="#E65F5C"/>
<path d="M246.308 408.322H215.095C214.525 408.322 214.098 407.895 214.098 407.325C214.098 406.755 214.525 406.327 215.095 406.327H246.308C246.878 406.327 247.306 406.755 247.306 407.325C247.306 407.895 246.878 408.322 246.308 408.322Z" fill="#F3AFAE"/>
<path d="M246.308 441.53H215.095C214.525 441.53 214.098 441.103 214.098 440.533C214.098 439.963 214.525 439.535 215.095 439.535H246.308C246.878 439.535 247.306 439.963 247.306 440.533C247.306 441.103 246.878 441.53 246.308 441.53Z" fill="#F3AFAE"/>
<path d="M246.308 474.738H215.095C214.525 474.738 214.098 474.311 214.098 473.741C214.098 473.17 214.525 472.743 215.095 472.743H246.308C246.878 472.743 247.306 473.17 247.306 473.741C247.306 474.311 246.878 474.738 246.308 474.738Z" fill="#F3AFAE"/>
<path d="M89.2472 274.778L56.4668 307.701C56.0393 308.129 55.1841 308.129 54.7566 307.701L54.614 307.559C54.1865 307.131 54.1865 306.276 54.614 305.848L87.5369 273.068C87.9645 272.64 88.8196 272.64 89.2472 273.068L89.3897 273.21C89.8173 273.495 89.8173 274.351 89.2472 274.778Z" fill="#F3AFAE"/>
<path d="M92.9535 327.084H56.1825C55.4699 327.084 54.8998 326.514 54.8998 325.801C54.8998 325.089 55.4699 324.519 56.1825 324.519H93.0961C93.8087 324.519 94.3788 325.089 94.3788 325.801C94.2363 326.514 93.6662 327.084 92.9535 327.084Z" fill="#F3AFAE"/>
<path d="M92.9535 366.278H56.1825C55.4699 366.278 54.8998 365.708 54.8998 364.995C54.8998 364.283 55.4699 363.713 56.1825 363.713H93.0961C93.8087 363.713 94.3788 364.283 94.3788 364.995C94.2363 365.708 93.6662 366.278 92.9535 366.278Z" fill="#F3AFAE"/>
<path d="M34.3767 305.848V269.077C34.3767 268.365 34.9468 267.794 35.6594 267.794C36.372 267.794 36.9421 268.365 36.9421 269.077V305.991C36.9421 306.703 36.372 307.273 35.6594 307.273C34.9468 307.131 34.3767 306.561 34.3767 305.848Z" fill="#F3AFAE"/>
<path d="M-0.674419 406.415V323H6.38953C23.1337 323 37 330.26 37 339.227V355.739V357.163V360.722V370.259V406.272V473.317C37 476.449 35.1686 479.438 32.2907 482H-0.674419V406.415H-8H-0.674419Z" fill="#FEDE8C"/>
<path d="M159.797 468.752L154.238 474.168C153.383 475.023 152.956 476.306 153.098 477.589L153.953 482.15H126.874L127.729 477.589C127.872 476.306 127.444 475.166 126.589 474.168L121.03 468.752C120.175 468.04 119.89 467.042 119.89 466.044C119.89 464.334 121.173 462.624 123.168 462.339L130.865 461.199C132.147 461.056 133.145 460.201 133.715 459.061L137.136 452.22C138.561 449.369 142.551 449.369 143.977 452.22L147.397 459.061C147.967 460.201 148.965 460.914 150.248 461.199L157.801 462.339C160.794 462.766 162.077 466.615 159.797 468.752Z" fill="#F3AFAE"/>
</g>
<defs>
<linearGradient id="paint0_linear_1_448" x1="140.844" y1="343.863" x2="139.713" y2="401.985" gradientUnits="userSpaceOnUse">
<stop stop-color="#3368C8"/>
<stop offset="1" stop-color="#3368C8" stop-opacity="0"/>
</linearGradient>
</defs>
</svg>
