<svg width="385" height="240" viewBox="0 0 385 240" fill="none" xmlns="http://www.w3.org/2000/svg">
<mask id="mask0_97_549" style="mask-type:alpha" maskUnits="userSpaceOnUse" x="0" y="0" width="385" height="240">
<rect width="385" height="240" rx="16" fill="#EC6967"/>
</mask>
<g mask="url(#mask0_97_549)">
<rect width="385" height="240" rx="16" fill="#175B4B"/>
<path opacity="0.15" d="M353.965 182.937L353.965 160.549C360.447 160.848 366.161 162.596 371.108 165.794C376.055 168.993 379.914 173.428 382.686 179.099C385.415 184.728 386.779 191.38 386.779 199.056C386.779 205.282 385.735 210.847 383.645 215.751C381.556 220.612 378.549 224.749 374.626 228.16C370.703 231.529 365.948 234.109 360.362 235.9C354.776 237.648 348.486 238.522 341.492 238.522L336.439 238.522C329.445 238.522 323.156 237.606 317.569 235.772C311.94 233.896 307.164 231.252 303.241 227.84C299.275 224.386 296.248 220.25 294.158 215.431C292.069 210.612 291.024 205.261 291.024 199.376C291.024 191.274 292.474 184.43 295.374 178.843C298.273 173.257 302.26 168.929 307.335 165.858C312.367 162.788 318.102 160.976 324.542 160.421L324.542 182.809C321.045 182.894 318.124 183.491 315.778 184.6C313.39 185.709 311.599 187.457 310.405 189.845C309.211 192.233 308.614 195.41 308.614 199.376C308.614 202.148 309.126 204.557 310.149 206.604C311.173 208.651 312.793 210.357 315.011 211.721C317.228 213.086 320.107 214.109 323.646 214.792C327.143 215.431 331.364 215.751 336.311 215.751L341.492 215.751C346.439 215.751 350.66 215.452 354.157 214.855C357.654 214.258 360.511 213.299 362.729 211.977C364.946 210.655 366.588 208.949 367.654 206.86C368.677 204.728 369.189 202.126 369.189 199.056C369.189 195.645 368.656 192.766 367.59 190.421C366.481 188.076 364.818 186.263 362.601 184.984C360.34 183.705 357.462 183.022 353.965 182.937ZM368.229 85.8384L385.5 85.8384L385.5 135.475L368.229 135.475L368.229 85.8384ZM292.367 127.479L385.5 127.479L385.5 149.931L292.367 149.931L292.367 127.479ZM329.339 92.2349L346.034 92.2349L346.034 135.475L329.339 135.475L329.339 92.2349ZM292.367 85.6465L309.702 85.6465L309.702 135.475L292.367 135.475L292.367 85.6465ZM292.367 57.1182L323.326 41.8945L292.367 26.6709L292.367 1.08496L338.55 27.0547L385.5 0.381345L385.5 26.2231L353.965 41.8945L385.5 57.5659L385.5 83.4717L338.55 56.7344L292.367 82.7681L292.367 57.1182Z" fill="white"/>
<path opacity="0.1" d="M192.398 66.1207C194.479 66.1207 196.421 66.5369 198.225 67.2305C200.028 57.9361 208.352 51 218.201 51C228.882 51 237.761 59.3233 238.593 69.8662C240.535 68.7564 242.893 68.2016 245.252 68.2016C252.881 68.2016 258.985 74.1666 259.54 81.5189H235.957H230.963H207.797H200.444H177C177 73.0568 183.936 66.1207 192.398 66.1207Z" fill="#F2F2F2"/>
<path opacity="0.15" d="M-2.60154 40.1207C-0.520706 40.1207 1.42141 40.5369 3.2248 41.2305C5.02819 31.9361 13.3515 25 23.2008 25C33.8824 25 42.7606 33.3233 43.593 43.8662C45.5351 42.7564 47.8934 42.2016 50.2516 42.2016C57.8814 42.2016 63.9851 48.1666 64.54 55.5189H40.9573H35.9633H12.7966H5.44436H-17.9997C-17.9997 47.0568 -11.0636 40.1207 -2.60154 40.1207Z" fill="#F2F2F2"/>
<path opacity="0.1" d="M159.032 130.793C155.36 130.793 152.029 132.501 149.979 135.234C147.246 131.305 142.634 128.658 137.424 128.658C131.274 128.658 125.979 132.33 123.587 137.54C123.16 137.455 122.648 137.455 122.221 137.455C116.925 137.455 112.484 141.298 111.716 146.423H122.477H132.812H148.442H152.627H169.794C170.306 145.142 170.562 143.775 170.562 142.238C170.562 136.003 165.438 130.793 159.032 130.793Z" fill="white"/>
<path d="M0 66.2578V197.456C0 198.315 0.0620613 199.088 0.186199 199.862C0.310337 200.721 0.496559 201.494 0.744835 202.353C2.04829 206.735 5.08966 209.828 8.68966 210C8.75173 210 8.87586 210 8.93793 210H36V77.3413C36 71.8425 32.9586 67.2888 28.9241 66.2578C28.3655 66.0859 27.7448 66 27.1862 66H1.24138C0.806896 66 0.372414 66.0859 0 66.2578Z" fill="#82B4FF"/>
<path d="M0 181V228.557C0 229.409 0.102463 230.176 0.307419 230.943C0.512375 231.795 0.819839 232.562 1.22975 233.33C3.38179 237.676 8.40321 240.744 14.347 241C14.4494 241 14.6544 241 14.7569 241H149.516C150.028 240.318 150.438 239.551 150.848 238.869C151.053 238.528 151.155 238.187 151.36 237.761C152.385 235.46 153 232.903 153 230.261C153 230.176 153 230.091 153 229.92V228.642C153 227.534 153 226.426 152.898 225.318C152.693 223.273 152.385 221.313 151.975 219.352C151.77 218.67 151.565 217.903 151.36 217.222C147.774 205.29 138.653 195.062 126.458 188.585C117.44 183.727 106.782 181 95.3048 181H0Z" fill="#FECC4D"/>
<path d="M94.7196 221.497V239.263C94.7196 239.775 94.7196 240.287 94.805 240.8H187.389V221.583C187.389 212.102 179.616 204.245 170.051 204.245H111.972C102.577 204.159 94.7196 211.932 94.7196 221.497Z" fill="#CFEAFF"/>
<path d="M134.861 224.401V240.715H240C238.633 238.579 237.011 236.615 235.302 234.907C231.032 230.636 225.651 227.391 219.587 225.683C217.794 225.17 215.915 224.828 214.036 224.658H213.95C212.669 224.487 211.302 224.401 209.936 224.401H134.861Z" fill="#6B71B5"/>
<mask id="mask1_97_549" style="mask-type:alpha" maskUnits="userSpaceOnUse" x="-1" y="211" width="157" height="30">
<path d="M-0.000305176 221.156V228.245C-0.000305176 229.014 0.0850983 229.868 0.25592 230.636C0.426727 231.49 0.682983 232.259 1.02461 233.113C2.81821 237.469 7.00325 240.544 11.957 240.8C12.0424 240.8 12.2132 240.8 12.2986 240.8H155.957C155.188 234.309 152.626 228.416 148.697 223.718C148.014 222.864 147.245 222.095 146.477 221.327C140.498 215.348 132.213 211.675 123.074 211.675H0.170532C0.170532 211.505 0.0850983 215.86 -0.000305176 221.156Z" fill="#FDDE8D"/>
</mask>
<g mask="url(#mask1_97_549)">
<path d="M-0.000305176 221.156V228.245C-0.000305176 229.014 0.0850983 229.868 0.25592 230.636C0.426727 231.49 0.682983 232.259 1.02461 233.113C2.81821 237.469 7.00325 240.544 11.957 240.8C12.0424 240.8 12.2132 240.8 12.2986 240.8H155.957C155.188 234.309 152.626 228.416 148.697 223.718C148.014 222.864 147.245 222.095 146.477 221.327C140.498 215.348 132.213 211.675 123.074 211.675H0.170532C0.170532 211.505 0.0850983 215.86 -0.000305176 221.156Z" fill="#4D94FE"/>
<g opacity="0.2">
<path d="M36.9847 125.727C45.167 120.468 55.2245 118.828 64.8393 120.863C69.7099 121.897 74.1832 123.908 78.4533 126.678C82.7234 129.448 86.7317 132.689 90.1914 136.461C93.6511 140.233 96.5962 144.409 98.8664 149.081C101.17 153.627 103.145 158.897 102.549 164.156C101.986 169.289 98.7695 173.71 94.8126 176.849C90.5352 180.173 85.3912 182.182 80.1886 183.903C74.6993 185.684 69.3026 187.624 64.0908 189.885C58.8453 192.273 53.7847 194.981 48.9093 198.01C39.1922 203.94 30.4342 211.347 20.3132 216.763C15.5731 219.286 10.454 221.707 4.95802 221.996C-0.251261 222.226 -5.58449 220.39 -8.65597 216.181C-11.6349 212.131 -12.4628 206.626 -12.0606 201.586C-11.5907 196.293 -9.66271 191.12 -7.078 186.53C-1.61286 176.751 6.73207 169.368 14.1088 161.05C17.7972 156.89 21.1741 152.376 23.5738 147.465C26.2014 142.209 27.7931 136.268 31.1453 131.342C32.6148 128.891 34.8336 127.182 36.9847 125.727C37.3053 125.542 37.5828 126.022 37.2623 126.207C34.8246 127.722 32.5719 129.556 31.1023 132.007C29.4725 134.551 28.3483 137.23 27.224 139.909C26.0998 142.588 25.102 145.301 23.7588 147.786C22.5759 150.178 21.1402 152.503 19.612 154.667C13.3051 163.544 4.93537 170.513 -1.71688 179.161C-8.14115 187.464 -13.3965 197.977 -11.1336 208.743C-10.6982 211.163 -9.81587 213.431 -8.32639 215.456C-6.87078 217.607 -4.74026 219.262 -2.28016 220.192C2.89281 222.12 8.43168 221.166 13.4154 219.25C18.433 217.208 23.2407 214.432 27.8296 211.462C32.4523 208.366 36.9824 205.109 41.6051 202.013C50.758 195.66 60.5585 190.429 70.9729 186.446C80.78 182.707 92.7177 180.623 98.9999 171.333C100.402 169.135 101.458 166.709 101.756 164.079C102.055 161.45 101.687 158.778 100.999 156.29C99.5884 151.442 97.158 146.862 94.2129 142.686C91.2678 138.511 87.8081 134.739 83.9262 131.531C80.1708 128.358 75.9007 125.588 71.4274 123.576C62.6659 119.874 52.4505 119.575 43.5372 123.012C41.2687 123.894 39.2193 124.971 37.1359 126.174C37.0343 126.553 36.6642 125.912 36.9847 125.727Z" fill="white"/>
<path d="M88.1875 191.465C82.5561 192.259 77.1684 193.66 71.7717 195.601C66.0883 197.6 60.6486 200.207 55.36 203.26C50.0715 206.313 45.2208 209.755 40.6477 213.677C36.3951 217.415 32.4201 221.633 29.0093 226.273C27.4811 228.437 26.0793 230.635 24.8964 233.028C23.7474 235.294 22.8511 237.628 22.5869 240.131C22.1937 244.631 23.5792 249.066 26.3144 252.509C29.0497 255.951 33.0422 258.24 37.475 258.886C39.8177 259.242 42.1696 259.06 44.4041 258.304C46.3182 257.733 48.1397 257.002 49.8686 256.111C52.6517 254.824 55.4686 253.412 58.2178 252.252C60.8067 251.184 63.6145 250.311 66.4133 249.977C69.9118 249.56 73.4598 249.969 76.9062 250.757C82.156 251.893 87.1688 253.913 92.1476 256.06C94.953 257.218 97.6907 258.629 100.69 259.568C103.344 260.279 106.066 260.738 108.89 260.817C114.25 261.034 119.731 259.793 124.563 257.431C129.556 254.975 133.775 251.364 136.865 246.909C139.693 242.926 141.646 238.166 141.762 233.185C141.945 227.951 140.029 222.967 136.603 219.069C134.768 216.816 132.613 214.748 130.196 213.152C127.779 211.556 125.226 210.466 122.547 209.342C117.627 207.482 112.319 206.059 107.863 202.969C106.828 202.285 105.952 201.508 105.076 200.732C104.234 199.829 103.553 198.834 102.779 197.678C101.138 195.206 98.6623 193.324 95.8569 192.166C93.9024 191.371 91.0201 191.005 88.1875 191.465C87.7745 191.49 87.7836 190.951 88.2305 190.799C93.9883 190.039 100.012 192.331 103.614 197.089C104.422 198.118 105.162 199.4 106.004 200.303C106.846 201.206 107.848 202.016 109.01 202.734C111.208 204.136 113.761 205.226 116.221 206.157C121.52 208.118 127.048 209.735 131.848 213.053C132.977 213.897 134.105 214.742 135.166 215.839C136.227 216.936 137.287 218.033 138.188 219.222C139.804 221.281 141.191 223.685 142.006 226.206C143.61 230.835 143.335 235.909 141.702 240.484C139.969 245.438 136.752 249.859 132.854 253.285C128.761 256.93 123.769 259.385 118.415 260.66C113.061 261.935 107.54 261.81 102.198 260.514C99.2908 259.735 96.5193 258.451 93.7139 257.292C90.816 255.974 87.8841 254.782 84.7921 253.683C80.5964 252.152 76.1727 250.967 71.7647 250.734C68.6883 250.587 65.5104 250.819 62.5423 251.785C59.7345 252.658 56.9514 253.944 54.3286 255.138C52.7938 255.811 51.2251 256.609 49.6902 257.282C47.7085 258.106 45.7267 258.929 43.7202 259.34C39.294 260.186 34.6423 259.346 30.8101 256.964C27.1042 254.617 24.3103 250.888 23.1438 246.647C22.5143 244.446 22.3316 242.094 22.5282 239.844C22.7925 237.341 23.6887 235.007 24.8039 232.868C27.2035 227.956 30.5805 223.443 34.235 219.41C38.2777 214.939 42.817 211.143 47.8279 207.609C52.8389 204.075 58.2876 200.929 63.8537 198.356C69.2596 195.876 74.8166 193.843 80.4909 192.383C83.1046 191.729 85.6845 191.201 88.3569 190.833C88.6435 190.775 88.6344 191.314 88.1875 191.465Z" fill="white"/>
<path d="M39.0872 236.694C38.5205 238.304 37.9109 240.579 38.6759 242.274C39.3822 243.682 41.0253 244.123 42.4495 244.369C44.6659 244.692 47.0516 244.383 49.311 244.04C52.3038 243.487 55.3306 242.808 58.231 242.095C61.5782 241.231 64.9255 240.367 68.2728 239.502C71.62 238.638 75.0937 237.808 78.4071 237.07C81.4339 236.391 84.5531 235.872 87.6972 235.766C90.1755 235.618 92.7462 235.629 95.1477 236.273C96.1588 236.544 97.1361 236.941 97.9192 237.557C99.5194 238.663 101.027 239.609 102.855 240.37C106.132 241.79 109.865 242.519 113.49 242.136C116.415 241.836 119.291 240.71 121.636 239.035C123.695 237.419 125.349 235.289 126.027 232.761C126.83 230.267 126.623 227.502 125.488 225.166C124.017 222.063 121.39 219.733 118.501 217.875C116.395 216.634 114.129 215.485 111.694 214.968C110.017 214.654 108.306 214.466 106.663 214.026C105.272 213.653 103.916 213.155 102.627 212.403C100.176 210.933 98.021 208.866 96.667 206.335C95.6492 204.573 94.4373 203.029 92.8372 201.923C89.8896 199.778 86.1814 199.462 82.5813 200.258C78.1213 201.231 73.9884 203.51 70.2009 206.017C65.4518 209.08 61.1067 212.657 56.9466 216.554C52.4661 220.637 48.3308 224.947 44.1616 229.384C42.3806 231.481 40.1528 233.729 39.0872 236.694C38.9856 237.074 38.3536 236.904 38.4552 236.525C38.988 235.042 39.7736 233.627 40.8119 232.28C41.8164 231.059 42.787 229.964 43.9179 228.777C46.0194 226.495 48.1209 224.214 50.315 222.092C54.5766 217.816 58.9308 213.699 63.7567 209.845C67.8738 206.613 72.2099 203.575 76.8483 201.431C80.3988 199.809 84.3871 198.575 88.4407 199.119C92.2076 199.722 95.2138 202.153 97.2246 205.266C97.9648 206.548 98.7388 207.703 99.7995 208.8C100.86 209.897 102.081 210.902 103.37 211.654C104.659 212.405 106.142 212.938 107.658 213.344C109.462 213.692 111.299 213.914 112.942 214.354C114.206 214.692 115.309 215.124 116.506 215.715C117.483 216.112 118.426 216.636 119.336 217.286C120.97 218.266 122.41 219.465 123.689 220.756C125.684 222.916 127.131 225.606 127.271 228.624C127.512 231.263 126.674 233.883 125.146 236.047C123.584 238.338 121.331 240.173 118.742 241.24C115.707 242.459 112.461 242.944 109.2 242.476C107.236 242.221 105.466 241.747 103.604 241.113C102.627 240.715 101.65 240.318 100.706 239.794C99.7631 239.27 98.8197 238.747 98.0365 238.13C96.2513 236.704 94.0688 236.255 91.945 236.092C89.0289 235.852 86.1037 236.152 83.2711 236.612C79.8651 237.19 76.5517 237.928 73.2383 238.666C69.7647 239.496 66.2572 240.452 62.7496 241.409C59.5287 242.307 56.2153 243.045 53.0283 243.817C50.4485 244.345 47.7422 244.839 45.0112 244.92C43.2327 244.985 41.1088 244.822 39.6011 243.876C38.2199 242.964 37.7077 241.337 37.8613 239.753C37.9133 238.547 38.1843 237.536 38.6155 236.433C38.5568 236.146 39.1888 236.315 39.0872 236.694Z" fill="white"/>
<path d="M58.9272 223.317C55.7717 225.993 52.2708 228.442 49.7719 231.701C48.7336 233.048 47.8803 234.716 48.2322 236.436C48.3743 237.422 49.1236 238.165 50.1686 238.309C50.927 238.513 51.5341 238.269 52.1413 238.025C56.897 236.455 61.5016 234.437 66.1061 232.42C71.065 230.091 76.0578 227.636 80.3352 224.311C82.1997 222.915 86.2243 219.523 83.3445 217.125C82.6877 216.543 81.7105 216.146 80.8596 215.782C80.2276 215.613 79.5031 215.283 78.8373 215.24C77.6659 215.062 76.4268 215.136 75.2802 215.371C70.3824 215.955 65.7101 218.225 61.7284 220.951C60.8255 221.793 59.9565 222.509 58.9272 223.317C58.5729 223.628 58.1689 223.113 58.4894 222.928C62.3537 219.629 66.841 217.038 71.6892 215.628C74.0502 214.906 76.7225 214.538 79.2256 214.802C80.397 214.981 81.7534 215.48 82.8232 216.037C84.1119 216.789 85.299 217.92 85.1454 219.504C84.9579 221.215 83.6329 222.621 82.4095 223.648C80.6037 225.332 78.4526 226.787 76.209 228.083C73.611 229.689 70.9544 231.01 68.1374 232.422C63.1785 234.751 58.1271 236.92 52.9244 238.641C51.5837 239.095 50.243 239.548 48.9881 238.67C47.4805 237.725 47.3227 235.786 47.763 234.143C48.271 232.247 49.6298 230.714 50.9548 229.308C52.474 227.683 54.212 226.253 55.9501 224.822C56.8191 224.106 57.5279 223.483 58.3969 222.768C58.8438 222.617 59.2816 223.005 58.9272 223.317Z" fill="white"/>
</g>
</g>
<path d="M189.89 194.448C189.89 200.341 185.107 205.124 179.213 205.124C173.32 205.124 168.537 200.341 168.537 194.448C168.537 188.554 173.32 183.771 179.213 183.771C185.107 183.771 189.89 188.554 189.89 194.448Z" fill="#FECC4D"/>
<path d="M39.79 54.8889C39.79 60.6967 35.0925 65.3942 29.2847 65.3942C23.4769 65.3942 18.7794 60.6967 18.7794 54.8889C18.7794 49.0811 23.4769 44.3835 29.2847 44.3835C35.0925 44.3835 39.79 49.0811 39.79 54.8889Z" fill="#FECC4D"/>
<path d="M126.235 119.69V163.932C126.235 165.042 127.175 165.981 128.285 165.981H135.032C136.143 165.981 137.082 165.042 137.082 163.932V119.69C137.082 118.579 136.143 117.64 135.032 117.64H128.285C127.175 117.64 126.235 118.579 126.235 119.69Z" fill="#F4B0AE"/>
<path d="M27.7585 119.69V164.017C27.7585 165.127 28.698 166.067 29.8083 166.067H36.5557C37.666 166.067 38.6055 165.127 38.6055 164.017V119.69C38.6055 118.579 37.666 117.64 36.5557 117.64H29.8083C28.698 117.64 27.7585 118.494 27.7585 119.69Z" fill="#F4B0AE"/>
<path d="M60.6399 119.604V163.932C60.6399 165.042 61.5794 165.981 62.6897 165.981H69.5224C70.6328 165.981 71.5723 165.042 71.5723 163.932V119.604C71.5723 118.494 70.6328 117.554 69.5224 117.554H62.6897C61.5794 117.64 60.6399 118.494 60.6399 119.604Z" fill="#F4B0AE"/>
<path d="M95.6584 119.604V164.017C95.6584 165.127 96.5979 166.067 97.7082 166.067H104.541C105.651 166.067 106.591 165.127 106.591 164.017V119.604C106.591 118.494 105.651 117.554 104.541 117.554H97.7082C96.5979 117.64 95.6584 118.494 95.6584 119.604Z" fill="#F4B0AE"/>
<mask id="mask2_97_549" style="mask-type:alpha" maskUnits="userSpaceOnUse" x="17" y="163" width="131" height="18">
<path d="M20.9255 170.764C20.9255 170.679 20.9255 170.508 20.9255 170.423V167.69C20.9255 165.554 22.6337 163.761 24.8543 163.761H140.071C142.207 163.761 144 165.469 144 167.69V170.423C144 170.594 144 170.679 144 170.764C146.05 170.764 147.673 172.473 147.673 174.522V178.28C147.673 179.476 146.733 180.501 145.452 180.501H19.4735C18.2778 180.501 17.2529 179.561 17.2529 178.28V174.522C17.2529 172.473 18.8757 170.764 20.9255 170.764Z" fill="#6B71B5"/>
</mask>
<g mask="url(#mask2_97_549)">
<path d="M20.9255 170.764C20.9255 170.679 20.9255 170.508 20.9255 170.423V167.69C20.9255 165.554 22.6337 163.761 24.8543 163.761H140.071C142.207 163.761 144 165.469 144 167.69V170.423C144 170.594 144 170.679 144 170.764C146.05 170.764 147.673 172.473 147.673 174.522V178.28C147.673 179.476 146.733 180.501 145.452 180.501H19.4735C18.2778 180.501 17.2529 179.561 17.2529 178.28V174.522C17.2529 172.473 18.8757 170.764 20.9255 170.764Z" fill="#F4B0AE"/>
<g opacity="0.5">
<path d="M39.5307 123.049C44.6401 117.428 51.8953 114.158 59.5593 113.75C63.4423 113.545 67.2232 114.158 71.0041 115.385C74.785 116.611 78.4637 118.246 81.8359 120.392C85.208 122.538 88.2736 125.092 90.9305 128.158C93.5873 131.121 96.142 134.698 96.7551 138.785C97.3682 142.77 95.8354 146.756 93.4851 149.924C90.9305 153.296 87.4561 155.85 83.8796 158.201C80.0987 160.653 76.42 163.208 72.9457 165.967C69.4713 168.828 66.2014 171.894 63.1358 175.164C57.0046 181.601 51.8953 188.959 45.3554 195.09C42.2898 197.951 38.9176 200.812 34.8302 202.141C30.9471 203.367 26.5531 203.06 23.3853 200.506C20.3197 198.053 18.5825 194.068 17.8672 190.185C17.1519 186.098 17.5607 181.806 18.5825 177.82C20.7285 169.339 25.5312 162.084 29.4143 154.318C31.3558 150.434 32.9908 146.347 33.8083 142.157C34.728 137.661 34.728 132.858 36.2608 128.464C36.8739 126.318 38.2023 124.581 39.5307 123.049C39.7351 122.844 40.0417 123.151 39.8373 123.355C38.3045 124.99 36.9761 126.829 36.363 128.975C35.6477 131.223 35.3411 133.472 35.0345 135.72C34.728 137.968 34.5236 140.216 34.0127 142.362C33.6039 144.405 32.9908 146.449 32.2755 148.391C29.3121 156.361 24.4072 163.31 21.1372 171.178C17.9694 178.74 16.1301 187.732 20.0131 195.396C20.8306 197.134 21.9547 198.666 23.4875 199.893C25.0203 201.221 26.9618 202.039 29.0055 202.243C33.2974 202.652 37.2826 200.812 40.6548 198.36C44.0269 195.805 47.0925 192.74 49.9537 189.572C52.815 186.302 55.574 182.93 58.4352 179.66C64.0555 173.018 70.391 167.091 77.4419 161.982C84.084 157.179 92.6676 153.194 95.5288 144.916C96.142 142.975 96.4485 140.931 96.142 138.887C95.8354 136.844 95.0179 134.902 93.996 133.165C91.9523 129.793 89.1933 126.829 86.1277 124.275C83.0621 121.72 79.69 119.574 76.1134 117.939C72.6391 116.304 68.8582 115.078 65.0773 114.465C57.7199 113.443 49.9537 115.282 43.9247 119.676C42.3919 120.8 41.0635 122.027 39.7351 123.355C39.7351 123.662 39.3264 123.253 39.5307 123.049Z" fill="white"/>
<path d="M54.8583 128.975C56.5954 125.297 60.2741 122.742 64.3616 122.231C66.4053 121.924 68.5512 122.231 70.4928 123.048C72.7409 123.968 74.989 125.092 77.0327 126.421C79.0764 127.749 80.9158 129.282 82.5508 131.121C83.3682 132.041 84.1857 132.961 84.901 133.88C85.6164 134.902 86.3317 135.924 86.536 137.15C86.8426 139.5 85.2076 141.34 83.3683 142.464C81.1202 143.792 78.5655 144.508 76.113 145.325C73.7627 146.143 71.6168 147.062 69.6753 148.595C67.9381 149.821 66.5075 151.456 65.1791 152.989C62.42 156.259 60.172 160.04 57.3107 163.31C55.9823 164.945 54.4495 166.478 52.8145 167.704C50.873 169.134 48.5227 170.361 46.0702 170.054C43.9243 169.85 42.085 168.317 41.6762 166.069C41.2675 164.025 41.8806 161.981 42.6981 160.244C44.7418 155.952 48.2161 152.478 50.6686 148.391C51.997 146.143 52.8145 143.792 53.2233 141.135C53.632 138.376 53.632 135.515 53.9386 132.654C54.143 131.326 54.3473 130.099 54.8583 128.975C54.9605 128.669 55.3692 128.975 55.267 129.18C54.6539 130.406 54.4495 131.734 54.3473 133.165C54.2451 134.493 54.143 135.822 54.0408 137.15C53.8364 139.807 53.632 142.362 52.8145 144.916C51.2817 149.31 48.114 152.682 45.5593 156.463C44.3331 158.303 43.1068 160.244 42.4937 162.288C41.9828 164.127 41.7784 166.375 43.1068 167.908C44.7418 169.952 47.7052 169.85 49.9533 168.93C51.997 168.01 53.7342 166.478 55.267 164.945C58.1282 161.981 60.4785 158.507 62.931 155.135C65.2813 151.967 67.9381 148.799 71.4125 146.858C73.5584 145.632 75.9086 144.916 78.2589 144.099C80.507 143.384 82.9595 142.464 84.6967 140.727C85.5142 139.909 86.1273 138.887 86.1273 137.763C86.1273 136.435 85.5142 135.311 84.7989 134.289C83.3682 132.347 81.7333 130.61 79.8939 129.077C78.0546 127.545 76.113 126.216 73.9671 125.092C72.0256 124.07 69.8797 123.048 67.6316 122.742C63.6463 122.129 59.5588 123.662 57.0042 126.727C56.3911 127.545 55.7779 128.362 55.3692 129.282C55.1648 129.486 54.7561 129.18 54.8583 128.975Z" fill="white"/>
<path d="M91.4414 162.288C87.354 164.025 83.5731 166.171 79.8944 168.726C76.0113 171.383 72.4348 174.448 69.0626 177.82C65.6905 181.193 62.7271 184.769 60.0702 188.652C57.6177 192.331 55.4718 196.316 53.8368 200.506C53.1215 202.447 52.5084 204.389 52.0997 206.433C51.6909 208.374 51.4866 210.316 51.7931 212.257C52.4062 215.732 54.3478 218.797 57.1068 220.841C59.8658 222.885 63.3402 223.804 66.8145 223.396C68.6539 223.191 70.391 222.578 71.9238 221.556C73.2523 220.739 74.4785 219.819 75.6025 218.797C77.4419 217.264 79.2812 215.629 81.1206 214.199C82.8578 212.87 84.7993 211.644 86.843 210.827C89.3977 209.805 92.1567 209.396 94.9158 209.294C99.1054 209.089 103.295 209.6 107.485 210.214C109.835 210.52 112.185 211.031 114.638 211.133C116.784 211.133 118.93 210.929 121.075 210.418C125.163 209.498 129.046 207.454 132.214 204.695C135.484 201.834 137.936 198.258 139.367 194.272C140.695 190.696 141.206 186.711 140.286 182.93C139.367 178.944 136.914 175.572 133.542 173.324C131.703 171.996 129.659 170.872 127.513 170.156C125.367 169.441 123.221 169.135 120.973 168.828C116.886 168.419 112.594 168.419 108.609 166.989C107.689 166.682 106.872 166.273 106.054 165.865C105.237 165.354 104.521 164.741 103.704 164.025C101.967 162.492 99.7185 161.573 97.3682 161.266C95.7332 161.062 93.4851 161.368 91.4414 162.288C91.1349 162.39 91.0327 161.982 91.3392 161.777C95.5289 160.04 100.536 160.551 104.215 163.412C105.032 164.025 105.85 164.843 106.667 165.354C107.485 165.865 108.404 166.273 109.426 166.58C111.368 167.193 113.514 167.5 115.557 167.704C119.951 168.113 124.448 168.215 128.739 169.748C129.761 170.156 130.783 170.565 131.805 171.178C132.827 171.791 133.849 172.405 134.768 173.12C136.403 174.346 137.936 175.879 139.06 177.616C141.206 180.784 142.024 184.667 141.717 188.448C141.411 192.535 139.878 196.521 137.63 199.893C135.279 203.469 132.009 206.33 128.229 208.374C124.448 210.418 120.258 211.44 115.966 211.542C113.616 211.542 111.266 211.133 108.915 210.827C106.463 210.418 104.01 210.111 101.456 209.907C97.9813 209.6 94.4048 209.6 91.0327 210.316C88.6824 210.827 86.3321 211.644 84.2884 212.973C82.3468 214.199 80.5075 215.732 78.7703 217.162C77.7485 217.98 76.7266 218.899 75.7047 219.717C74.3763 220.739 73.0479 221.761 71.6173 222.476C68.4495 224.009 64.7708 224.315 61.3986 223.293C58.1287 222.272 55.2675 220.023 53.5303 217.06C52.6106 215.527 51.9975 213.79 51.6909 212.053C51.3844 210.111 51.5887 208.17 51.9975 206.33C52.815 202.141 54.45 198.053 56.3915 194.272C58.5374 190.083 61.1943 186.302 64.2598 182.623C67.3254 178.944 70.7998 175.47 74.4785 172.405C78.055 169.441 81.8359 166.784 85.8212 164.536C87.6605 163.514 89.4999 162.595 91.4414 161.777C91.6458 161.675 91.748 162.084 91.4414 162.288Z" fill="white"/>
<path d="M63.5445 206.33C63.4423 207.659 63.4423 209.498 64.3619 210.622C65.1794 211.542 66.5079 211.542 67.6319 211.44C69.3691 211.235 71.1063 210.52 72.7412 209.805C74.8871 208.783 77.0331 207.659 79.0768 206.535C81.4271 205.206 83.7774 203.878 86.1276 202.549C88.4779 201.221 90.9304 199.893 93.2807 198.666C95.4266 197.542 97.6747 196.52 100.025 195.805C101.864 195.192 103.806 194.681 105.747 194.681C106.565 194.681 107.382 194.783 108.098 195.09C109.528 195.601 110.857 196.01 112.39 196.214C115.149 196.623 118.112 196.418 120.769 195.396C122.915 194.579 124.856 193.148 126.287 191.411C127.513 189.776 128.331 187.835 128.331 185.791C128.433 183.747 127.717 181.703 126.389 180.171C124.652 178.127 122.199 176.901 119.645 176.083C117.805 175.572 115.864 175.164 113.922 175.266C112.594 175.368 111.265 175.572 109.937 175.572C108.813 175.572 107.689 175.47 106.565 175.164C104.419 174.55 102.375 173.426 100.842 171.791C99.7184 170.667 98.4922 169.748 97.0616 169.237C94.4047 168.215 91.5435 168.726 88.9889 170.054C85.8211 171.689 83.1642 174.244 80.8139 176.901C77.8505 180.171 75.2959 183.747 72.9456 187.528C70.3909 191.513 68.1428 195.601 65.8947 199.79C64.9751 201.732 63.7488 203.878 63.5445 206.33C63.5445 206.637 63.0335 206.637 63.0335 206.33C63.1357 205.104 63.4423 203.878 63.9532 202.652C64.4641 201.528 64.9751 200.506 65.5882 199.382C66.7122 197.236 67.8363 195.09 69.0625 193.046C71.4128 188.959 73.8653 184.973 76.7265 181.09C79.179 177.82 81.8358 174.653 84.9014 172.098C87.2517 170.156 90.0107 168.419 93.1785 168.01C96.1419 167.704 98.9009 168.93 101.047 170.872C101.864 171.689 102.682 172.405 103.704 173.018C104.726 173.631 105.85 174.142 106.974 174.448C108.098 174.755 109.324 174.857 110.55 174.857C111.981 174.755 113.411 174.55 114.74 174.55C115.762 174.55 116.681 174.653 117.703 174.857C118.521 174.959 119.338 175.164 120.156 175.47C121.586 175.879 122.915 176.492 124.141 177.207C126.083 178.433 127.717 180.171 128.433 182.419C129.148 184.36 129.046 186.506 128.331 188.448C127.615 190.491 126.287 192.331 124.55 193.659C122.506 195.192 120.156 196.214 117.601 196.52C116.068 196.725 114.638 196.725 113.105 196.623C112.287 196.52 111.47 196.418 110.652 196.214C109.835 196.01 109.017 195.805 108.302 195.499C106.667 194.783 104.93 194.885 103.295 195.192C101.047 195.601 98.9009 196.418 96.8572 197.338C94.4047 198.462 92.0544 199.688 89.7042 200.914C87.2517 202.243 84.7992 203.674 82.3467 205.104C80.0986 206.433 77.7484 207.659 75.5003 208.885C73.6609 209.805 71.7194 210.724 69.6756 211.338C68.3472 211.746 66.7122 212.053 65.3838 211.644C64.1576 211.235 63.4423 210.111 63.2379 208.885C63.0335 207.965 63.0335 207.148 63.1357 206.228C63.0335 206.024 63.5445 206.024 63.5445 206.33Z" fill="white"/>
</g>
</g>
<mask id="mask3_97_549" style="mask-type:alpha" maskUnits="userSpaceOnUse" x="22" y="74" width="121" height="45">
<path d="M24.256 112.857L77.6368 76.0455C80.5407 74.0811 84.2987 74.0811 87.2026 76.0455L140.583 112.857C143.231 114.651 141.95 118.75 138.79 118.75H26.0496C22.8894 118.75 21.6083 114.651 24.256 112.857ZM82.4197 102.522C86.5193 102.522 89.8503 99.1914 89.8503 95.0918C89.8503 90.9921 86.5193 87.6612 82.4197 87.6612C78.32 87.6612 74.9891 90.9921 74.9891 95.0918C74.9891 99.1914 78.32 102.522 82.4197 102.522Z" fill="#6B71B5"/>
</mask>
<g mask="url(#mask3_97_549)">
<path d="M24.256 112.857L77.6368 76.0455C80.5407 74.0811 84.2987 74.0811 87.2026 76.0455L140.583 112.857C143.231 114.651 141.95 118.75 138.79 118.75H26.0496C22.8894 118.75 21.6083 114.651 24.256 112.857ZM82.4197 102.522C86.5193 102.522 89.8503 99.1914 89.8503 95.0918C89.8503 90.9921 86.5193 87.6612 82.4197 87.6612C78.32 87.6612 74.9891 90.9921 74.9891 95.0918C74.9891 99.1914 78.32 102.522 82.4197 102.522Z" fill="#F4B0AE"/>
<g opacity="0.5">
<path d="M56.3173 53.1882C60.5878 48.4907 66.6518 45.7576 73.0575 45.416C76.3031 45.2452 79.4632 45.7576 82.6233 46.7825C85.7835 47.8074 88.8582 49.174 91.6767 50.9676C94.4952 52.7612 97.0575 54.8964 99.2781 57.4587C101.499 59.9356 103.634 62.9249 104.146 66.3412C104.659 69.6722 103.378 73.0032 101.413 75.6509C99.2781 78.4694 96.3742 80.6046 93.3849 82.569C90.2248 84.6188 87.15 86.7541 84.2461 89.0601C81.3422 91.4516 78.6091 94.0139 76.0468 96.7469C70.9223 102.128 66.6518 108.277 61.1856 113.402C58.6233 115.793 55.8048 118.185 52.3885 119.295C49.1429 120.32 45.4703 120.064 42.8226 117.928C40.2603 115.879 38.8084 112.548 38.2105 109.302C37.6126 105.886 37.9543 102.299 38.8084 98.9676C40.602 91.8786 44.6162 85.8146 47.8618 79.3235C49.4845 76.0779 50.8511 72.6615 51.5344 69.1598C52.303 65.4017 52.303 61.3875 53.5842 57.7149C54.0966 55.9213 55.207 54.4694 56.3173 53.1882C56.4881 53.0174 56.7443 53.2736 56.5735 53.4444C55.2924 54.811 54.1821 56.3484 53.6696 58.142C53.0717 60.021 52.8155 61.9 52.5593 63.779C52.303 65.658 52.1322 67.537 51.7052 69.3306C51.3635 71.0388 50.8511 72.7469 50.2532 74.3697C47.7764 81.0316 43.6767 86.8395 40.9436 93.416C38.2959 99.7363 36.7586 107.252 40.0041 113.658C40.6874 115.11 41.6269 116.391 42.908 117.416C44.1892 118.526 45.8119 119.21 47.5201 119.38C51.1073 119.722 54.4383 118.185 57.2568 116.135C60.0753 114 62.6376 111.437 65.029 108.79C67.4205 106.057 69.7265 103.238 72.118 100.505C76.8155 94.9534 82.1109 89.9996 88.0041 85.7291C93.5557 81.7149 100.73 78.384 103.122 71.4658C103.634 69.843 103.89 68.1348 103.634 66.4267C103.378 64.7185 102.695 63.0957 101.84 61.6437C100.132 58.8252 97.8262 56.3484 95.2639 54.2131C92.7016 52.0779 89.8831 50.2843 86.8938 48.9178C83.9899 47.5512 80.8298 46.5263 77.6696 46.0138C71.5201 45.1597 65.029 46.6971 59.9899 50.3697C58.7087 51.3092 57.5984 52.3341 56.4881 53.4444C56.4881 53.7007 56.1465 53.359 56.3173 53.1882Z" fill="white"/>
<path d="M69.1297 58.1419C70.5817 55.0672 73.6564 52.9319 77.0728 52.5049C78.781 52.2486 80.5746 52.5049 82.1973 53.1881C84.0763 53.9568 85.9553 54.8963 87.6635 56.0067C89.3717 57.117 90.9091 58.3981 92.2756 59.9355C92.9589 60.7042 93.6422 61.4728 94.24 62.2415C94.8379 63.0956 95.4358 63.9497 95.6066 64.9746C95.8628 66.939 94.4963 68.4764 92.9589 69.4159C91.0799 70.5262 88.9447 71.1241 86.8948 71.8074C84.9304 72.4906 83.1368 73.2593 81.5141 74.5405C80.0621 75.5654 78.8664 76.9319 77.7561 78.2131C75.45 80.9462 73.571 84.1063 71.1795 86.8394C70.0692 88.2059 68.7881 89.4871 67.4215 90.512C65.7988 91.7077 63.8343 92.7326 61.7845 92.4764C59.9909 92.3056 58.4536 91.0244 58.1119 89.1454C57.7703 87.4373 58.2827 85.7291 58.966 84.2771C60.6742 80.6899 63.5781 77.786 65.6279 74.3696C66.7383 72.4906 67.4215 70.5262 67.7632 68.3056C68.1048 65.9995 68.1048 63.6081 68.361 61.2166C68.5318 60.1063 68.7027 59.0814 69.1297 58.1419C69.2151 57.8857 69.5568 58.1419 69.4714 58.3127C68.9589 59.3376 68.7881 60.4479 68.7027 61.6437C68.6173 62.754 68.5319 63.8643 68.4464 64.9746C68.2756 67.1953 68.1048 69.3305 67.4215 71.4657C66.1404 75.1383 63.4927 77.9568 61.3575 81.117C60.3326 82.6543 59.3076 84.2771 58.7952 85.9853C58.3681 87.5227 58.1973 89.4017 59.3077 90.6828C60.6742 92.391 63.1511 92.3056 65.0301 91.5369C66.7383 90.7682 68.1902 89.4871 69.4714 88.2059C71.8628 85.7291 73.8272 82.8252 75.877 80.0067C77.8415 77.359 80.0621 74.7113 82.966 73.0885C84.7596 72.0636 86.724 71.4657 88.6884 70.7825C90.5674 70.1846 92.6173 69.4159 94.0692 67.964C94.7525 67.2807 95.265 66.4266 95.265 65.4871C95.265 64.3768 94.7525 63.4373 94.1546 62.5832C92.9589 60.9604 91.5924 59.5084 90.055 58.2273C88.5176 56.9462 86.8948 55.8358 85.1013 54.8963C83.4785 54.0422 81.6849 53.1881 79.8059 52.9319C76.4749 52.4195 73.0585 53.7006 70.9233 56.2629C70.4109 56.9462 69.8984 57.6294 69.5568 58.3981C69.3859 58.5689 69.0443 58.3127 69.1297 58.1419Z" fill="white"/>
<path d="M90.9946 63.6081C91.5925 64.2914 91.9341 64.9747 92.0195 65.8288C92.0195 66.512 91.7633 67.1953 91.2509 67.6224C90.653 68.0494 89.9697 68.3056 89.2864 68.4764C88.4323 68.7327 87.5783 68.9889 86.6388 69.2451C84.9306 69.6722 83.137 70.0992 81.5142 70.8679C80.6601 71.2095 79.8914 71.6366 79.1227 72.1491C78.3541 72.6615 77.7562 73.2594 77.0729 73.8572C76.475 74.3697 75.7064 74.7967 74.8523 74.6259C74.0836 74.4551 73.5711 73.8572 73.5711 73.0886C73.5711 72.2345 73.8274 71.295 73.9982 70.4409C74.2544 69.5014 74.5106 68.5619 74.8523 67.6224C75.5355 65.8288 76.3896 64.0352 77.8416 62.754C78.9519 61.7291 80.4039 60.9604 81.8558 60.6188C84.8452 59.9355 88.0053 60.7896 90.3113 62.8394C90.4822 63.0103 90.7384 63.2665 90.9946 63.6081C91.1654 63.7789 90.9092 64.1206 90.7384 63.8643C88.8594 61.7291 86.0409 60.5334 83.137 60.7042C81.685 60.7896 80.3185 61.3021 79.1227 62.0708C77.6708 63.0103 76.6459 64.3768 75.8772 65.9142C75.0231 67.5369 74.5106 69.2451 74.169 71.0387C74.0836 71.4658 73.9982 71.8928 73.9128 72.3199C73.8274 72.6615 73.8274 73.0886 73.9128 73.4302C74.2544 74.4551 75.5355 74.1989 76.2188 73.7718C76.9021 73.3448 77.4146 72.7469 78.0124 72.2345C78.6103 71.722 79.2936 71.295 79.9768 70.9533C81.4288 70.1846 82.9662 69.7576 84.5035 69.3305C86.2971 68.8181 88.0907 68.4765 89.7989 67.8786C90.4822 67.6224 91.1654 67.2807 91.4217 66.5974C91.7633 65.6579 91.2509 64.633 90.653 63.9498C90.5676 63.6935 90.8238 63.4373 90.9946 63.6081Z" fill="white"/>
<path d="M99.7059 85.9854C96.2896 87.4373 93.1294 89.2309 90.0547 91.3661C86.8092 93.5868 83.8198 96.1491 81.0013 98.9676C78.1828 101.786 75.7059 104.775 73.4853 108.021C71.4355 111.096 69.6419 114.427 68.2753 117.928C67.6775 119.551 67.165 121.174 66.8234 122.882C66.4817 124.505 66.3109 126.128 66.5672 127.75C67.0796 130.654 68.7024 133.217 71.0084 134.925C73.3145 136.633 76.2184 137.402 79.1223 137.06C80.6597 136.889 82.1116 136.377 83.3928 135.523C84.5031 134.839 85.528 134.071 86.4675 133.217C88.0049 131.936 89.5422 130.569 91.0796 129.373C92.5316 128.263 94.1543 127.238 95.8625 126.555C97.9978 125.701 100.304 125.359 102.61 125.274C106.112 125.103 109.613 125.53 113.115 126.042C115.08 126.299 117.044 126.726 119.094 126.811C120.887 126.811 122.681 126.64 124.475 126.213C127.891 125.444 131.137 123.736 133.784 121.43C136.517 119.039 138.567 116.049 139.763 112.718C140.873 109.729 141.3 106.398 140.532 103.238C139.763 99.9071 137.713 97.0886 134.895 95.2096C133.357 94.0992 131.649 93.1597 129.855 92.5619C128.062 91.964 126.268 91.7078 124.389 91.4516C120.973 91.1099 117.386 91.1099 114.055 89.9142C113.286 89.658 112.603 89.3163 111.919 88.9747C111.236 88.5476 110.638 88.0352 109.955 87.4373C108.503 86.1562 106.624 85.3875 104.66 85.1313C103.293 84.9604 101.414 85.2167 99.7059 85.9854C99.4497 86.0708 99.3643 85.7291 99.6205 85.5583C103.122 84.1064 107.307 84.5334 110.382 86.9249C111.065 87.4373 111.749 88.1206 112.432 88.5476C113.115 88.9747 113.884 89.3163 114.738 89.5725C116.361 90.085 118.154 90.3412 119.863 90.512C123.535 90.8537 127.293 90.9391 130.88 92.2202C131.734 92.5619 132.589 92.9035 133.443 93.416C134.297 93.9284 135.151 94.4409 135.919 95.0387C137.286 96.0636 138.567 97.3448 139.507 98.7967C141.3 101.444 141.984 104.69 141.727 107.85C141.471 111.267 140.19 114.597 138.311 117.416C136.347 120.405 133.613 122.797 130.453 124.505C127.293 126.213 123.791 127.067 120.204 127.153C118.24 127.153 116.275 126.811 114.311 126.555C112.261 126.213 110.211 125.957 108.076 125.786C105.172 125.53 102.183 125.53 99.3643 126.128C97.3999 126.555 95.4355 127.238 93.7273 128.348C92.1045 129.373 90.5672 130.654 89.1152 131.85C88.2611 132.533 87.407 133.302 86.5529 133.985C85.4426 134.839 84.3323 135.694 83.1365 136.291C80.4889 137.573 77.4141 137.829 74.5956 136.975C71.8625 136.121 69.4711 134.242 68.0191 131.765C67.2504 130.484 66.738 129.032 66.4817 127.58C66.2255 125.957 66.3963 124.334 66.738 122.797C67.4212 119.295 68.7878 115.879 70.4106 112.718C72.2042 109.217 74.4248 106.057 76.9871 102.982C79.5494 99.9071 82.4533 97.0032 85.528 94.4409C88.5173 91.964 91.6775 89.7434 95.0084 87.8644C96.5458 87.0103 98.0832 86.2416 99.7059 85.5583C99.8768 85.4729 99.9622 85.8145 99.7059 85.9854Z" fill="white"/>
<path d="M76.3894 122.797C76.304 123.907 76.304 125.444 77.0726 126.384C77.7559 127.153 78.8662 127.153 79.8057 127.067C81.2577 126.896 82.7097 126.299 84.0762 125.701C85.8698 124.847 87.6634 123.907 89.3716 122.968C91.336 121.857 93.3004 120.747 95.2648 119.637C97.2292 118.526 99.279 117.416 101.243 116.391C103.037 115.452 104.916 114.597 106.88 114C108.418 113.487 110.041 113.06 111.663 113.06C112.347 113.06 113.03 113.145 113.628 113.402C114.824 113.829 115.934 114.17 117.215 114.341C119.521 114.683 121.998 114.512 124.219 113.658C126.012 112.975 127.635 111.779 128.831 110.327C129.856 108.96 130.539 107.338 130.539 105.629C130.624 103.921 130.026 102.213 128.916 100.932C127.464 99.2238 125.414 98.1989 123.279 97.5156C121.742 97.0885 120.119 96.7469 118.496 96.8323C117.386 96.9177 116.275 97.0885 115.165 97.0885C114.226 97.0885 113.286 97.0031 112.347 96.7469C110.553 96.2345 108.845 95.295 107.564 93.9284C106.624 92.9889 105.599 92.2202 104.404 91.7932C102.183 90.9391 99.7915 91.3661 97.6563 92.4764C95.0086 93.843 92.7879 95.9782 90.8235 98.1989C88.3467 100.932 86.2114 103.921 84.247 107.081C82.1118 110.412 80.2328 113.829 78.3538 117.331C77.5851 118.953 76.5602 120.747 76.3894 122.797C76.3894 123.053 75.9623 123.053 75.9623 122.797C76.0477 121.772 76.304 120.747 76.731 119.722C77.1581 118.782 77.5851 117.928 78.0976 116.989C79.0371 115.195 79.9766 113.402 81.0015 111.694C82.9659 108.277 85.0157 104.946 87.4072 101.701C89.457 98.9675 91.6776 96.3199 94.2399 94.1846C96.2043 92.5619 98.5104 91.1099 101.158 90.7683C103.635 90.512 105.941 91.5369 107.735 93.1597C108.418 93.843 109.101 94.4409 109.955 94.9533C110.809 95.4658 111.749 95.8928 112.688 96.149C113.628 96.4053 114.653 96.4907 115.678 96.4907C116.873 96.4053 118.069 96.2345 119.179 96.2345C120.034 96.2345 120.802 96.3199 121.656 96.4907C122.34 96.5761 123.023 96.7469 123.706 97.0031C124.902 97.3448 126.012 97.8572 127.037 98.4551C128.66 99.48 130.026 100.932 130.624 102.811C131.222 104.434 131.137 106.227 130.539 107.85C129.941 109.558 128.831 111.096 127.379 112.206C125.671 113.487 123.706 114.341 121.571 114.597C120.29 114.768 119.094 114.768 117.813 114.683C117.13 114.597 116.446 114.512 115.763 114.341C115.08 114.17 114.396 114 113.799 113.743C112.432 113.145 110.98 113.231 109.614 113.487C107.735 113.829 105.941 114.512 104.233 115.281C102.183 116.22 100.219 117.245 98.2541 118.27C96.2043 119.38 94.1545 120.576 92.1047 121.772C90.2257 122.882 88.2613 123.907 86.3823 124.932C84.8449 125.701 83.2221 126.469 81.5139 126.982C80.4036 127.323 79.037 127.58 77.9267 127.238C76.9018 126.896 76.304 125.957 76.1331 124.932C75.9623 124.163 75.9623 123.48 76.0477 122.711C75.9623 122.541 76.3894 122.541 76.3894 122.797Z" fill="white"/>
<path d="M86.6389 111.01C85.1016 113.231 83.308 115.366 82.2831 117.843C81.856 118.868 81.5998 120.064 82.1123 121.089C82.3685 121.686 82.9663 122.028 83.6496 121.943C84.1621 121.943 84.5037 121.686 84.8453 121.43C87.5784 119.637 90.1407 117.587 92.703 115.537C95.4361 113.231 98.1692 110.839 100.304 108.021C101.244 106.825 103.208 104.007 100.988 102.982C100.475 102.726 99.792 102.64 99.1941 102.555C98.7671 102.555 98.2546 102.469 97.8276 102.555C97.0589 102.64 96.2902 102.896 95.6069 103.238C92.6176 104.434 90.0553 106.654 88.0055 109.046C87.5784 109.729 87.1514 110.327 86.6389 111.01C86.4681 111.267 86.1265 111.01 86.2973 110.839C88.1763 108.106 90.5678 105.715 93.3863 104.007C94.7528 103.153 96.3756 102.469 97.9984 102.213C98.7671 102.128 99.7066 102.213 100.475 102.384C101.415 102.64 102.354 103.153 102.525 104.178C102.696 105.288 102.098 106.398 101.5 107.252C100.646 108.619 99.5357 109.9 98.34 111.096C96.9735 112.548 95.5215 113.829 93.9841 115.195C91.251 117.501 88.4325 119.722 85.4432 121.686C84.6745 122.199 83.9058 122.711 82.9663 122.37C81.856 122.028 81.429 120.832 81.429 119.722C81.429 118.441 82.0268 117.245 82.6247 116.135C83.308 114.854 84.1621 113.658 85.0162 112.462C85.4432 111.864 85.7849 111.352 86.2119 110.754C86.4681 110.583 86.8098 110.754 86.6389 111.01Z" fill="white"/>
</g>
</g>
</g>
</svg>
