<svg width="279" height="481" viewBox="0 0 279 481" fill="none" xmlns="http://www.w3.org/2000/svg">
<mask id="mask0_1_358" style="mask-type:alpha" maskUnits="userSpaceOnUse" x="0" y="0" width="279" height="481">
<rect width="279" height="481" rx="139.5" transform="matrix(1 0 0 -1 0 481)" fill="#4E59EB"/>
</mask>
<g mask="url(#mask0_1_358)">
<rect width="279" height="481" rx="139.5" transform="matrix(1 0 0 -1 0 481)" fill="#5CAF87"/>
<g opacity="0.7">
<g opacity="0.7">
<path opacity="0.7" d="M92.3883 470.857V495.839H6V456.029H78.3663C79.978 456.029 81.5897 456.352 83.0403 456.835C88.5201 458.93 92.3883 464.41 92.3883 470.857Z" fill="#6D75E7"/>
</g>
</g>
<path opacity="0.2" d="M98.9815 302.11C96.2416 302.11 93.5017 302.593 91.0841 303.722C88.5053 290.989 77.0621 281.319 63.5237 281.319C48.6958 281.319 36.6079 292.762 35.4797 307.267C32.7398 305.817 29.6775 305.011 26.2929 305.011C15.8167 305.011 7.27457 313.07 6.62988 323.385H39.1867H45.9559H77.868H88.0218H120.256C120.095 311.458 110.586 302.11 98.9815 302.11Z" fill="#F2F2F2"/>
<path opacity="0.2" d="M277.414 350.623V359.971H216.974C216.329 358.52 216.007 356.908 216.007 355.135C216.007 347.722 221.97 341.758 229.384 341.758C232.124 341.758 234.703 342.564 236.798 344.015C237.926 344.82 239.055 345.787 239.861 346.916C240.828 345.465 242.117 344.176 243.406 343.209C245.985 341.113 249.208 339.824 252.754 339.502C253.238 339.502 253.882 339.341 254.366 339.341C261.458 339.341 267.743 343.531 270.483 349.656C270.967 349.656 271.611 349.494 272.095 349.494C274.19 349.494 275.802 349.817 277.414 350.623Z" fill="#F2F2F2"/>
<mask id="mask1_1_358" style="mask-type:alpha" maskUnits="userSpaceOnUse" x="92" y="430" width="101" height="66">
<path d="M192.154 447.165V495.839H92.3887V447.165C92.3887 437.817 99.9638 430.242 109.312 430.242H175.231C184.579 430.242 192.154 437.817 192.154 447.165Z" fill="#A7D3B0"/>
</mask>
<g mask="url(#mask1_1_358)">
<path d="M192.154 447.165V495.839H92.3887V447.165C92.3887 437.817 99.9638 430.242 109.312 430.242H175.231C184.579 430.242 192.154 437.817 192.154 447.165Z" fill="#A7D3B0"/>
<g opacity="0.3">
<path d="M126.519 393.131C134.494 396.468 142.048 400.849 149.184 405.646C156.738 410.861 163.874 416.91 170.379 423.377C176.885 429.843 182.971 436.935 188.007 444.653C192.834 451.745 197.031 459.463 200.179 467.807C201.648 471.561 202.697 475.525 203.537 479.488C204.376 483.243 204.586 486.997 203.956 490.752C202.907 497.427 198.92 503.476 193.463 507.439C188.007 511.402 181.082 513.28 174.576 512.445C171.009 512.028 167.651 510.777 164.503 508.899C161.985 507.439 159.676 505.353 157.158 503.685C153.591 500.764 150.023 497.635 146.246 494.715C142.678 492.003 139.11 489.709 134.913 488.249C129.877 486.371 124.42 485.537 118.964 485.328C110.78 484.911 102.385 485.954 94.2009 486.997C89.5841 487.623 84.9672 488.666 80.1405 488.666C75.9433 488.666 71.7462 488.249 67.549 487.414C59.5744 485.537 51.8097 481.782 45.7239 476.359C39.4282 470.936 34.6014 463.844 31.6634 455.917C29.1451 448.825 28.0959 441.107 29.7747 433.806C31.6634 426.088 36.4901 419.413 42.9957 415.033C46.5633 412.53 50.5506 410.235 54.7477 408.984C58.9449 407.524 63.142 406.898 67.549 406.481C75.5236 405.646 84.1278 405.646 91.6826 402.935C93.3615 402.309 95.0404 401.683 96.7192 400.64C98.3981 399.597 99.8671 398.346 101.336 397.094C104.904 394.174 109.101 392.297 113.718 391.671C118.125 390.836 122.532 391.462 126.519 393.131C127.149 393.339 127.358 392.505 126.729 392.297C118.335 388.959 108.681 390.002 101.546 395.425C99.8671 396.677 98.3981 398.137 96.7192 399.389C95.0404 400.432 93.1516 401.266 91.4728 401.892C87.6954 403.143 83.4982 403.769 79.5109 404.186C70.9068 405.021 61.8829 405.229 53.6985 408.149C51.5999 408.984 49.7112 409.818 47.8224 410.861C45.9337 412.113 43.8351 413.156 41.9464 414.616C38.5887 417.119 35.8606 419.831 33.5521 423.377C29.355 429.634 27.886 437.144 28.5156 444.444C29.1451 452.371 32.0831 460.297 36.7 466.764C41.3169 473.647 47.8224 479.488 55.1675 483.243C62.5125 487.206 70.9068 489.292 79.3011 489.292C83.9179 489.292 88.5348 488.457 93.1516 487.832C97.9784 486.997 102.805 486.58 107.632 486.163C114.347 485.746 121.482 485.537 128.198 486.789C132.815 487.623 137.432 489.5 141.419 492.003C145.406 494.298 148.764 497.427 152.331 500.347C154.22 502.016 156.319 503.685 158.417 505.145C160.936 507.231 163.454 509.108 166.392 510.568C172.688 513.697 179.823 514.114 186.538 512.028C193.044 509.942 198.5 505.77 202.068 499.93C203.956 497.01 205.006 493.672 205.635 490.126C206.265 486.371 205.845 482.617 205.006 478.862C203.327 470.518 200.389 462.592 196.401 455.291C192.204 447.156 186.958 439.647 181.082 432.555C174.996 425.254 168.281 418.579 160.936 412.53C154.01 406.689 146.455 401.475 138.481 397.094C134.913 395.008 131.136 393.339 127.358 391.671C126.309 392.088 126.099 392.922 126.519 393.131Z" fill="white"/>
<path d="M181.136 480.138C181.345 482.913 181.345 486.328 179.469 488.676C177.803 490.383 175.302 490.597 173.218 490.383C169.676 489.956 166.342 488.462 163.217 486.968C159.049 485.047 154.882 482.699 150.714 480.351C146.13 477.79 141.546 475.015 136.962 472.454C132.378 469.679 127.793 467.118 123.001 464.77C118.834 462.636 114.458 460.501 109.874 459.007C106.331 457.726 102.372 456.659 98.6215 456.873C97.1629 456.873 95.4959 457.086 94.0373 457.727C91.3285 458.794 88.6197 459.434 85.7025 459.861C80.2849 460.715 74.6589 460.288 69.4496 458.367C65.2822 456.659 61.5315 453.885 58.6143 450.256C56.1138 447.054 54.6552 442.999 54.4468 438.944C54.2385 434.888 55.6971 430.833 58.1975 427.631C61.5315 423.576 66.324 421.014 71.3249 419.52C74.8672 418.453 78.6179 417.813 82.3686 418.026C84.869 418.24 87.5779 418.667 90.0783 418.667C92.162 418.667 94.4541 418.453 96.5378 417.813C100.705 416.746 104.664 414.398 107.79 411.196C109.874 409.062 112.374 407.141 115.291 406.073C120.501 404.153 126.127 405.22 130.919 407.568C137.17 410.769 142.379 415.892 146.964 421.228C152.59 427.845 157.591 434.888 162.175 442.359C167.176 450.256 171.551 458.58 175.927 466.905C178.428 470.96 180.72 475.015 181.136 480.138C181.136 480.778 182.178 480.778 182.178 480.138C181.97 477.577 181.345 475.229 180.303 472.881C179.47 470.746 178.219 468.612 177.177 466.478C175.094 462.209 172.802 457.94 170.51 453.885C165.925 445.774 161.133 437.663 155.507 430.192C150.714 423.789 145.713 417.386 139.462 412.263C134.878 408.421 129.46 404.793 123.418 404.153C117.583 403.512 112.166 405.86 107.998 409.915C106.331 411.41 104.664 412.904 102.789 414.184C100.914 415.465 98.6215 416.319 96.5378 416.959C94.2457 417.599 91.9537 417.813 89.6616 417.813C86.9527 417.599 84.2439 417.386 81.3267 417.172C79.4514 417.172 77.3677 417.386 75.4923 417.813C73.8254 418.026 72.1584 418.453 70.6998 419.093C67.991 419.947 65.2821 421.014 62.9901 422.722C59.2394 425.07 56.1138 428.698 54.6552 432.967C53.405 436.809 53.405 441.078 54.8636 444.92C56.3222 448.975 59.031 452.604 62.3649 455.379C66.324 458.58 70.9082 460.501 75.9091 461.142C78.8263 461.568 81.7435 461.568 84.6606 461.355C86.3276 461.142 87.7862 460.928 89.4532 460.501C90.9118 460.074 92.5787 459.861 94.0373 459.221C97.1629 457.94 100.705 458.153 103.831 458.58C108.207 459.434 112.374 461.142 116.333 462.849C121.126 464.984 125.71 467.545 130.294 470.106C135.086 472.881 139.879 475.656 144.672 478.43C149.047 480.992 153.632 483.553 158.007 485.901C161.758 487.822 165.509 489.743 169.468 490.81C172.177 491.664 175.094 492.304 177.803 491.45C180.303 490.597 181.553 488.462 182.178 485.901C182.595 484.193 182.595 482.272 182.387 480.565C181.97 479.498 180.928 479.498 181.136 480.138Z" fill="white"/>
<path d="M157.208 451.727C160.747 456.901 165.118 461.661 167.2 467.662C168.032 469.939 168.657 472.836 167.616 475.319C166.992 476.561 165.534 477.389 164.077 477.389C163.037 477.389 162.204 476.768 161.163 476.147C154.71 472.008 148.674 467.248 142.846 462.488C136.393 457.315 130.148 451.727 124.944 445.105C122.863 442.208 118.283 435.792 123.279 433.309C124.528 432.688 125.985 432.481 127.442 432.274C128.483 432.274 129.524 432.067 130.564 432.274C132.438 432.481 134.103 433.102 135.768 433.723C142.637 436.62 148.674 441.587 153.461 447.174C155.127 448.623 156.167 450.072 157.208 451.727C157.625 452.141 158.457 451.727 158.041 451.313C153.67 445.105 148.049 439.517 141.388 435.585C138.058 433.516 134.519 431.86 130.564 431.447C128.691 431.24 126.609 431.447 124.944 431.86C122.654 432.481 120.573 433.723 120.157 435.999C119.74 438.483 121.197 441.173 122.446 443.036C124.528 446.347 127.026 449.037 129.732 451.934C133.062 455.245 136.393 458.35 139.931 461.247C146.176 466.627 152.837 471.801 159.706 476.354C161.371 477.596 163.245 478.63 165.326 478.009C168.032 477.182 168.865 474.491 168.865 471.801C168.865 468.904 167.408 466.007 166.159 463.523C164.494 460.626 162.62 457.729 160.539 455.038C159.706 453.797 158.665 452.555 157.833 451.106C157.833 450.693 157 451.106 157.208 451.727Z" fill="white"/>
</g>
</g>
<path d="M255.978 413.802V495.839H214.073V413.802C214.073 408.161 216.169 403.165 219.714 399.458C222.132 396.879 225.355 394.945 228.74 393.817C230.674 393.172 232.769 392.85 234.865 392.85C236.96 392.85 239.055 393.172 240.989 393.817C244.213 394.784 247.275 396.718 249.531 398.974C249.692 399.136 249.854 399.297 250.015 399.458C253.883 403.165 255.978 408.161 255.978 413.802Z" fill="#F3AFAE"/>
<path d="M277.414 444.908V496H154.117C155.084 482.462 161.047 470.212 170.073 461.187C176.198 455.062 183.773 450.388 192.154 447.648C197.472 445.875 203.113 445.07 209.077 445.07H277.414V444.908Z" fill="#FEDE8C"/>
<path d="M72.7256 425.729H70.7915V395.912L79.4948 391.883L80.3007 393.817L72.7256 397.201V425.729Z" fill="#464B9C"/>
<path d="M221.326 393.011L205.692 384.308L206.82 382.535L207.949 383.341L222.454 391.399L221.809 392.205L221.326 393.011Z" fill="#464B9C"/>
<path d="M230.835 384.791L225.355 359.648L238.249 340.308L239.539 341.758L227.612 359.971L232.931 384.469L230.835 384.791Z" fill="#464B9C"/>
<path d="M196.828 270.52L177.004 249.729L161.692 261.172L146.864 246.344L148.315 245.055L161.853 258.593L177.165 246.989L198.439 269.231L196.828 270.52Z" fill="#464B9C"/>
<path d="M195.815 289.684L181.638 301.371L182.971 302.988L197.148 291.3L195.815 289.684Z" fill="#464B9C"/>
<path d="M71.7585 368.674H48.2274V370.769H71.7585V368.674Z" fill="#464B9C"/>
<path d="M88.0366 310.491L87.0696 309.363L61.6044 279.868L63.2161 278.579L89.6484 309.04L88.0366 310.491Z" fill="#464B9C"/>
<path d="M104.794 262.009L73.5318 292.279L74.9892 293.784L106.251 263.514L104.794 262.009Z" fill="#464B9C"/>
<path d="M208.11 297.113C199.084 297.113 191.831 289.861 191.831 280.835C191.831 271.809 199.084 264.557 208.11 264.557C217.135 264.557 224.388 271.809 224.388 280.835C224.388 289.861 217.135 297.113 208.11 297.113ZM208.11 266.652C200.212 266.652 193.926 273.099 193.926 280.835C193.926 288.732 200.373 295.018 208.11 295.018C216.007 295.018 222.293 288.571 222.293 280.835C222.293 273.099 216.007 266.652 208.11 266.652Z" fill="#464B9C"/>
<path d="M235.026 415.736C226 415.736 218.747 408.483 218.747 399.458C218.747 390.432 226 383.179 235.026 383.179C244.051 383.179 251.304 390.432 251.304 399.458C251.304 408.483 244.051 415.736 235.026 415.736ZM235.026 385.275C227.128 385.275 220.842 391.722 220.842 399.458C220.842 407.355 227.289 413.641 235.026 413.641C242.923 413.641 249.209 407.194 249.209 399.458C249.37 391.722 242.923 385.275 235.026 385.275Z" fill="#464B9C"/>
<path d="M38.3953 380.762C32.2707 380.762 27.4356 375.765 27.4356 369.802C27.4356 363.678 32.4319 358.842 38.3953 358.842C44.5198 358.842 49.355 363.839 49.355 369.802C49.355 375.765 44.3587 380.762 38.3953 380.762ZM38.3953 360.776C33.3989 360.776 29.3696 364.806 29.3696 369.802C29.3696 374.798 33.3989 378.667 38.3953 378.667C43.3916 378.667 47.4209 374.637 47.4209 369.641C47.4209 364.645 43.2304 360.776 38.3953 360.776Z" fill="#464B9C"/>
<path d="M245.018 344.176C238.894 344.176 234.059 339.179 234.059 333.216C234.059 327.092 239.055 322.256 245.018 322.256C251.143 322.256 255.978 327.253 255.978 333.216C256.139 339.179 251.143 344.176 245.018 344.176ZM245.018 324.19C240.022 324.19 235.993 328.22 235.993 333.216C235.993 338.212 240.022 342.242 245.018 342.242C250.015 342.242 254.044 338.212 254.044 333.216C254.044 328.22 250.015 324.19 245.018 324.19Z" fill="#464B9C"/>
<path d="M112.696 266.652C106.571 266.652 101.736 261.656 101.736 255.692C101.736 249.568 106.732 244.733 112.696 244.733C118.82 244.733 123.656 249.729 123.656 255.692C123.656 261.817 118.82 266.652 112.696 266.652ZM112.696 246.667C107.699 246.667 103.67 250.696 103.67 255.692C103.67 260.689 107.699 264.718 112.696 264.718C117.692 264.718 121.721 260.689 121.721 255.692C121.721 250.696 117.692 246.667 112.696 246.667Z" fill="#464B9C"/>
<path d="M71.7581 440.557C67.4064 440.557 63.8607 437.011 63.8607 432.659C63.8607 428.308 67.4064 424.762 71.7581 424.762C76.1097 424.762 79.6555 428.308 79.6555 432.659C79.6555 437.011 76.1097 440.557 71.7581 440.557ZM71.7581 426.696C68.5346 426.696 65.7947 429.275 65.7947 432.659C65.7947 436.044 68.3735 438.623 71.7581 438.623C74.9815 438.623 77.7215 436.044 77.7215 432.659C77.7215 429.275 74.9815 426.696 71.7581 426.696Z" fill="#464B9C"/>
<path d="M57.8971 281.963C53.5455 281.963 49.9997 278.418 49.9997 274.066C49.9997 269.714 53.5455 266.168 57.8971 266.168C62.2488 266.168 65.7946 269.714 65.7946 274.066C65.7946 278.418 62.2488 281.963 57.8971 281.963ZM57.8971 268.103C54.6737 268.103 51.9338 270.681 51.9338 274.066C51.9338 277.289 54.5125 280.029 57.8971 280.029C61.1206 280.029 63.8605 277.451 63.8605 274.066C63.8605 270.681 61.1206 268.103 57.8971 268.103Z" fill="#464B9C"/>
<path d="M144.447 247.795C140.095 247.795 136.549 244.249 136.549 239.897C136.549 235.546 140.095 232 144.447 232C148.799 232 152.344 235.546 152.344 239.897C152.344 244.249 148.799 247.795 144.447 247.795ZM144.447 234.095C141.223 234.095 138.483 236.674 138.483 240.059C138.483 243.443 141.062 246.022 144.447 246.022C147.67 246.022 150.41 243.443 150.41 240.059C150.41 236.674 147.67 234.095 144.447 234.095Z" fill="#464B9C"/>
<path d="M215.04 280.835C215.04 284.703 211.978 287.766 208.11 287.766C204.242 287.766 201.18 284.703 201.18 280.835C201.18 276.967 204.242 273.905 208.11 273.905C211.978 273.905 215.04 277.128 215.04 280.835Z" fill="#FEDE8C"/>
<path d="M45.1652 369.802C45.1652 373.67 42.1029 376.733 38.2348 376.733C34.3666 376.733 31.3044 373.67 31.3044 369.802C31.3044 365.934 34.3666 362.872 38.2348 362.872C42.1029 362.872 45.1652 365.934 45.1652 369.802Z" fill="#FEDE8C"/>
<path d="M243.568 399.619C243.568 404.293 239.861 408 235.187 408C230.513 408 226.806 404.293 226.806 399.619C226.806 394.945 230.513 391.238 235.187 391.238C239.7 391.077 243.568 394.945 243.568 399.619Z" fill="#FEDE8C"/>
<g opacity="0.8">
<g opacity="0.8">
<path d="M211.495 358.359C211.495 369.157 209.077 379.311 204.887 388.337C201.019 396.718 195.539 404.132 188.931 410.417C176.037 422.505 158.792 429.919 139.773 429.919C118.821 429.919 100.125 421.055 87.0702 406.711C75.3046 393.978 68.213 376.894 68.213 358.359C68.213 318.872 100.286 286.798 139.773 286.798C159.114 286.798 176.843 294.535 189.737 307.106C203.114 320 211.495 338.212 211.495 358.359Z" fill="#09329A"/>
</g>
</g>
<path d="M204.886 388.337C201.018 396.718 195.538 404.132 188.93 410.418C188.286 409.289 187.48 408.484 186.029 408C182.483 406.872 180.066 410.256 176.681 408.806C174.264 407.839 172.329 404.615 172.813 402.198C173.458 399.297 176.036 398.974 179.582 394.784C181.839 392.205 178.615 385.919 180.549 383.018C184.74 376.41 193.282 375.766 198.278 379.795C199.406 380.762 201.018 381.89 202.308 384.469C203.275 386.081 203.758 387.531 204.886 388.337Z" fill="#FFBE99"/>
<mask id="mask2_1_358" style="mask-type:alpha" maskUnits="userSpaceOnUse" x="68" y="286" width="122" height="121">
<path d="M189.736 306.945C189.736 309.363 189.092 312.264 187.158 313.875C184.418 315.971 179.905 314.681 179.26 316.454C178.938 317.421 180.388 318.227 181.678 319.839C182.967 321.451 185.546 324.19 186.513 327.414C187.802 332.088 185.707 339.663 182.484 340.63C179.905 341.436 177.971 338.696 176.037 339.824C174.103 340.952 174.586 344.82 174.586 345.304C175.07 349.333 177.326 349.494 177.326 352.718C177.326 355.135 175.714 357.07 173.78 357.553C172.007 357.875 173.458 355.458 172.007 354.007C168.623 350.461 169.59 349.011 167.011 347.238C164.11 345.143 159.114 348.85 156.212 346.593C153.795 344.659 154.44 342.725 152.505 341.919C149.443 340.63 146.22 342.725 144.769 344.015C142.835 345.787 142.513 346.432 141.868 349.494C141.062 353.846 140.418 358.52 138.967 359.971C138.322 360.938 136.549 362.227 135.421 360.938C132.359 357.07 132.037 353.846 130.103 347.722C126.879 337.729 124.623 334.989 121.077 333.7C118.821 333.055 118.337 334.344 114.469 333.7C111.89 333.216 110.117 332.249 106.571 330.476C102.381 328.22 100.769 326.93 100.125 327.414C99.4798 327.897 100.286 330.154 101.253 331.604C103.509 335.15 106.571 334.828 107.377 337.245C108.344 340.146 104.799 343.37 104.476 343.692C102.059 345.949 97.8681 347.399 95.4505 345.787C93.3553 344.337 94.3223 342.081 92.0659 337.568C91.4212 336.44 88.8425 331.443 86.7472 331.766C83.685 332.249 80.6227 345.143 85.7802 350.623C88.5201 353.524 95.6117 354.168 97.0623 357.553C98.1905 360.293 95.7729 361.905 93.8388 363.678C90.4542 366.901 87.2308 366.418 85.1355 370.608C84.0073 373.026 84.0073 375.604 84.1685 376.894C84.3297 380.762 84.9743 380.44 84.652 383.663C84.3297 386.242 83.8461 387.531 83.3626 389.949C82.7179 393.172 84.652 394.784 85.9414 399.297C86.5861 401.392 87.0696 404.293 86.9084 406.711C75.1428 393.978 68.0513 376.894 68.0513 358.359C68.0513 318.872 100.125 286.798 139.612 286.798C159.275 286.637 176.842 294.374 189.736 306.945Z" fill="#F3ECA7"/>
</mask>
<g mask="url(#mask2_1_358)">
<path d="M189.736 306.945C189.736 309.363 189.092 312.264 187.158 313.875C184.418 315.971 179.905 314.681 179.26 316.454C178.938 317.421 180.388 318.227 181.678 319.839C182.967 321.451 185.546 324.19 186.513 327.414C187.802 332.088 185.707 339.663 182.484 340.63C179.905 341.436 177.971 338.696 176.037 339.824C174.103 340.952 174.586 344.82 174.586 345.304C175.07 349.333 177.326 349.494 177.326 352.718C177.326 355.135 175.714 357.07 173.78 357.553C172.007 357.875 173.458 355.458 172.007 354.007C168.623 350.461 169.59 349.011 167.011 347.238C164.11 345.143 159.114 348.85 156.212 346.593C153.795 344.659 154.44 342.725 152.505 341.919C149.443 340.63 146.22 342.725 144.769 344.015C142.835 345.787 142.513 346.432 141.868 349.494C141.062 353.846 140.418 358.52 138.967 359.971C138.322 360.938 136.549 362.227 135.421 360.938C132.359 357.07 132.037 353.846 130.103 347.722C126.879 337.729 124.623 334.989 121.077 333.7C118.821 333.055 118.337 334.344 114.469 333.7C111.89 333.216 110.117 332.249 106.571 330.476C102.381 328.22 100.769 326.93 100.125 327.414C99.4798 327.897 100.286 330.154 101.253 331.604C103.509 335.15 106.571 334.828 107.377 337.245C108.344 340.146 104.799 343.37 104.476 343.692C102.059 345.949 97.8681 347.399 95.4505 345.787C93.3553 344.337 94.3223 342.081 92.0659 337.568C91.4212 336.44 88.8425 331.443 86.7472 331.766C83.685 332.249 80.6227 345.143 85.7802 350.623C88.5201 353.524 95.6117 354.168 97.0623 357.553C98.1905 360.293 95.7729 361.905 93.8388 363.678C90.4542 366.901 87.2308 366.418 85.1355 370.608C84.0073 373.026 84.0073 375.604 84.1685 376.894C84.3297 380.762 84.9743 380.44 84.652 383.663C84.3297 386.242 83.8461 387.531 83.3626 389.949C82.7179 393.172 84.652 394.784 85.9414 399.297C86.5861 401.392 87.0696 404.293 86.9084 406.711C75.1428 393.978 68.0513 376.894 68.0513 358.359C68.0513 318.872 100.125 286.798 139.612 286.798C159.275 286.637 176.842 294.374 189.736 306.945Z" fill="#FFBE99"/>
<g opacity="0.07">
<path d="M116.519 253.131C124.494 256.468 132.048 260.849 139.184 265.646C146.738 270.861 153.874 276.91 160.379 283.377C166.885 289.843 172.971 296.935 178.007 304.653C182.834 311.745 187.031 319.463 190.179 327.807C191.648 331.561 192.697 335.525 193.537 339.488C194.376 343.243 194.586 346.997 193.956 350.752C192.907 357.427 188.92 363.476 183.463 367.439C178.007 371.402 171.082 373.28 164.576 372.445C161.009 372.028 157.651 370.777 154.503 368.899C151.985 367.439 149.676 365.353 147.158 363.685C143.591 360.764 140.023 357.635 136.246 354.715C132.678 352.003 129.11 349.709 124.913 348.249C119.877 346.371 114.42 345.537 108.964 345.328C100.78 344.911 92.3854 345.954 84.2009 346.997C79.5841 347.623 74.9672 348.666 70.1405 348.666C65.9433 348.666 61.7462 348.249 57.549 347.414C49.5744 345.537 41.8097 341.782 35.7239 336.359C29.4282 330.936 24.6014 323.844 21.6634 315.917C19.1451 308.825 18.0959 301.107 19.7747 293.806C21.6634 286.088 26.4901 279.413 32.9957 275.033C36.5633 272.53 40.5506 270.235 44.7477 268.984C48.9449 267.524 53.142 266.898 57.549 266.481C65.5236 265.646 74.1278 265.646 81.6826 262.935C83.3615 262.309 85.0404 261.683 86.7192 260.64C88.3981 259.597 89.8671 258.346 91.3361 257.094C94.9036 254.174 99.1008 252.297 103.718 251.671C108.125 250.836 112.532 251.462 116.519 253.131C117.149 253.339 117.358 252.505 116.729 252.297C108.335 248.959 98.6811 250.002 91.5459 255.425C89.8671 256.677 88.3981 258.137 86.7192 259.389C85.0404 260.432 83.1516 261.266 81.4728 261.892C77.6954 263.143 73.4982 263.769 69.5109 264.186C60.9068 265.021 51.8829 265.229 43.6985 268.149C41.5999 268.984 39.7112 269.818 37.8224 270.861C35.9337 272.113 33.8351 273.156 31.9464 274.616C28.5887 277.119 25.8606 279.831 23.5521 283.377C19.355 289.634 17.886 297.144 18.5156 304.444C19.1451 312.371 22.0831 320.297 26.7 326.764C31.3169 333.647 37.8224 339.488 45.1675 343.243C52.5125 347.206 60.9068 349.292 69.3011 349.292C73.9179 349.292 78.5348 348.457 83.1516 347.832C87.9784 346.997 92.8051 346.58 97.6318 346.163C104.347 345.746 111.482 345.537 118.198 346.789C122.815 347.623 127.432 349.5 131.419 352.003C135.406 354.298 138.764 357.427 142.331 360.347C144.22 362.016 146.319 363.685 148.417 365.145C150.936 367.231 153.454 369.108 156.392 370.568C162.688 373.697 169.823 374.114 176.538 372.028C183.044 369.942 188.5 365.77 192.068 359.93C193.956 357.01 195.006 353.672 195.635 350.126C196.265 346.371 195.845 342.617 195.006 338.862C193.327 330.518 190.389 322.592 186.401 315.291C182.204 307.156 176.958 299.647 171.082 292.555C164.996 285.254 158.281 278.579 150.936 272.53C144.01 266.689 136.455 261.475 128.481 257.094C124.913 255.008 121.136 253.339 117.358 251.671C116.309 252.088 116.099 252.922 116.519 253.131Z" fill="black"/>
<path d="M171.136 340.138C171.345 342.913 171.345 346.328 169.469 348.676C167.803 350.383 165.302 350.597 163.218 350.383C159.676 349.956 156.342 348.462 153.217 346.968C149.049 345.047 144.882 342.699 140.714 340.351C136.13 337.79 131.546 335.015 126.962 332.454C122.378 329.679 117.793 327.118 113.001 324.77C108.834 322.636 104.458 320.501 99.8736 319.007C96.3313 317.726 92.3722 316.659 88.6215 316.873C87.1629 316.873 85.4959 317.086 84.0373 317.727C81.3285 318.794 78.6197 319.434 75.7025 319.861C70.2849 320.715 64.6589 320.288 59.4496 318.367C55.2822 316.659 51.5315 313.885 48.6143 310.256C46.1138 307.054 44.6552 302.999 44.4468 298.944C44.2385 294.888 45.6971 290.833 48.1975 287.631C51.5315 283.576 56.324 281.014 61.3249 279.52C64.8672 278.453 68.6179 277.813 72.3686 278.026C74.869 278.24 77.5779 278.667 80.0783 278.667C82.162 278.667 84.4541 278.453 86.5378 277.813C90.7052 276.746 94.6643 274.398 97.7899 271.196C99.8736 269.062 102.374 267.141 105.291 266.073C110.501 264.153 116.127 265.22 120.919 267.568C127.17 270.769 132.379 275.892 136.964 281.228C142.59 287.845 147.591 294.888 152.175 302.359C157.176 310.256 161.551 318.58 165.927 326.905C168.428 330.96 170.72 335.015 171.136 340.138C171.136 340.778 172.178 340.778 172.178 340.138C171.97 337.577 171.345 335.229 170.303 332.881C169.47 330.746 168.219 328.612 167.177 326.478C165.094 322.209 162.802 317.94 160.51 313.885C155.925 305.774 151.133 297.663 145.507 290.192C140.714 283.789 135.713 277.386 129.462 272.263C124.878 268.421 119.46 264.793 113.418 264.153C107.583 263.512 102.166 265.86 97.9982 269.915C96.3313 271.41 94.6643 272.904 92.789 274.184C90.9136 275.465 88.6215 276.319 86.5378 276.959C84.2457 277.599 81.9537 277.813 79.6616 277.813C76.9527 277.599 74.2439 277.386 71.3267 277.172C69.4514 277.172 67.3677 277.386 65.4923 277.813C63.8254 278.026 62.1584 278.453 60.6998 279.093C57.991 279.947 55.2821 281.014 52.9901 282.722C49.2394 285.07 46.1138 288.698 44.6552 292.967C43.405 296.809 43.405 301.078 44.8636 304.92C46.3222 308.975 49.031 312.604 52.3649 315.379C56.324 318.58 60.9082 320.501 65.9091 321.142C68.8263 321.568 71.7435 321.568 74.6606 321.355C76.3276 321.142 77.7862 320.928 79.4532 320.501C80.9118 320.074 82.5787 319.861 84.0373 319.221C87.1629 317.94 90.7052 318.153 93.8308 318.58C98.2066 319.434 102.374 321.142 106.333 322.849C111.126 324.984 115.71 327.545 120.294 330.106C125.086 332.881 129.879 335.656 134.672 338.43C139.047 340.992 143.632 343.553 148.007 345.901C151.758 347.822 155.509 349.743 159.468 350.81C162.177 351.664 165.094 352.304 167.803 351.45C170.303 350.597 171.553 348.462 172.178 345.901C172.595 344.193 172.595 342.272 172.387 340.565C171.97 339.498 170.928 339.498 171.136 340.138Z" fill="black"/>
<path d="M147.208 311.727C150.747 316.901 155.118 321.661 157.2 327.662C158.032 329.939 158.657 332.836 157.616 335.319C156.992 336.561 155.534 337.389 154.077 337.389C153.037 337.389 152.204 336.768 151.163 336.147C144.71 332.008 138.674 327.248 132.846 322.488C126.393 317.315 120.148 311.727 114.944 305.105C112.863 302.208 108.283 295.792 113.279 293.309C114.528 292.688 115.985 292.481 117.442 292.274C118.483 292.274 119.524 292.067 120.564 292.274C122.438 292.481 124.103 293.102 125.768 293.723C132.637 296.62 138.674 301.587 143.461 307.174C145.127 308.623 146.167 310.072 147.208 311.727C147.625 312.141 148.457 311.727 148.041 311.313C143.67 305.105 138.049 299.517 131.388 295.585C128.058 293.516 124.519 291.86 120.564 291.447C118.691 291.24 116.609 291.447 114.944 291.86C112.654 292.481 110.573 293.723 110.157 295.999C109.74 298.483 111.197 301.173 112.446 303.036C114.528 306.347 117.026 309.037 119.732 311.934C123.062 315.245 126.393 318.35 129.931 321.247C136.176 326.627 142.837 331.801 149.706 336.354C151.371 337.596 153.245 338.63 155.326 338.009C158.032 337.182 158.865 334.491 158.865 331.801C158.865 328.904 157.408 326.007 156.159 323.523C154.494 320.626 152.62 317.729 150.539 315.038C149.706 313.797 148.665 312.555 147.833 311.106C147.833 310.693 147 311.106 147.208 311.727Z" fill="black"/>
</g>
</g>
<path d="M141.707 361.099C141.223 361.099 140.579 362.872 140.579 363.033C140.095 364.806 140.095 364.806 140.74 365.934C141.062 366.418 142.029 367.062 142.352 366.579C142.513 366.256 142.996 366.256 142.835 364.322C142.835 363.033 142.835 363.033 142.513 362.227C142.352 361.582 141.868 361.26 141.707 361.099Z" fill="#F3ECA7"/>
<path d="M224.115 326.823C224.115 339.568 234.481 349.764 247.056 349.764C259.801 349.764 269.997 339.398 269.997 326.823C269.997 314.078 259.631 303.882 247.056 303.882C234.481 303.882 224.115 314.248 224.115 326.823Z" fill="#FFE8AE"/>
<path d="M229.555 326.823C229.555 336.679 237.542 344.496 247.228 344.496C256.914 344.496 264.901 336.509 264.901 326.823C264.901 316.967 256.914 309.15 247.228 309.15C237.542 309.15 229.555 317.137 229.555 326.823Z" fill="#FECC4D"/>
</g>
</svg>
