<svg width="1234" height="680" viewBox="0 0 1234 680" fill="none" xmlns="http://www.w3.org/2000/svg">
<path d="M0 40C0 17.9086 17.9086 0 40 0H1194C1216.09 0 1234 17.9086 1234 40V640C1234 662.091 1216.09 680 1194 680H40C17.9086 680 0 662.091 0 640V40Z" fill="#FFECE0"/>
<mask id="mask0_32_224" style="mask-type:alpha" maskUnits="userSpaceOnUse" x="0" y="0" width="1234" height="680">
<path d="M0 40C0 17.9086 17.9086 0 40 0H1194C1216.09 0 1234 17.9086 1234 40V640C1234 662.091 1216.09 680 1194 680H40C17.9086 680 0 662.091 0 640V40Z" fill="#FFECE0"/>
</mask>
<g mask="url(#mask0_32_224)">
<mask id="mask1_32_224" style="mask-type:alpha" maskUnits="userSpaceOnUse" x="-29" y="0" width="79" height="79">
<path d="M-28.9761 39.3C-28.9761 60.9665 -11.4215 78.6001 10.324 78.6001C31.9904 78.6001 49.624 61.0455 49.624 39.3C49.624 17.5546 31.9904 0 10.324 0C-11.4215 0 -28.9761 17.5546 -28.9761 39.3Z" fill="#FEDE8C"/>
</mask>
<g mask="url(#mask1_32_224)">
<path d="M-28.9761 39.3C-28.9761 60.9665 -11.4215 78.6001 10.324 78.6001C31.9904 78.6001 49.624 61.0455 49.624 39.3C49.624 17.5546 31.9904 0 10.324 0C-11.4215 0 -28.9761 17.5546 -28.9761 39.3Z" fill="#FFC839"/>
<g opacity="0.5">
<path d="M97.3849 84.2602L86.0146 83.6166L0.737373 -1.66064L12.1077 -1.01704L97.3849 84.2602Z" fill="white"/>
<path d="M78.2916 84.2602L66.9213 83.6166L-18.4633 -1.66064L-7.09298 -1.01704L78.2916 84.2602Z" fill="white"/>
<path d="M57.6963 84.2602L46.326 83.6166L-38.9513 -1.66064L-27.581 -1.01704L57.6963 84.2602Z" fill="white"/>
<path d="M40.3188 86.1912L28.9485 85.5476L-56.3288 0.163086L-45.0658 0.913954L40.3188 86.1912Z" fill="white"/>
<path d="M21.1182 86.1912L9.74786 85.5476L-75.5294 0.163086L-64.1591 0.913954L21.1182 86.1912Z" fill="white"/>
<path d="M0.629761 86.1912L-10.7405 85.5476L-96.0178 0.163086L-84.7548 0.913954L0.629761 86.1912Z" fill="white"/>
</g>
</g>
<path d="M-0.394226 173C32.2722 173 58.624 199.463 58.624 231.996C58.624 264.528 32.1508 290.991 -0.394226 290.991V173Z" fill="#A7DFFF"/>
<path d="M38.1987 240.015C42.6006 240.015 46.1465 237.047 46.1465 233.364V19H30.2509V233.364C30.2509 237.047 33.7969 240.015 38.1987 240.015Z" stroke="#2D76F9" stroke-miterlimit="10"/>
<path d="M79.5508 681.979H-27.4298V590.857H32.5031C46.5778 590.857 59.1988 597.002 67.7889 606.782C52.2605 611.738 41.0272 626.275 41.0272 643.455C41.0272 664.733 58.2736 681.979 79.5508 681.979Z" fill="#A7D3B0"/>
<mask id="mask2_32_224" style="mask-type:alpha" maskUnits="userSpaceOnUse" x="-53" y="589" width="153" height="107">
<g opacity="0.8">
<path d="M15.2632 591.898C8.40881 594.767 1.91519 598.532 -4.21767 602.655C-10.7113 607.138 -16.8441 612.337 -22.4359 617.895C-28.0276 623.453 -33.2586 629.549 -37.5877 636.183C-41.7364 642.279 -45.3439 648.912 -48.0496 656.084C-49.3123 659.311 -50.2141 662.718 -50.9357 666.124C-51.6572 669.352 -51.8376 672.579 -51.2964 675.806C-50.3945 681.543 -46.9673 686.743 -42.2775 690.149C-37.5877 693.556 -31.6352 695.169 -26.0434 694.452C-22.977 694.094 -20.091 693.018 -17.3853 691.404C-15.2208 690.149 -13.2366 688.356 -11.0721 686.922C-8.00563 684.412 -4.93917 681.723 -1.69236 679.213C1.37407 676.882 4.44049 674.91 8.04806 673.655C12.3771 672.041 17.067 671.324 21.7568 671.144C28.7916 670.786 36.0067 671.682 43.0415 672.579C47.0098 673.117 50.9781 674.013 55.1268 674.013C58.7344 674.013 62.342 673.655 65.9495 672.937C72.8039 671.324 79.4779 668.096 84.7089 663.435C90.1202 658.773 94.2689 652.678 96.7942 645.864C98.9587 639.769 99.8606 633.135 98.4176 626.86C96.7942 620.226 92.6455 614.489 87.0538 610.724C83.9874 608.572 80.5602 606.6 76.9526 605.524C73.345 604.269 69.7375 603.731 65.9495 603.373C59.0951 602.655 51.6996 602.655 45.206 600.325C43.763 599.787 42.3199 599.249 40.8769 598.352C39.4339 597.456 38.1712 596.38 36.9086 595.305C33.8422 592.794 30.2346 591.181 26.2663 590.643C22.4783 589.926 18.6904 590.464 15.2632 591.898C14.7221 592.077 14.5417 591.36 15.0828 591.181C22.2979 588.312 30.5953 589.209 36.7282 593.87C38.1712 594.946 39.4339 596.201 40.8769 597.277C42.3199 598.173 43.9433 598.89 45.3864 599.428C48.6332 600.504 52.2407 601.042 55.6679 601.4C63.0634 602.118 70.8197 602.297 77.8545 604.807C79.6583 605.524 81.2817 606.241 82.9051 607.138C84.5285 608.213 86.3323 609.11 87.9557 610.365C90.8417 612.516 93.1867 614.847 95.1708 617.895C98.7784 623.274 100.041 629.728 99.4999 636.003C98.9587 642.817 96.4335 649.63 92.4651 655.188C88.4968 661.104 82.9051 666.124 76.5918 669.352C70.2786 672.758 63.0635 674.551 55.8483 674.551C51.88 674.551 47.9117 673.834 43.9433 673.296C39.7946 672.579 35.6459 672.22 31.4972 671.862C25.7251 671.503 19.5923 671.324 13.8202 672.399C9.85184 673.117 5.88351 674.73 2.45632 676.882C-0.970871 678.854 -3.85692 681.543 -6.92336 684.053C-8.54676 685.488 -10.3505 686.922 -12.1543 688.177C-14.3189 689.97 -16.4834 691.584 -19.0087 692.839C-24.42 695.528 -30.5529 695.887 -36.325 694.094C-41.9168 692.301 -46.6066 688.715 -49.673 683.695C-51.2964 681.185 -52.1983 678.316 -52.7394 675.268C-53.2806 672.041 -52.9198 668.814 -52.1983 665.586C-50.7553 658.415 -48.23 651.602 -44.8028 645.327C-41.1952 638.334 -36.6858 631.88 -31.6352 625.784C-26.4042 619.509 -20.6321 613.771 -14.3188 608.572C-8.36636 603.552 -1.87275 599.07 4.98163 595.305C8.04807 593.512 11.2949 592.077 14.5417 590.643C15.4436 591.002 15.6239 591.719 15.2632 591.898Z" fill="white"/>
<path d="M-31.6822 666.683C-31.8613 669.068 -31.8613 672.003 -30.2494 674.021C-28.8166 675.489 -26.6674 675.673 -24.8764 675.489C-21.8316 675.122 -18.966 673.838 -16.2795 672.554C-12.6975 670.903 -9.11549 668.885 -5.53348 666.866C-1.59325 664.665 2.34698 662.28 6.28719 660.078C10.2274 657.694 14.1676 655.492 18.2869 653.474C21.869 651.639 25.6301 649.805 29.5703 648.521C32.615 647.42 36.0179 646.502 39.2417 646.686C40.4954 646.686 41.9283 646.869 43.182 647.42C45.5103 648.337 47.8386 648.887 50.346 649.254C55.0026 649.988 59.8383 649.621 64.3159 647.97C67.8979 646.502 71.1217 644.117 73.6291 640.999C75.7783 638.247 77.0321 634.761 77.2112 631.275C77.3903 627.79 76.1365 624.304 73.9873 621.552C71.1217 618.066 67.0024 615.865 62.704 614.58C59.6593 613.663 56.4354 613.113 53.2116 613.296C51.0624 613.48 48.7341 613.847 46.5849 613.847C44.7939 613.847 42.8238 613.663 41.0328 613.113C37.4507 612.196 34.0478 610.177 31.3613 607.426C29.5703 605.591 27.4211 603.94 24.9137 603.023C20.4361 601.371 15.6004 602.289 11.4811 604.307C6.10809 607.059 1.63057 611.462 -2.30965 616.048C-7.14538 621.735 -11.4438 627.79 -15.384 634.211C-19.6824 640.999 -23.4436 648.154 -27.2047 655.309C-29.3539 658.794 -31.324 662.28 -31.6822 666.683C-31.6822 667.233 -32.5777 667.233 -32.5777 666.683C-32.3986 664.482 -31.8613 662.463 -30.9658 660.445C-30.2494 658.611 -29.1748 656.776 -28.2793 654.942C-26.4883 651.272 -24.5182 647.603 -22.5481 644.117C-18.6078 637.146 -14.4885 630.175 -9.65277 623.753C-5.53345 618.25 -1.23504 612.746 4.13799 608.343C8.07821 605.041 12.7348 601.922 17.9288 601.371C22.9436 600.821 27.6002 602.839 31.1822 606.325C32.615 607.609 34.0478 608.893 35.6597 609.994C37.2716 611.095 39.2417 611.829 41.0328 612.379C43.0029 612.929 44.973 613.113 46.9431 613.113C49.2714 612.929 51.5997 612.746 54.1071 612.562C55.719 612.562 57.51 612.746 59.122 613.113C60.5548 613.296 61.9876 613.663 63.2413 614.214C65.5696 614.947 67.8979 615.865 69.868 617.332C73.0918 619.35 75.7783 622.469 77.032 626.138C78.1066 629.441 78.1066 633.11 76.8529 636.412C75.5992 639.898 73.2709 643.017 70.4053 645.402C67.0024 648.154 63.0622 649.805 58.7638 650.355C56.2563 650.722 53.7489 650.722 51.2415 650.539C49.8087 650.355 48.555 650.172 47.1222 649.805C45.8685 649.438 44.4357 649.254 43.182 648.704C40.4955 647.603 37.4507 647.787 34.7642 648.154C31.0031 648.887 27.4211 650.355 24.0182 651.823C19.8988 653.657 15.9586 655.859 12.0184 658.06C7.8991 660.445 3.77979 662.83 -0.339531 665.215C-4.10065 667.417 -8.04089 669.618 -11.802 671.636C-15.0258 673.288 -18.2496 674.939 -21.6526 675.856C-23.9809 676.59 -26.4883 677.14 -28.8166 676.406C-30.9658 675.673 -32.0404 673.838 -32.5777 671.636C-32.9359 670.169 -32.9359 668.518 -32.7568 667.05C-32.3986 666.133 -31.5031 666.133 -31.6822 666.683Z" fill="white"/>
<path d="M-11.115 642.263C-14.1566 646.71 -17.9138 650.801 -19.703 655.96C-20.4186 657.916 -20.9554 660.407 -20.0608 662.541C-19.5241 663.608 -18.2716 664.32 -17.0192 664.32C-16.1246 664.32 -15.409 663.786 -14.5144 663.253C-8.96805 659.695 -3.7795 655.604 1.23013 651.513C6.77651 647.066 12.144 642.263 16.6168 636.571C18.406 634.081 22.3421 628.567 18.0482 626.432C16.9747 625.899 15.7223 625.721 14.4699 625.543C13.5753 625.543 12.6807 625.365 11.7861 625.543C10.1759 625.721 8.74457 626.254 7.31325 626.788C1.40904 629.278 -3.77951 633.547 -7.89456 638.35C-9.32588 639.595 -10.2205 640.84 -11.115 642.263C-11.4729 642.619 -12.1885 642.263 -11.8307 641.907C-8.07347 636.571 -3.24276 631.769 2.48254 628.389C5.34518 626.61 8.38674 625.187 11.7861 624.831C13.3964 624.654 15.1855 624.831 16.6168 625.187C18.5849 625.721 20.3741 626.788 20.7319 628.745C21.0897 630.879 19.8373 633.192 18.7638 634.792C16.9747 637.638 14.8277 639.951 12.5018 642.441C9.63916 645.287 6.7765 647.955 3.73494 650.446C-1.63252 655.07 -7.35781 659.517 -13.262 663.43C-14.6933 664.498 -16.3036 665.387 -18.0927 664.853C-20.4186 664.142 -21.1343 661.83 -21.1343 659.517C-21.1343 657.027 -19.8819 654.537 -18.8084 652.402C-17.3771 649.912 -15.7668 647.422 -13.9777 645.109C-13.262 644.042 -12.3674 642.975 -11.6518 641.73C-11.6518 641.374 -10.9361 641.73 -11.115 642.263Z" fill="white"/>
</g>
</mask>
<g mask="url(#mask2_32_224)">
<g opacity="0.3">
<path d="M15.2632 591.898C8.40881 594.767 1.91519 598.532 -4.21767 602.655C-10.7113 607.138 -16.8441 612.337 -22.4359 617.895C-28.0276 623.453 -33.2586 629.549 -37.5877 636.183C-41.7364 642.279 -45.3439 648.912 -48.0496 656.084C-49.3123 659.311 -50.2141 662.718 -50.9357 666.124C-51.6572 669.352 -51.8376 672.579 -51.2964 675.806C-50.3945 681.543 -46.9673 686.743 -42.2775 690.149C-37.5877 693.556 -31.6352 695.169 -26.0434 694.452C-22.977 694.094 -20.091 693.018 -17.3853 691.404C-15.2208 690.149 -13.2366 688.356 -11.0721 686.922C-8.00563 684.412 -4.93917 681.723 -1.69236 679.213C1.37407 676.882 4.44049 674.91 8.04806 673.655C12.3771 672.041 17.067 671.324 21.7568 671.144C28.7916 670.786 36.0067 671.682 43.0415 672.579C47.0098 673.117 50.9781 674.013 55.1268 674.013C58.7344 674.013 62.342 673.655 65.9495 672.937C72.8039 671.324 79.4779 668.096 84.7089 663.435C90.1202 658.773 94.2689 652.678 96.7942 645.864C98.9587 639.769 99.8606 633.135 98.4176 626.86C96.7942 620.226 92.6455 614.489 87.0538 610.724C83.9874 608.572 80.5602 606.6 76.9526 605.524C73.345 604.269 69.7375 603.731 65.9495 603.373C59.0951 602.655 51.6996 602.655 45.206 600.325C43.763 599.787 42.3199 599.249 40.8769 598.352C39.4339 597.456 38.1712 596.38 36.9086 595.305C33.8422 592.794 30.2346 591.181 26.2663 590.643C22.4783 589.926 18.6904 590.464 15.2632 591.898C14.7221 592.077 14.5417 591.36 15.0828 591.181C22.2979 588.312 30.5953 589.209 36.7282 593.87C38.1712 594.946 39.4339 596.201 40.8769 597.277C42.3199 598.173 43.9433 598.89 45.3864 599.428C48.6332 600.504 52.2407 601.042 55.6679 601.4C63.0634 602.118 70.8197 602.297 77.8545 604.807C79.6583 605.524 81.2817 606.241 82.9051 607.138C84.5285 608.213 86.3323 609.11 87.9557 610.365C90.8417 612.516 93.1867 614.847 95.1708 617.895C98.7784 623.274 100.041 629.728 99.4999 636.003C98.9587 642.817 96.4335 649.63 92.4651 655.188C88.4968 661.104 82.9051 666.124 76.5918 669.352C70.2786 672.758 63.0635 674.551 55.8483 674.551C51.88 674.551 47.9117 673.834 43.9433 673.296C39.7946 672.579 35.6459 672.22 31.4972 671.862C25.7251 671.503 19.5923 671.324 13.8202 672.399C9.85184 673.117 5.88351 674.73 2.45632 676.882C-0.970871 678.854 -3.85692 681.543 -6.92336 684.053C-8.54676 685.488 -10.3505 686.922 -12.1543 688.177C-14.3189 689.97 -16.4834 691.584 -19.0087 692.839C-24.42 695.528 -30.5529 695.887 -36.325 694.094C-41.9168 692.301 -46.6066 688.715 -49.673 683.695C-51.2964 681.185 -52.1983 678.316 -52.7394 675.268C-53.2806 672.041 -52.9198 668.814 -52.1983 665.586C-50.7553 658.415 -48.23 651.602 -44.8028 645.327C-41.1952 638.334 -36.6858 631.88 -31.6352 625.784C-26.4042 619.509 -20.6321 613.771 -14.3188 608.572C-8.36636 603.552 -1.87275 599.07 4.98163 595.305C8.04807 593.512 11.2949 592.077 14.5417 590.643C15.4436 591.002 15.6239 591.719 15.2632 591.898Z" fill="white"/>
<path d="M-31.6822 666.683C-31.8613 669.068 -31.8613 672.003 -30.2494 674.021C-28.8166 675.489 -26.6674 675.673 -24.8764 675.489C-21.8316 675.122 -18.966 673.838 -16.2795 672.554C-12.6975 670.903 -9.11549 668.885 -5.53348 666.866C-1.59325 664.665 2.34698 662.28 6.28719 660.078C10.2274 657.694 14.1676 655.492 18.2869 653.474C21.869 651.639 25.6301 649.805 29.5703 648.521C32.615 647.42 36.0179 646.502 39.2417 646.686C40.4954 646.686 41.9283 646.869 43.182 647.42C45.5103 648.337 47.8386 648.887 50.346 649.254C55.0026 649.988 59.8383 649.621 64.3159 647.97C67.8979 646.502 71.1217 644.117 73.6291 640.999C75.7783 638.247 77.0321 634.761 77.2112 631.275C77.3903 627.79 76.1365 624.304 73.9873 621.552C71.1217 618.066 67.0024 615.865 62.704 614.58C59.6593 613.663 56.4354 613.113 53.2116 613.296C51.0624 613.48 48.7341 613.847 46.5849 613.847C44.7939 613.847 42.8238 613.663 41.0328 613.113C37.4507 612.196 34.0478 610.177 31.3613 607.426C29.5703 605.591 27.4211 603.94 24.9137 603.023C20.4361 601.371 15.6004 602.289 11.4811 604.307C6.10809 607.059 1.63057 611.462 -2.30965 616.048C-7.14538 621.735 -11.4438 627.79 -15.384 634.211C-19.6824 640.999 -23.4436 648.154 -27.2047 655.309C-29.3539 658.794 -31.324 662.28 -31.6822 666.683C-31.6822 667.233 -32.5777 667.233 -32.5777 666.683C-32.3986 664.482 -31.8613 662.463 -30.9658 660.445C-30.2494 658.611 -29.1748 656.776 -28.2793 654.942C-26.4883 651.272 -24.5182 647.603 -22.5481 644.117C-18.6078 637.146 -14.4885 630.175 -9.65277 623.753C-5.53345 618.25 -1.23504 612.746 4.13799 608.343C8.07821 605.041 12.7348 601.922 17.9288 601.371C22.9436 600.821 27.6002 602.839 31.1822 606.325C32.615 607.609 34.0478 608.893 35.6597 609.994C37.2716 611.095 39.2417 611.829 41.0328 612.379C43.0029 612.929 44.973 613.113 46.9431 613.113C49.2714 612.929 51.5997 612.746 54.1071 612.562C55.719 612.562 57.51 612.746 59.122 613.113C60.5548 613.296 61.9876 613.663 63.2413 614.214C65.5696 614.947 67.8979 615.865 69.868 617.332C73.0918 619.35 75.7783 622.469 77.032 626.138C78.1066 629.441 78.1066 633.11 76.8529 636.412C75.5992 639.898 73.2709 643.017 70.4053 645.402C67.0024 648.154 63.0622 649.805 58.7638 650.355C56.2563 650.722 53.7489 650.722 51.2415 650.539C49.8087 650.355 48.555 650.172 47.1222 649.805C45.8685 649.438 44.4357 649.254 43.182 648.704C40.4955 647.603 37.4507 647.787 34.7642 648.154C31.0031 648.887 27.4211 650.355 24.0182 651.823C19.8988 653.657 15.9586 655.859 12.0184 658.06C7.8991 660.445 3.77979 662.83 -0.339531 665.215C-4.10065 667.417 -8.04089 669.618 -11.802 671.636C-15.0258 673.288 -18.2496 674.939 -21.6526 675.856C-23.9809 676.59 -26.4883 677.14 -28.8166 676.406C-30.9658 675.673 -32.0404 673.838 -32.5777 671.636C-32.9359 670.169 -32.9359 668.518 -32.7568 667.05C-32.3986 666.133 -31.5031 666.133 -31.6822 666.683Z" fill="white"/>
<path d="M-11.115 642.263C-14.1566 646.71 -17.9138 650.801 -19.703 655.96C-20.4186 657.916 -20.9554 660.407 -20.0608 662.541C-19.5241 663.608 -18.2716 664.32 -17.0192 664.32C-16.1246 664.32 -15.409 663.786 -14.5144 663.253C-8.96805 659.695 -3.7795 655.604 1.23013 651.513C6.77651 647.066 12.144 642.263 16.6168 636.571C18.406 634.081 22.3421 628.567 18.0482 626.432C16.9747 625.899 15.7223 625.721 14.4699 625.543C13.5753 625.543 12.6807 625.365 11.7861 625.543C10.1759 625.721 8.74457 626.254 7.31325 626.788C1.40904 629.278 -3.77951 633.547 -7.89456 638.35C-9.32588 639.595 -10.2205 640.84 -11.115 642.263C-11.4729 642.619 -12.1885 642.263 -11.8307 641.907C-8.07347 636.571 -3.24276 631.769 2.48254 628.389C5.34518 626.61 8.38674 625.187 11.7861 624.831C13.3964 624.654 15.1855 624.831 16.6168 625.187C18.5849 625.721 20.3741 626.788 20.7319 628.745C21.0897 630.879 19.8373 633.192 18.7638 634.792C16.9747 637.638 14.8277 639.951 12.5018 642.441C9.63916 645.287 6.7765 647.955 3.73494 650.446C-1.63252 655.07 -7.35781 659.517 -13.262 663.43C-14.6933 664.498 -16.3036 665.387 -18.0927 664.853C-20.4186 664.142 -21.1343 661.83 -21.1343 659.517C-21.1343 657.027 -19.8819 654.537 -18.8084 652.402C-17.3771 649.912 -15.7668 647.422 -13.9777 645.109C-13.262 644.042 -12.3674 642.975 -11.6518 641.73C-11.6518 641.374 -10.9361 641.73 -11.115 642.263Z" fill="white"/>
</g>
</g>
<path d="M79.5512 637.839V681.913C58.274 681.913 41.0276 664.667 41.0276 643.389C41.0276 626.209 52.2609 611.672 67.7893 606.716C75.124 615.042 79.5512 625.945 79.5512 637.839Z" fill="#E0F0E3"/>
<path d="M118.074 643.455C118.074 664.733 100.828 681.979 79.5507 681.979V637.905C79.5507 626.011 75.1235 615.108 67.7888 606.782C71.4892 605.592 75.4539 604.932 79.5507 604.932C100.828 604.932 118.074 622.178 118.074 643.455Z" fill="#F3AFAE"/>
<path d="M29.3311 567.135C30.2562 578.434 21.7982 588.28 10.4988 589.205C-0.800541 590.13 -10.7123 581.672 -11.5713 570.373C-12.4964 559.073 -4.03838 549.162 7.261 548.303C18.5604 547.378 28.4721 555.836 29.3311 567.135Z" fill="#FEDE8C"/>
<path d="M108.163 619.073C114.705 603.148 117.612 589.073 119 577.774C113.383 576.716 104.331 574.338 94.8153 568.258C84.5732 561.783 78.6262 552.928 75.3223 548.038H75.2562C69.8378 550.351 60.0582 554.58 47.8998 554.58C36.6004 554.58 27.6799 551.739 22.3936 549.558C17.5038 559.734 12.4158 573.28 9.31012 590.196" stroke="#2D76F9" stroke-miterlimit="10"/>
</g>
</svg>
