<svg width="385" height="240" viewBox="0 0 385 240" fill="none" xmlns="http://www.w3.org/2000/svg">
<mask id="mask0_97_489" style="mask-type:alpha" maskUnits="userSpaceOnUse" x="0" y="0" width="385" height="240">
<rect width="385" height="240" rx="16" fill="#EC6967"/>
</mask>
<g mask="url(#mask0_97_489)">
<rect width="385" height="240" rx="16" fill="#314E86"/>
<path opacity="0.1" d="M83.6521 81.2696C80.8776 81.2696 78.3807 82.5181 76.8547 84.5989C74.7739 81.6858 71.3058 79.7437 67.4216 79.7437C62.8438 79.7437 58.8208 82.5181 57.0174 86.4023C56.74 86.4023 56.3238 86.4023 55.9076 86.4023C51.8847 86.4023 48.5554 89.3155 48.0005 93.061H56.0464H63.8148H75.4675H78.7968H91.8367C92.2529 92.0899 92.3916 91.1189 92.3916 90.0091C92.2529 85.1538 88.5074 81.2696 83.6521 81.2696Z" fill="#F2F2F2"/>
<path opacity="0.1" d="M140.74 155.526C143.514 155.526 146.011 156.774 147.537 158.855C149.618 155.942 153.086 154 156.97 154C161.548 154 165.571 156.774 167.374 160.659C167.652 160.659 168.068 160.659 168.484 160.659C172.507 160.659 175.836 163.572 176.391 167.317H168.345H160.577H148.924H145.595H132.555C132.139 166.346 132 165.375 132 164.265C132.139 159.41 135.884 155.526 140.74 155.526Z" fill="#F2F2F2"/>
<path opacity="0.1" d="M187.542 43.1207C189.623 43.1207 191.565 43.5369 193.368 44.2305C195.172 34.9361 203.495 28 213.344 28C224.026 28 232.904 36.3233 233.737 46.8662C235.679 45.7564 238.037 45.2016 240.395 45.2016C248.025 45.2016 254.129 51.1666 254.684 58.5189H231.101H226.107H202.94H195.588H172.144C172.144 50.0568 179.08 43.1207 187.542 43.1207Z" fill="#F2F2F2"/>
<path d="M-0.000228882 88.1992V228.706C-0.000228882 229.407 0.0774536 230.186 0.232834 230.887C0.388218 231.666 0.698982 232.367 1.00975 233.068C1.55359 234.081 2.25282 235.093 3.10743 235.95C5.43817 238.364 8.93428 239.922 12.8965 240C13.0519 240 13.1296 240 13.285 240H37.7578V106.113C37.7578 96.2215 28.4348 88.1992 17.0142 88.1992H-0.000228882Z" fill="#82B4FF"/>
<path d="M126.163 108H108.837C102.866 108 98 111.844 98 116.561V219H137V116.561C137 111.844 132.134 108 126.163 108Z" fill="url(#paint0_linear_97_489)"/>
<path d="M9.32266 198.954H85.6934C85.6934 177.769 68.6012 160.634 47.4692 160.634C26.4925 160.634 9.32266 177.769 9.32266 198.954Z" fill="#6B71B5"/>
<path d="M146.919 95.575C146.919 107.102 137.596 116.449 126.098 116.449C114.599 116.449 105.276 107.102 105.276 95.575C105.276 84.0478 114.599 74.7014 126.098 74.7014C137.596 74.7014 146.919 83.9699 146.919 95.575Z" fill="#FDDE8D"/>
<path d="M142.103 95.5749C142.103 104.454 134.955 111.62 126.098 111.62C117.241 111.62 110.094 104.454 110.094 95.5749C110.094 86.6958 117.241 79.5303 126.098 79.5303C134.877 79.4524 142.103 86.6958 142.103 95.5749Z" fill="#FECC4D"/>
<path d="M122.368 95.4192H128.817C129.671 95.4192 130.371 95.0298 130.992 94.4846C131.536 93.9394 131.924 93.1605 131.924 92.3038C131.924 90.5903 130.526 89.1883 128.817 89.1883H120.115" stroke="white" stroke-width="2" stroke-miterlimit="10" stroke-linecap="round"/>
<path d="M122.368 95.4193H128.817C130.526 95.4193 131.847 96.8212 131.847 98.5347C131.847 99.3915 131.536 100.17 130.914 100.716C130.371 101.261 129.594 101.65 128.739 101.65H120.115" stroke="white" stroke-width="2" stroke-miterlimit="10" stroke-linecap="round"/>
<path d="M122.368 89.1884V95.4193V101.572" stroke="white" stroke-width="2" stroke-miterlimit="10" stroke-linecap="round"/>
<path d="M122.99 104.532V101.572" stroke="white" stroke-width="2" stroke-miterlimit="10" stroke-linecap="round"/>
<path d="M122.99 89.1883V86.5402" stroke="white" stroke-width="2" stroke-miterlimit="10" stroke-linecap="round"/>
<path d="M126.952 104.61V101.572" stroke="white" stroke-width="2" stroke-miterlimit="10" stroke-linecap="round"/>
<path d="M126.952 89.1883V86.5402" stroke="white" stroke-width="2" stroke-miterlimit="10" stroke-linecap="round"/>
<path d="M81.5762 144.044C81.5762 154.325 73.2632 162.659 63.0079 162.659C52.7527 162.659 44.4397 154.325 44.4397 144.044C44.4397 133.763 52.7527 125.429 63.0079 125.429C73.2632 125.429 81.5762 133.763 81.5762 144.044Z" fill="#FDDE8D"/>
<path d="M77.3027 144.044C77.3027 151.91 70.932 158.375 63.0075 158.375C55.083 158.375 48.7123 151.988 48.7123 144.044C48.7123 136.177 55.083 129.713 63.0075 129.713C70.932 129.713 77.3027 136.177 77.3027 144.044Z" fill="#FECC4D"/>
<path opacity="0.75" d="M69.1462 142.408C69.3016 142.953 69.3793 143.499 69.3793 144.044C69.3793 147.627 66.5047 150.508 62.9309 150.508C61.7655 150.508 60.7555 150.197 59.8232 149.73" stroke="white" stroke-width="2" stroke-miterlimit="10" stroke-linecap="round" stroke-linejoin="round"/>
<path opacity="0.75" d="M56.7151 145.913C56.5597 145.368 56.4043 144.745 56.4043 144.044C56.4043 140.461 59.2789 137.579 62.8527 137.579C63.8627 137.579 64.8727 137.813 65.7273 138.28" stroke="white" stroke-width="2" stroke-miterlimit="10" stroke-linecap="round" stroke-linejoin="round"/>
<path opacity="0.75" d="M54.8506 146.848C60.289 144.122 65.6497 141.318 71.0881 138.592" stroke="white" stroke-width="2" stroke-miterlimit="10" stroke-linecap="round" stroke-linejoin="round"/>
<path opacity="0.75" d="M54.8506 149.73C60.289 147.004 65.6497 144.2 71.0881 141.474" stroke="white" stroke-width="2" stroke-miterlimit="10" stroke-linecap="round" stroke-linejoin="round"/>
<path d="M11.1876 87.8877H38.5349C39.0788 87.8877 39.5449 87.4204 39.5449 86.8752V84.1491C39.5449 83.6039 39.0788 83.1366 38.5349 83.1366H11.1876C10.6437 83.1366 10.1776 83.6039 10.1776 84.1491V86.8752C10.1776 87.4204 10.6437 87.8877 11.1876 87.8877Z" fill="#FDDE8D"/>
<path d="M11.1876 87.8877H38.5349C39.0788 87.8877 39.5449 87.4204 39.5449 86.8752V84.1491C39.5449 83.6039 39.0788 83.1366 38.5349 83.1366H11.1876C10.6437 83.1366 10.1776 83.6039 10.1776 84.1491V86.8752C10.1776 87.4204 10.6437 87.8877 11.1876 87.8877Z" stroke="#FECC4D" stroke-miterlimit="10"/>
<path d="M5.59378 82.825H32.9412C33.485 82.825 33.9512 82.3577 33.9512 81.8125V79.1644C33.9512 78.6192 33.485 78.1519 32.9412 78.1519H5.59378C5.04994 78.1519 4.5838 78.6192 4.5838 79.1644V81.8904C4.5838 82.3577 5.04994 82.825 5.59378 82.825Z" fill="#FDDE8D"/>
<path d="M5.59378 82.825H32.9412C33.485 82.825 33.9512 82.3577 33.9512 81.8125V79.1644C33.9512 78.6192 33.485 78.1519 32.9412 78.1519H5.59378C5.04994 78.1519 4.5838 78.6192 4.5838 79.1644V81.8904C4.5838 82.3577 5.04994 82.825 5.59378 82.825Z" stroke="#FECC4D" stroke-miterlimit="10"/>
<path d="M11.4209 77.8403H38.7683C39.3122 77.8403 39.7783 77.373 39.7783 76.8278V74.1018C39.7783 73.5566 39.3122 73.0892 38.7683 73.0892H11.4209C10.8771 73.0892 10.411 73.5566 10.411 74.1018V76.8278C10.411 77.373 10.7994 77.8403 11.4209 77.8403Z" fill="#FDDE8D"/>
<path d="M11.4209 77.8403H38.7683C39.3122 77.8403 39.7783 77.373 39.7783 76.8278V74.1018C39.7783 73.5566 39.3122 73.0892 38.7683 73.0892H11.4209C10.8771 73.0892 10.411 73.5566 10.411 74.1018V76.8278C10.411 77.373 10.7994 77.8403 11.4209 77.8403Z" stroke="#FECC4D" stroke-miterlimit="10"/>
<path d="M81.0322 219.905V240H210C208.291 237.43 206.349 235.015 204.173 232.834C198.89 227.538 192.286 223.566 184.906 221.541C182.73 220.918 180.4 220.45 178.069 220.217H177.991C176.36 220.061 174.728 219.905 173.097 219.905H81.0322Z" fill="#F4B0AE"/>
<path d="M48.4795 56.8888C48.4795 65.6121 41.4096 72.7777 32.6304 72.7777C23.929 72.7777 16.7814 65.69 16.7814 56.8888C16.7814 48.1656 23.8513 41 32.6304 41C41.4096 41 48.4795 48.0877 48.4795 56.8888Z" fill="#FDDE8D"/>
<path d="M44.8281 56.8888C44.8281 63.5871 39.3897 69.117 32.6306 69.117C25.9491 69.117 20.433 63.6649 20.433 56.8888C20.433 50.1906 25.8714 44.6606 32.6306 44.6606C39.3897 44.6606 44.8281 50.1127 44.8281 56.8888Z" fill="#FECC4D"/>
<path opacity="0.75" d="M32.7849 50.4243C31.6195 54.786 30.9203 57.3562 29.7549 61.7179H37.3686" stroke="white" stroke-width="2" stroke-miterlimit="10" stroke-linecap="round" stroke-linejoin="round"/>
<path opacity="0.75" d="M28.0459 59.0697C30.8428 57.9014 31.542 57.5899 34.3389 56.3437" stroke="white" stroke-width="2" stroke-miterlimit="10" stroke-linecap="round" stroke-linejoin="round"/>
<mask id="mask1_97_489" style="mask-type:alpha" maskUnits="userSpaceOnUse" x="0" y="190" width="184" height="50">
<path d="M0 190V228.576C0 229.358 0.0971985 230.063 0.291595 230.767C0.485992 231.549 0.777588 232.254 1.1664 232.958C1.74959 234.053 2.43001 234.992 3.30481 235.853C5.73482 238.279 9.42842 239.844 13.5108 240C13.608 240 13.8024 240 13.8996 240H184C183.903 239.844 183.903 239.687 183.806 239.609C181.181 234.288 177.876 229.28 174.086 224.664C170.878 220.751 167.184 217.074 163.199 213.631C161.644 212.379 160.186 211.127 158.534 209.953C156.881 208.701 155.132 207.527 153.382 206.432C147.064 202.363 140.065 198.92 132.678 196.26C126.166 193.912 119.265 192.191 112.169 191.174C110.225 190.861 108.184 190.626 106.24 190.469C102.838 190.156 99.4358 190 96.0338 190H0Z" fill="#A7D3B0"/>
</mask>
<g mask="url(#mask1_97_489)">
<path d="M0 190V228.576C0 229.358 0.0971985 230.063 0.291595 230.767C0.485992 231.549 0.777588 232.254 1.1664 232.958C1.74959 234.053 2.43001 234.992 3.30481 235.853C5.73482 238.279 9.42842 239.844 13.5108 240C13.608 240 13.8024 240 13.8996 240H184C183.903 239.844 183.903 239.687 183.806 239.609C181.181 234.288 177.876 229.28 174.086 224.664C170.878 220.751 167.184 217.074 163.199 213.631C161.644 212.379 160.186 211.127 158.534 209.953C156.881 208.701 155.132 207.527 153.382 206.432C147.064 202.363 140.065 198.92 132.678 196.26C126.166 193.912 119.265 192.191 112.169 191.174C110.225 190.861 108.184 190.626 106.24 190.469C102.838 190.156 99.4358 190 96.0338 190H0Z" fill="#A7D3B0"/>
<g opacity="0.4">
<path d="M82.254 136.856C90.5626 140.334 98.4339 144.897 105.868 149.896C113.739 155.329 121.173 161.632 127.951 168.369C134.729 175.106 141.07 182.495 146.318 190.537C151.347 197.926 155.72 205.967 158.999 214.66C160.53 218.572 161.623 222.701 162.498 226.831C163.372 230.743 163.591 234.654 162.935 238.566C161.842 245.521 157.687 251.823 152.003 255.953C146.318 260.082 139.102 262.038 132.324 261.169C128.607 260.734 125.109 259.43 121.829 257.474C119.205 255.953 116.8 253.779 114.177 252.041C110.46 248.998 106.742 245.738 102.807 242.696C99.0898 239.87 95.3728 237.48 90.9999 235.958C85.7523 234.002 80.0675 233.133 74.3826 232.916C65.8554 232.481 57.1095 233.568 48.5822 234.654C43.772 235.306 38.9617 236.393 33.9328 236.393C29.5598 236.393 25.1869 235.958 20.8139 235.089C12.5053 233.133 4.41534 229.221 -1.92544 223.571C-8.48488 217.92 -13.5138 210.531 -16.5748 202.272C-19.1986 194.883 -20.2919 186.842 -18.5427 179.236C-16.5748 171.194 -11.546 164.24 -4.76787 159.676C-1.05086 157.068 3.10346 154.677 7.47642 153.373C11.8494 151.852 16.2223 151.2 20.8139 150.765C29.1225 149.896 38.0871 149.896 45.9584 147.071C47.7076 146.419 49.4568 145.767 51.206 144.68C52.9552 143.594 54.4857 142.29 56.0162 140.986C59.7332 137.943 64.1062 135.987 68.9164 135.335C73.508 134.466 78.0996 135.118 82.254 136.856C82.9099 137.074 83.1286 136.204 82.4726 135.987C73.7267 132.51 63.6689 133.596 56.2349 139.247C54.4857 140.551 52.9552 142.072 51.206 143.376C49.4568 144.463 47.489 145.332 45.7398 145.984C41.8041 147.288 37.4312 147.94 33.2769 148.375C24.3123 149.244 14.9104 149.461 6.38318 152.504C4.1967 153.373 2.22887 154.243 0.261036 155.329C-1.70679 156.633 -3.89328 157.72 -5.86111 159.241C-9.35947 161.849 -12.2019 164.674 -14.607 168.369C-18.98 174.889 -20.5105 182.713 -19.8546 190.319C-19.1986 198.578 -16.1376 206.836 -11.3273 213.574C-6.51705 220.745 0.261036 226.831 7.91371 230.743C15.5664 234.872 24.3123 237.045 33.0582 237.045C37.8685 237.045 42.6787 236.176 47.489 235.524C52.5179 234.654 57.5468 234.22 62.5757 233.785C69.5724 233.35 77.0064 233.133 84.0031 234.437C88.8134 235.306 93.6237 237.262 97.778 239.87C101.932 242.261 105.431 245.521 109.148 248.564C111.115 250.302 113.302 252.041 115.488 253.562C118.112 255.735 120.736 257.691 123.797 259.213C130.356 262.473 137.791 262.907 144.787 260.734C151.565 258.561 157.25 254.214 160.967 248.129C162.935 245.086 164.028 241.609 164.684 237.914C165.34 234.002 164.903 230.091 164.028 226.179C162.279 217.485 159.218 209.227 155.064 201.62C150.691 193.145 145.225 185.321 139.102 177.932C132.762 170.325 125.765 163.37 118.112 157.068C110.897 150.983 103.025 145.549 94.7169 140.986C90.9999 138.812 87.0642 137.074 83.1285 135.335C82.0353 135.77 81.8167 136.639 82.254 136.856Z" fill="white"/>
<path d="M139.159 227.508C139.376 230.399 139.376 233.957 137.423 236.403C135.686 238.182 133.081 238.405 130.91 238.182C127.219 237.738 123.745 236.181 120.489 234.624C116.147 232.623 111.805 230.176 107.463 227.73C102.687 225.062 97.9105 222.171 93.1343 219.502C88.3581 216.611 83.5819 213.943 78.5886 211.496C74.2467 209.273 69.6876 207.049 64.9114 205.492C61.2207 204.158 57.0958 203.046 53.188 203.268C51.6684 203.268 49.9315 203.491 48.4118 204.158C45.5895 205.27 42.7673 205.937 39.7279 206.382C34.0833 207.271 28.2216 206.826 22.7941 204.825C18.4522 203.046 14.5443 200.155 11.505 196.374C8.89976 193.039 7.38007 188.813 7.16297 184.588C6.94587 180.363 8.46557 176.137 11.0708 172.802C14.5444 168.576 19.5376 165.908 24.748 164.351C28.4387 163.239 32.3465 162.572 36.2543 162.795C38.8595 163.017 41.6818 163.462 44.287 163.462C46.458 163.462 48.8461 163.239 51.0171 162.572C55.359 161.46 59.4839 159.014 62.7404 155.678C64.9114 153.454 67.5166 151.453 70.556 150.341C75.9835 148.34 81.8451 149.452 86.8384 151.898C93.3514 155.233 98.7789 160.571 103.555 166.13C109.417 173.024 114.627 180.363 119.403 188.146C124.614 196.374 129.173 205.047 133.732 213.72C136.337 217.945 138.725 222.171 139.159 227.508C139.159 228.175 140.245 228.175 140.245 227.508C140.028 224.839 139.376 222.393 138.291 219.947C137.423 217.723 136.12 215.499 135.034 213.275C132.863 208.828 130.475 204.38 128.087 200.155C123.311 191.704 118.318 183.254 112.456 175.47C107.463 168.799 102.252 162.127 95.7395 156.79C90.9633 152.787 85.3187 149.007 79.0228 148.34C72.9441 147.672 67.2995 150.119 62.9575 154.344C61.2207 155.901 59.4839 157.457 57.53 158.792C55.5761 160.126 53.188 161.015 51.0171 161.683C48.629 162.35 46.2409 162.572 43.8528 162.572C41.0305 162.35 38.2082 162.127 35.1688 161.905C33.2149 161.905 31.0439 162.127 29.09 162.572C27.3532 162.795 25.6164 163.239 24.0967 163.906C21.2744 164.796 18.4521 165.908 16.0641 167.687C12.1563 170.133 8.89978 173.914 7.38008 178.361C6.07749 182.364 6.0775 186.812 7.59719 190.815C9.11689 195.04 11.9392 198.821 15.4127 201.711C19.5376 205.047 24.3138 207.049 29.5242 207.716C32.5636 208.161 35.603 208.161 38.6424 207.938C40.3792 207.716 41.8989 207.493 43.6357 207.049C45.1553 206.604 46.8921 206.382 48.4118 205.714C51.6683 204.38 55.359 204.602 58.6155 205.047C63.1746 205.937 67.5166 207.716 71.6415 209.495C76.6348 211.719 81.4109 214.387 86.1871 217.056C91.1804 219.947 96.1737 222.838 101.167 225.729C105.726 228.397 110.502 231.066 115.061 233.512C118.969 235.514 122.877 237.515 127.002 238.627C129.824 239.517 132.863 240.184 135.686 239.294C138.291 238.405 139.594 236.181 140.245 233.512C140.679 231.733 140.679 229.732 140.462 227.953C140.028 226.841 138.942 226.841 139.159 227.508Z" fill="white"/>
<path d="M114.229 197.907C117.916 203.297 122.47 208.257 124.639 214.509C125.506 216.881 126.157 219.9 125.073 222.487C124.422 223.781 122.904 224.643 121.386 224.643C120.301 224.643 119.434 223.996 118.35 223.35C111.627 219.037 105.337 214.078 99.2647 209.119C92.5416 203.729 86.0354 197.907 80.6135 191.007C78.4448 187.989 73.6735 181.305 78.8785 178.717C80.1797 178.071 81.6979 177.855 83.216 177.639C84.3004 177.639 85.3847 177.424 86.4691 177.639C88.421 177.855 90.156 178.502 91.891 179.149C99.0478 182.167 105.337 187.342 110.325 193.164C112.06 194.673 113.145 196.182 114.229 197.907C114.663 198.338 115.53 197.907 115.097 197.476C110.542 191.007 104.687 185.186 97.7466 181.089C94.2766 178.933 90.5897 177.208 86.4691 176.777C84.5172 176.561 82.3485 176.777 80.6135 177.208C78.2279 177.855 76.0591 179.149 75.6254 181.52C75.1916 184.108 76.7097 186.911 78.011 188.851C80.1797 192.301 82.7822 195.104 85.6016 198.123C89.0716 201.573 92.5416 204.807 96.2285 207.825C102.735 213.431 109.675 218.822 116.832 223.565C118.567 224.859 120.518 225.937 122.687 225.29C125.506 224.428 126.374 221.625 126.374 218.822C126.374 215.803 124.856 212.784 123.555 210.197C121.82 207.179 119.868 204.16 117.699 201.357C116.832 200.063 115.747 198.77 114.88 197.26C114.88 196.829 114.012 197.26 114.229 197.907Z" fill="white"/>
</g>
</g>
<path opacity="0.15" d="M331.686 191.444L331.686 183.412C334.012 183.519 336.062 184.146 337.836 185.294C339.611 186.441 340.996 188.033 341.99 190.067C342.969 192.087 343.459 194.474 343.459 197.228C343.459 199.461 343.084 201.458 342.334 203.217C341.585 204.961 340.506 206.445 339.099 207.669C337.691 208.878 335.985 209.804 333.981 210.446C331.977 211.074 329.72 211.387 327.211 211.387L325.398 211.387C322.889 211.387 320.632 211.058 318.628 210.4C316.608 209.727 314.895 208.779 313.487 207.555C312.064 206.315 310.978 204.831 310.229 203.103C309.479 201.374 309.104 199.454 309.104 197.342C309.104 194.435 309.624 191.98 310.665 189.976C311.705 187.971 313.135 186.418 314.956 185.317C316.761 184.215 318.819 183.565 321.129 183.366L321.129 191.398C319.875 191.429 318.827 191.643 317.985 192.041C317.129 192.439 316.486 193.066 316.058 193.923C315.629 194.78 315.415 195.919 315.415 197.342C315.415 198.337 315.599 199.201 315.966 199.936C316.333 200.67 316.914 201.282 317.71 201.771C318.506 202.261 319.538 202.628 320.808 202.873C322.063 203.103 323.577 203.217 325.352 203.217L327.211 203.217C328.986 203.217 330.5 203.11 331.755 202.896C333.009 202.682 334.035 202.338 334.83 201.863C335.626 201.389 336.215 200.777 336.597 200.027C336.964 199.262 337.148 198.329 337.148 197.228C337.148 196.004 336.957 194.971 336.574 194.129C336.176 193.288 335.58 192.638 334.784 192.179C333.973 191.72 332.941 191.475 331.686 191.444ZM309.586 179.603L309.586 166.453C309.586 163.882 309.968 161.649 310.733 159.751C311.498 157.854 312.631 156.393 314.13 155.368C315.629 154.328 317.48 153.808 319.684 153.808C321.596 153.808 323.195 154.106 324.48 154.703C325.765 155.299 326.828 156.133 327.67 157.204C328.496 158.26 329.177 159.491 329.712 160.899L331.204 163.538L331.204 174.577L324.985 174.623L324.985 166.453C324.985 165.428 324.801 164.578 324.434 163.905C324.067 163.232 323.547 162.727 322.874 162.391C322.185 162.039 321.367 161.863 320.418 161.863C319.454 161.863 318.628 162.039 317.939 162.391C317.251 162.743 316.723 163.263 316.356 163.951C315.989 164.624 315.805 165.458 315.805 166.453L315.805 171.547L343 171.547L343 179.603L309.586 179.603ZM343 161.312L328.221 168.702L328.175 160.165L342.656 152.683L343 152.683L343 161.312ZM309.586 143.985L324.09 137.835L309.586 131.662L309.586 122.987L330.998 133.727L343 133.727L343 141.92L330.998 141.92L309.586 152.683L309.586 143.985ZM331.663 107.198L331.663 115.505L325.444 115.505L325.444 107.198C325.444 106.066 325.253 105.148 324.87 104.444C324.488 103.74 323.96 103.228 323.287 102.906C322.598 102.57 321.826 102.401 320.969 102.401C320.051 102.401 319.202 102.57 318.421 102.906C317.641 103.228 317.014 103.74 316.54 104.444C316.05 105.148 315.805 106.066 315.805 107.198L315.805 112.476L343 112.476L343 120.531L309.586 120.531L309.586 107.198C309.586 104.52 310.076 102.218 311.055 100.29C312.034 98.347 313.38 96.8553 315.094 95.8149C316.792 94.7746 318.735 94.2544 320.923 94.2544C323.08 94.2544 324.962 94.7746 326.568 95.8149C328.175 96.8553 329.429 98.347 330.332 100.29C331.219 102.218 331.663 104.52 331.663 107.198ZM309.586 73.7378L343 73.7378L343 81.793L309.586 81.793L309.586 73.7378ZM309.586 63.686L315.805 63.686L315.805 91.6152L309.586 91.6152L309.586 63.686ZM325.627 32.6357L326.981 32.6357C329.536 32.6357 331.831 32.9953 333.866 33.7144C335.886 34.4181 337.615 35.4202 339.053 36.7207C340.476 38.0212 341.569 39.5588 342.334 41.3335C343.084 43.1082 343.459 45.0666 343.459 47.2085C343.459 49.3657 343.084 51.3394 342.334 53.1294C341.569 54.9041 340.476 56.4494 339.053 57.7651C337.615 59.0656 335.886 60.0754 333.866 60.7944C331.831 61.4982 329.536 61.8501 326.981 61.8501L325.627 61.8501C323.072 61.8501 320.777 61.4982 318.743 60.7944C316.708 60.0754 314.979 59.0732 313.556 57.7881C312.118 56.4876 311.024 54.95 310.274 53.1753C309.509 51.3853 309.127 49.4116 309.127 47.2544C309.127 45.1125 309.509 43.1541 310.274 41.3794C311.024 39.5894 312.118 38.0441 313.556 36.7437C314.979 35.4432 316.708 34.4334 318.743 33.7144C320.777 32.9953 323.072 32.6357 325.627 32.6357ZM326.981 40.8057L325.582 40.8057C323.929 40.8057 322.476 40.951 321.221 41.2417C319.951 41.5171 318.888 41.9302 318.031 42.481C317.174 43.0317 316.532 43.7126 316.104 44.5234C315.66 45.319 315.438 46.2293 315.438 47.2544C315.438 48.3254 315.66 49.2586 316.104 50.0542C316.532 50.8498 317.174 51.5153 318.031 52.0508C318.888 52.5863 319.951 52.9917 321.221 53.2671C322.476 53.5272 323.929 53.6572 325.582 53.6572L326.981 53.6572C328.618 53.6572 330.072 53.5272 331.342 53.2671C332.596 52.9917 333.66 52.5863 334.532 52.0508C335.404 51.5 336.062 50.8268 336.505 50.0312C336.949 49.2204 337.171 48.2795 337.171 47.2085C337.171 46.1834 336.949 45.2731 336.505 44.4775C336.062 43.682 335.404 43.0164 334.532 42.481C333.66 41.9302 332.596 41.5171 331.342 41.2417C330.072 40.951 328.618 40.8057 326.981 40.8057ZM373.663 227.704L373.663 236.012L367.444 236.012L367.444 227.704C367.444 226.572 367.253 225.654 366.87 224.95C366.488 224.246 365.96 223.734 365.287 223.413C364.598 223.076 363.826 222.908 362.969 222.908C362.051 222.908 361.202 223.076 360.421 223.413C359.641 223.734 359.014 224.246 358.54 224.95C358.05 225.654 357.805 226.572 357.805 227.704L357.805 232.982L385 232.982L385 241.038L351.586 241.038L351.586 227.704C351.586 225.027 352.076 222.724 353.055 220.796C354.034 218.853 355.38 217.362 357.094 216.321C358.792 215.281 360.735 214.761 362.923 214.761C365.08 214.761 366.962 215.281 368.568 216.321C370.175 217.362 371.429 218.853 372.332 220.796C373.219 222.724 373.663 225.027 373.663 227.704ZM358.608 200.349L385 208.496L385 217.147L351.586 204.87L351.586 199.385L358.608 200.349ZM385 193.602L358.608 201.771L351.586 202.827L351.586 197.273L385 184.927L385 193.602ZM372.539 193.923L378.758 193.923L378.758 211.066L372.539 211.066L372.539 193.923ZM351.586 179.855L366.09 173.705L351.586 167.531L351.586 158.856L372.998 169.597L385 169.597L385 177.79L372.998 177.79L351.586 188.553L351.586 179.855ZM351.586 152.408L351.586 145.844L374.833 138.386L351.586 130.927L351.586 124.364L385 135.724L385 141.048L351.586 152.408ZM351.586 156.401L351.586 149.608L377.197 148.346L385 148.346L385 156.401L351.586 156.401ZM351.586 127.164L351.586 120.348L385 120.348L385 128.426L377.197 128.426L351.586 127.164ZM378.804 92.189L385 92.189L385 109.998L378.804 109.998L378.804 92.189ZM351.586 107.129L385 107.129L385 115.184L351.586 115.184L351.586 107.129ZM364.851 94.4839L370.84 94.4839L370.84 109.998L364.851 109.998L364.851 94.4839ZM351.586 92.1201L357.805 92.1201L357.805 109.998L351.586 109.998L351.586 92.1201ZM351.586 60.978L385 60.978L385 69.0103L364.208 80.8291L385 80.8291L385 88.8843L351.586 88.8843L351.586 80.8291L372.378 69.0103L351.586 69.0103L351.586 60.978ZM351.586 40.3926L385 40.3926L385 48.4478L351.586 48.4478L351.586 40.3926ZM351.586 30.3408L357.805 30.3408L357.805 58.27L351.586 58.27L351.586 30.3408ZM376.119 10.0767C375.598 10.0767 375.132 10.1532 374.719 10.3061C374.29 10.4591 373.893 10.7422 373.525 11.1553C373.158 11.5684 372.791 12.165 372.424 12.9453C372.041 13.7103 371.644 14.72 371.23 15.9746C370.741 17.4434 370.19 18.8586 369.578 20.2202C368.951 21.5819 368.224 22.7982 367.398 23.8691C366.556 24.9401 365.577 25.7892 364.46 26.4165C363.328 27.0438 362.013 27.3574 360.513 27.3574C359.075 27.3574 357.782 27.0361 356.635 26.3936C355.472 25.751 354.485 24.856 353.674 23.7085C352.848 22.5457 352.221 21.1841 351.792 19.6235C351.349 18.063 351.127 16.3571 351.127 14.5059C351.127 12.0579 351.555 9.90071 352.412 8.03418C353.254 6.15234 354.455 4.68359 356.015 3.62793C357.56 2.55696 359.389 2.02148 361.5 2.02148L361.5 10.0308C360.659 10.0308 359.916 10.2067 359.274 10.5586C358.631 10.8952 358.126 11.4077 357.759 12.0962C357.392 12.7847 357.208 13.6491 357.208 14.6895C357.208 15.6992 357.361 16.5483 357.667 17.2368C357.973 17.9253 358.387 18.4455 358.907 18.7974C359.412 19.1492 359.97 19.3252 360.582 19.3252C361.087 19.3252 361.546 19.1875 361.959 18.9121C362.357 18.6214 362.732 18.216 363.083 17.6958C363.435 17.1603 363.772 16.5177 364.093 15.7681C364.415 15.0031 364.728 14.1463 365.034 13.1978C365.6 11.423 366.235 9.84717 366.939 8.47021C367.627 7.07796 368.415 5.90755 369.303 4.95898C370.175 3.99511 371.169 3.26839 372.286 2.77881C373.403 2.27392 374.665 2.02148 376.073 2.02148C377.572 2.02148 378.903 2.31217 380.066 2.89355C381.229 3.47493 382.215 4.30875 383.026 5.39502C383.822 6.48128 384.426 7.78173 384.839 9.29638C385.252 10.811 385.459 12.5016 385.459 14.3682C385.459 16.0817 385.245 17.7723 384.816 19.4399C384.373 21.0923 383.7 22.5916 382.797 23.938C381.879 25.2843 380.708 26.363 379.286 27.1738C377.847 27.9694 376.142 28.3672 374.168 28.3672L374.168 20.2891C375.147 20.2891 375.973 20.159 376.646 19.8989C377.32 19.6388 377.863 19.2563 378.276 18.7515C378.674 18.2466 378.964 17.6269 379.148 16.8926C379.316 16.1582 379.4 15.3167 379.4 14.3682C379.4 13.3431 379.255 12.5169 378.964 11.8896C378.658 11.2624 378.261 10.8034 377.771 10.5127C377.266 10.222 376.715 10.0767 376.119 10.0767Z" fill="white"/>
</g>
<defs>
<linearGradient id="paint0_linear_97_489" x1="117.273" y1="177.096" x2="118.161" y2="218.986" gradientUnits="userSpaceOnUse">
<stop stop-color="#3368C8"/>
<stop offset="1" stop-color="#3368C8" stop-opacity="0"/>
</linearGradient>
</defs>
</svg>
