<svg width="385" height="240" viewBox="0 0 385 240" fill="none" xmlns="http://www.w3.org/2000/svg">
<mask id="mask0_97_140" style="mask-type:alpha" maskUnits="userSpaceOnUse" x="0" y="0" width="385" height="240">
<rect width="385" height="240" rx="16" fill="#EC6967"/>
</mask>
<g mask="url(#mask0_97_140)">
<rect width="385" height="240" rx="16" fill="#4D55CA"/>
<path opacity="0.1" d="M385 217.909L385 237.308L368.784 237.188L368.784 217.909C368.784 213.905 367.823 210.522 365.901 207.759C363.979 204.957 361.117 202.834 357.313 201.393C353.469 199.912 348.745 199.171 343.139 199.171L339.355 199.171C335.151 199.171 331.468 199.591 328.305 200.432C325.102 201.233 322.439 202.434 320.317 204.036C318.155 205.637 316.533 207.639 315.452 210.042C314.371 212.404 313.831 215.126 313.831 218.209L313.831 237.668L297.555 237.668L297.555 218.209C297.555 212.284 298.576 206.858 300.618 201.934C302.62 196.969 305.502 192.685 309.266 189.081C312.99 185.438 317.414 182.635 322.539 180.673C327.624 178.671 333.27 177.67 339.476 177.67L343.139 177.67C349.305 177.67 354.951 178.671 360.076 180.673C365.201 182.635 369.625 185.417 373.349 189.021C377.072 192.625 379.955 196.889 381.997 201.813C383.999 206.698 385 212.063 385 217.909ZM297.555 225.236L385 225.236L385 246.317L297.555 246.317L297.555 225.236ZM368.784 106.5L385 106.5L385 153.106L368.784 153.106L368.784 106.5ZM297.555 145.599L385 145.599L385 166.679L297.555 166.679L297.555 145.599ZM332.269 112.506L347.944 112.506L347.944 153.106L332.269 153.106L332.269 112.506ZM297.555 106.32L313.831 106.32L313.831 153.106L297.555 153.106L297.555 106.32ZM297.555 76.7715L385 76.7715L385 97.852L297.555 97.8521L297.555 76.7715ZM333.95 42.7783L350.166 42.7783L350.166 82.7773L333.95 82.7773L333.95 42.7783ZM297.555 39.355L313.831 39.355L313.831 82.7773L297.555 82.7773L297.555 39.355ZM297.555 8.18457L385 8.18457L385 29.2051L297.555 29.2051L297.555 8.18457Z" fill="white"/>
<path d="M-0.0100517 102.147V226.205C-0.0100517 227.101 0.0795097 227.997 0.258656 228.803C0.437801 229.699 0.706543 230.595 1.06483 231.49C2.94587 236.238 7.33494 239.641 12.5302 239.91C12.6197 239.91 12.7989 239.91 12.8885 239.91H50.957V116.747C50.957 105.192 41.9997 95.7871 30.9822 95.7871H14.3216C8.67853 95.7871 3.57287 98.2952 -0.0100517 102.147Z" fill="#A7D2B0"/>
<path opacity="0.2" d="M203.231 127.137C205.829 127.137 208.157 128.391 209.68 130.273C211.651 127.406 214.875 125.615 218.638 125.615C223.027 125.615 226.789 128.212 228.491 131.974C228.849 131.974 229.118 131.885 229.476 131.885C233.238 131.885 236.373 134.662 237 138.245H229.386H221.952H210.845H207.889H195.528C195.169 137.349 194.99 136.363 194.99 135.289C195.08 130.81 198.752 127.137 203.231 127.137Z" fill="#F2F2F2"/>
<path d="M77.7392 170.402H180.479C173.314 144.873 152.981 126.511 129.065 126.511C105.238 126.511 84.905 144.873 77.7392 170.402Z" fill="#A7D2B0"/>
<path d="M34.3853 175.418V240H189.347V175.418C189.347 161.444 178.15 149.979 164.445 149.979H59.3762C56.9577 149.979 54.7184 150.337 52.5687 150.964C41.999 154.01 34.3853 163.863 34.3853 175.418Z" fill="#F9E272"/>
<path d="M122.795 216.89V232.744C122.795 233.192 122.884 233.64 122.974 234.088C123.063 234.625 123.242 235.073 123.422 235.521C124.586 238.029 127.184 239.821 130.229 240C130.319 240 130.408 240 130.408 240H229.297C227.147 235.163 223.743 230.774 219.354 227.191C218.638 226.653 218.011 226.116 217.294 225.579C211.561 221.458 204.396 218.502 196.513 217.427C194.184 217.069 191.766 216.89 189.258 216.89H122.795Z" fill="#FF8D8B"/>
<path d="M-0.00999451 198.528V226.922C-0.00999451 227.729 0.0795593 228.624 0.258713 229.431C0.437851 230.326 0.706604 231.132 1.0649 232.028C2.94592 236.596 7.33499 239.821 12.5302 240C12.6198 240 12.799 240 12.8885 240H178.599C175.016 231.312 169.283 223.429 161.938 217.069C160.774 216.084 159.699 215.099 158.445 214.203C148.771 206.769 136.858 201.484 123.69 199.513C119.749 198.886 115.718 198.617 111.508 198.617H-0.00999451V198.528Z" fill="#E7B460"/>
<path d="M33.3642 92.4102L63.2715 174.367L59.8215 175.626L29.9142 93.6692L33.3642 92.4102Z" fill="#F3AFAE"/>
<path d="M50.9017 72.4087L147.714 106.816L146.514 110.193L49.7018 75.7849L50.9017 72.4087Z" fill="#F3AFAE"/>
<path d="M155.301 119.89L157.702 122.669L83.8416 186.512L81.4401 183.734L155.301 119.89Z" fill="#F3AFAE"/>
<path opacity="0.1" d="M5.25718 28.1319C7.04864 28.1319 8.7505 28.4902 10.2732 29.1172C11.8856 21.0556 19.0514 15.0542 27.5609 15.0542C36.8765 15.0542 44.4902 22.22 45.1172 31.3565C46.8191 30.4608 48.7897 29.9233 50.8499 29.9233C57.3887 29.9233 62.7631 35.029 63.2109 41.4782H42.8778H38.5784H18.6036H12.2439H-7.99962C-7.99962 34.0437 -2.08781 28.1319 5.25718 28.1319Z" fill="#F2F2F2"/>
<path d="M43.3426 198.527H70.1249C71.7372 198.527 72.9912 197.273 72.9912 195.661V168.879C72.9912 167.266 71.7372 166.012 70.1249 166.012H43.3426C41.7302 166.012 40.4762 167.266 40.4762 168.879V195.661C40.4762 197.273 41.7302 198.527 43.3426 198.527Z" fill="white"/>
<mask id="mask1_97_140" style="mask-type:alpha" maskUnits="userSpaceOnUse" x="52" y="165" width="34" height="34">
<path d="M55.5244 198.527H82.3963C84.0087 198.527 85.2627 197.273 85.2627 195.661V168.789C85.2627 167.177 84.0087 165.923 82.3963 165.923H55.5244C53.9121 165.923 52.6581 167.177 52.6581 168.789V195.661C52.6581 197.273 54.0017 198.527 55.5244 198.527Z" fill="#6D75E7"/>
</mask>
<g mask="url(#mask1_97_140)">
<path d="M55.5244 198.527H82.3963C84.0087 198.527 85.2627 197.273 85.2627 195.661V168.789C85.2627 167.177 84.0087 165.923 82.3963 165.923H55.5244C53.9121 165.923 52.6581 167.177 52.6581 168.789V195.661C52.6581 197.273 54.0017 198.527 55.5244 198.527Z" fill="#6D75E7"/>
<g opacity="0.3">
<path d="M39.8395 170.469C45.414 164.43 53.3113 160.83 61.5569 160.366C65.7378 160.133 69.9187 160.83 73.9835 162.108C78.1644 163.385 82.113 165.243 85.7133 167.566C89.4296 169.889 92.6814 172.676 95.5848 175.928C98.4882 179.18 101.159 183.012 101.856 187.541C102.553 191.955 100.927 196.135 98.256 199.62C95.4687 203.336 91.6362 206.007 87.8037 208.562C83.7389 211.233 79.7903 214.02 75.9578 217.04C72.2415 220.176 68.6412 223.428 65.2733 227.028C58.6535 233.996 53.079 242.009 45.9947 248.629C42.6267 251.765 39.0265 254.784 34.6133 256.178C30.4324 257.572 25.6709 257.223 22.1868 254.32C18.8188 251.649 16.9606 247.235 16.1477 243.171C15.3347 238.641 15.7993 234.112 16.9606 229.699C19.2834 220.524 24.5095 212.627 28.6904 204.149C30.7809 199.968 32.5229 195.555 33.452 190.909C34.3811 186.032 34.3811 180.806 36.1231 176.044C36.9361 173.953 38.3297 172.095 39.8395 170.469C40.0717 170.237 40.4202 170.586 40.1879 170.818C38.562 172.56 37.1683 174.534 36.4715 176.857C35.7747 179.296 35.4263 181.735 35.0779 184.173C34.7295 186.612 34.4972 189.051 34.0327 191.374C33.5681 193.58 32.8713 195.787 32.0583 197.878C28.8065 206.472 23.4643 214.137 19.9802 222.615C16.6122 230.86 14.5218 240.616 18.7027 248.977C19.6318 250.836 20.9093 252.578 22.419 253.855C24.1611 255.249 26.2515 256.178 28.4581 256.41C33.1036 256.875 37.5167 254.9 41.117 252.113C44.8333 249.326 48.0851 245.958 51.2208 242.59C54.3565 239.106 57.376 235.39 60.3956 231.789C66.5508 224.705 73.4028 218.201 81.0678 212.627C88.2683 207.401 97.6753 203.104 100.811 194.161C101.508 192.071 101.856 189.864 101.508 187.658C101.159 185.451 100.346 183.361 99.1851 181.502C96.9785 177.786 93.9589 174.534 90.7071 171.863C87.4553 169.076 83.7389 166.753 79.9065 165.011C76.074 163.269 72.0092 161.875 67.9444 161.295C59.931 160.133 51.5692 162.108 44.9495 166.985C43.3236 168.147 41.8138 169.54 40.4202 171.05C40.0717 171.05 39.6072 170.702 39.8395 170.469Z" fill="white"/>
<path d="M56.5643 176.857C58.5386 172.793 62.3711 170.121 66.7843 169.541C68.9908 169.308 71.3136 169.541 73.404 170.354C75.8429 171.283 78.2817 172.56 80.4883 174.07C82.6949 175.58 84.6692 177.206 86.5274 179.064C87.4565 179.993 88.2695 181.038 89.0824 182.083C89.8954 183.129 90.5922 184.29 90.8244 185.684C91.1729 188.239 89.4308 190.213 87.4565 191.374C85.0176 192.884 82.2304 193.581 79.6754 194.51C77.1204 195.323 74.7977 196.368 72.7072 197.994C70.849 199.388 69.2231 201.014 67.8295 202.872C64.8099 206.472 62.3711 210.537 59.3515 214.021C57.8418 215.763 56.2159 217.389 54.4738 218.782C52.3834 220.408 49.8284 221.686 47.1572 221.337C44.8345 221.105 42.8602 219.363 42.3957 217.04C41.9311 214.834 42.6279 212.627 43.557 210.653C45.7636 205.891 49.5961 202.175 52.1511 197.762C53.5447 195.323 54.4738 192.768 54.9384 189.981C55.4029 186.961 55.4029 183.825 55.7513 180.806C55.6352 179.412 55.9836 178.135 56.5643 176.857C56.6804 176.509 57.145 176.857 57.0288 177.09C56.332 178.483 56.2159 179.877 55.9836 181.387C55.8675 182.78 55.7513 184.29 55.6352 185.8C55.4029 188.587 55.1706 191.49 54.2416 194.162C52.6156 198.923 49.1316 202.639 46.3443 206.704C44.9507 208.679 43.6732 210.769 42.9763 213.092C42.3957 215.066 42.1634 217.505 43.6732 219.247C45.5313 221.454 48.667 221.337 51.1059 220.292C53.3125 219.363 55.1706 217.737 56.9127 215.995C60.0484 212.743 62.4872 209.027 65.1584 205.427C67.7134 201.943 70.6168 198.575 74.4492 196.368C76.772 194.975 79.327 194.278 81.882 193.349C84.3208 192.536 86.992 191.607 88.8501 189.748C89.6631 188.935 90.3599 187.774 90.3599 186.497C90.3599 185.103 89.6631 183.825 88.8501 182.78C87.3404 180.69 85.4822 178.832 83.5079 177.09C81.5336 175.464 79.4431 173.954 77.1204 172.676C75.0299 171.515 72.7072 170.47 70.2683 170.121C65.9713 169.425 61.5581 171.167 58.6547 174.418C57.9579 175.231 57.3772 176.16 56.9127 177.206C56.9127 177.438 56.4481 177.206 56.5643 176.857Z" fill="white"/>
<path d="M84.9002 183.941C85.5971 184.754 86.1777 185.683 86.1777 186.844C86.1777 187.774 85.8293 188.586 85.1325 189.167C84.4357 189.748 83.3905 189.98 82.5775 190.329C81.4161 190.677 80.3709 191.025 79.2096 191.258C77.003 191.838 74.6803 192.419 72.4737 193.348C71.4284 193.813 70.2671 194.393 69.338 194.974C68.4089 195.671 67.5959 196.484 66.6669 197.181C65.8539 197.877 64.8087 198.458 63.7635 198.226C62.7182 197.994 62.1375 197.181 62.1375 196.135C62.1375 194.974 62.3698 193.813 62.7182 192.651C62.9505 191.374 63.415 190.212 63.7635 188.935C64.5764 186.612 65.8539 184.289 67.5959 182.664C69.1057 181.27 70.8478 180.341 72.8221 179.876C76.6546 178.947 80.8355 180.109 83.7389 182.664C84.2034 183.244 84.5518 183.593 84.9002 183.941C85.1325 184.173 84.7841 184.522 84.5518 184.289C82.113 181.502 78.3966 179.876 74.6803 180.225C72.8221 180.341 71.08 181.038 69.4541 181.967C67.5959 183.244 66.2023 184.986 65.2732 186.961C64.228 189.051 63.5312 191.374 63.0666 193.696C62.9505 194.277 62.8344 194.742 62.8344 195.322C62.7182 195.787 62.7182 196.368 62.8344 196.832C63.2989 198.11 64.9248 197.877 65.8539 197.297C66.6669 196.716 67.3637 195.903 68.1766 195.322C68.9896 194.626 69.8025 194.161 70.7316 193.696C72.5898 192.767 74.5641 192.071 76.5384 191.49C78.8612 190.909 81.1839 190.329 83.3905 189.516C84.2034 189.167 85.1325 188.819 85.4809 187.89C85.9455 186.612 85.2486 185.335 84.4357 184.406C84.3196 184.057 84.668 183.709 84.9002 183.941Z" fill="white"/>
</g>
</g>
<path d="M17.366 95.7875H44.1483C45.7606 95.7875 47.0146 94.5335 47.0146 92.9211V66.1388C47.0146 64.5265 45.7606 63.2725 44.1483 63.2725H17.366C15.7537 63.2725 14.4996 64.5265 14.4996 66.1388V92.9211C14.4996 94.5335 15.7537 95.7875 17.366 95.7875Z" fill="white"/>
<mask id="mask2_97_140" style="mask-type:alpha" maskUnits="userSpaceOnUse" x="26" y="63" width="34" height="33">
<path d="M29.5498 95.7877H56.4217C58.0341 95.7877 59.2881 94.5337 59.2881 92.9214V66.0495C59.2881 64.4371 58.0341 63.1831 56.4217 63.1831H29.5498C27.9375 63.1831 26.6835 64.4371 26.6835 66.0495V92.9214C26.6835 94.5337 27.9375 95.7877 29.5498 95.7877Z" fill="#6D75E7"/>
</mask>
<g mask="url(#mask2_97_140)">
<path d="M29.5498 95.7877H56.4217C58.0341 95.7877 59.2881 94.5337 59.2881 92.9214V66.0495C59.2881 64.4371 58.0341 63.1831 56.4217 63.1831H29.5498C27.9375 63.1831 26.6835 64.4371 26.6835 66.0495V92.9214C26.6835 94.5337 27.9375 95.7877 29.5498 95.7877Z" fill="#6D75E7"/>
<g opacity="0.3">
<path d="M14.5748 75.2445C20.1494 69.2055 28.0466 65.6052 36.2923 65.1407C40.4732 64.9084 44.6541 65.6052 48.7189 66.8827C52.8998 68.1602 56.8484 70.0184 60.4486 72.3411C64.165 74.6639 67.4168 77.4511 70.3202 80.7029C73.2236 83.9548 75.8947 87.7872 76.5915 92.3166C77.2884 96.7297 75.6625 100.911 72.9913 104.395C70.2041 108.111 66.3716 110.782 62.5391 113.337C58.4743 116.008 54.5257 118.796 50.6932 121.815C46.9768 124.951 43.3766 128.203 40.0086 131.803C33.3889 138.771 27.8144 146.784 20.73 153.404C17.3621 156.54 13.7619 159.559 9.34869 160.953C5.16779 162.347 0.406212 161.998 -3.07787 159.095C-6.44582 156.424 -8.30401 152.011 -9.11696 147.946C-9.92992 143.416 -9.46536 138.887 -8.304 134.474C-5.98128 125.299 -0.75515 117.402 3.42575 108.924C5.5162 104.743 7.25824 100.33 8.18733 95.6845C9.11642 90.8068 9.11642 85.5807 10.8585 80.8191C11.6714 78.7286 13.0651 76.8704 14.5748 75.2445C14.8071 75.0123 15.1555 75.3607 14.9232 75.5929C13.2973 77.335 11.9037 79.3093 11.2069 81.632C10.5101 84.0709 10.1617 86.5098 9.81324 88.9486C9.46483 91.3875 9.23256 93.8263 8.76801 96.1491C8.30347 98.3556 7.60665 100.562 6.7937 102.653C3.54189 111.247 -1.80038 118.912 -5.28446 127.39C-8.65241 135.635 -10.7429 145.391 -6.56196 153.753C-5.63287 155.611 -4.35538 157.353 -2.8456 158.63C-1.10356 160.024 0.986885 160.953 3.19347 161.185C7.83892 161.65 12.2521 159.676 15.8523 156.888C19.5687 154.101 22.8205 150.733 25.9562 147.365C29.0919 143.881 32.1114 140.165 35.1309 136.564C41.2861 129.48 48.1382 122.977 55.8032 117.402C63.0036 112.176 72.4106 107.879 75.5463 98.9363C76.2431 96.8459 76.5915 94.6393 76.2431 92.4327C75.8947 90.2261 75.0818 88.1357 73.9204 86.2775C71.7138 82.5611 68.6943 79.3093 65.4425 76.6382C62.1907 73.8509 58.4743 71.5282 54.6418 69.7861C50.8093 68.0441 46.7445 66.6505 42.6798 66.0698C34.6664 64.9084 26.3046 66.8827 19.6848 71.7605C18.0589 72.9218 16.5491 74.3155 15.1555 75.8252C14.8071 75.8252 14.3425 75.4768 14.5748 75.2445Z" fill="white"/>
<path d="M31.2996 81.6324C33.2739 77.5676 37.1064 74.8965 41.5196 74.3158C43.7262 74.0836 46.0489 74.3158 48.1394 75.1288C50.5782 76.0579 53.0171 77.3354 55.2237 78.8451C57.4303 80.3549 59.4046 81.9808 61.2628 83.839C62.1919 84.7681 63.0048 85.8133 63.8178 86.8585C64.6307 87.9038 65.3275 89.0651 65.5598 90.4588C65.9082 93.0138 64.1662 94.9881 62.1919 96.1494C59.753 97.6592 56.9657 98.356 54.4107 99.2851C51.8557 100.098 49.533 101.143 47.4426 102.769C45.5844 104.163 43.9585 105.789 42.5648 107.647C39.5453 111.247 37.1064 115.312 34.0869 118.796C32.5771 120.538 30.9512 122.164 29.2092 123.558C27.1187 125.183 24.5637 126.461 21.8926 126.113C19.5699 125.88 17.5956 124.138 17.131 121.816C16.6665 119.609 17.3633 117.402 18.2924 115.428C20.499 110.666 24.3315 106.95 26.8864 102.537C28.2801 100.098 29.2092 97.5431 29.6737 94.7558C30.1383 91.7363 30.1383 88.6006 30.4867 85.581C30.3705 84.1874 30.7189 82.9099 31.2996 81.6324C31.4158 81.284 31.8803 81.6324 31.7642 81.8647C31.0674 83.2583 30.9512 84.652 30.7189 86.1617C30.6028 87.5554 30.4867 89.0651 30.3705 90.5749C30.1383 93.3622 29.906 96.2656 28.9769 98.9367C27.351 103.698 23.8669 107.415 21.0796 111.479C19.686 113.454 18.4085 115.544 17.7117 117.867C17.131 119.841 16.8987 122.28 18.4085 124.022C20.2667 126.229 23.4024 126.113 25.8412 125.067C28.0478 124.138 29.906 122.512 31.648 120.77C34.7837 117.518 37.2226 113.802 39.8937 110.202C42.4487 106.718 45.3521 103.35 49.1846 101.143C51.5073 99.7497 54.0623 99.0528 56.6173 98.1238C59.0562 97.3108 61.7273 96.3817 63.5855 94.5235C64.3984 93.7106 65.0953 92.5492 65.0953 91.2717C65.0953 89.8781 64.3984 88.6006 63.5855 87.5554C62.0757 85.4649 60.2175 83.6067 58.2432 81.8647C56.2689 80.2388 54.1785 78.729 51.8557 77.4515C49.7653 76.2902 47.4426 75.2449 45.0037 74.8965C40.7067 74.1997 36.2935 75.9417 33.3901 79.1936C32.6933 80.0065 32.1126 80.9356 31.648 81.9808C31.648 82.2131 31.1835 81.9808 31.2996 81.6324Z" fill="white"/>
<path d="M59.6356 88.7163C60.3324 89.5293 60.9131 90.4584 60.9131 91.6197C60.9131 92.5488 60.5647 93.3618 59.8679 93.9424C59.171 94.5231 58.1258 94.7554 57.3129 95.1038C56.1515 95.4522 55.1063 95.8006 53.9449 96.0329C51.7383 96.6136 49.4156 97.1942 47.209 98.1233C46.1638 98.5879 45.0024 99.1686 44.0733 99.7492C43.1443 100.446 42.3313 101.259 41.4022 101.956C40.5893 102.653 39.544 103.233 38.4988 103.001C37.4536 102.769 36.8729 101.956 36.8729 100.911C36.8729 99.7492 37.1052 98.5879 37.4536 97.4265C37.6858 96.149 38.1504 94.9877 38.4988 93.7102C39.3118 91.3874 40.5893 89.0647 42.3313 87.4388C43.8411 86.0452 45.5831 85.1161 47.5574 84.6515C51.3899 83.7225 55.5708 84.8838 58.4742 87.4388C58.9388 88.0195 59.2872 88.3679 59.6356 88.7163C59.8679 88.9486 59.5195 89.297 59.2872 89.0647C56.8483 86.2774 53.132 84.6515 49.4156 85C47.5574 85.1161 45.8154 85.8129 44.1895 86.742C42.3313 88.0195 40.9377 89.7615 40.0086 91.7358C38.9634 93.8263 38.2665 96.149 37.802 98.4717C37.6859 99.0524 37.5697 99.517 37.5697 100.098C37.4536 100.562 37.4536 101.143 37.5697 101.607C38.0343 102.885 39.6602 102.653 40.5893 102.072C41.4022 101.491 42.099 100.678 42.912 100.098C43.7249 99.4008 44.5379 98.9363 45.467 98.4717C47.3252 97.5427 49.2995 96.8458 51.2738 96.2652C53.5965 95.6845 55.9192 95.1038 58.1258 94.2908C58.9388 93.9424 59.8679 93.594 60.2163 92.6649C60.6808 91.3874 59.984 90.1099 59.171 89.1809C59.0549 88.8324 59.4033 88.484 59.6356 88.7163Z" fill="white"/>
</g>
</g>
<path d="M126.556 126.6H153.339C154.951 126.6 156.205 125.346 156.205 123.734V96.9518C156.205 95.3395 154.951 94.0854 153.339 94.0854H126.556C124.944 94.0854 123.69 95.3395 123.69 96.9518V123.734C123.69 125.257 124.944 126.6 126.556 126.6Z" fill="white"/>
<mask id="mask3_97_140" style="mask-type:alpha" maskUnits="userSpaceOnUse" x="135" y="93" width="34" height="34">
<path d="M138.737 126.601H165.609C167.222 126.601 168.476 125.347 168.476 123.734V96.8624C168.476 95.2501 167.222 93.9961 165.609 93.9961H138.737C137.125 93.9961 135.871 95.2501 135.871 96.8624V123.734C135.871 125.257 137.125 126.601 138.737 126.601Z" fill="#6D75E7"/>
</mask>
<g mask="url(#mask3_97_140)">
<path d="M138.737 126.601H165.609C167.222 126.601 168.476 125.347 168.476 123.734V96.8624C168.476 95.2501 167.222 93.9961 165.609 93.9961H138.737C137.125 93.9961 135.871 95.2501 135.871 96.8624V123.734C135.871 125.257 137.125 126.601 138.737 126.601Z" fill="#6D75E7"/>
<g opacity="0.3">
<path d="M125.346 90.7907C130.921 84.7516 138.818 81.1514 147.064 80.6868C151.245 80.4546 155.426 81.1514 159.49 82.4289C163.671 83.7064 167.62 85.5646 171.22 87.8873C174.936 90.21 178.188 92.9973 181.092 96.2491C183.995 99.5009 186.666 103.333 187.363 107.863C188.06 112.276 186.434 116.457 183.763 119.941C180.976 123.657 177.143 126.328 173.311 128.883C169.246 131.554 165.297 134.342 161.465 137.361C157.748 140.497 154.148 143.749 150.78 147.349C144.16 154.317 138.586 162.331 131.502 168.95C128.134 172.086 124.533 175.106 120.12 176.499C115.939 177.893 111.178 177.544 107.694 174.641C104.326 171.97 102.467 167.557 101.655 163.492C100.842 158.963 101.306 154.433 102.467 150.02C104.79 140.845 110.016 132.948 114.197 124.47C116.288 120.289 118.03 115.876 118.959 111.231C119.888 106.353 119.888 101.127 121.63 96.3652C122.443 94.2748 123.837 92.4166 125.346 90.7907C125.579 90.5584 125.927 90.9068 125.695 91.1391C124.069 92.8811 122.675 94.8554 121.978 97.1782C121.282 99.617 120.933 102.056 120.585 104.495C120.236 106.934 120.004 109.372 119.539 111.695C119.075 113.902 118.378 116.108 117.565 118.199C114.313 126.793 108.971 134.458 105.487 142.936C102.119 151.182 100.029 160.937 104.21 169.299C105.139 171.157 106.416 172.899 107.926 174.176C109.668 175.57 111.758 176.499 113.965 176.731C118.61 177.196 123.024 175.222 126.624 172.434C130.34 169.647 133.592 166.279 136.728 162.911C139.863 159.427 142.883 155.711 145.902 152.111C152.058 145.026 158.91 138.523 166.575 132.948C173.775 127.722 183.182 123.425 186.318 114.482C187.015 112.392 187.363 110.185 187.015 107.979C186.666 105.772 185.853 103.682 184.692 101.824C182.485 98.1073 179.466 94.8555 176.214 92.1843C172.962 89.397 169.246 87.0743 165.413 85.3323C161.581 83.5902 157.516 82.1966 153.451 81.6159C145.438 80.4546 137.076 82.4289 130.456 87.3066C128.83 88.468 127.321 89.8616 125.927 91.3714C125.579 91.3714 125.114 91.023 125.346 90.7907Z" fill="white"/>
<path d="M142.071 97.1786C144.045 93.1138 147.878 90.4427 152.291 89.862C154.498 89.6297 156.82 89.862 158.911 90.6749C161.35 91.604 163.789 92.8815 165.995 94.3913C168.202 95.9011 170.176 97.527 172.034 99.3851C172.963 100.314 173.776 101.359 174.589 102.405C175.402 103.45 176.099 104.611 176.331 106.005C176.68 108.56 174.938 110.534 172.963 111.696C170.524 113.205 167.737 113.902 165.182 114.831C162.627 115.644 160.304 116.689 158.214 118.315C156.356 119.709 154.73 121.335 153.336 123.193C150.317 126.793 147.878 130.858 144.858 134.342C143.349 136.084 141.723 137.71 139.981 139.104C137.89 140.73 135.335 142.007 132.664 141.659C130.341 141.426 128.367 139.684 127.902 137.362C127.438 135.155 128.135 132.949 129.064 130.974C131.27 126.213 135.103 122.496 137.658 118.083C139.052 115.644 139.981 113.089 140.445 110.302C140.91 107.282 140.91 104.147 141.258 101.127C141.142 99.7336 141.49 98.4561 142.071 97.1786C142.187 96.8301 142.652 97.1786 142.536 97.4108C141.839 98.8045 141.723 100.198 141.49 101.708C141.374 103.102 141.258 104.611 141.142 106.121C140.91 108.908 140.677 111.812 139.748 114.483C138.122 119.244 134.638 122.961 131.851 127.026C130.457 129 129.18 131.09 128.483 133.413C127.902 135.387 127.67 137.826 129.18 139.568C131.038 141.775 134.174 141.659 136.613 140.613C138.819 139.684 140.677 138.058 142.42 136.316C145.555 133.065 147.994 129.348 150.665 125.748C153.22 122.264 156.124 118.896 159.956 116.689C162.279 115.296 164.834 114.599 167.389 113.67C169.828 112.857 172.499 111.928 174.357 110.07C175.17 109.257 175.867 108.095 175.867 106.818C175.867 105.424 175.17 104.147 174.357 103.102C172.847 101.011 170.989 99.1529 169.015 97.4108C167.04 95.7849 164.95 94.2752 162.627 92.9977C160.537 91.8363 158.214 90.7911 155.775 90.4427C151.478 89.7458 147.065 91.4879 144.162 94.7397C143.465 95.5527 142.884 96.4817 142.42 97.527C142.42 97.7592 141.955 97.527 142.071 97.1786Z" fill="white"/>
<path d="M170.407 104.263C171.104 105.076 171.685 106.005 171.685 107.166C171.685 108.095 171.336 108.908 170.639 109.489C169.943 110.07 168.897 110.302 168.084 110.65C166.923 110.999 165.878 111.347 164.716 111.58C162.51 112.16 160.187 112.741 157.98 113.67C156.935 114.135 155.774 114.715 154.845 115.296C153.916 115.993 153.103 116.806 152.174 117.502C151.361 118.199 150.316 118.78 149.27 118.548C148.225 118.315 147.644 117.502 147.644 116.457C147.644 115.296 147.877 114.135 148.225 112.973C148.457 111.696 148.922 110.534 149.27 109.257C150.083 106.934 151.361 104.611 153.103 102.985C154.613 101.592 156.355 100.663 158.329 100.198C162.161 99.2691 166.342 100.43 169.246 102.985C169.71 103.566 170.059 103.915 170.407 104.263C170.639 104.495 170.291 104.844 170.059 104.611C167.62 101.824 163.903 100.198 160.187 100.547C158.329 100.663 156.587 101.36 154.961 102.289C153.103 103.566 151.709 105.308 150.78 107.282C149.735 109.373 149.038 111.696 148.573 114.018C148.457 114.599 148.341 115.064 148.341 115.644C148.225 116.109 148.225 116.69 148.341 117.154C148.806 118.432 150.432 118.199 151.361 117.619C152.174 117.038 152.871 116.225 153.683 115.644C154.496 114.947 155.309 114.483 156.238 114.018C158.097 113.089 160.071 112.392 162.045 111.812C164.368 111.231 166.691 110.65 168.897 109.837C169.71 109.489 170.639 109.141 170.988 108.212C171.452 106.934 170.755 105.657 169.943 104.727C169.826 104.379 170.175 104.031 170.407 104.263Z" fill="white"/>
</g>
</g>
<path d="M94.042 114.418C94.042 107.521 89.1155 101.878 83.1141 101.878C77.1127 101.878 72.1861 107.521 72.1861 114.418" stroke="white"/>
<path d="M72.1861 114.419V131.975H94.042V114.419" stroke="white"/>
<path d="M70.3951 149.979H95.8338C97.4462 149.979 98.7002 148.725 98.7002 147.112V123.465C98.7002 121.853 97.4462 120.599 95.8338 120.599H70.3951C68.7828 120.599 67.5288 121.853 67.5288 123.465V147.112C67.5288 148.725 68.7828 149.979 70.3951 149.979Z" fill="#F3AFAE"/>
<path d="M86.4277 131.975C86.4277 133.766 84.905 135.289 83.1135 135.289C81.3221 135.289 79.7993 133.766 79.7993 131.975C79.7993 130.183 81.3221 128.66 83.1135 128.66C84.905 128.66 86.4277 130.183 86.4277 131.975Z" fill="white"/>
<path d="M83.113 140.843C84.0087 140.843 84.6357 140.216 84.6357 139.32V134.304C84.6357 133.498 84.0087 132.781 83.113 132.781H83.0234C82.2173 132.781 81.5007 133.408 81.5007 134.304V139.32C81.5903 140.216 82.3068 140.843 83.113 140.843Z" fill="white"/>
</g>
</svg>
