<svg width="385" height="240" viewBox="0 0 385 240" fill="none" xmlns="http://www.w3.org/2000/svg">
<mask id="mask0_97_197" style="mask-type:alpha" maskUnits="userSpaceOnUse" x="0" y="0" width="385" height="240">
<rect width="385" height="240" rx="16" fill="#EC6967"/>
</mask>
<g mask="url(#mask0_97_197)">
<rect width="385" height="240" rx="16" fill="#654E98"/>
<path opacity="0.15" d="M385 209.451L385 230.585L367.334 230.454L367.334 209.451C367.334 205.089 366.287 201.403 364.193 198.394C362.1 195.34 358.981 193.028 354.837 191.458C350.649 189.844 345.502 189.037 339.396 189.037L335.273 189.037C330.693 189.037 326.68 189.495 323.234 190.411C319.745 191.284 316.844 192.592 314.532 194.337C312.177 196.082 310.41 198.263 309.232 200.88C308.055 203.453 307.466 206.42 307.466 209.778L307.466 230.978L289.734 230.978L289.734 209.778C289.734 203.323 290.847 197.412 293.071 192.047C295.252 186.638 298.393 181.971 302.493 178.045C306.55 174.076 311.37 171.022 316.953 168.885C322.493 166.704 328.643 165.613 335.404 165.613L339.396 165.613C346.113 165.613 352.263 166.704 357.847 168.885C363.43 171.022 368.25 174.054 372.307 177.979C376.363 181.905 379.504 186.551 381.729 191.916C383.91 197.238 385 203.083 385 209.451ZM289.734 217.434L385 217.434L385 240.399L289.734 240.399L289.734 217.434ZM367.334 88.0791L385 88.0791L385 138.853L367.334 138.853L367.334 88.0791ZM289.734 130.674L385 130.674L385 153.64L289.734 153.64L289.734 130.674ZM327.553 94.6221L344.63 94.6221L344.63 138.853L327.553 138.853L327.553 94.6221ZM289.734 87.8828L307.466 87.8828L307.466 138.853L289.734 138.853L289.734 87.8828ZM289.734 58.7012L321.402 43.1289L289.734 27.5566L289.734 1.38477L336.975 27.9492L385 0.665036L385 27.0986L352.743 43.1289L385 59.1592L385 85.6582L336.975 58.3086L289.734 84.9385L289.734 58.7012Z" fill="white"/>
<path d="M135.726 121.682C135.726 149 113.579 171.146 86.2614 171.146C58.944 171.146 36.7971 149 36.7971 121.682C36.7971 94.3649 58.944 72.218 86.2614 72.218C113.579 72.3042 135.726 94.3649 135.726 121.682Z" fill="#82A5FF"/>
<g opacity="0.85">
<g opacity="0.85">
<g opacity="0.85">
<path opacity="0.85" d="M41.9687 118.235C42.2272 118.235 42.4857 117.977 42.4857 117.718C42.4857 109.704 44.3816 101.948 47.9147 94.7956C51.6203 87.557 57.1354 81.0939 63.7709 76.3543C64.1156 76.0957 64.5464 75.8372 64.8911 75.5787C70.5787 71.7008 76.9556 69.0294 83.6772 67.7368C86.6933 67.1336 89.7094 66.7889 92.7255 66.7889C93.0702 66.7889 93.3288 66.7889 93.6735 66.7889C96.3449 66.7889 98.9301 66.9612 101.515 67.3921C107.634 68.34 113.407 70.322 118.75 73.3382C120.388 74.2861 121.939 75.234 123.49 76.3543C130.298 81.0939 135.813 87.557 139.518 94.7956C143.138 101.948 144.947 109.618 144.947 117.718C144.947 117.977 145.206 118.235 145.464 118.235C145.723 118.235 145.981 117.977 145.981 117.718C145.981 109.531 144.086 101.603 140.38 94.3648C136.588 86.8676 130.987 80.4045 124.179 75.4925C122.628 74.3722 120.991 73.3382 119.353 72.3902C113.924 69.2879 107.978 67.2198 101.774 66.2718C98.8439 65.841 95.8278 65.5824 92.8117 65.6686C89.7094 65.7548 86.6071 66.0133 83.5049 66.6165C76.6109 67.9953 70.1478 70.6667 64.3741 74.6308C64.0294 74.8893 63.5985 75.1478 63.2538 75.4063C56.446 80.3183 50.8447 86.8676 47.1392 94.2786C47.1392 94.2786 47.1392 94.2786 47.1392 94.3648C43.4337 101.69 41.624 109.531 41.5378 117.718C41.4517 118.063 41.7102 118.235 41.9687 118.235Z" fill="white"/>
<path opacity="0.85" d="M41.9685 118.235H145.55C145.809 118.235 146.067 117.977 146.067 117.718C146.067 117.46 145.809 117.201 145.55 117.201H41.9685C41.7099 117.201 41.4514 117.46 41.4514 117.718C41.4514 118.063 41.7099 118.235 41.9685 118.235Z" fill="white"/>
<path opacity="0.85" d="M47.4834 95.1404H139.949C140.207 95.1404 140.466 94.8819 140.466 94.6234C140.466 94.3648 140.207 94.1063 139.949 94.1063H47.4834C47.2249 94.1063 46.9664 94.3648 46.9664 94.6234C46.9664 94.8819 47.2249 95.1404 47.4834 95.1404Z" fill="white"/>
<path opacity="0.85" d="M63.5118 76.4406H124.006C124.265 76.4406 124.523 76.1821 124.523 75.9235C124.523 75.665 124.265 75.4065 124.006 75.4065H63.5118C63.2533 75.4065 62.9948 75.665 62.9948 75.9235C62.9948 76.1821 63.2533 76.4406 63.5118 76.4406Z" fill="white"/>
<path opacity="0.85" d="M92.8111 118.235C93.0696 118.235 93.3281 117.977 93.3281 117.718V66.0996C93.3281 65.841 93.0696 65.5825 92.8111 65.5825C92.5526 65.5825 92.294 65.841 92.294 66.0996V117.718C92.294 118.063 92.5526 118.235 92.8111 118.235Z" fill="white"/>
<path opacity="0.85" d="M119.871 118.235C120.129 118.235 120.388 117.977 120.388 117.718C120.302 110.049 119.095 102.207 116.596 94.4509C114.528 87.9878 111.77 81.6971 108.237 75.5787C105.824 71.4423 103.584 68.34 102.119 66.4442C102.033 66.2718 101.86 66.1857 101.688 66.1857C101.429 66.1857 101.171 66.4442 101.171 66.7027C101.171 66.7889 101.171 66.9612 101.257 67.0474C102.722 68.9433 104.962 72.0455 107.289 76.0957C110.822 82.0418 113.58 88.3325 115.562 94.7095C117.975 102.379 119.267 110.049 119.267 117.718C119.354 118.063 119.612 118.235 119.871 118.235Z" fill="white"/>
<path opacity="0.85" d="M136.847 118.235C137.106 118.235 137.364 117.977 137.364 117.718C137.278 109.962 135.727 102.121 132.625 94.3649C129.35 86.1783 125.041 79.5429 122.025 75.4927C121.163 74.3724 120.388 73.3383 119.612 72.3904C119.44 72.218 119.095 72.218 118.837 72.3904C118.664 72.5627 118.664 72.9074 118.837 73.0798C119.612 74.0277 120.388 75.0618 121.25 76.0959C124.266 80.1461 128.488 86.6092 131.763 94.7096C134.779 102.293 136.33 110.049 136.416 117.632C136.33 118.063 136.503 118.235 136.847 118.235Z" fill="white"/>
<path opacity="0.85" d="M48.8624 118.235C49.1209 118.235 49.3795 117.977 49.3795 117.718C49.4656 110.135 51.0168 102.379 54.0329 94.7957C57.2214 86.6953 61.5301 80.2322 64.5462 76.182C64.7185 75.9235 64.9771 75.665 65.1494 75.4064C65.3218 75.1479 65.3218 74.8032 65.0632 74.6309C64.8047 74.4585 64.46 74.4585 64.2877 74.717C64.1153 74.9756 63.8568 75.2341 63.6844 75.4926C60.6683 79.5428 56.2734 86.0921 53.085 94.3648C50.0689 102.121 48.4315 109.962 48.3454 117.718C48.2592 118.063 48.5177 118.235 48.8624 118.235Z" fill="white"/>
<path opacity="0.85" d="M65.7525 118.235C66.011 118.235 66.2695 117.977 66.2695 117.718C66.3557 110.135 67.5621 102.379 69.975 94.7096C71.957 88.3327 74.8008 82.042 78.2478 76.0959C80.4883 72.218 82.6427 69.2019 84.0215 67.3923C84.1938 67.1337 84.1938 66.789 83.9353 66.6167C83.6768 66.4443 83.3321 66.4444 83.1597 66.7029C81.7809 68.5125 79.6266 71.5287 77.2999 75.4927C73.7667 81.5249 70.9229 87.9018 68.9409 94.3649C66.528 102.121 65.2354 109.963 65.1492 117.632C65.2354 118.063 65.4078 118.235 65.7525 118.235Z" fill="white"/>
</g>
</g>
<g opacity="0.85">
<g opacity="0.85">
<path opacity="0.85" d="M93.7594 169.854C96.4308 169.854 99.1884 169.682 101.86 169.251C108.064 168.303 113.924 166.235 119.439 163.132C121.077 162.184 122.714 161.15 124.265 160.03C131.073 155.118 136.674 148.569 140.466 141.158C144.172 133.833 146.067 125.991 146.067 117.805C146.067 117.546 145.809 117.287 145.55 117.287C145.292 117.287 145.033 117.546 145.033 117.805C145.033 125.819 143.137 133.574 139.604 140.727C135.899 148.052 130.47 154.429 123.748 159.255C122.197 160.375 120.646 161.409 119.009 162.271C113.666 165.287 107.806 167.355 101.774 168.303C98.9299 168.734 95.9138 168.992 92.9838 168.906C89.9677 168.82 86.8654 168.561 83.9355 167.958C77.2139 166.666 70.837 163.994 65.1494 160.116C64.8047 159.858 64.3739 159.599 64.0292 159.341C57.3937 154.515 51.8786 148.138 48.173 140.813C44.5537 133.661 42.744 125.991 42.744 117.891C42.744 117.632 42.4855 117.374 42.227 117.374C41.9685 117.374 41.7099 117.632 41.7099 117.891C41.7099 126.077 43.6058 134.005 47.3113 141.244C51.103 148.741 56.7043 155.204 63.5121 160.116C63.8568 160.375 64.2877 160.633 64.6324 160.892C70.4923 164.856 76.9554 167.527 83.8493 168.906C86.8654 169.509 90.0539 169.854 93.1562 169.854C93.1562 169.854 93.4147 169.854 93.7594 169.854Z" fill="white"/>
<path opacity="0.85" d="M41.9685 118.235H145.55C145.809 118.235 146.067 117.977 146.067 117.718C146.067 117.46 145.809 117.201 145.55 117.201H41.9685C41.7099 117.201 41.4514 117.46 41.4514 117.718C41.4514 118.063 41.7099 118.235 41.9685 118.235Z" fill="white"/>
<path opacity="0.85" d="M47.4834 141.416H139.949C140.207 141.416 140.466 141.158 140.466 140.899C140.466 140.641 140.207 140.382 139.949 140.382H47.4834C47.2249 140.382 46.9664 140.641 46.9664 140.899C46.9664 141.158 47.2249 141.416 47.4834 141.416Z" fill="white"/>
<path opacity="0.85" d="M63.5118 160.116H124.006C124.265 160.116 124.523 159.858 124.523 159.599C124.523 159.341 124.265 159.082 124.006 159.082H63.5118C63.2533 159.082 62.9948 159.341 62.9948 159.599C62.9948 159.944 63.2533 160.116 63.5118 160.116Z" fill="white"/>
<path opacity="0.85" d="M92.8111 169.854C93.0696 169.854 93.3281 169.595 93.3281 169.337V117.718C93.3281 117.46 93.0696 117.201 92.8111 117.201C92.5526 117.201 92.294 117.46 92.294 117.718V169.337C92.294 169.682 92.5526 169.854 92.8111 169.854Z" fill="white"/>
<path opacity="0.85" d="M101.688 169.251C101.86 169.251 102.033 169.165 102.119 168.992C103.584 167.096 105.824 163.908 108.237 159.858C111.77 153.825 114.614 147.449 116.596 140.985C119.009 133.23 120.302 125.388 120.388 117.718C120.388 117.46 120.129 117.201 119.871 117.201C119.612 117.201 119.354 117.46 119.354 117.718C119.267 125.302 118.061 133.057 115.648 140.727C113.666 147.104 110.822 153.308 107.375 159.341C104.962 163.391 102.808 166.493 101.343 168.389C101.257 168.475 101.257 168.561 101.257 168.734C101.171 169.078 101.429 169.251 101.688 169.251Z" fill="white"/>
<path opacity="0.85" d="M119.181 163.219C119.353 163.219 119.439 163.132 119.525 163.046C120.301 162.098 121.163 161.064 121.938 159.944C124.954 155.894 129.349 149.344 132.538 141.072C135.554 133.316 137.191 125.474 137.277 117.718C137.277 117.46 137.019 117.201 136.76 117.201C136.502 117.201 136.243 117.46 136.243 117.718C136.157 125.302 134.606 133.057 131.59 140.641C128.401 148.741 124.093 155.204 121.077 159.254C120.301 160.375 119.439 161.323 118.664 162.271C118.491 162.443 118.491 162.788 118.664 162.96C118.922 163.132 119.008 163.219 119.181 163.219Z" fill="white"/>
<path opacity="0.85" d="M64.6326 160.978C64.7188 160.978 64.8911 160.978 64.9773 160.892C65.2358 160.719 65.2358 160.375 65.0635 160.116C64.8911 159.858 64.6326 159.599 64.4602 159.341C61.4441 155.29 57.2216 148.827 53.9469 140.727C50.9308 133.144 49.3797 125.388 49.2935 117.805C49.2935 117.546 49.035 117.287 48.7765 117.287C48.5179 117.287 48.2594 117.546 48.2594 117.805C48.3456 125.56 49.8967 133.402 52.999 141.158C56.2737 149.344 60.5824 155.98 63.5985 160.03C63.7708 160.289 64.0294 160.547 64.2017 160.806C64.3741 160.892 64.4603 160.978 64.6326 160.978Z" fill="white"/>
<path opacity="0.85" d="M83.6765 168.906C83.7627 168.906 83.9351 168.906 84.0213 168.82C84.2798 168.648 84.2798 168.303 84.1074 168.044C82.7286 166.235 80.5743 163.219 78.3337 159.341C74.8006 153.395 72.043 147.104 70.061 140.727C67.6481 133.057 66.3555 125.388 66.3555 117.718C66.3555 117.46 66.0969 117.201 65.8384 117.201C65.5799 117.201 65.3214 117.46 65.3214 117.718C65.4075 125.474 66.614 133.23 69.113 140.985C71.1812 147.449 73.9388 153.739 77.472 159.858C79.7987 163.822 81.9531 166.838 83.3319 168.648C83.3319 168.82 83.5042 168.906 83.6765 168.906Z" fill="white"/>
</g>
</g>
</g>
<path opacity="0.1" d="M-11.1656 8.34694C-6.98976 8.34694 -3.32317 10.2857 -0.980622 13.3469C2.07487 8.85714 7.26921 6 13.0747 6C20.0004 6 25.9077 10.0816 28.6577 16C29.1669 15.898 29.6762 15.898 30.1854 15.898C36.1946 15.898 41.0834 20.2857 42 26H29.9817H18.3708H0.852674H-3.83242H-23.1839C-23.6931 24.5714 -23.9987 22.9388 -23.9987 21.3061C-24.1005 14.1633 -18.2951 8.34694 -11.1656 8.34694Z" fill="#F2F2F2"/>
<path opacity="0.15" d="M155.362 166.92C157.861 166.92 160.102 168.127 161.567 169.936C163.463 167.179 166.565 165.455 170.184 165.455C174.407 165.455 178.026 167.954 179.664 171.574C180.008 171.574 180.267 171.487 180.612 171.487C184.231 171.487 187.247 174.159 187.85 177.606H180.439H173.373H162.687H159.843H148.038C147.693 176.744 147.521 175.796 147.521 174.762C147.521 170.453 151.054 166.92 155.362 166.92Z" fill="#F2F2F2"/>
<path d="M0.172624 220.832C0.344973 221.693 0.603492 222.469 0.94819 223.331C2.41316 226.864 5.42927 229.535 9.22096 230.569H149.686V228.587C149.686 203.424 129.262 183.087 104.185 183.087H0.000277371V218.505C0.000277371 219.28 0.0864493 220.056 0.172624 220.832Z" fill="#1B4F9A"/>
<mask id="mask1_97_197" style="mask-type:alpha" maskUnits="userSpaceOnUse" x="29" y="169" width="59" height="71">
<path d="M29 188.842V227.06C29 231.977 30.3395 236.549 32.5081 240H88V188.842C88 177.972 81.5578 169 73.6486 169H43.2876C38.0573 169 33.4649 172.968 30.9773 178.748C29.7016 181.768 29 185.219 29 188.842Z" fill="#A7D3B0"/>
</mask>
<g mask="url(#mask1_97_197)">
<path d="M29 188.842V227.06C29 231.977 30.3395 236.549 32.5081 240H88V188.842C88 177.972 81.5578 169 73.6486 169H43.2876C38.0573 169 33.4649 172.968 30.9773 178.748C29.7016 181.768 29 185.219 29 188.842Z" fill="#A7D3B0"/>
<g opacity="0.5">
<path d="M31.9059 162.155C36.935 156.707 44.0595 153.459 51.4983 153.04C55.2702 152.83 59.042 153.459 62.709 154.612C66.4808 155.764 70.0431 157.44 73.291 159.536C76.6437 161.631 79.5774 164.146 82.1967 167.079C84.816 170.013 87.2258 173.471 87.8544 177.557C88.483 181.538 87.0162 185.31 84.6065 188.453C82.0919 191.806 78.6344 194.216 75.1769 196.521C71.5099 198.93 67.9476 201.445 64.4901 204.169C61.1374 206.998 57.8895 209.931 54.8511 213.179C48.879 219.466 43.85 226.695 37.4588 232.667C34.4204 235.496 31.1725 238.22 27.1911 239.477C23.4193 240.735 19.1237 240.42 15.9805 237.801C12.9421 235.391 11.2657 231.41 10.5323 227.743C9.7989 223.657 10.218 219.57 11.2657 215.589C13.3612 207.312 18.0759 200.188 21.8477 192.539C23.7336 188.767 25.3052 184.786 26.1434 180.595C26.9816 176.195 26.9816 171.48 28.5532 167.184C29.2866 165.298 30.5439 163.622 31.9059 162.155C32.1154 161.946 32.4298 162.26 32.2202 162.469C30.7534 164.041 29.4961 165.822 28.8675 167.918C28.2389 170.118 27.9245 172.318 27.6102 174.518C27.2959 176.719 27.0864 178.919 26.6673 181.014C26.2482 183.005 25.6196 184.996 24.8861 186.881C21.9525 194.635 17.133 201.55 13.9898 209.198C10.9514 216.637 9.0655 225.438 12.8373 232.981C13.6755 234.658 14.828 236.229 16.19 237.382C17.7616 238.639 19.6475 239.477 21.6382 239.687C25.8291 240.106 29.8104 238.325 33.0584 235.81C36.4111 233.296 39.3447 230.257 42.1736 227.219C45.0025 224.076 47.7265 220.723 50.4506 217.475C56.0036 211.084 62.1851 205.217 69.1001 200.188C75.596 195.473 84.0826 191.596 86.9115 183.529C87.5401 181.643 87.8544 179.652 87.5401 177.661C87.2258 175.671 86.4924 173.785 85.4446 172.109C83.454 168.756 80.7299 165.822 77.7962 163.412C74.8626 160.898 71.5099 158.802 68.0524 157.231C64.5949 155.659 60.9279 154.402 57.2608 153.878C50.0315 152.83 42.4879 154.612 36.5159 159.012C35.0491 160.06 33.687 161.317 32.4298 162.679C32.1154 162.679 31.6964 162.365 31.9059 162.155Z" fill="white"/>
<path d="M46.9942 167.918C48.7753 164.251 52.2328 161.841 56.2142 161.317C58.2048 161.108 60.3003 161.317 62.1862 162.051C64.3864 162.889 66.5866 164.041 68.5773 165.403C70.568 166.766 72.3491 168.232 74.0255 169.909C74.8637 170.747 75.5971 171.69 76.3305 172.633C77.0639 173.576 77.6925 174.623 77.9021 175.881C78.2164 178.186 76.6448 179.967 74.8637 181.015C72.6634 182.377 70.1489 183.005 67.8439 183.843C65.5389 184.577 63.4435 185.52 61.5576 186.987C59.8812 188.244 58.4144 189.711 57.1571 191.387C54.433 194.635 52.2328 198.302 49.5087 201.445C48.1467 203.017 46.6799 204.484 45.1083 205.741C43.2224 207.208 40.9174 208.36 38.5076 208.046C36.4122 207.836 34.631 206.265 34.2119 204.169C33.7928 202.179 34.4215 200.188 35.2597 198.407C37.2503 194.111 40.7078 190.758 43.0128 186.777C44.2701 184.577 45.1083 182.272 45.5274 179.757C45.9465 177.033 45.9465 174.204 46.2608 171.48C46.156 170.223 46.4703 169.071 46.9942 167.918C47.099 167.604 47.518 167.918 47.4133 168.128C46.7846 169.385 46.6799 170.642 46.4703 172.004C46.3655 173.261 46.2608 174.623 46.156 175.986C45.9465 178.5 45.7369 181.119 44.8987 183.529C43.4319 187.825 40.2887 191.178 37.7742 194.845C36.5169 196.626 35.3644 198.512 34.7358 200.607C34.2119 202.388 34.0024 204.588 35.3644 206.16C37.0408 208.151 39.8696 208.046 42.0699 207.103C44.0605 206.265 45.7369 204.798 47.3085 203.226C50.1374 200.293 52.3376 196.94 54.7473 193.692C57.0523 190.549 59.6717 187.51 63.1291 185.52C65.2246 184.263 67.5296 183.634 69.8346 182.796C72.0348 182.062 74.4446 181.224 76.1209 179.548C76.8543 178.814 77.483 177.767 77.483 176.614C77.483 175.357 76.8543 174.204 76.1209 173.261C74.7589 171.376 73.0825 169.699 71.3014 168.128C69.5203 166.661 67.6344 165.299 65.5389 164.146C63.653 163.099 61.5576 162.156 59.3573 161.841C55.4807 161.213 51.4994 162.784 48.8801 165.718C48.2514 166.451 47.7276 167.289 47.3085 168.232C47.3085 168.442 46.8894 168.232 46.9942 167.918Z" fill="white"/>
<path d="M72.5575 174.309C73.1861 175.042 73.71 175.88 73.71 176.928C73.71 177.766 73.3956 178.5 72.767 179.023C72.1384 179.547 71.1954 179.757 70.462 180.071C69.4143 180.386 68.4713 180.7 67.4236 180.909C65.4329 181.433 63.3375 181.957 61.3468 182.795C60.4039 183.214 59.3561 183.738 58.518 184.262C57.6798 184.891 56.9464 185.624 56.1082 186.253C55.3748 186.881 54.4318 187.405 53.4889 187.196C52.5459 186.986 52.0221 186.253 52.0221 185.31C52.0221 184.262 52.2316 183.214 52.5459 182.167C52.7555 181.014 53.1746 179.966 53.4889 178.814C54.2223 176.718 55.3748 174.623 56.9464 173.156C58.3084 171.899 59.88 171.061 61.6611 170.642C65.1186 169.804 68.8904 170.851 71.5097 173.156C71.9288 173.68 72.2431 173.994 72.5575 174.309C72.767 174.518 72.4527 174.833 72.2431 174.623C70.0429 172.109 66.6902 170.642 63.3375 170.956C61.6611 171.061 60.0895 171.689 58.6227 172.528C56.9464 173.68 55.6891 175.252 54.8509 177.033C53.908 178.919 53.2793 181.014 52.8602 183.11C52.7555 183.633 52.6507 184.053 52.6507 184.576C52.5459 184.996 52.5459 185.519 52.6507 185.938C53.0698 187.091 54.5366 186.881 55.3748 186.358C56.1082 185.834 56.7368 185.1 57.4702 184.576C58.2036 183.948 58.937 183.529 59.7752 183.11C61.4516 182.271 63.2327 181.643 65.0138 181.119C67.1093 180.595 69.2047 180.071 71.1954 179.338C71.9288 179.023 72.767 178.709 73.0813 177.871C73.5004 176.718 72.8718 175.566 72.1384 174.728C72.0336 174.413 72.3479 174.099 72.5575 174.309Z" fill="white"/>
</g>
</g>
<path d="M11.4199 123.346C10.4897 79.1414 45.5708 42.5521 89.7758 41.6219C133.981 40.6916 170.57 75.7728 171.5 119.978C172.43 164.183 137.349 200.772 93.1444 201.702C48.9394 202.632 12.3501 167.551 11.4199 123.346Z" stroke="#313694" stroke-width="2" stroke-miterlimit="10"/>
<path d="M80 45.9603C80 53.716 73.7093 59.9206 66.0397 59.9206C58.3702 59.9206 52.0794 53.6298 52.0794 45.9603C52.0794 38.2907 58.3702 32 66.0397 32C73.7093 32 80 38.2907 80 45.9603Z" fill="#654E98" stroke="#313694" stroke-width="2" stroke-miterlimit="10"/>
<path d="M59 46C59 49.9038 62.1635 53 66 53C69.9038 53 73 49.8365 73 46C73 42.0962 69.8365 39 66 39C62.1635 39 59 42.0962 59 46Z" fill="#FEDE8C"/>
<path d="M185 124.96C185 132.716 178.709 138.921 171.04 138.921C163.37 138.921 157.079 132.63 157.079 124.96C157.079 117.291 163.37 111 171.04 111C178.709 111 185 117.205 185 124.96Z" fill="#654E98" stroke="#313694" stroke-width="2" stroke-miterlimit="10"/>
<path d="M164 125C164 128.904 167.163 132 171 132C174.904 132 178 128.837 178 125C178 121.096 174.837 118 171 118C167.163 118 164 121.096 164 125Z" fill="#FEDE8C"/>
<path d="M45 169.5C45 179.222 37.1142 187 27.5 187C17.8858 187 10 179.114 10 169.5C10 159.886 17.8858 152 27.5 152C37.1142 152 45 159.886 45 169.5Z" fill="#FFE8AE"/>
<path d="M16 169.5C16 175.913 21.1971 181 27.5 181C33.9135 181 39 175.803 39 169.5C39 163.087 33.8029 158 27.5 158C21.1971 158 16 163.087 16 169.5Z" fill="#FECC4D"/>
<path d="M30 222V241H196C193.872 238.513 191.349 236.225 188.512 234.236C181.733 229.262 173.22 225.482 163.683 223.492H163.604C160.766 222.895 157.85 222.497 154.855 222.298H154.776C152.726 222.099 150.598 222 148.47 222H30Z" fill="#FEDE8C"/>
<path d="M0.000102818 202.859V227.332C0.000102818 228.194 0.0862669 228.97 0.258616 229.745C0.430965 230.607 0.68951 231.469 1.03421 232.244C2.49918 235.777 5.51527 238.535 9.30695 239.569C10.1687 239.828 11.1166 240 12.0645 240C12.1507 240 12.3231 240 12.4092 240H138.741C138.741 239.828 138.655 239.741 138.655 239.569C137.018 231.986 133.14 225.006 127.539 219.232C126.418 218.112 125.298 216.991 124.092 215.957C114.526 207.857 101.341 202.859 86.8641 202.859H0.000102818V202.859Z" fill="#F4B0AE"/>
</g>
</svg>
