<svg width="279" height="481" viewBox="0 0 279 481" fill="none" xmlns="http://www.w3.org/2000/svg">
<mask id="mask0_1_412" style="mask-type:alpha" maskUnits="userSpaceOnUse" x="0" y="0" width="279" height="481">
<rect width="279" height="481" rx="139.5" transform="matrix(1 0 0 -1 0 481)" fill="#4E59EB"/>
</mask>
<g mask="url(#mask0_1_412)">
<rect width="279" height="481" rx="139.5" transform="matrix(1 0 0 -1 0 481)" fill="#7764A2"/>
<path opacity="0.07" d="M83.7503 248C80.7358 248 78.0084 248.575 75.4246 249.582C72.6972 236.209 60.7829 226 46.5718 226C31.0688 226 18.2931 238.078 17.1448 253.176C14.2738 251.595 10.9723 250.732 7.52714 250.732C-3.38239 250.732 -12.4258 259.216 -13 270H21.0205H28.1978H61.6441H72.123H106C106 258.065 95.9518 248 83.7503 248Z" fill="#F2F2F2"/>
<path opacity="0.07" d="M219.58 314.632C224.76 313.69 229.469 315.73 232.294 319.497C235.433 314.946 240.612 312.12 246.42 312.12C253.326 312.12 259.29 316.201 262.115 322.166C262.586 322.166 263.214 322.009 263.685 322.009C269.649 322.009 274.672 326.403 275.614 332.211H263.371H251.756H234.177H229.469H209.849C209.064 330.17 208.75 327.816 209.221 325.462C210.006 319.968 214.244 315.73 219.58 314.632Z" fill="#F2F2F2"/>
<path d="M158.305 337.973C158.148 339.071 158.148 340.013 158.148 341.112V346.291C158.148 349.274 155.637 351.785 152.655 351.785H125.972C122.99 351.785 120.322 349.274 120.322 346.291V341.112C120.322 340.013 120.165 339.071 120.008 337.973H158.305Z" fill="#FEDE8C"/>
<path d="M79.5134 351.942L60.3648 340.17L54.8714 315.685L56.9118 315.214L62.2483 338.915L80.4552 350.215L79.5134 351.942Z" fill="#313694"/>
<path d="M217.948 350.843L216.065 350.372L223.285 323.219L206.02 316.313L210.728 296.537L212.612 297.007L208.217 315.057L225.639 322.12L217.948 350.843Z" fill="#313694"/>
<path d="M52.6742 316.784C46.7099 316.784 40.9025 313.331 38.2343 307.68C34.6243 299.833 38.0773 290.258 45.9251 286.648C53.7729 283.038 63.3472 286.491 66.9572 294.339C68.6837 298.106 68.8407 302.501 67.4281 306.425C66.0155 310.349 63.0333 313.488 59.2664 315.371C57.069 316.313 54.8716 316.784 52.6742 316.784ZM52.5173 287.119C50.6338 287.119 48.5934 287.59 46.7099 288.375C39.8038 291.514 36.8217 299.833 39.9608 306.739C43.0999 313.645 51.4186 316.627 58.3246 313.488C61.6207 311.918 64.2889 309.093 65.5446 305.64C66.8002 302.187 66.6433 298.42 65.0737 295.124C62.8763 290.101 57.8538 287.119 52.5173 287.119Z" fill="#313694"/>
<path d="M88.6172 366.225C87.3615 366.225 86.1059 366.068 84.8502 365.597C82.182 364.655 79.9846 362.615 78.8859 360.104C77.6303 357.435 77.6303 354.61 78.572 351.942C79.5137 349.274 81.5542 347.076 84.0655 345.978C89.402 343.466 95.8372 345.821 98.3484 351.157C99.6041 353.825 99.6041 356.651 98.6624 359.319C97.7206 361.987 95.6802 364.185 93.1689 365.283C91.5993 365.911 90.1867 366.225 88.6172 366.225ZM88.6172 346.762C87.3615 346.762 86.1059 347.076 85.0072 347.547C82.9668 348.489 81.2403 350.215 80.4555 352.413C79.6707 354.61 79.8277 356.965 80.7694 359.005C81.7111 361.045 83.4376 362.772 85.635 363.557C87.8324 364.341 90.1867 364.185 92.2272 363.243C94.2676 362.301 95.9941 360.575 96.7789 358.377C97.5637 356.18 97.4067 353.825 96.465 351.785C95.0524 348.646 91.9133 346.762 88.6172 346.762Z" fill="#313694"/>
<path d="M214.966 298.891C214.338 298.891 213.711 298.891 213.083 298.734C211.042 298.263 209.316 297.007 208.374 295.281C206.177 291.671 207.275 286.805 210.885 284.608C214.495 282.41 219.361 283.509 221.558 287.119C222.657 288.846 222.971 290.886 222.5 292.926C222.029 294.967 220.774 296.693 219.047 297.635C217.635 298.577 216.222 298.891 214.966 298.891ZM214.809 285.55C213.868 285.55 212.769 285.863 211.827 286.334C209.159 288.061 208.217 291.514 209.944 294.182C211.67 296.85 215.123 297.792 217.791 296.066C219.047 295.281 219.989 294.025 220.303 292.456C220.617 291.043 220.46 289.473 219.675 288.061C218.733 286.491 216.85 285.55 214.809 285.55Z" fill="#313694"/>
<path d="M213.24 380.822C207.903 380.822 202.724 378.154 199.741 373.288C195.19 365.911 197.544 356.023 204.921 351.471C212.298 346.919 222.186 349.274 226.738 356.651C228.935 360.261 229.563 364.498 228.621 368.579C227.679 372.66 225.168 376.113 221.558 378.311C218.89 380.037 216.065 380.822 213.24 380.822ZM213.24 351.157C210.728 351.157 208.217 351.785 206.02 353.198C199.584 357.121 197.387 365.754 201.468 372.189C205.392 378.624 214.024 380.822 220.46 376.741C223.599 374.858 225.796 371.718 226.738 368.108C227.68 364.498 227.052 360.731 225.011 357.592C222.5 353.512 217.948 351.157 213.24 351.157Z" fill="#313694"/>
<path d="M216.693 370.777C213.554 372.66 209.316 371.718 207.433 368.579C205.549 365.44 206.491 361.202 209.63 359.319C212.769 357.435 217.007 358.377 218.89 361.516C220.931 364.655 219.989 368.736 216.693 370.777Z" fill="#FEDE8C"/>
<path d="M60.8361 300.774C60.6791 296.223 56.9122 292.613 52.3605 292.77C47.8088 292.927 44.1988 296.694 44.3557 301.245C44.5127 305.797 48.2796 309.407 52.8313 309.25C57.3831 309.093 60.993 305.169 60.8361 300.774Z" fill="#FEDE8C"/>
<path d="M202.687 376.05L169.888 398.886L171.054 400.561L203.853 377.725L202.687 376.05Z" fill="#313694"/>
<path d="M107.137 419.276L87.518 396.36V364.969H89.5584V395.733L108.707 418.02L107.137 419.276Z" fill="#313694"/>
<mask id="mask1_1_412" style="mask-type:alpha" maskUnits="userSpaceOnUse" x="107" y="373" width="64" height="110">
<path d="M170.391 386.315V483H107.922V386.315C107.922 379.252 113.73 373.445 120.793 373.445H157.52C164.583 373.445 170.391 379.252 170.391 386.315Z" fill="#A7D3B0"/>
</mask>
<g mask="url(#mask1_1_412)">
<path d="M170.391 386.315V483H107.922V386.315C107.922 379.252 113.73 373.445 120.793 373.445H157.52C164.583 373.445 170.391 379.252 170.391 386.315Z" fill="#A7D3B0"/>
<g opacity="0.3">
<path d="M127.519 362.131C135.494 365.468 143.048 369.849 150.184 374.646C157.738 379.861 164.874 385.91 171.379 392.377C177.885 398.843 183.971 405.935 189.007 413.653C193.834 420.745 198.031 428.463 201.179 436.807C202.648 440.561 203.697 444.525 204.537 448.488C205.376 452.243 205.586 455.997 204.956 459.752C203.907 466.427 199.92 472.476 194.463 476.439C189.007 480.402 182.082 482.28 175.576 481.445C172.009 481.028 168.651 479.777 165.503 477.899C162.985 476.439 160.676 474.353 158.158 472.685C154.591 469.764 151.023 466.635 147.246 463.715C143.678 461.003 140.11 458.709 135.913 457.249C130.877 455.371 125.42 454.537 119.964 454.328C111.78 453.911 103.385 454.954 95.2009 455.997C90.5841 456.623 85.9672 457.666 81.1405 457.666C76.9433 457.666 72.7462 457.249 68.549 456.414C60.5744 454.537 52.8097 450.782 46.7239 445.359C40.4282 439.936 35.6014 432.844 32.6634 424.917C30.1451 417.825 29.0959 410.107 30.7747 402.806C32.6634 395.088 37.4901 388.413 43.9957 384.033C47.5633 381.53 51.5506 379.235 55.7477 377.984C59.9449 376.524 64.142 375.898 68.549 375.481C76.5236 374.646 85.1278 374.646 92.6826 371.935C94.3615 371.309 96.0404 370.683 97.7192 369.64C99.3981 368.597 100.867 367.346 102.336 366.094C105.904 363.174 110.101 361.297 114.718 360.671C119.125 359.836 123.532 360.462 127.519 362.131C128.149 362.339 128.358 361.505 127.729 361.297C119.335 357.959 109.681 359.002 102.546 364.425C100.867 365.677 99.3981 367.137 97.7192 368.389C96.0404 369.432 94.1516 370.266 92.4728 370.892C88.6954 372.143 84.4982 372.769 80.5109 373.186C71.9068 374.021 62.8829 374.229 54.6985 377.149C52.5999 377.984 50.7112 378.818 48.8224 379.861C46.9337 381.113 44.8351 382.156 42.9464 383.616C39.5887 386.119 36.8606 388.831 34.5521 392.377C30.355 398.634 28.886 406.144 29.5156 413.444C30.1451 421.371 33.0831 429.297 37.7 435.764C42.3169 442.647 48.8224 448.488 56.1675 452.243C63.5125 456.206 71.9068 458.292 80.3011 458.292C84.9179 458.292 89.5348 457.457 94.1516 456.832C98.9784 455.997 103.805 455.58 108.632 455.163C115.347 454.746 122.482 454.537 129.198 455.789C133.815 456.623 138.432 458.5 142.419 461.003C146.406 463.298 149.764 466.427 153.331 469.347C155.22 471.016 157.319 472.685 159.417 474.145C161.936 476.231 164.454 478.108 167.392 479.568C173.688 482.697 180.823 483.114 187.538 481.028C194.044 478.942 199.5 474.77 203.068 468.93C204.956 466.01 206.006 462.672 206.635 459.126C207.265 455.371 206.845 451.617 206.006 447.862C204.327 439.518 201.389 431.592 197.401 424.291C193.204 416.156 187.958 408.647 182.082 401.555C175.996 394.254 169.281 387.579 161.936 381.53C155.01 375.689 147.455 370.475 139.481 366.094C135.913 364.008 132.136 362.339 128.358 360.671C127.309 361.088 127.099 361.922 127.519 362.131Z" fill="white"/>
<path d="M182.136 449.138C182.345 451.913 182.345 455.328 180.469 457.676C178.803 459.383 176.302 459.597 174.218 459.383C170.676 458.956 167.342 457.462 164.217 455.968C160.049 454.047 155.882 451.699 151.714 449.351C147.13 446.79 142.546 444.015 137.962 441.454C133.378 438.679 128.793 436.118 124.001 433.77C119.834 431.636 115.458 429.501 110.874 428.007C107.331 426.726 103.372 425.659 99.6215 425.873C98.1629 425.873 96.4959 426.086 95.0373 426.727C92.3285 427.794 89.6197 428.434 86.7025 428.861C81.2848 429.715 75.6588 429.288 70.4496 427.367C66.2821 425.659 62.5314 422.885 59.6142 419.256C57.1138 416.054 55.6552 411.999 55.4468 407.944C55.2384 403.888 56.6971 399.833 59.1975 396.631C62.5314 392.576 67.324 390.014 72.3249 388.52C75.8672 387.453 79.6179 386.813 83.3686 387.026C85.869 387.24 88.5778 387.667 91.0783 387.667C93.162 387.667 95.4541 387.453 97.5378 386.813C101.705 385.746 105.664 383.398 108.79 380.196C110.874 378.062 113.374 376.141 116.291 375.073C121.5 373.153 127.127 374.22 131.919 376.568C138.17 379.769 143.379 384.892 147.964 390.228C153.59 396.845 158.591 403.888 163.175 411.359C168.176 419.256 172.551 427.58 176.927 435.905C179.428 439.96 181.72 444.015 182.136 449.138C182.136 449.778 183.178 449.778 183.178 449.138C182.97 446.577 182.345 444.229 181.303 441.881C180.47 439.746 179.219 437.612 178.177 435.478C176.094 431.209 173.802 426.94 171.51 422.885C166.925 414.774 162.133 406.663 156.507 399.192C151.714 392.789 146.713 386.386 140.462 381.263C135.878 377.421 130.46 373.793 124.418 373.153C118.583 372.512 113.166 374.86 108.998 378.915C107.331 380.41 105.664 381.904 103.789 383.184C101.914 384.465 99.6215 385.319 97.5378 385.959C95.2457 386.599 92.9536 386.813 90.6616 386.813C87.9527 386.599 85.2439 386.386 82.3267 386.172C80.4514 386.172 78.3677 386.386 76.4923 386.813C74.8253 387.026 73.1584 387.453 71.6998 388.093C68.9909 388.947 66.2821 390.014 63.99 391.722C60.2394 394.07 57.1138 397.698 55.6552 401.967C54.405 405.809 54.405 410.078 55.8636 413.92C57.3222 417.975 60.031 421.604 63.3649 424.379C67.324 427.58 71.9081 429.501 76.909 430.142C79.8262 430.568 82.7434 430.568 85.6606 430.355C87.3276 430.142 88.7862 429.928 90.4532 429.501C91.9118 429.074 93.5787 428.861 95.0373 428.221C98.1629 426.94 101.705 427.153 104.831 427.58C109.207 428.434 113.374 430.142 117.333 431.849C122.126 433.984 126.71 436.545 131.294 439.106C136.086 441.881 140.879 444.656 145.672 447.43C150.047 449.992 154.631 452.553 159.007 454.901C162.758 456.822 166.509 458.743 170.468 459.81C173.177 460.664 176.094 461.304 178.803 460.45C181.303 459.597 182.553 457.462 183.178 454.901C183.595 453.193 183.595 451.272 183.387 449.565C182.97 448.498 181.928 448.498 182.136 449.138Z" fill="white"/>
<path d="M158.208 420.727C161.747 425.901 166.118 430.661 168.2 436.662C169.032 438.939 169.657 441.836 168.616 444.319C167.992 445.561 166.534 446.389 165.077 446.389C164.037 446.389 163.204 445.768 162.163 445.147C155.71 441.008 149.674 436.248 143.846 431.488C137.393 426.315 131.148 420.727 125.944 414.105C123.863 411.208 119.283 404.792 124.279 402.309C125.528 401.688 126.985 401.481 128.442 401.274C129.483 401.274 130.524 401.067 131.564 401.274C133.438 401.481 135.103 402.102 136.768 402.723C143.637 405.62 149.674 410.587 154.461 416.174C156.127 417.623 157.167 419.072 158.208 420.727C158.625 421.141 159.457 420.727 159.041 420.313C154.67 414.105 149.049 408.517 142.388 404.585C139.058 402.516 135.519 400.86 131.564 400.447C129.691 400.24 127.609 400.447 125.944 400.86C123.654 401.481 121.573 402.723 121.157 404.999C120.74 407.483 122.197 410.173 123.446 412.036C125.528 415.347 128.026 418.037 130.732 420.934C134.062 424.245 137.393 427.35 140.931 430.247C147.176 435.627 153.837 440.801 160.706 445.354C162.371 446.596 164.245 447.63 166.326 447.009C169.032 446.182 169.865 443.491 169.865 440.801C169.865 437.904 168.408 435.007 167.159 432.523C165.494 429.626 163.62 426.729 161.539 424.038C160.706 422.797 159.665 421.555 158.833 420.106C158.833 419.693 158 420.106 158.208 420.727Z" fill="white"/>
</g>
</g>
<path d="M155.323 483H7V413.155C16.7313 410.8 26.9334 409.702 37.2925 409.702C63.1902 409.702 87.5183 417.236 107.766 430.263C128.17 442.976 144.65 461.34 155.323 483Z" fill="#F4B0AE"/>
<path d="M289 406V527H190V446.665C190 429.603 205.687 414.958 227.734 408.986C234.73 406.995 242.574 406 250.842 406H289Z" fill="#FEDE8C"/>
<path d="M26.4623 388.042C26.4623 399.814 36.0366 409.231 47.6514 409.231C59.4231 409.231 68.8404 399.657 68.8404 388.042C68.8404 376.27 59.2661 366.853 47.6514 366.853C35.8797 366.853 26.4623 376.27 26.4623 388.042Z" fill="#FFE8AE"/>
<path d="M31.3281 388.042C31.3281 397.145 38.705 404.365 47.6515 404.365C56.7549 404.365 63.9749 396.988 63.9749 388.042C63.9749 378.938 56.598 371.718 47.6515 371.718C38.705 371.718 31.3281 378.938 31.3281 388.042Z" fill="#FECC4D"/>
<path d="M80.246 360.416L63.514 372.634L64.7173 374.282L81.4493 362.064L80.246 360.416Z" fill="#313694"/>
<path d="M158.62 337.973V361.83C158.62 368.265 153.44 373.602 146.848 373.602H131.309C124.874 373.602 119.538 368.422 119.538 361.83V337.973H158.62Z" fill="#1B4F9A"/>
<path d="M164.898 325.416C161.288 328.712 158.933 333.107 158.305 337.973H120.008C119.38 333.107 117.026 328.712 113.416 325.259C105.725 318.353 101.017 308.151 101.017 297.007C101.017 275.034 119.537 257.454 141.825 258.867C160.346 260.123 175.728 274.877 177.454 293.397C178.396 305.954 173.373 317.569 164.898 325.416Z" fill="#9DB9FF"/>
<path opacity="0.7" d="M135.39 337.973L133.35 337.816C133.35 337.659 133.977 322.434 132.408 309.878C131.937 309.564 131.466 309.407 130.838 309.093C125.031 305.797 119.224 298.577 120.322 294.339C120.636 293.398 121.578 291.671 124.717 291.671C126.287 291.671 127.699 292.299 128.955 293.554C131.623 296.38 133.193 302.03 134.134 308.465C136.803 309.407 140.256 309.878 142.924 307.21L144.336 308.622C141.668 311.29 138.215 311.918 134.448 310.663C136.018 323.062 135.547 337.031 135.39 337.973ZM124.874 293.711C122.833 293.711 122.52 294.653 122.363 294.967C121.578 297.635 125.973 304.071 131.937 307.367C131.937 307.367 132.094 307.367 132.094 307.524C131.152 302.03 129.74 297.321 127.542 295.124C126.757 294.025 125.816 293.711 124.874 293.711Z" fill="#7359A9"/>
<path opacity="0.7" d="M140.884 337.973C140.884 337.031 140.256 323.062 141.825 310.663C137.901 311.918 134.448 311.134 131.937 308.622L133.35 307.21C136.018 309.878 139.471 309.564 142.139 308.465C143.081 302.03 144.65 296.38 147.319 293.554C148.574 292.299 149.987 291.671 151.557 291.671C154.696 291.671 155.637 293.398 155.951 294.339C157.05 298.577 151.243 305.797 145.435 309.093C144.964 309.407 144.337 309.721 143.866 309.878C142.139 322.434 142.924 337.659 142.924 337.816L140.884 337.973ZM151.557 293.711C150.615 293.711 149.673 294.182 148.731 295.124C146.534 297.321 145.121 302.03 144.337 307.367C144.337 307.367 144.494 307.367 144.494 307.21C150.458 303.757 154.696 297.321 154.068 294.81C153.911 294.496 153.597 293.711 151.557 293.711Z" fill="#7359A9"/>
</g>
</svg>
