<svg width="170" height="108" viewBox="0 0 170 108" fill="none" xmlns="http://www.w3.org/2000/svg">
<path opacity="0.3" d="M59.6 13.5C57.8 13.5 56 13.9 54.5 14.5C52.8 6.2 45.5 0 36.7 0C27.1 0 19.3 7.4 18.6 16.8C16.8 15.9 14.8 15.3 12.7 15.3C5.9 15.3 0.4 20.5 0 27.2H21H25.4H46H52.5H73.4C73.3 19.6 67.2 13.5 59.6 13.5Z" fill="#2D76F9"/>
<path opacity="0.2" d="M135.698 94.2002C138.298 94.2002 140.698 95.4002 142.198 97.4002C144.198 94.6002 147.498 92.7002 151.198 92.7002C155.598 92.7002 159.398 95.3002 161.098 99.1002C161.398 99.1002 161.798 99.0002 162.098 99.0002C165.898 99.0002 169.098 101.8 169.698 105.4H161.998H154.598H143.398H140.398H127.998C127.598 104.5 127.398 103.5 127.398 102.4C127.398 97.8002 131.098 94.2002 135.698 94.2002Z" fill="#2D76F9"/>
<path d="M89.0995 9.10002L45.0995 24.9C43.4995 25.5 42.2995 26.7 41.8995 28.3L27.5995 78.3C26.7995 81 28.3995 83.9 31.1995 84.7L111.499 107.6C114.199 108.4 117.099 106.8 117.899 104L132.199 54C132.699 52.4 132.299 50.7 131.299 49.4L102.299 12.7C99.0995 8.90002 93.7995 7.40002 89.0995 9.10002Z" fill="#F05C5C"/>
<mask id="mask0_150_2056" style="mask-type:alpha" maskUnits="userSpaceOnUse" x="45" y="12" width="84" height="59">
<path d="M128.499 52.5999L113.799 57.8999L78.5992 70.4999L55.3992 41.1999L45.7992 28.9999H45.6992H45.7992L60.3992 23.6999L89.5992 13.1999L91.1992 12.5999C93.7992 11.6999 96.6992 12.4999 98.3992 14.6999L99.4992 15.9999L106.799 25.2999L116.099 36.9999L118.799 40.3999L128.499 52.5999Z" fill="white"/>
</mask>
<g mask="url(#mask0_150_2056)">
<path d="M128.499 52.5999L113.799 57.8999L78.5992 70.4999L55.3992 41.1999L45.7992 28.9999H45.6992H45.7992L60.3992 23.6999L89.5992 13.1999L91.1992 12.5999C93.7992 11.6999 96.6992 12.4999 98.3992 14.6999L99.4992 15.9999L106.799 25.2999L116.099 36.9999L118.799 40.3999L128.499 52.5999Z" fill="white"/>
<path d="M63.2845 84.7196L107.38 82.313C107.64 82.3073 107.87 82.1792 108.051 81.9969C108.233 81.8147 108.296 81.558 108.29 81.2982L106.622 50.5287C106.6 50.2508 106.473 50.0029 106.274 49.821C106.056 49.6555 105.783 49.5741 105.505 49.6136L102.753 50.0616C102.579 50.0884 102.419 50.1678 102.276 50.2825L100.981 51.4012L96.4098 49.2244C96.2913 49.1672 96.1713 49.1445 96.0332 49.1383C95.9469 49.1345 95.8771 49.1487 95.7901 49.1621L89.9796 50.3385C89.7177 50.396 89.4856 50.5586 89.3368 50.7942L87.8781 53.2552L84.8223 52.3746C84.7886 52.3558 84.7368 52.3535 84.7023 52.3519L80.4945 51.714C80.2882 51.6875 75.5777 51.079 74.5078 51.0311C74.4043 51.0265 74.318 51.0227 74.2654 51.0376C74.0576 51.0456 73.4858 51.072 69.2246 53.5634L67.0377 53.3619L65.1285 51.2002C64.8655 50.8943 64.4207 50.7879 64.0506 50.9444L61.216 52.0808C60.8286 52.2365 60.5865 52.6236 60.6025 53.0396L62.2532 83.8084C62.2818 84.3287 62.7472 84.7475 63.2845 84.7196Z" fill="#FFC997"/>
</g>
<path d="M113.284 20.9082L70.5751 9.69042C70.5069 9.67007 70.4379 9.66698 70.3688 9.6639C70.179 9.65541 70.0041 9.69951 69.8442 9.79618C69.6309 9.92507 69.4656 10.1426 69.403 10.382L62.2733 37.5919C62.1904 37.8997 62.2628 38.2144 62.4598 38.4481C62.6569 38.6819 62.9621 38.8166 63.2742 38.796L65.6499 38.6426L66.7027 41.0082C66.7962 41.2373 66.9791 41.4012 67.1988 41.5149L69.8625 42.6548C70.0493 42.7324 70.2556 42.7589 70.4477 42.7156C72.4561 42.2689 74.881 41.789 75.4693 41.7807C76.0138 41.9781 78.5559 43.1299 80.7913 44.1814L84.5294 46.0442L87.7186 48.1939C88.0882 48.4353 88.5737 48.4051 88.8982 48.1082L91.2749 45.9996L96.4191 46.5756L100.335 50.2631C100.618 50.518 101.011 50.6048 101.381 50.4483L103.285 49.6337L105.758 50.021C106.239 50.0944 106.719 49.7872 106.844 49.3083L113.974 22.0984C114.102 21.5677 113.796 21.0523 113.284 20.9082Z" fill="#FFC997"/>
</svg>
