<svg width="205" height="48" viewBox="0 0 205 48" fill="none" xmlns="http://www.w3.org/2000/svg">
<path d="M27.1546 12.2935C24.8569 12.2935 22.5615 12.3128 20.2638 12.2935C17.9149 12.2699 16.0696 11.2973 14.8194 9.39066C12.4214 5.72301 14.6745 0.862081 19.1072 0.0951303C19.5076 0.0295074 19.9133 -0.00203436 20.3195 0.000869337C24.8837 0.000869337 29.4486 0.000869337 34.0142 0.000869337C35.4917 -0.0230627 36.9319 0.447777 38.0878 1.33269C39.2438 2.21759 40.0436 3.46146 40.3501 4.85108C41.1323 8.09241 38.877 11.4923 35.4806 12.1457C35 12.2387 34.5111 12.2861 34.0209 12.2871C31.7277 12.2935 29.4411 12.2935 27.1546 12.2935Z" fill="#7D7D7D"/>
<path d="M0 32.7227C0.000648396 31.2427 0.559438 29.813 1.57282 28.6987C2.5862 27.5844 3.98546 26.861 5.5113 26.6625C6.16428 26.5768 6.83063 26.5918 7.4836 26.504C8.95581 26.3042 10.3306 25.6807 11.4273 24.7157C12.5239 23.7506 13.2911 22.4892 13.6278 21.0971C13.7654 20.5417 13.8401 19.9736 13.8507 19.4027C13.8573 18.2203 14.2181 17.0648 14.8899 16.0744C15.5617 15.0839 16.5161 14.3005 17.639 13.8177C18.7618 13.3349 20.0056 13.1732 21.2215 13.352C22.4374 13.5308 23.574 14.0425 24.4954 14.8259C25.4167 15.6092 26.0838 16.6311 26.4169 17.7693C26.7499 18.9075 26.7349 20.1139 26.3734 21.244C26.012 22.3742 25.3196 23.3804 24.3789 24.1422C23.4382 24.9041 22.2891 25.3894 21.0691 25.54C20.4807 25.615 19.879 25.5829 19.2862 25.66C16.8771 25.977 15.0519 27.1595 13.8083 29.1624C13.1542 30.2106 12.8098 31.4104 12.8122 32.6327C12.7943 35.5868 10.8688 37.9882 7.94938 38.7058C4.31009 39.6055 0.566063 37.187 0.078002 33.6138C0.040116 33.3182 0.0267431 33.0205 0 32.7227Z" fill="#7D7D7D"/>
<path d="M6.40388 25.5755C5.13965 25.5733 3.90447 25.2109 2.85455 24.5339C1.80464 23.8569 0.987161 22.8958 0.505501 21.7722C0.0238405 20.6485 -0.100362 19.4128 0.148602 18.2213C0.397566 17.0298 1.00851 15.9361 1.90417 15.0784C2.79983 14.2207 3.93997 13.6376 5.18039 13.4028C6.42081 13.1681 7.7058 13.2922 8.87282 13.7595C10.0398 14.2269 11.0365 15.0164 11.7367 16.0282C12.4369 17.0401 12.8093 18.2288 12.8066 19.4441C12.799 21.0721 12.1211 22.6309 10.9214 23.7798C9.72157 24.9288 8.09739 25.5743 6.40388 25.5755Z" fill="#7D7D7D"/>
<path d="M6.41518 12.2926C5.15099 12.2909 3.91568 11.929 2.8654 11.2526C1.81511 10.5762 0.996989 9.61572 0.514423 8.49248C0.0318561 7.36924 -0.0934923 6.13369 0.15422 4.94198C0.401933 3.75028 1.01159 2.65591 1.90613 1.79719C2.80068 0.93847 3.93996 0.35394 5.18 0.117477C6.42004 -0.118986 7.70516 0.00323092 8.87296 0.468682C10.0408 0.934133 11.0388 1.72193 11.741 2.7325C12.4432 3.74307 12.8179 4.93105 12.8179 6.14631C12.8138 7.77668 12.1376 9.33902 10.9375 10.4911C9.7374 11.6431 8.11121 12.2909 6.41518 12.2926Z" fill="#7D7D7D"/>
<path d="M174.658 36.4348C175.103 36.7004 175.502 36.949 175.912 37.1868C178.174 38.5273 180.664 39.4758 183.267 39.9889C184.965 40.3006 186.7 40.3885 188.424 40.2503C189.368 40.2121 190.3 40.0366 191.189 39.7297C193.173 38.9777 194.296 37.5381 194.657 35.5564C194.761 34.7745 194.824 33.988 194.844 33.1999C194.841 33.1345 194.834 33.0694 194.822 33.0049C194.599 33.1892 194.408 33.3477 194.214 33.4998C192.581 34.7829 190.598 35.5842 188.502 35.8071C185.934 36.0942 183.427 35.8649 181.043 34.8581C178.315 33.7055 176.523 31.7067 175.511 29.0416C174.897 27.3921 174.585 25.6523 174.591 23.9001C174.571 19.6154 174.573 15.3308 174.566 11.0462C174.566 10.6562 174.566 10.6562 174.956 10.6562H184.6C184.6 10.7912 184.617 10.9133 184.617 11.0376C184.617 14.6131 184.617 18.1908 184.617 21.7685C184.617 22.9682 184.738 24.1593 185.228 25.2862C185.883 26.7858 187.084 27.5592 188.754 27.7113C189.866 27.8442 190.995 27.6485 191.99 27.15C193.347 26.4452 194.089 25.2862 194.494 23.9001C194.729 23.0861 194.846 22.2447 194.84 21.4C194.84 17.9509 194.84 14.501 194.84 11.0504V10.6777H204.9V10.9712C204.9 18.3343 204.924 25.6975 204.88 33.0606C204.864 35.8714 204.305 38.5943 202.858 41.0879C201.269 43.8258 198.847 45.6018 195.816 46.6344C194.163 47.1754 192.445 47.5095 190.704 47.6284C188.782 47.7788 186.85 47.7544 184.934 47.5556C182.054 47.2728 179.262 46.6494 176.648 45.4133C176.022 45.1176 175.427 44.7706 174.829 44.4149C174.776 44.3778 174.731 44.3301 174.698 44.2751C174.665 44.2201 174.644 44.1589 174.638 44.0957C174.638 41.5892 174.638 39.0849 174.638 36.5783C174.631 36.5483 174.638 36.5141 174.658 36.4348Z" fill="#7D7D7D"/>
<path d="M148.022 10.7104V13.3433C148.069 13.3147 148.113 13.2825 148.154 13.2469C149.529 11.7473 151.287 10.8732 153.309 10.5047C156.226 9.97344 159.103 10.132 161.869 11.2331C165.893 12.8334 168.441 15.732 169.669 19.7017C170.27 21.7186 170.466 23.8271 170.246 25.9145C170.023 28.4638 169.232 30.8418 167.687 32.937C165.613 35.7627 162.785 37.4723 159.254 38.13C156.952 38.5945 154.564 38.4838 152.319 37.8086C150.987 37.3957 149.769 36.7009 148.753 35.7756L148.488 35.5399V47.7169H138.952C138.555 47.7169 138.542 47.8111 138.542 47.3184V14.6694C138.542 13.4611 138.542 12.255 138.542 11.0467C138.542 10.7875 138.595 10.6868 138.896 10.6868C141.827 10.6997 144.758 10.6868 147.686 10.6868C147.784 10.6954 147.884 10.704 148.022 10.7104ZM160.331 24.3227C160.28 23.8278 160.255 23.3287 160.173 22.8381C159.95 21.5655 159.468 20.4087 158.521 19.4725C157.126 18.0928 155.401 17.6258 153.451 17.8679C151.354 18.1314 149.861 19.2261 148.994 21.0664C148.23 22.6903 148.147 24.3956 148.508 26.1265C148.733 27.3706 149.37 28.5114 150.325 29.3786C151.541 30.4497 152.999 30.8932 154.644 30.8097C156.618 30.709 158.167 29.8842 159.232 28.271C160.023 27.0756 160.295 25.7302 160.331 24.3227Z" fill="#7D7D7D"/>
<path d="M112.007 10.6961V13.3376C112.055 13.3132 112.099 13.2845 112.141 13.2519C113.516 11.7416 115.261 10.874 117.293 10.5076C120.32 9.95704 123.295 10.1456 126.141 11.3474C130.152 13.0463 132.666 16.0262 133.763 20.0667C134.708 23.5544 134.581 27.0399 133.125 30.3884C131.273 34.6537 127.919 37.2438 123.199 38.1414C120.749 38.6484 118.199 38.4791 115.845 37.653C114.683 37.2327 113.622 36.5915 112.725 35.7677C112.66 35.7077 112.591 35.6542 112.471 35.5535V47.7219H102.977C102.531 47.7219 102.531 47.8183 102.531 47.2934V11.0818C102.531 10.6961 102.531 10.6961 102.932 10.6961H112.007ZM124.293 24.1521C124.28 23.9485 124.26 23.5586 124.22 23.1709C124.195 22.9549 124.159 22.7404 124.111 22.5282C123.453 19.4432 121.024 17.7337 118.187 17.8151C115.758 17.8836 113.995 18.9569 112.979 21.08C112.255 22.5925 112.161 24.1949 112.437 25.8209C112.613 27.0814 113.197 28.2567 114.107 29.1801C115.341 30.3969 116.872 30.8939 118.622 30.8104C120.627 30.7161 122.187 29.8721 123.246 28.2396C124.017 27.0485 124.28 25.7224 124.293 24.1521Z" fill="#7D7D7D"/>
<path d="M69.744 8.72291C69.1296 8.25236 68.4234 7.90489 67.667 7.70103C66.8841 7.48293 66.0573 7.45422 65.2601 7.61747C64.7891 7.70661 64.3506 7.9127 63.9882 8.21525C63.6258 8.5178 63.352 8.90627 63.1942 9.34204C62.8911 10.1133 62.8643 10.9166 62.9067 11.7671H69.7395V18.9911H63.1541V37.9742C63.1541 38.4819 63.1541 38.3876 62.7329 38.3876H53.1187C53.1187 38.2484 53.1009 38.1263 53.1009 38.0042V19.5631C53.0953 19.4724 53.0953 19.3816 53.1009 19.291C53.1254 19.0767 53.043 18.9889 52.8023 18.9932C51.9888 19.0061 51.1754 18.9932 50.3642 18.9932H48.9268V11.7736H49.241C50.4221 11.7736 51.6055 11.7736 52.7867 11.7736C53.0407 11.7736 53.1076 11.6986 53.1031 11.4629C53.0411 9.96461 53.2453 8.46708 53.7071 7.03476C54.808 3.79557 57.1012 1.72609 60.453 0.70849C62.2204 0.207271 64.0647 0.00431663 65.9041 0.108639C67.1082 0.151276 68.3039 0.320091 69.4699 0.612086C69.6326 0.654932 69.7462 0.693493 69.7462 0.907726C69.7351 3.45923 69.7462 6.01074 69.7462 8.56224C69.7551 8.60509 69.7485 8.64793 69.744 8.72291Z" fill="#7D7D7D"/>
<path d="M73.9893 38.2996V0.460938H74.3124C77.4324 0.460938 80.5525 0.460938 83.6725 0.460938C83.9667 0.460938 84.0335 0.544485 84.0335 0.812267C84.0335 13.1945 84.0335 25.5767 84.0335 37.959C84.0335 38.2203 83.98 38.3146 83.6769 38.3125C80.5569 38.3018 77.4369 38.3125 74.3169 38.3125L73.9893 38.2996Z" fill="#7D7D7D"/>
<path d="M88.2804 12.4961C91.5258 13.5629 95.048 13.5629 98.2935 12.4961C98.2935 12.6332 98.3135 12.7403 98.3135 12.8453C98.3135 21.2175 98.3135 29.5882 98.3135 37.9576C98.3135 38.2189 98.2623 38.3132 97.9592 38.3111C94.8391 38.3003 91.7191 38.3111 88.5991 38.3111H88.2715L88.2804 12.4961Z" fill="#7D7D7D"/>
<path d="M98.3123 4.9716C98.3159 5.61389 98.1863 6.25044 97.9313 6.8441C97.6762 7.43776 97.3007 7.97665 96.8267 8.42932C96.3527 8.88199 95.7896 9.23939 95.1704 9.48065C94.5512 9.72191 93.8881 9.84221 93.22 9.83453C92.5519 9.82685 91.8921 9.69134 91.279 9.43591C90.666 9.18048 90.112 8.81024 89.6493 8.3468C89.1867 7.88336 88.8247 7.33599 88.5845 6.73664C88.3443 6.13728 88.2306 5.49794 88.2502 4.85592C88.2888 3.58802 88.844 2.38543 89.796 1.50719C90.7481 0.628953 92.021 0.145333 93.3404 0.160503C94.6598 0.175672 95.9202 0.688419 96.8502 1.5883C97.7802 2.48818 98.3052 3.70318 98.3123 4.9716Z" fill="#7D7D7D"/>
</svg>
