<svg width="385" height="240" viewBox="0 0 385 240" fill="none" xmlns="http://www.w3.org/2000/svg">
<mask id="mask0_97_334" style="mask-type:alpha" maskUnits="userSpaceOnUse" x="0" y="0" width="385" height="240">
<rect width="385" height="240" rx="16" fill="#EC6967"/>
</mask>
<g mask="url(#mask0_97_334)">
<rect width="385" height="240" rx="16" fill="#3F60D5"/>
<path opacity="0.1" d="M186.267 101.758C189.041 101.758 191.538 103.007 193.064 105.088C195.145 102.175 198.613 100.232 202.497 100.232C207.075 100.232 211.098 103.007 212.902 106.891C213.179 106.891 213.595 106.891 214.011 106.891C218.034 106.891 221.364 109.804 221.918 113.55H213.873H206.104H194.451H191.122H178.082C177.666 112.579 177.527 111.608 177.527 110.498C177.666 105.643 181.412 101.758 186.267 101.758Z" fill="#F2F2F2"/>
<path opacity="0.1" d="M42.1359 155.86C38.5291 155.86 35.3385 157.524 33.2577 160.16C30.622 156.276 26.1829 153.779 21.0501 153.779C15.0851 153.779 9.95236 157.247 7.59408 162.38C7.17791 162.38 6.76175 162.241 6.20686 162.241C1.07413 162.241 -3.22626 165.987 -4.05859 170.981H6.34558H16.3336H31.4543H35.7547H52.5401C52.9563 169.732 53.2337 168.345 53.2337 166.958C53.2337 160.854 48.2397 155.86 42.1359 155.86Z" fill="#F2F2F2"/>
<path opacity="0.1" d="M72.3769 53.6095C70.2961 53.6095 68.354 54.0257 66.5506 54.7193C64.7472 45.4249 56.4239 38.4888 46.5746 38.4888C35.893 38.4888 27.0147 46.8121 26.1824 57.355C24.2403 56.2452 21.882 55.6903 19.5237 55.6903C11.894 55.6903 5.79024 61.6554 5.23535 69.0077H28.8181H33.8121H56.9788H64.331H87.7751C87.7751 60.5456 80.839 53.6095 72.3769 53.6095Z" fill="#F2F2F2"/>
<path d="M20.0781 122.289V253.104C20.0781 256.572 18.9683 259.763 17.0262 262.399C16.7487 262.815 16.4713 263.231 16.0551 263.647H-3.9209V106.475H3.84755C12.7258 106.475 20.0781 113.688 20.0781 122.289Z" fill="#FEDE8C"/>
<mask id="mask1_97_334" style="mask-type:alpha" maskUnits="userSpaceOnUse" x="97" y="187" width="130" height="77">
<path d="M97.979 187.683V262.744H193.423C193.815 263.023 194.108 263.163 194.5 263.442C195.283 263.86 196.066 264 196.947 264H227C226.902 263.581 226.706 263.163 226.608 262.744C226.119 261.21 225.63 259.675 225.042 258.14C224.259 255.768 223.378 253.536 222.497 251.304C218.581 241.816 213.883 233.027 208.499 225.213C208.401 225.074 208.401 225.074 208.303 224.934C202.429 216.563 195.773 209.308 188.529 203.588C181.578 198.007 173.943 193.821 166.014 191.031C164.741 190.613 163.371 190.194 162.098 189.775C157.791 188.659 153.386 187.822 148.883 187.683C147.806 187.683 146.729 187.543 145.652 187.543H97.979V187.683Z" fill="#A7D3B0"/>
</mask>
<g mask="url(#mask1_97_334)">
<path d="M97.979 187.683V262.744H193.423C193.815 263.023 194.108 263.163 194.5 263.442C195.283 263.86 196.066 264 196.947 264H227C226.902 263.581 226.706 263.163 226.608 262.744C226.119 261.21 225.63 259.675 225.042 258.14C224.259 255.768 223.378 253.536 222.497 251.304C218.581 241.816 213.883 233.027 208.499 225.213C208.401 225.074 208.401 225.074 208.303 224.934C202.429 216.563 195.773 209.308 188.529 203.588C181.578 198.007 173.943 193.821 166.014 191.031C164.741 190.613 163.371 190.194 162.098 189.775C157.791 188.659 153.386 187.822 148.883 187.683C147.806 187.683 146.729 187.543 145.652 187.543H97.979V187.683Z" fill="#A7D3B0"/>
<g opacity="0.3">
<path d="M163.76 188.188C170.27 190.913 176.437 194.489 182.261 198.405C188.429 202.662 194.253 207.6 199.564 212.879C204.875 218.157 209.843 223.947 213.954 230.247C217.895 236.037 221.321 242.337 223.891 249.148C225.09 252.213 225.946 255.449 226.632 258.684C227.317 261.749 227.488 264.814 226.974 267.879C226.118 273.328 222.863 278.266 218.409 281.502C213.954 284.737 208.301 286.269 202.99 285.588C200.078 285.248 197.337 284.226 194.767 282.694C192.712 281.502 190.827 279.799 188.771 278.437C185.859 276.053 182.947 273.498 179.863 271.114C176.951 268.901 174.038 267.028 170.612 265.836C166.501 264.303 162.047 263.622 157.592 263.452C150.911 263.111 144.059 263.963 137.378 264.814C133.609 265.325 129.84 266.176 125.9 266.176C122.473 266.176 119.047 265.836 115.621 265.155C109.111 263.622 102.772 260.557 97.8042 256.13C92.6648 251.703 88.7246 245.913 86.3262 239.442C84.2705 233.653 83.4139 227.353 84.7844 221.393C86.3262 215.092 90.2664 209.643 95.5771 206.068C98.4894 204.024 101.744 202.151 105.171 201.129C108.597 199.938 112.023 199.427 115.621 199.086C122.131 198.405 129.154 198.405 135.322 196.191C136.692 195.681 138.063 195.17 139.433 194.318C140.804 193.467 142.003 192.445 143.202 191.424C146.114 189.04 149.541 187.507 153.31 186.996C156.907 186.315 160.505 186.826 163.76 188.188C164.274 188.358 164.445 187.677 163.931 187.507C157.078 184.783 149.198 185.634 143.373 190.061C142.003 191.083 140.804 192.275 139.433 193.297C138.063 194.148 136.521 194.829 135.15 195.34C132.067 196.362 128.641 196.872 125.386 197.213C118.362 197.894 110.995 198.064 104.314 200.448C102.601 201.129 101.059 201.811 99.5173 202.662C97.9755 203.684 96.2624 204.535 94.7206 205.727C91.9795 207.77 89.7525 209.984 87.868 212.879C84.4418 217.987 83.2426 224.117 83.7565 230.077C84.2705 236.548 86.6688 243.018 90.4377 248.297C94.2066 253.916 99.5173 258.684 105.513 261.749C111.509 264.984 118.362 266.687 125.214 266.687C128.983 266.687 132.752 266.006 136.521 265.495C140.461 264.814 144.401 264.474 148.342 264.133C153.824 263.792 159.648 263.622 165.13 264.644C168.899 265.325 172.668 266.857 175.923 268.901C179.178 270.774 181.919 273.328 184.831 275.712C186.373 277.074 188.086 278.437 189.799 279.628C191.855 281.331 193.911 282.864 196.309 284.056C201.449 286.61 207.273 286.951 212.755 285.248C218.066 283.545 222.52 280.139 225.432 275.371C226.974 272.988 227.831 270.263 228.345 267.368C228.859 264.303 228.516 261.238 227.831 258.173C226.46 251.362 224.062 244.891 220.807 238.932C217.381 232.291 213.098 226.161 208.301 220.371C203.333 214.411 197.851 208.962 191.855 204.024C186.202 199.256 180.034 194.999 173.525 191.424C170.612 189.721 167.529 188.358 164.445 186.996C163.588 187.337 163.417 188.018 163.76 188.188Z" fill="white"/>
<path d="M208.346 259.215C208.516 261.48 208.516 264.268 206.985 266.184C205.624 267.578 203.583 267.753 201.882 267.578C198.99 267.23 196.268 266.01 193.717 264.79C190.315 263.222 186.913 261.306 183.511 259.389C179.769 257.298 176.027 255.033 172.284 252.942C168.542 250.677 164.8 248.586 160.888 246.67C157.486 244.927 153.914 243.185 150.171 241.965C147.28 240.92 144.048 240.048 140.986 240.223C139.795 240.223 138.435 240.397 137.244 240.92C135.033 241.791 132.821 242.314 130.44 242.662C126.017 243.359 121.425 243.011 117.172 241.442C113.77 240.048 110.708 237.783 108.327 234.821C106.286 232.208 105.095 228.897 104.925 225.587C104.755 222.276 105.946 218.965 107.987 216.352C110.708 213.041 114.621 210.95 118.703 209.731C121.595 208.86 124.656 208.337 127.718 208.511C129.759 208.685 131.971 209.034 134.012 209.034C135.713 209.034 137.584 208.86 139.285 208.337C142.687 207.466 145.919 205.549 148.47 202.935C150.171 201.193 152.213 199.625 154.594 198.754C158.847 197.186 163.439 198.057 167.352 199.973C172.455 202.587 176.707 206.769 180.449 211.125C185.042 216.526 189.124 222.276 192.866 228.374C196.949 234.821 200.521 241.617 204.093 248.412C206.134 251.722 208.005 255.033 208.346 259.215C208.346 259.737 209.196 259.737 209.196 259.215C209.026 257.124 208.516 255.207 207.665 253.291C206.985 251.548 205.964 249.806 205.114 248.063C203.413 244.579 201.542 241.094 199.67 237.783C195.928 231.162 192.016 224.541 187.423 218.443C183.511 213.216 179.429 207.988 174.326 203.807C170.583 200.67 166.161 197.708 161.228 197.186C156.465 196.663 152.043 198.579 148.641 201.89C147.28 203.11 145.919 204.329 144.388 205.375C142.857 206.42 140.986 207.117 139.285 207.64C137.414 208.163 135.543 208.337 133.672 208.337C131.46 208.163 129.249 207.988 126.868 207.814C125.337 207.814 123.636 207.988 122.105 208.337C120.744 208.511 119.383 208.86 118.193 209.382C115.981 210.079 113.77 210.95 111.899 212.344C108.837 214.261 106.286 217.223 105.095 220.708C104.074 223.844 104.074 227.329 105.265 230.465C106.456 233.776 108.667 236.738 111.389 239.003C114.621 241.617 118.363 243.185 122.445 243.707C124.827 244.056 127.208 244.056 129.589 243.882C130.95 243.707 132.141 243.533 133.502 243.185C134.692 242.836 136.053 242.662 137.244 242.139C139.795 241.094 142.687 241.268 145.239 241.617C148.811 242.314 152.213 243.707 155.445 245.101C159.357 246.844 163.099 248.935 166.841 251.026C170.754 253.291 174.666 255.556 178.578 257.821C182.15 259.912 185.892 262.003 189.464 263.919C192.526 265.487 195.588 267.056 198.82 267.927C201.031 268.624 203.413 269.146 205.624 268.449C207.665 267.753 208.686 266.01 209.196 263.919C209.536 262.525 209.536 260.957 209.366 259.563C209.026 258.692 208.175 258.692 208.346 259.215Z" fill="white"/>
<path d="M188.812 236.022C191.701 240.246 195.27 244.131 196.969 249.03C197.648 250.889 198.158 253.254 197.309 255.281C196.799 256.295 195.609 256.97 194.42 256.97C193.57 256.97 192.891 256.463 192.041 255.957C186.773 252.578 181.846 248.692 177.088 244.807C171.82 240.583 166.722 236.022 162.474 230.616C160.775 228.251 157.037 223.014 161.115 220.987C162.134 220.48 163.324 220.311 164.513 220.142C165.363 220.142 166.213 219.973 167.062 220.142C168.592 220.311 169.951 220.818 171.31 221.325C176.918 223.69 181.846 227.744 185.754 232.306C187.113 233.488 187.963 234.671 188.812 236.022C189.152 236.36 189.832 236.022 189.492 235.684C185.924 230.616 181.336 226.055 175.898 222.845C173.179 221.156 170.291 219.804 167.062 219.466C165.533 219.297 163.834 219.466 162.474 219.804C160.605 220.311 158.906 221.325 158.566 223.183C158.226 225.21 159.416 227.406 160.435 228.927C162.134 231.63 164.174 233.826 166.383 236.191C169.101 238.894 171.82 241.428 174.709 243.793C179.806 248.186 185.244 252.409 190.852 256.126C192.211 257.139 193.74 257.984 195.439 257.477C197.648 256.801 198.328 254.605 198.328 252.409C198.328 250.044 197.139 247.679 196.119 245.652C194.76 243.286 193.23 240.921 191.531 238.725C190.852 237.712 190.002 236.698 189.322 235.515C189.322 235.178 188.643 235.515 188.812 236.022Z" fill="white"/>
</g>
</g>
<path d="M104.349 183.865V243.785C104.349 247.935 103.102 251.586 101.025 254.408C99.9167 255.736 98.6701 256.898 97.285 257.728C96.731 258.06 96.3155 258.225 95.7614 258.557C94.6533 259.055 93.5453 259.221 92.2987 259.221H-0.502281V257.728H-0.779297V168.429H92.2987C93.6838 168.429 95.0689 168.761 96.3155 169.425C101.025 171.417 104.349 177.226 104.349 183.865Z" fill="#82A5FF"/>
<path d="M82.8536 110.643L87.4662 111.777C89.281 112.231 91.1714 111.097 91.6251 109.282L94.3472 98.3931C94.8009 96.5784 93.6667 94.688 91.8519 94.2343L87.2393 93.1C85.4246 92.6463 83.5342 93.7806 83.0805 95.5954L80.3583 106.408C79.9046 108.299 81.0388 110.189 82.8536 110.643Z" fill="#F3AFAE"/>
<path d="M150.984 127.581L155.596 128.715C157.411 129.169 159.301 128.035 159.755 126.22L162.477 115.407C162.931 113.592 161.797 111.702 159.982 111.248L155.369 110.114C153.554 109.66 151.664 110.794 151.21 112.609L148.488 123.422C148.035 125.237 149.169 127.127 150.984 127.581Z" fill="#F3AFAE"/>
<path d="M63.2527 131L56.3717 158.676C54.7081 165.254 58.7914 171.909 65.37 173.572L68.0165 174.253C74.5951 175.916 81.2493 171.833 82.9128 165.254C85.7106 154.139 96.2968 147.031 107.412 148.468L117.923 151.114C128.358 155.046 134.483 166.313 131.685 177.429C130.021 184.007 134.105 190.661 140.683 192.325L143.33 193.005C149.908 194.669 156.563 190.586 158.226 184.007L165.107 156.332C170.022 136.672 163.065 124.649 159.058 119.734C158.377 118.751 157.546 117.919 156.638 117.163C155.277 116.029 153.614 115.197 151.723 114.743L94.482 100.527C92.6672 100.074 90.7768 100.074 89.0377 100.376C87.9034 100.603 86.7692 100.981 85.7106 101.51C79.8882 103.93 68.0921 111.265 63.2527 131Z" fill="white"/>
<mask id="mask2_97_334" style="mask-type:alpha" maskUnits="userSpaceOnUse" x="98" y="102" width="46" height="32">
<path d="M102.573 102.418L98.4141 119.129C97.7335 121.927 99.3215 124.724 102.044 125.405L133.197 133.118C135.919 133.798 138.642 132.059 139.398 129.261L143.557 112.55L102.573 102.418Z" fill="#1C509A"/>
</mask>
<g mask="url(#mask2_97_334)">
<path d="M102.573 102.418L98.4141 119.129C97.7335 121.927 99.3215 124.724 102.044 125.405L133.197 133.118C135.919 133.798 138.642 132.059 139.398 129.261L143.557 112.55L102.573 102.418Z" fill="#1C509A"/>
<g opacity="0.5">
<path d="M90.5878 55.8847C95.3444 50.8143 101.986 47.7898 108.896 47.434C112.486 47.2561 115.986 47.7898 119.307 48.8573C122.807 49.9247 126.128 51.5259 129.269 53.4829C132.32 55.4399 135.192 57.7527 137.615 60.5103C140.039 63.2679 142.372 66.4703 142.911 70.2064C143.449 73.8535 142.103 77.4117 139.949 80.3473C137.615 83.4607 134.385 85.7735 131.154 87.8195C127.743 90.0433 124.333 92.3561 121.192 94.9358C118.051 97.5155 114.999 100.273 112.127 103.298C106.563 109.169 101.806 115.84 95.8829 121.355C93.1008 123.935 89.9596 126.515 86.28 127.76C82.7798 128.917 78.7412 128.65 75.7795 126.248C72.9974 123.935 71.3819 120.377 70.7537 116.908C70.0357 113.172 70.4844 109.347 71.3819 105.61C73.3564 97.9603 77.754 91.2887 81.2541 84.2613C82.9593 80.7031 84.485 77.0559 85.2928 73.1419C86.1005 69.05 86.1005 64.6912 87.5364 60.6882C88.0749 58.8202 89.2416 57.308 90.5878 55.8847C90.7673 55.7068 91.1263 55.9736 90.9468 56.2405C89.6006 57.7527 88.3442 59.3539 87.8057 61.3109C87.1774 63.2679 86.9082 65.4029 86.639 67.4488C86.3697 69.4948 86.1902 71.4518 85.7415 73.4977C85.3825 75.3658 84.7543 77.1449 84.126 78.924C81.4336 86.1293 76.9463 92.534 73.8948 99.5615C71.0229 106.411 69.3177 114.684 72.8179 121.622C73.6256 123.134 74.6128 124.647 75.959 125.714C77.395 126.96 79.1899 127.671 81.0746 127.849C85.0235 128.205 88.7031 126.515 91.7546 124.291C94.8957 121.978 97.6779 119.132 100.281 116.285C102.973 113.349 105.396 110.236 107.999 107.301C113.204 101.341 118.948 95.9143 125.41 91.2887C131.513 86.9299 139.41 83.3717 142.013 75.8106C142.641 74.0315 142.821 72.1634 142.552 70.3843C142.282 68.5163 141.564 66.8261 140.577 65.2249C138.782 62.1115 136.18 59.4429 133.397 57.1301C130.615 54.8172 127.564 52.8602 124.243 51.348C121.012 49.8358 117.602 48.6794 114.102 48.2346C107.371 47.2561 100.281 48.9462 94.7162 52.9492C93.37 53.9277 92.0238 55.0841 90.9468 56.3295C90.6776 56.4184 90.3186 56.1516 90.5878 55.8847Z" fill="#979797"/>
<path d="M138.154 91.4666C134.474 92.9789 130.885 95.0248 127.654 97.3377C124.154 99.7394 120.833 102.586 117.781 105.61C114.73 108.635 111.948 111.926 109.525 115.484C107.281 118.865 105.307 122.423 103.871 126.248C103.242 128.027 102.704 129.806 102.345 131.674C101.986 133.453 101.806 135.232 102.076 136.923C102.614 140.036 104.409 142.883 107.012 144.751C109.525 146.619 112.756 147.419 115.897 147.063C117.602 146.885 119.217 146.263 120.653 145.462C121.82 144.751 122.987 143.861 124.064 142.971C125.769 141.637 127.384 140.125 129.179 138.791C130.795 137.545 132.5 136.478 134.474 135.766C136.808 134.877 139.411 134.521 141.923 134.343C145.783 134.165 149.642 134.61 153.411 135.143C155.565 135.499 157.719 135.944 159.963 135.944C161.937 135.944 163.912 135.766 165.886 135.321C169.655 134.432 173.245 132.653 176.117 130.162C179.079 127.582 181.323 124.291 182.669 120.644C183.836 117.352 184.374 113.794 183.566 110.414C182.759 106.767 180.425 103.742 177.374 101.607C175.669 100.451 173.874 99.3836 171.899 98.7609C169.925 98.1383 167.95 97.7824 165.886 97.6045C162.117 97.1597 158.168 97.2487 154.578 96.0033C153.77 95.7365 152.962 95.3806 152.244 94.9359C151.437 94.4911 150.808 93.8684 150.091 93.3347C148.475 92.0004 146.411 91.1108 144.257 90.8439C142.103 90.4881 140.039 90.755 138.154 91.4666C137.885 91.5556 137.795 91.1108 138.064 91.0219C141.924 89.4207 146.501 89.9544 149.821 92.5341C150.629 93.1568 151.257 93.7795 152.155 94.3132C152.962 94.758 153.77 95.2027 154.668 95.4696C156.463 96.0923 158.347 96.3592 160.232 96.5371C164.271 96.9818 168.399 96.9818 172.258 98.4051C173.245 98.7609 174.143 99.2057 175.04 99.6505C175.938 100.184 176.925 100.718 177.733 101.341C179.258 102.497 180.605 103.831 181.682 105.344C183.656 108.279 184.374 111.748 184.105 115.218C183.746 118.954 182.4 122.512 180.335 125.625C178.181 128.828 175.22 131.496 171.72 133.364C168.309 135.143 164.36 136.211 160.501 136.211C158.347 136.211 156.193 135.855 154.039 135.499C151.796 135.143 149.552 134.877 147.219 134.699C144.077 134.432 140.757 134.432 137.616 135.054C135.462 135.499 133.308 136.3 131.423 137.456C129.628 138.524 128.013 139.947 126.397 141.281C125.5 142.082 124.513 142.794 123.615 143.594C122.448 144.484 121.192 145.462 119.846 146.174C116.974 147.597 113.563 147.864 110.422 146.885C107.461 145.907 104.768 143.95 103.153 141.281C102.345 139.858 101.717 138.346 101.537 136.745C101.268 134.966 101.447 133.275 101.806 131.496C102.524 127.671 104.05 123.935 105.845 120.466C107.819 116.73 110.332 113.172 113.025 109.88C115.897 106.5 119.038 103.387 122.448 100.54C125.679 97.8714 129.179 95.3806 132.859 93.3347C134.564 92.4451 136.269 91.5556 138.064 90.8439C138.334 90.9329 138.423 91.3777 138.154 91.4666Z" fill="#979797"/>
<path d="M112.487 131.585C112.397 132.831 112.307 134.432 113.294 135.41C114.012 136.211 115.269 136.3 116.256 136.122C117.872 135.944 119.487 135.232 120.923 134.61C122.897 133.72 124.872 132.653 126.757 131.674C128.91 130.518 131.064 129.272 133.218 128.027C135.372 126.782 137.616 125.625 139.77 124.469C141.744 123.49 143.808 122.512 145.962 121.8C147.668 121.266 149.463 120.733 151.258 120.822C151.976 120.822 152.693 120.911 153.411 121.178C154.668 121.622 156.014 121.978 157.36 122.156C159.963 122.512 162.566 122.334 164.989 121.444C166.963 120.733 168.758 119.487 170.015 117.797C171.181 116.374 171.899 114.506 171.899 112.638C171.989 110.77 171.271 108.991 170.104 107.478C168.579 105.61 166.245 104.454 163.912 103.831C162.207 103.387 160.502 103.031 158.707 103.12C157.45 103.209 156.283 103.387 155.027 103.387C154.04 103.387 152.963 103.298 151.976 103.031C150.001 102.497 148.206 101.43 146.68 100.006C145.693 99.0278 144.526 98.1382 143.18 97.6934C140.757 96.8039 138.065 97.2487 135.821 98.4051C132.859 99.9173 130.436 102.23 128.282 104.632C125.59 107.567 123.256 110.859 121.102 114.239C118.769 117.886 116.705 121.533 114.641 125.358C113.833 127.404 112.756 129.361 112.487 131.585C112.487 131.852 112.038 131.852 112.038 131.585C112.128 130.429 112.397 129.361 112.846 128.294C113.294 127.315 113.833 126.337 114.371 125.358C115.359 123.401 116.436 121.533 117.513 119.576C119.666 115.84 122 112.193 124.513 108.724C126.757 105.788 129.18 102.853 132.052 100.54C134.206 98.7609 136.808 97.1597 139.59 96.8928C142.283 96.626 144.885 97.6934 146.86 99.4725C147.668 100.184 148.386 100.896 149.283 101.43C150.181 101.963 151.258 102.408 152.245 102.675C153.322 102.942 154.399 103.031 155.476 103.031C156.732 102.942 158.078 102.764 159.335 102.764C160.232 102.764 161.13 102.853 162.027 103.031C162.835 103.209 163.553 103.387 164.271 103.564C165.527 103.92 166.784 104.454 167.951 105.166C169.745 106.322 171.181 107.834 171.899 109.88C172.528 111.659 172.438 113.527 171.81 115.306C171.181 117.175 169.925 118.865 168.31 120.11C166.515 121.533 164.271 122.423 161.937 122.779C160.591 122.957 159.245 122.957 157.809 122.868C157.091 122.779 156.373 122.69 155.565 122.512C154.847 122.334 154.04 122.156 153.411 121.889C151.976 121.266 150.27 121.355 148.745 121.622C146.68 121.978 144.706 122.779 142.821 123.579C140.578 124.558 138.424 125.714 136.27 126.871C134.026 128.116 131.782 129.361 129.539 130.607C127.474 131.763 125.41 132.92 123.256 134.076C121.551 134.965 119.756 135.766 117.872 136.3C116.615 136.656 115.179 137.011 113.923 136.567C112.756 136.211 112.128 135.232 111.948 134.076C111.769 133.275 111.769 132.475 111.858 131.674C112.128 131.318 112.576 131.318 112.487 131.585Z" fill="#979797"/>
<path d="M123.794 118.776C122.089 121.177 120.115 123.49 119.038 126.248C118.589 127.315 118.32 128.739 118.858 129.806C119.127 130.429 119.845 130.785 120.474 130.785C121.012 130.785 121.371 130.518 121.82 130.251C124.781 128.294 127.653 126.07 130.436 123.846C133.397 121.355 136.449 118.776 138.782 115.662C139.769 114.328 141.923 111.303 139.59 110.147C138.962 109.88 138.333 109.702 137.615 109.702C137.167 109.702 136.628 109.613 136.09 109.702C135.282 109.791 134.384 110.058 133.666 110.414C130.436 111.748 127.564 114.15 125.32 116.73C124.871 117.352 124.333 118.064 123.794 118.776C123.615 119.043 123.256 118.776 123.435 118.509C125.499 115.573 128.102 112.994 131.243 111.126C132.769 110.236 134.474 109.435 136.269 109.169C137.077 109.08 138.064 109.169 138.962 109.346C139.949 109.613 141.026 110.147 141.205 111.303C141.385 112.46 140.756 113.705 140.128 114.684C139.141 116.196 137.974 117.53 136.718 118.776C135.192 120.288 133.577 121.8 131.961 123.223C129 125.714 125.858 128.116 122.627 130.34C121.82 130.874 121.012 131.407 119.935 131.051C118.679 130.696 118.23 129.361 118.32 128.205C118.32 126.782 118.948 125.536 119.666 124.291C120.474 122.868 121.371 121.622 122.269 120.288C122.717 119.665 123.166 119.043 123.615 118.42C123.615 118.242 123.974 118.509 123.794 118.776Z" fill="#979797"/>
</g>
</g>
<path d="M109 142.872L119.662 145.519C120.645 145.746 121.628 145.141 121.855 144.233C122.081 143.25 121.476 142.267 120.569 142.04L109.907 139.394C108.924 139.167 107.941 139.772 107.714 140.679C107.488 141.662 108.092 142.645 109 142.872Z" fill="#1C509A"/>
<path d="M148.471 135.613L149.152 137.352C149.303 137.73 149.227 138.184 148.849 138.486L147.412 139.696C147.186 139.923 146.807 139.999 146.505 139.923L142.044 138.789C141.514 138.638 141.136 138.108 141.288 137.579L142.044 134.63C142.195 134.101 142.724 133.723 143.254 133.874L147.791 134.932C148.093 135.084 148.32 135.311 148.471 135.613Z" fill="#1C509A"/>
<path d="M148.924 140.83L150.663 140.15C151.041 139.999 151.495 140.074 151.798 140.452L153.007 141.889C153.234 142.116 153.31 142.494 153.234 142.796L152.1 147.258C151.949 147.787 151.42 148.165 150.89 148.014L147.941 147.258C147.412 147.107 147.034 146.577 147.185 146.048L148.319 141.587C148.395 141.209 148.622 140.906 148.924 140.83Z" fill="#1C509A"/>
<path d="M154.823 141.511L154.142 139.772C153.991 139.394 154.067 138.94 154.445 138.638L155.882 137.428C156.108 137.201 156.486 137.125 156.789 137.201L161.25 138.335C161.78 138.486 162.158 139.016 162.006 139.545L161.25 142.494C161.099 143.023 160.57 143.401 160.04 143.25L155.579 142.116C155.201 142.04 154.899 141.814 154.823 141.511Z" fill="#1C509A"/>
<path d="M154.37 136.218L152.631 136.898C152.253 137.05 151.799 136.974 151.496 136.596L150.287 135.159C150.06 134.932 149.984 134.554 150.06 134.252L151.194 129.791C151.345 129.261 151.874 128.883 152.404 129.034L155.353 129.791C155.882 129.942 156.26 130.471 156.109 131L154.975 135.462C154.899 135.84 154.672 136.142 154.37 136.218Z" fill="#1C509A"/>
<path d="M83.1388 112.626C82.6851 114.441 83.8193 116.255 85.6341 116.709C87.4489 117.163 89.2636 116.029 89.7173 114.214C90.171 112.399 89.0368 110.584 87.222 110.131C85.4073 109.677 83.5925 110.811 83.1388 112.626Z" fill="#1C509A"/>
<path d="M79.2071 128.278C78.7534 130.093 79.8877 131.908 81.7024 132.362C83.5172 132.815 85.332 131.681 85.7857 129.866C86.2394 128.051 85.1052 126.237 83.2904 125.783C81.4756 125.329 79.6608 126.464 79.2071 128.278Z" fill="#1C509A"/>
<path d="M89.1886 122.229C88.7349 124.044 89.8691 125.859 91.6839 126.312C93.4987 126.766 95.3135 125.632 95.7671 123.817C96.2208 122.002 95.0866 120.187 93.2718 119.734C91.4571 119.356 89.6423 120.414 89.1886 122.229Z" fill="#1C509A"/>
<path d="M73.7628 118.448C73.3091 120.263 74.4434 122.078 76.2581 122.532C78.0729 122.985 79.8877 121.851 80.3414 120.036C80.7951 118.221 79.6608 116.407 77.8461 115.953C76.1069 115.499 74.2165 116.634 73.7628 118.448Z" fill="#1C509A"/>
<path opacity="0.1" d="M361.447 202.313L379.551 202.313C380.378 203.06 381.266 204.211 382.215 205.765C383.143 207.299 383.94 209.236 384.606 211.577C385.272 213.918 385.605 216.673 385.605 219.842C385.605 222.768 385.141 225.422 384.213 227.804C383.264 230.185 381.882 232.234 380.065 233.949C378.229 235.645 375.989 236.956 373.345 237.885C370.681 238.793 367.633 239.247 364.202 239.247L361.75 239.247C358.319 239.247 355.271 238.783 352.607 237.854C349.943 236.926 347.703 235.624 345.887 233.949C344.05 232.254 342.658 230.266 341.709 227.985C340.76 225.685 340.286 223.162 340.286 220.417C340.286 216.36 340.932 213.061 342.224 210.518C343.495 207.975 345.261 206.047 347.521 204.735C349.762 203.424 352.355 202.626 355.302 202.344L355.302 212.546C353.849 212.748 352.618 213.131 351.608 213.696C350.579 214.241 349.802 215.028 349.277 216.058C348.732 217.087 348.46 218.419 348.46 220.054C348.46 221.325 348.732 222.486 349.277 223.535C349.822 224.564 350.65 225.442 351.76 226.169C352.85 226.896 354.222 227.461 355.877 227.864C357.532 228.248 359.469 228.439 361.689 228.439L364.202 228.439C366.402 228.439 368.329 228.258 369.984 227.895C371.639 227.511 373.022 226.946 374.132 226.199C375.222 225.432 376.049 224.464 376.614 223.293C377.159 222.102 377.432 220.7 377.432 219.085C377.432 217.955 377.341 216.986 377.159 216.179C376.957 215.371 376.715 214.705 376.433 214.181C376.13 213.636 375.847 213.222 375.585 212.939L368.743 212.939L368.743 220.326L361.447 220.326L361.447 202.313ZM350.186 177.429L385 188.176L385 199.589L340.922 183.393L340.922 176.157L350.186 177.429ZM385 168.528L350.186 179.306L340.922 180.698L340.922 173.372L385 157.085L385 168.528ZM368.562 168.952L376.766 168.952L376.766 191.566L368.562 191.566L368.562 168.952ZM340.922 148.578L340.922 139.92L371.589 130.081L340.922 120.242L340.922 111.584L385 126.569L385 133.593L340.922 148.578ZM340.922 153.846L340.922 144.885L374.707 143.22L385 143.22L385 153.846L340.922 153.846ZM340.922 115.277L340.922 106.286L385 106.286L385 116.942L374.707 116.942L340.922 115.277ZM340.922 88.1826L385 88.1826L385 98.7783L340.922 98.7783L340.922 88.1826ZM340.922 43.8926L385 43.8926L385 54.4883L357.572 70.0791L385 70.0791L385 80.7051L340.922 80.7051L340.922 70.0791L368.35 54.4883L340.922 54.4883L340.922 43.8926ZM361.447 1.11621L379.551 1.11621C380.378 1.86295 381.266 3.01334 382.215 4.56738C383.143 6.10124 383.94 8.03874 384.606 10.3799C385.272 12.721 385.605 15.4759 385.605 18.6445C385.605 21.571 385.141 24.2249 384.213 26.6064C383.264 28.988 381.882 31.0365 380.065 32.752C378.229 34.4473 375.989 35.7591 373.345 36.6875C370.681 37.5957 367.633 38.0498 364.202 38.0498L361.75 38.0498C358.319 38.0498 355.271 37.5856 352.607 36.6572C349.943 35.7288 347.703 34.4271 345.887 32.752C344.05 31.0566 342.658 29.0687 341.709 26.7881C340.76 24.4873 340.286 21.9645 340.286 19.2197C340.286 15.1631 340.932 11.8633 342.224 9.32031C343.495 6.77734 345.261 4.84993 347.521 3.53809C349.762 2.22624 352.355 1.42904 355.302 1.14648L355.302 11.3486C353.849 11.5505 352.618 11.9339 351.608 12.499C350.579 13.0439 349.802 13.8311 349.277 14.8604C348.732 15.8896 348.46 17.2217 348.46 18.8564C348.46 20.1279 348.732 21.2884 349.277 22.3379C349.822 23.3672 350.65 24.2451 351.76 24.9717C352.85 25.6982 354.222 26.2633 355.877 26.667C357.532 27.0505 359.469 27.2422 361.689 27.2422L364.202 27.2422C366.402 27.2422 368.329 27.0605 369.984 26.6973C371.639 26.3138 373.022 25.7487 374.132 25.002C375.222 24.235 376.049 23.2663 376.614 22.0957C377.159 20.9049 377.432 19.5023 377.432 17.8877C377.432 16.7575 377.341 15.7887 377.159 14.9814C376.957 14.1742 376.715 13.5081 376.433 12.9834C376.13 12.4385 375.847 12.0247 375.585 11.7422L368.743 11.7422L368.743 19.1289L361.447 19.1289L361.447 1.11621Z" fill="white"/>
</g>
</svg>
