<svg width="220" height="362" viewBox="0 0 220 362" fill="none" xmlns="http://www.w3.org/2000/svg">
<path d="M220 110.052C220 100.766 220 96.1226 219.692 92.2057C215.832 43.1681 176.884 4.21925 127.846 0.359903C123.929 0.0516357 119.286 0.0516357 110 0.0516357C100.714 0.0516357 96.071 0.0516357 92.1541 0.359903C43.1165 4.21925 4.16762 43.1681 0.308273 92.2057C0 96.1226 0 100.766 0 110.052V360.052H40C114.995 360.052 152.492 360.052 178.779 340.953C187.268 334.785 194.734 327.32 200.902 318.83C220 292.544 220 255.046 220 180.052V110.052Z" fill="#2D76F9"/>
<mask id="mask0_530_8303" style="mask-type:alpha" maskUnits="userSpaceOnUse" x="0" y="1" width="220" height="361">
<path d="M220 111.052C220 101.766 220 97.1226 219.692 93.2057C215.832 44.1681 176.884 5.21925 127.846 1.3599C123.929 1.05164 119.286 1.05164 110 1.05164C100.714 1.05164 96.071 1.05164 92.1541 1.3599C43.1165 5.21925 4.16762 44.1681 0.308273 93.2057C0 97.1226 0 101.766 0 111.052V361.052H40C114.995 361.052 152.492 361.052 178.779 341.953C187.268 335.785 194.734 328.32 200.902 319.83C220 293.544 220 256.046 220 181.052V111.052Z" fill="#5B84CD"/>
</mask>
<g mask="url(#mask0_530_8303)">
<path d="M217 293.443V376.446H196.941V310.122C196.941 305.691 198.634 301.522 201.5 298.525C203.454 296.44 206.059 294.876 208.794 293.964C210.357 293.443 212.05 293.182 213.744 293.182C214.916 293.182 215.958 293.182 217 293.443Z" fill="#F3AFAE"/>
<g opacity="0.7">
<g opacity="0.7">
<path opacity="0.7" d="M217 344.652V376.967H172.583V356.77C172.583 356.249 172.583 355.597 172.713 355.076C173.234 351.297 175.449 348.04 178.444 346.216C178.965 345.955 179.487 345.564 180.138 345.434C181.31 344.913 182.613 344.652 183.915 344.652H217Z" fill="#6D75E7"/>
</g>
</g>
<path d="M188.268 312.542L158.092 319.052L164.6 349.239L194.776 342.73L188.268 312.542Z" fill="#FEDE8C"/>
<path opacity="0.3" d="M48.1605 162.851C46.4943 162.851 44.8281 163.149 43.358 163.847C41.7898 155.977 34.831 150 26.598 150C17.581 150 10.2301 157.073 9.54403 166.038C7.87784 165.142 6.01562 164.644 3.95739 164.644C-2.41335 164.644 -7.60795 169.625 -8 176H11.7003H15.8168H35.223H41.3977H61C61 168.728 55.2173 162.851 48.1605 162.851Z" fill="#F2F2F2"/>
<path d="M30.8662 235.849V373.84H-3V235.849C-3 231.418 -1.30669 227.249 1.55891 224.252C3.51273 222.167 6.11782 220.603 8.85317 219.691C10.4162 219.17 12.1095 218.909 13.8028 218.909C15.4961 218.909 17.1895 219.17 18.7525 219.691C21.3576 220.473 23.8324 222.036 25.656 223.861C25.7863 223.991 25.9165 224.121 26.0468 224.252C29.1729 227.249 30.8662 231.288 30.8662 235.849Z" fill="#F3AFAE"/>
<path d="M84 364H-3V323H30.9284C33.1073 323 35.2862 323.129 37.4651 323.388C40.8891 323.776 44.1574 324.293 47.2701 325.199C55.3631 327.397 62.678 331.148 68.5921 336.063C70.771 337.874 72.9499 339.943 74.6619 342.142C79.9535 348.35 83.3775 355.852 84 364Z" fill="#545BBC"/>
<path opacity="0.2" d="M212.823 203.015C209.567 203.015 206.571 204.579 204.617 207.055C202.142 203.537 198.104 201.191 193.415 201.191C187.945 201.191 183.125 204.449 181.041 209.14C180.65 209.14 180.26 209.009 179.739 209.009C174.919 209.009 171.011 212.527 170.36 217.088H179.999H189.247H203.184H206.962H222.462C222.853 215.915 223.113 214.743 223.113 213.44C223.113 207.706 218.554 203.015 212.823 203.015Z" fill="#F2F2F2"/>
<path opacity="0.3" d="M89.0924 270.786C85.8821 270.786 83.0386 272.214 81.2041 274.536C78.8193 271.232 74.8752 269 70.3807 269C65.0607 269 60.4745 272.036 58.3648 276.5C57.9979 276.411 57.5393 276.411 57.1724 276.411C52.5862 276.411 48.7338 279.714 48 284H57.2641H66.2531H79.7366H83.4055H98.3566C98.8152 282.929 98.9986 281.768 98.9986 280.518C99.0903 275.161 94.5959 270.786 89.0924 270.786Z" fill="#F2F2F2"/>
<path d="M161.381 237.803C161.381 242.494 165.159 246.143 169.718 246.143C174.407 246.143 178.054 242.364 178.054 237.803C178.054 233.112 174.277 229.464 169.718 229.464C165.159 229.333 161.381 233.112 161.381 237.803Z" fill="#FEDE8C"/>
<path d="M163.335 237.803C163.335 241.321 166.201 244.318 169.848 244.318C173.495 244.318 176.36 241.452 176.36 237.803C176.36 234.285 173.495 231.288 169.848 231.288C166.201 231.288 163.335 234.155 163.335 237.803Z" fill="#FECC4D"/>
<mask id="mask1_530_8303" style="mask-type:alpha" maskUnits="userSpaceOnUse" x="40" y="252" width="154" height="116">
<path d="M192.642 256.306L186.781 263.212L166.201 287.058L162.944 290.837L155.129 299.828V358.464C155.129 363.416 151.221 367.325 146.272 367.325H86.7452C81.7956 367.325 77.8879 363.416 77.8879 358.464V299.176L41.0259 256.306C40.6351 255.915 40.5049 255.394 40.5049 255.003C40.5049 254.482 40.7654 253.83 41.1562 253.44C42.0679 252.658 43.3705 252.788 44.0218 253.7L82.1863 298.003H151.482L158.776 289.534L162.944 284.712L186.781 257.088L189.516 253.83C190.298 252.918 191.6 252.918 192.382 253.57C193.293 254.091 193.424 255.394 192.642 256.306Z" fill="#6D75E7"/>
</mask>
<g mask="url(#mask1_530_8303)">
<path d="M192.642 256.306L186.781 263.212L166.201 287.058L162.944 290.837L155.129 299.828V358.464C155.129 363.416 151.221 367.325 146.272 367.325H86.7452C81.7956 367.325 77.8879 363.416 77.8879 358.464V299.176L41.0259 256.306C40.6351 255.915 40.5049 255.394 40.5049 255.003C40.5049 254.482 40.7654 253.83 41.1562 253.44C42.0679 252.658 43.3705 252.788 44.0218 253.7L82.1863 298.003H151.482L158.776 289.534L162.944 284.712L186.781 257.088L189.516 253.83C190.298 252.918 191.6 252.918 192.382 253.57C193.293 254.091 193.424 255.394 192.642 256.306Z" fill="#A7D3B0"/>
<g opacity="0.2">
<path d="M92.217 282.751C99.1457 285.75 105.7 289.499 111.88 293.81C118.434 298.495 124.614 303.743 130.419 309.366C136.037 315.176 141.28 321.361 145.774 327.921C150.082 334.294 153.64 341.041 156.449 348.164C157.572 351.537 158.696 354.911 159.257 358.285C159.819 361.658 160.194 364.845 159.632 368.218C158.696 374.216 155.325 379.464 150.456 383.025C145.774 386.399 139.782 388.086 133.977 387.336C130.793 386.961 127.797 385.836 125.175 384.337C122.928 383.025 120.868 381.338 118.808 379.651C115.625 377.027 112.629 374.216 109.258 371.779C106.262 369.53 103.078 367.469 99.333 365.969C94.8387 364.282 90.1571 363.533 85.4755 363.345C78.3595 362.97 71.0562 363.72 63.9401 364.845C59.8203 365.407 55.8878 366.344 51.5807 366.344C47.8354 366.344 44.2774 365.969 40.5321 365.219C33.4161 363.533 26.8619 360.159 21.4312 355.473C16.0006 350.6 11.6935 344.415 9.25908 337.668C7.01191 331.483 6.07559 324.735 7.5737 318.363C9.07181 311.615 13.3789 305.805 18.9968 301.869C22.1803 299.62 25.551 297.746 29.2963 296.434C32.8543 295.309 36.7869 294.559 40.5321 294.184C47.4609 293.435 54.9515 293.435 61.693 291.186C63.1911 290.623 64.6892 290.061 66 289.124C67.4981 288.187 68.6217 287.062 69.9326 286.125C72.9288 283.501 76.8613 281.814 80.7939 281.439C84.9137 280.69 88.659 281.252 92.217 282.751C92.7788 282.939 92.966 282.189 92.4043 282.002C85.101 279.003 76.6741 279.94 70.3071 284.813C68.809 285.938 67.6854 287.25 66 288.187C64.5019 289.124 63.0038 289.874 61.3184 290.248C57.9477 291.373 54.3897 291.935 50.8317 292.31C43.3411 293.06 35.476 293.247 28.36 295.871C26.4874 296.434 24.802 297.371 23.1166 298.308C21.4312 299.245 19.5586 300.37 18.0605 301.494C15.2515 303.556 12.6298 306.18 10.7572 309.179C7.19917 314.614 5.70107 321.174 6.26286 327.734C6.82465 334.669 9.44634 341.604 13.3789 347.414C17.4987 353.412 22.9293 358.472 29.4836 362.033C35.8505 365.407 43.1538 367.281 50.4571 367.469C54.5769 367.469 58.5095 366.906 62.442 366.157C66.7491 365.594 70.8689 365.032 75.176 364.657C81.1684 364.282 87.1609 364.095 93.1533 365.219C97.2731 365.969 101.206 367.469 104.764 369.718C108.134 371.779 111.131 374.403 114.314 377.027C115.999 378.527 117.685 379.839 119.558 381.338C121.805 383.025 124.052 384.899 126.486 386.211C131.917 388.835 138.284 389.398 144.089 387.523C149.707 385.836 154.576 381.9 157.572 376.84C159.07 374.216 160.194 371.405 160.568 368.218C161.13 364.845 160.756 361.658 160.007 358.285C158.508 350.975 155.887 344.04 152.516 337.48C148.771 330.358 144.276 323.798 139.033 317.613C133.79 311.24 127.797 305.43 121.43 299.995C115.438 294.934 108.883 290.248 101.955 286.5C98.7712 284.813 95.5877 283.126 92.217 281.814C91.8424 281.814 91.6552 282.564 92.217 282.751Z" fill="white"/>
<path d="M140.156 358.285C140.344 360.721 140.344 363.72 138.658 365.594C137.347 367.094 135.1 367.281 133.04 366.906C130.044 366.532 127.048 365.22 124.239 364.095C120.494 362.408 116.936 360.534 113.378 358.472C109.258 356.223 105.325 353.974 101.393 351.537C97.2729 349.288 93.3403 347.039 89.0332 344.79C85.288 342.916 81.5427 341.229 77.6102 339.729C74.4267 338.605 71.0559 337.855 67.6852 337.855C66.3743 337.855 64.8762 338.043 63.5654 338.605C61.1309 339.355 58.6965 340.104 56.2621 340.479C51.3932 341.229 46.5243 340.854 42.03 339.167C38.2847 337.668 34.914 335.419 32.6668 332.232C30.6069 329.421 29.1088 326.047 29.1088 322.486C28.9215 318.925 30.2324 315.551 32.4796 312.927C35.4758 309.366 39.5956 307.304 43.9027 305.992C47.0861 305.055 50.2696 304.493 53.6404 304.68C55.8875 304.868 58.1347 305.243 60.5691 305.243C62.4418 305.243 64.5017 305.055 66.1871 304.493C69.9323 303.556 73.3031 301.494 76.112 298.87C77.9847 296.996 80.2318 295.497 82.6663 294.559C87.3479 292.873 92.2167 293.81 96.3365 295.871C101.767 298.683 106.449 302.994 110.381 307.492C115.437 313.115 119.745 319.3 123.864 325.672C128.171 332.42 132.104 339.542 135.849 346.664C137.722 350.413 139.782 354.161 140.156 358.285C140.156 358.847 141.093 358.847 140.905 358.285C140.718 356.036 140.156 353.974 139.407 352.1C138.658 350.225 137.535 348.351 136.598 346.477C134.726 342.916 132.666 339.167 130.793 335.606C126.861 328.484 122.553 321.736 117.685 315.176C113.565 309.554 109.07 304.118 103.64 299.807C99.52 296.434 94.8384 293.435 89.4078 292.873C84.3516 292.31 79.6701 294.372 75.9248 297.746C74.4267 299.058 73.1158 300.37 71.4304 301.494C69.7451 302.619 67.8724 303.368 65.8125 303.931C63.7526 304.493 61.88 304.68 59.8201 304.68C57.3857 304.493 54.9512 304.306 52.5168 304.118C50.8314 304.118 49.146 304.306 47.4607 304.68C45.9626 304.868 44.6517 305.243 43.1536 305.618C40.7192 306.367 38.472 307.304 36.4121 308.616C33.0413 310.678 30.4196 313.677 29.1088 317.426C27.9852 320.799 27.9852 324.36 29.1088 327.734C30.4196 331.295 32.6668 334.481 35.663 336.731C39.0338 339.355 43.1536 341.041 47.4607 341.604C50.0824 341.979 52.5168 341.979 55.1385 341.791C56.4493 341.604 57.9474 341.416 59.2583 341.041C60.5691 340.667 62.0673 340.479 63.3781 339.917C65.9998 338.792 69.1833 338.98 71.9922 339.542C75.7375 340.292 79.4828 341.604 83.0408 343.291C87.1606 345.165 91.2804 347.226 95.4002 349.476C99.7073 351.725 103.827 354.161 107.947 356.598C111.879 358.847 115.812 361.096 119.745 362.97C122.928 364.657 126.299 366.157 129.857 367.281C132.104 368.031 134.913 368.593 137.16 367.844C139.407 367.094 140.531 365.22 140.905 363.158C141.28 361.658 141.093 360.159 141.093 358.66C140.905 357.722 139.969 357.722 140.156 358.285Z" fill="white"/>
<path d="M118.996 334.107C122.179 338.605 125.924 342.916 127.797 348.164C128.546 350.225 129.108 352.849 128.172 354.911C127.61 356.036 126.299 356.785 125.175 356.785C124.239 356.785 123.49 356.223 122.741 355.848C117.123 352.1 111.88 347.976 106.636 343.853C101.018 339.167 95.4004 334.294 90.906 328.484C89.0334 325.86 84.9136 320.237 89.4079 318.175C90.5315 317.613 91.8423 317.426 92.9659 317.238C93.9022 317.238 94.8386 317.051 95.7749 317.238C97.273 317.426 98.9584 317.988 100.456 318.55C106.449 320.987 111.88 325.485 115.999 330.545C117.123 331.483 118.059 332.795 118.996 334.107C119.37 334.481 120.119 334.107 119.745 333.732C115.812 328.109 110.943 323.236 105.138 319.862C102.329 318.175 99.1456 316.676 95.7749 316.114C94.2768 315.926 92.4041 316.114 90.7188 316.488C88.8461 316.863 86.9735 317.988 86.599 320.237C86.2244 322.486 87.5353 324.735 88.6589 326.609C90.5315 329.421 92.7787 332.045 95.0258 334.481C97.8348 337.48 100.831 340.104 104.015 342.728C109.632 347.414 115.438 352.1 121.43 356.036C122.928 357.16 124.426 358.097 126.486 357.535C128.733 356.785 129.67 354.349 129.482 352.1C129.482 349.476 128.359 347.039 127.048 344.79C125.55 342.166 123.864 339.729 122.179 337.293C121.43 336.168 120.494 335.044 119.745 333.919C119.37 333.169 118.621 333.732 118.996 334.107Z" fill="white"/>
</g>
</g>
<path d="M93.1279 258.391C93.1279 270.77 103.158 280.803 115.532 280.803C127.906 280.803 137.935 270.77 137.935 258.391C137.935 246.012 127.906 235.979 115.532 235.979C103.158 235.979 93.1279 246.012 93.1279 258.391Z" fill="#FEDE8C"/>
<path d="M98.3384 258.391C98.3384 267.903 106.023 275.721 115.532 275.721C125.041 275.721 132.726 268.034 132.726 258.521C132.726 249.009 125.041 241.321 115.532 241.321C106.023 241.191 98.3384 248.879 98.3384 258.391Z" fill="#FECC4D"/>
<path d="M150.179 256.697H81.0142V157.145H150.179V256.697Z" fill="url(#paint0_linear_530_8303)"/>
<path d="M151.873 258.391H79.321C78.0185 258.391 76.8462 257.349 76.8462 255.915C76.8462 254.482 77.8882 253.44 79.321 253.44H151.873C153.175 253.44 154.348 254.482 154.348 255.915C154.348 257.349 153.306 258.391 151.873 258.391Z" fill="#E65F5C"/>
<path d="M22.2636 294.471L15.3931 332.424L53.3315 339.297L60.2021 301.344L22.2636 294.471Z" fill="#E65F5C"/>
<path d="M39.9839 211.197C39.9839 218.624 45.9756 224.618 53.4001 224.618C60.8246 224.618 66.8163 218.624 66.8163 211.197C66.8163 203.77 60.8246 197.776 53.4001 197.776C45.9756 197.776 39.9839 203.77 39.9839 211.197Z" fill="#FEDE8C"/>
<path d="M43.1104 211.197C43.1104 216.93 47.7995 221.491 53.4005 221.491C59.1317 221.491 63.6906 216.8 63.6906 211.197C63.6906 205.464 59.1317 200.903 53.4005 200.903C47.7995 200.773 43.1104 205.464 43.1104 211.197Z" fill="#FECC4D"/>
<path d="M120.091 312.728L123.347 319.373C123.868 320.415 124.91 321.197 126.082 321.328L133.377 322.37C136.372 322.761 137.545 326.409 135.33 328.494L129.99 333.706C129.078 334.488 128.687 335.791 128.948 336.964L130.25 344.261C130.771 347.258 127.645 349.473 125.04 348.04L118.528 344.652C117.485 344.131 116.183 344.131 115.141 344.652L108.628 348.04C106.023 349.473 102.897 347.128 103.418 344.261L104.721 336.964C104.981 335.791 104.59 334.619 103.678 333.706L98.3381 328.494C96.1237 326.409 97.4263 322.761 100.292 322.37L107.586 321.328C108.758 321.197 109.8 320.415 110.321 319.373L113.578 312.728C114.88 309.991 118.788 309.991 120.091 312.728Z" fill="white"/>
</g>
<defs>
<linearGradient id="paint0_linear_530_8303" x1="116" y1="194.727" x2="115.597" y2="157.145" gradientUnits="userSpaceOnUse">
<stop stop-color="#3368C8"/>
<stop offset="1" stop-color="#3368C8" stop-opacity="0"/>
</linearGradient>
</defs>
</svg>
