<svg width="220" height="361" viewBox="0 0 220 361" fill="none" xmlns="http://www.w3.org/2000/svg">
<mask id="mask0_1_49" style="mask-type:alpha" maskUnits="userSpaceOnUse" x="0" y="0" width="220" height="361">
<path d="M0 180.591C0 105.596 0 68.0991 19.0983 41.8125C25.2663 33.3231 32.732 25.8573 41.2215 19.6894C67.508 0.591064 105.005 0.591064 180 0.591064H220V250.591C220 259.877 220 264.52 219.692 268.437C215.832 317.475 176.884 356.423 127.846 360.283C123.929 360.591 119.286 360.591 110 360.591V360.591C100.714 360.591 96.071 360.591 92.1541 360.283C43.1165 356.423 4.16761 317.475 0.308267 268.437C0 264.52 0 259.877 0 250.591V180.591Z" fill="#2D76F9"/>
</mask>
<g mask="url(#mask0_1_49)">
<path d="M0 180.591C0 105.596 0 68.0991 19.0983 41.8125C25.2663 33.3231 32.732 25.8573 41.2215 19.6894C67.508 0.591064 105.005 0.591064 180 0.591064H220V250.591C220 259.877 220 264.52 219.692 268.437C215.832 317.475 176.884 356.423 127.846 360.283C123.929 360.591 119.286 360.591 110 360.591V360.591C100.714 360.591 96.071 360.591 92.1541 360.283C43.1165 356.423 4.16761 317.475 0.308267 268.437C0 264.52 0 259.877 0 250.591V180.591Z" fill="#2D76F9"/>
<path d="M227 282.731V372.133H75.1629C75.2976 370.65 75.5671 369.166 75.8365 367.683C77.8574 356.491 82.5729 319.274 89.1745 310.509C90.7912 308.351 92.6774 306.329 94.5636 304.306C94.833 304.036 95.1025 303.767 95.372 303.497C103.186 295.676 112.886 289.743 123.53 286.237C127.976 284.753 132.557 283.81 137.272 283.27C139.832 283.001 142.526 282.866 145.086 282.866H227V282.731Z" fill="#FFD15B"/>
<path d="M94.4288 259.403V340.714H-0.553711V242.952H78.1268C87.0188 242.952 94.1594 249.963 94.5635 258.728C94.4288 258.998 94.4288 259.133 94.4288 259.403Z" fill="#F4B0AE"/>
<path opacity="0.4" d="M65.0975 165.885C60.6515 165.076 56.6097 166.829 54.1847 170.065C51.4901 166.154 47.0441 163.727 42.0592 163.727C36.1312 163.727 31.0116 167.233 28.5865 172.357C28.1823 172.357 27.6434 172.223 27.2393 172.223C22.1196 172.223 17.8084 175.998 17 180.987H27.374H37.3438H52.4332H56.475H73.3159C73.9895 179.234 74.259 177.212 73.8548 175.189C73.3159 170.47 69.6783 166.694 65.0975 165.885Z" fill="#F2F2F2"/>
<path opacity="0.3" d="M193.166 209.782C191.607 209.782 190.126 210.089 188.8 210.626C187.397 203.722 181.16 198.583 173.754 198.583C165.646 198.583 159.019 204.719 158.473 212.543C156.992 211.776 155.277 211.316 153.483 211.316C147.792 211.316 143.114 215.688 142.725 221.211H160.422H164.164H181.55H187.085H204.705C204.705 214.844 199.559 209.782 193.166 209.782Z" fill="#F2F2F2"/>
<path d="M152.766 210.993C152.766 218.005 150.879 224.613 147.511 230.411C140.775 242.008 128.245 249.829 113.964 249.829C99.6832 249.829 87.1536 242.008 80.4172 230.411C77.0491 224.748 75.1629 218.14 75.1629 210.993C75.1629 189.553 92.5427 172.293 113.83 172.293C135.386 172.293 152.766 189.553 152.766 210.993Z" fill="#F4B0AE"/>
<mask id="mask1_1_49" style="mask-type:alpha" maskUnits="userSpaceOnUse" x="80" y="210" width="68" height="40">
<path d="M147.511 230.411C140.775 242.008 128.245 249.829 113.964 249.829C99.6832 249.829 87.1536 242.008 80.4172 230.411C87.1536 218.814 99.6832 210.993 113.964 210.993C128.38 210.993 140.775 218.814 147.511 230.411Z" fill="#E65F5C"/>
</mask>
<g mask="url(#mask1_1_49)">
<path d="M147.511 230.411C140.775 242.008 128.245 249.829 113.964 249.829C99.6832 249.829 87.1536 242.008 80.4172 230.411C87.1536 218.814 99.6832 210.993 113.964 210.993C128.38 210.993 140.775 218.814 147.511 230.411Z" fill="#E65F5C"/>
<g opacity="0.3">
<path d="M216.762 130.356C210.43 123.479 201.538 119.434 192.107 118.895C187.257 118.625 182.676 119.434 178.096 120.917C173.38 122.401 168.934 124.558 164.758 127.12C160.581 129.817 156.809 132.918 153.575 136.694C150.207 140.47 147.243 144.785 146.435 149.774C145.761 154.763 147.513 159.618 150.477 163.528C153.575 167.708 158.021 170.81 162.333 173.776C166.913 176.878 171.494 179.979 175.805 183.35C180.117 186.856 184.158 190.632 187.931 194.677C195.476 202.633 201.808 211.668 209.757 219.219C213.529 222.725 217.706 226.231 222.69 227.849C227.406 229.332 232.93 229.063 236.837 225.826C240.609 222.725 242.765 217.871 243.573 213.151C244.516 208.027 243.977 202.903 242.765 197.914C240.07 187.531 234.142 178.496 229.427 168.922C227.136 164.068 224.981 159.078 224.038 153.819C222.96 148.291 222.96 142.358 221.074 136.964C220.131 134.402 218.379 132.244 216.762 130.356C216.493 130.087 216.089 130.491 216.358 130.761C218.244 132.784 219.861 134.941 220.67 137.638C221.478 140.335 221.882 143.167 222.286 145.998C222.69 148.695 222.96 151.527 223.499 154.224C224.038 156.786 224.711 159.213 225.654 161.64C229.292 171.484 235.355 180.114 239.397 189.688C243.304 198.992 245.594 210.184 240.879 219.624C239.801 221.781 238.453 223.669 236.702 225.152C234.816 226.77 232.391 227.714 229.831 227.984C224.577 228.523 219.592 226.231 215.415 223.13C211.239 220.028 207.466 216.118 203.963 212.207C200.326 208.162 197.092 203.982 193.589 199.936C186.584 191.846 178.904 184.429 170.282 178.226C162.198 172.293 151.42 167.439 147.917 157.191C147.109 154.763 146.839 152.336 147.109 149.774C147.513 147.212 148.456 144.92 149.668 142.762C152.093 138.582 155.596 134.941 159.369 131.84C163.141 128.738 167.318 126.041 171.629 124.019C175.94 121.996 180.521 120.513 185.236 119.839C194.398 118.49 203.829 120.782 211.239 126.176C213.125 127.525 214.742 129.008 216.358 130.761C216.493 131.166 217.032 130.761 216.762 130.356Z" fill="white"/>
<path d="M152.767 178.766C157.752 180.923 162.467 183.62 166.913 186.722C171.629 190.093 176.075 193.868 180.251 197.914C184.293 202.094 188.065 206.544 191.299 211.263C194.398 215.848 196.957 220.702 198.978 225.826C199.787 228.254 200.595 230.681 200.999 233.108C201.403 235.535 201.673 237.828 201.269 240.255C200.595 244.57 198.17 248.346 194.667 250.908C191.299 253.335 186.988 254.548 182.811 254.009C180.521 253.739 178.365 252.93 176.479 251.851C174.862 250.908 173.38 249.694 171.898 248.48C169.608 246.593 167.452 244.57 165.027 242.817C162.871 241.199 160.581 239.715 157.887 238.637C154.653 237.423 151.285 236.884 147.917 236.749C142.797 236.479 137.543 237.019 132.423 237.828C129.459 238.232 126.63 238.906 123.531 238.906C120.837 238.906 118.277 238.637 115.582 238.097C110.463 236.884 105.747 234.457 101.84 231.085C97.9331 227.579 94.8344 223.13 93.0829 218.275C91.4662 213.825 90.7925 208.971 91.8704 204.386C92.9482 199.532 96.0469 195.352 100.089 192.52C102.379 190.902 104.804 189.553 107.499 188.609C110.059 187.8 112.888 187.261 115.582 186.991C120.567 186.452 125.956 186.452 130.806 184.834C131.884 184.429 132.962 184.025 133.905 183.35C134.983 182.676 135.791 181.867 136.734 181.193C138.89 179.305 141.719 178.091 144.549 177.822C147.513 177.282 150.207 177.687 152.767 178.766C153.171 178.901 153.306 178.361 152.902 178.226C147.647 176.069 141.585 176.743 137.004 180.249C135.926 181.058 135.118 182.002 133.905 182.676C132.827 183.35 131.75 183.89 130.537 184.159C128.112 184.969 125.552 185.373 122.992 185.643C117.603 186.182 111.945 186.317 106.825 188.205C105.478 188.609 104.265 189.284 103.053 189.958C101.84 190.632 100.493 191.441 99.4151 192.25C97.3942 193.733 95.508 195.621 94.1607 197.779C91.6009 201.689 90.5231 206.409 90.9273 211.128C91.3315 216.118 93.2176 221.107 96.0469 225.287C99.0109 229.602 102.918 233.243 107.633 235.805C112.214 238.232 117.469 239.581 122.723 239.715C125.687 239.715 128.516 239.311 131.345 238.772C134.444 238.367 137.408 237.962 140.507 237.693C144.818 237.423 149.129 237.288 153.441 238.097C156.405 238.637 159.234 239.715 161.794 241.334C164.219 242.817 166.374 244.705 168.665 246.593C169.877 247.671 171.09 248.615 172.437 249.694C174.054 250.908 175.671 252.256 177.422 253.2C181.329 255.088 185.91 255.492 190.086 254.144C194.128 252.93 197.631 250.098 199.787 246.458C200.865 244.57 201.673 242.547 201.942 240.255C202.346 237.828 202.077 235.535 201.538 233.108C200.46 227.849 198.574 222.86 196.149 218.14C193.455 213.016 190.221 208.297 186.449 203.847C182.676 199.262 178.365 195.082 173.784 191.171C169.473 187.531 164.758 184.159 159.773 181.463C157.482 180.249 155.192 179.035 152.767 178.091C152.632 177.957 152.363 178.496 152.767 178.766Z" fill="white"/>
<path d="M187.257 233.108C187.392 234.861 187.392 237.019 186.179 238.367C185.236 239.446 183.619 239.581 182.137 239.311C179.982 239.041 177.826 238.097 175.805 237.288C173.111 236.075 170.551 234.726 167.991 233.243C165.027 231.625 162.198 230.007 159.368 228.254C156.404 226.636 153.575 225.017 150.476 223.399C147.782 222.051 145.087 220.837 142.258 219.758C139.968 218.949 137.543 218.41 135.118 218.41C134.174 218.41 133.097 218.545 132.154 218.949C130.402 219.489 128.651 220.028 126.899 220.298C123.396 220.837 119.893 220.568 116.66 219.354C113.965 218.275 111.54 216.657 109.924 214.365C108.442 212.342 107.364 209.915 107.364 207.353C107.229 204.791 108.172 202.364 109.789 200.476C111.944 197.914 114.908 196.43 118.007 195.486C120.298 194.812 122.588 194.408 125.013 194.543C126.63 194.677 128.246 194.947 129.998 194.947C131.345 194.947 132.692 194.812 134.04 194.408C136.734 193.733 139.159 192.25 141.18 190.362C142.527 189.014 144.144 187.935 145.896 187.261C149.264 186.047 152.767 186.722 155.731 188.205C159.638 190.227 163.006 193.329 165.835 196.565C169.473 200.611 172.572 205.06 175.536 209.645C178.634 214.5 181.464 219.624 184.158 224.748C185.505 227.445 186.987 230.007 187.257 233.108C187.257 233.513 187.93 233.513 187.796 233.108C187.661 231.49 187.257 230.007 186.718 228.658C186.179 227.31 185.371 225.961 184.697 224.613C183.35 222.051 181.868 219.354 180.521 216.792C177.691 211.668 174.593 206.813 171.09 202.094C168.126 198.048 164.892 194.138 160.985 191.037C158.021 188.609 154.653 186.452 150.746 186.047C147.108 185.643 143.74 187.126 141.045 189.553C139.968 190.497 139.025 191.441 137.812 192.25C136.6 193.059 135.252 193.599 133.77 194.003C132.288 194.408 130.941 194.543 129.459 194.543C127.708 194.408 125.956 194.273 124.205 194.138C122.992 194.138 121.78 194.273 120.567 194.543C119.489 194.677 118.546 194.947 117.468 195.217C115.717 195.756 114.1 196.43 112.618 197.374C110.193 198.858 108.307 201.015 107.364 203.712C106.555 206.139 106.555 208.701 107.364 211.128C108.307 213.69 109.924 215.983 112.079 217.601C114.504 219.489 117.603 220.702 120.567 221.107C122.453 221.377 124.205 221.377 126.091 221.242C127.034 221.107 128.112 220.972 129.055 220.702C129.998 220.433 131.076 220.298 132.019 219.893C133.905 219.084 136.195 219.219 138.216 219.624C140.911 220.163 143.605 221.107 146.165 222.321C149.129 223.669 152.093 225.152 155.057 226.77C158.156 228.389 161.12 230.141 164.084 231.894C166.913 233.513 169.742 235.131 172.572 236.479C174.862 237.693 177.287 238.772 179.847 239.581C181.464 240.12 183.484 240.525 185.101 239.985C186.718 239.446 187.526 238.097 187.796 236.614C188.065 235.535 187.93 234.457 187.93 233.378C187.796 232.704 187.122 232.704 187.257 233.108Z" fill="white"/>
<path d="M152.766 178.766C157.751 180.923 162.466 183.62 166.912 186.721C171.628 190.093 176.074 193.868 180.25 197.914C184.292 202.094 188.064 206.544 191.298 211.263C194.396 215.848 196.956 220.702 198.977 225.826C199.786 228.254 200.594 230.681 200.998 233.108C201.402 235.535 201.672 237.828 201.268 240.255C200.594 244.57 198.169 248.345 194.666 250.907C191.298 253.335 186.986 254.548 182.81 254.009C180.52 253.739 178.364 252.93 176.478 251.851C174.861 250.907 173.379 249.694 171.897 248.48C169.607 246.592 167.451 244.57 165.026 242.817C162.87 241.199 160.58 239.715 157.885 238.637C154.652 237.423 151.284 236.884 147.916 236.749C142.796 236.479 137.542 237.018 132.422 237.828C129.458 238.232 126.629 238.906 123.53 238.906C120.836 238.906 118.276 238.637 115.581 238.097C110.462 236.884 105.746 234.456 101.839 231.085C97.9319 227.579 94.8332 223.129 93.0817 218.275C91.465 213.825 90.7914 208.971 91.8692 204.386C92.947 199.532 96.0457 195.351 100.088 192.52C102.378 190.902 104.803 189.553 107.498 188.609C110.057 187.8 112.887 187.261 115.581 186.991C120.566 186.452 125.955 186.452 130.805 184.834C131.883 184.429 132.961 184.025 133.904 183.35C134.982 182.676 135.79 181.867 136.733 181.193C138.889 179.305 141.718 178.091 144.547 177.822C147.511 177.282 150.206 177.687 152.766 178.766C153.17 178.9 153.305 178.361 152.901 178.226C147.646 176.069 141.583 176.743 137.003 180.249C135.925 181.058 135.117 182.002 133.904 182.676C132.826 183.35 131.748 183.89 130.536 184.159C128.111 184.968 125.551 185.373 122.991 185.643C117.602 186.182 111.944 186.317 106.824 188.205C105.477 188.609 104.264 189.283 103.052 189.958C101.839 190.632 100.492 191.441 99.4139 192.25C97.393 193.733 95.5068 195.621 94.1596 197.779C91.5998 201.689 90.5219 206.409 90.9261 211.128C91.3303 216.118 93.2165 221.107 96.0457 225.287C99.0097 229.602 102.917 233.243 107.632 235.805C112.213 238.232 117.467 239.581 122.722 239.715C125.686 239.715 128.515 239.311 131.344 238.771C134.443 238.367 137.407 237.962 140.506 237.693C144.817 237.423 149.128 237.288 153.439 238.097C156.403 238.637 159.233 239.715 161.793 241.333C164.218 242.817 166.373 244.705 168.664 246.592C169.876 247.671 171.089 248.615 172.436 249.694C174.053 250.907 175.669 252.256 177.421 253.2C181.328 255.088 185.909 255.492 190.085 254.144C194.127 252.93 197.63 250.098 199.786 246.458C200.863 244.57 201.672 242.547 201.941 240.255C202.345 237.828 202.076 235.535 201.537 233.108C200.459 227.849 198.573 222.86 196.148 218.14C193.453 213.016 190.22 208.297 186.448 203.847C182.675 199.262 178.364 195.082 173.783 191.171C169.472 187.53 164.757 184.159 159.772 181.462C157.481 180.249 155.191 179.035 152.766 178.091C152.631 177.957 152.362 178.496 152.766 178.766Z" fill="white"/>
<path d="M187.256 233.108C187.39 234.861 187.39 237.019 186.178 238.367C185.235 239.446 183.618 239.581 182.136 239.311C179.98 239.041 177.825 238.097 175.804 237.288C173.109 236.075 170.55 234.726 167.99 233.243C165.026 231.625 162.196 230.007 159.367 228.254C156.403 226.635 153.574 225.017 150.475 223.399C147.781 222.051 145.086 220.837 142.257 219.758C139.967 218.949 137.541 218.41 135.116 218.41C134.173 218.41 133.095 218.545 132.152 218.949C130.401 219.489 128.649 220.028 126.898 220.298C123.395 220.837 119.892 220.567 116.659 219.354C113.964 218.275 111.539 216.657 109.922 214.365C108.44 212.342 107.363 209.915 107.363 207.353C107.228 204.791 108.171 202.363 109.788 200.476C111.943 197.914 114.907 196.43 118.006 195.486C120.296 194.812 122.587 194.408 125.012 194.542C126.629 194.677 128.245 194.947 129.997 194.947C131.344 194.947 132.691 194.812 134.039 194.408C136.733 193.733 139.158 192.25 141.179 190.362C142.526 189.014 144.143 187.935 145.895 187.261C149.263 186.047 152.766 186.721 155.73 188.205C159.637 190.227 163.005 193.329 165.834 196.565C169.472 200.61 172.57 205.06 175.534 209.645C178.633 214.499 181.462 219.624 184.157 224.748C185.504 227.445 186.986 230.007 187.256 233.108C187.256 233.513 187.929 233.513 187.795 233.108C187.66 231.49 187.256 230.007 186.717 228.658C186.178 227.31 185.37 225.961 184.696 224.613C183.349 222.051 181.867 219.354 180.519 216.792C177.69 211.668 174.591 206.813 171.088 202.094C168.124 198.048 164.891 194.138 160.984 191.037C158.02 188.609 154.652 186.452 150.745 186.047C147.107 185.643 143.739 187.126 141.044 189.553C139.967 190.497 139.023 191.441 137.811 192.25C136.598 193.059 135.251 193.599 133.769 194.003C132.287 194.408 130.94 194.542 129.458 194.542C127.706 194.408 125.955 194.273 124.203 194.138C122.991 194.138 121.778 194.273 120.566 194.542C119.488 194.677 118.545 194.947 117.467 195.217C115.716 195.756 114.099 196.43 112.617 197.374C110.192 198.857 108.306 201.015 107.363 203.712C106.554 206.139 106.554 208.701 107.363 211.128C108.306 213.69 109.922 215.983 112.078 217.601C114.503 219.489 117.602 220.702 120.566 221.107C122.452 221.377 124.203 221.377 126.09 221.242C127.033 221.107 128.111 220.972 129.054 220.702C129.997 220.433 131.075 220.298 132.018 219.893C133.904 219.084 136.194 219.219 138.215 219.624C140.91 220.163 143.604 221.107 146.164 222.32C149.128 223.669 152.092 225.152 155.056 226.77C158.155 228.388 161.119 230.141 164.083 231.894C166.912 233.513 169.741 235.131 172.57 236.479C174.861 237.693 177.286 238.772 179.846 239.581C181.462 240.12 183.483 240.524 185.1 239.985C186.717 239.446 187.525 238.097 187.795 236.614C188.064 235.535 187.929 234.456 187.929 233.378C187.795 232.703 187.121 232.703 187.256 233.108Z" fill="white"/>
</g>
</g>
<path d="M123.126 193.194C123.126 198.318 118.949 202.363 113.965 202.363C108.845 202.363 104.803 198.183 104.803 193.194C104.803 188.07 108.98 184.024 113.965 184.024C119.084 183.89 123.126 188.07 123.126 193.194Z" fill="#E65F5C"/>
<path d="M172.301 372.133H-0.553711V308.216C16.9608 302.014 35.8226 298.777 55.4927 298.777C66.9445 298.777 78.2616 299.991 89.0397 302.148C90.7912 302.553 92.6774 302.957 94.4288 303.362C94.6983 303.497 94.9677 303.497 95.3719 303.632C110.192 307.138 124.203 312.666 137.272 319.813C150.071 326.825 161.792 335.455 172.301 345.299" fill="#6971B5"/>
<path d="M159.669 180.546C159.669 188.502 153.202 194.974 145.253 194.974C137.305 194.974 130.838 188.502 130.838 180.546C130.838 172.59 137.305 166.117 145.253 166.117C153.202 166.117 159.669 172.59 159.669 180.546Z" fill="white"/>
<path d="M145.194 173.988V187.082" stroke="#2D76F9" stroke-width="3" stroke-miterlimit="10" stroke-linecap="round" stroke-linejoin="round"/>
<path d="M151.791 180.59H138.708" stroke="#2D76F9" stroke-width="3" stroke-miterlimit="10" stroke-linecap="round" stroke-linejoin="round"/>
<mask id="mask2_1_49" style="mask-type:alpha" maskUnits="userSpaceOnUse" x="89" y="249" width="49" height="124">
<path d="M137.272 273.831V372.133H89.04V273.831C89.04 268.168 91.0609 262.909 94.2943 258.728C94.6985 258.189 95.1027 257.785 95.5069 257.245C98.3361 254.279 101.974 251.986 106.016 250.773C108.306 250.098 110.596 249.694 113.156 249.694C115.581 249.694 118.006 250.098 120.297 250.773C124.069 251.986 127.437 254.009 130.266 256.706C130.401 256.841 130.536 257.11 130.805 257.245C134.847 261.56 137.272 267.493 137.272 273.831Z" fill="#8DF2A2"/>
</mask>
<g mask="url(#mask2_1_49)">
<path d="M137.272 273.831V372.133H89.04V273.831C89.04 268.168 91.0609 262.909 94.2943 258.728C94.6985 258.189 95.1027 257.785 95.5069 257.245C98.3361 254.279 101.974 251.986 106.016 250.773C108.306 250.098 110.596 249.694 113.156 249.694C115.581 249.694 118.006 250.098 120.297 250.773C124.069 251.986 127.437 254.009 130.266 256.706C130.401 256.841 130.536 257.11 130.805 257.245C134.847 261.56 137.272 267.493 137.272 273.831Z" fill="#A7D3B0"/>
<g opacity="0.2">
<path d="M91.2168 279.751C98.1456 282.75 104.7 286.499 110.88 290.81C117.434 295.495 123.613 300.743 129.419 306.366C135.037 312.176 140.28 318.361 144.774 324.921C149.081 331.294 152.639 338.041 155.448 345.164C156.572 348.537 157.695 351.911 158.257 355.285C158.819 358.658 159.194 361.845 158.632 365.218C157.695 371.216 154.325 376.464 149.456 380.025C144.774 383.399 138.782 385.086 132.977 384.336C129.793 383.961 126.797 382.836 124.175 381.337C121.928 380.025 119.868 378.338 117.808 376.651C114.625 374.027 111.629 371.216 108.258 368.779C105.262 366.53 102.078 364.469 98.3328 362.969C93.8385 361.282 89.1569 360.533 84.4753 360.345C77.3593 359.97 70.056 360.72 62.9399 361.845C58.8201 362.407 54.8876 363.344 50.5805 363.344C46.8353 363.344 43.2772 362.969 39.532 362.219C32.4159 360.533 25.8617 357.159 20.4311 352.473C15.0004 347.6 10.6933 341.415 8.2589 334.668C6.01173 328.482 5.07541 321.735 6.57352 315.363C8.07163 308.615 12.3787 302.805 17.9966 298.869C21.1801 296.62 24.5509 294.746 28.2961 293.434C31.8541 292.309 35.7867 291.559 39.532 291.184C46.4607 290.435 53.9513 290.435 60.6928 288.186C62.1909 287.623 63.689 287.061 64.9998 286.124C66.498 285.187 67.6216 284.062 68.9324 283.125C71.9286 280.501 75.8612 278.814 79.7937 278.439C83.9135 277.69 87.6588 278.252 91.2168 279.751C91.7786 279.939 91.9659 279.189 91.4041 279.002C84.1008 276.003 75.6739 276.94 69.3069 281.813C67.8088 282.938 66.6852 284.25 64.9998 285.187C63.5017 286.124 62.0036 286.874 60.3183 287.248C56.9475 288.373 53.3895 288.935 49.8315 289.31C42.3409 290.06 34.4758 290.247 27.3598 292.871C25.4872 293.434 23.8018 294.371 22.1164 295.308C20.4311 296.245 18.5584 297.37 17.0603 298.494C14.2513 300.556 11.6296 303.18 9.757 306.179C6.19899 311.614 4.70089 318.174 5.26268 324.734C5.82447 331.669 8.44616 338.604 12.3787 344.414C16.4985 350.411 21.9292 355.472 28.4834 359.033C34.8504 362.407 42.1537 364.281 49.457 364.469C53.5768 364.469 57.5093 363.906 61.4418 363.157C65.7489 362.594 69.8687 362.032 74.1758 361.657C80.1682 361.282 86.1607 361.095 92.1531 362.219C96.2729 362.969 100.205 364.469 103.763 366.718C107.134 368.779 110.13 371.403 113.314 374.027C114.999 375.527 116.685 376.839 118.557 378.338C120.805 380.025 123.052 381.899 125.486 383.211C130.917 385.835 137.284 386.398 143.089 384.523C148.707 382.836 153.576 378.9 156.572 373.84C158.07 371.216 159.194 368.405 159.568 365.218C160.13 361.845 159.755 358.658 159.006 355.285C157.508 347.975 154.887 341.04 151.516 334.48C147.77 327.358 143.276 320.798 138.033 314.613C132.789 308.24 126.797 302.43 120.43 296.995C114.438 291.934 107.883 287.248 100.955 283.5C97.771 281.813 94.5875 280.126 91.2168 278.814C90.8423 278.814 90.655 279.564 91.2168 279.751Z" fill="white"/>
<path d="M139.156 355.285C139.344 357.721 139.344 360.72 137.658 362.594C136.347 364.094 134.1 364.281 132.04 363.906C129.044 363.531 126.048 362.219 123.239 361.095C119.494 359.408 115.936 357.534 112.378 355.472C108.258 353.223 104.325 350.974 100.393 348.537C96.2729 346.288 92.3403 344.039 88.0333 341.79C84.288 339.916 80.5427 338.229 76.6102 336.729C73.4267 335.605 70.0559 334.855 66.6852 334.855C65.3743 334.855 63.8762 335.042 62.5654 335.605C60.131 336.354 57.6965 337.104 55.2621 337.479C50.3932 338.229 45.5244 337.854 41.03 336.167C37.2848 334.668 33.914 332.419 31.6668 329.232C29.6069 326.421 28.1088 323.047 28.1088 319.486C27.9216 315.925 29.2324 312.551 31.4796 309.927C34.4758 306.366 38.5956 304.304 42.9027 302.992C46.0862 302.055 49.2696 301.493 52.6404 301.68C54.8876 301.868 57.1347 302.243 59.5692 302.243C61.4418 302.243 63.5017 302.055 65.1871 301.493C68.9324 300.556 72.3031 298.494 75.1121 295.87C76.9847 293.996 79.2319 292.496 81.6663 291.559C86.3479 289.872 91.2168 290.81 95.3366 292.871C100.767 295.683 105.449 299.994 109.381 304.492C114.437 310.115 118.745 316.3 122.864 322.672C127.171 329.42 131.104 336.542 134.849 343.664C136.722 347.413 138.782 351.161 139.156 355.285C139.156 355.847 140.093 355.847 139.905 355.285C139.718 353.036 139.156 350.974 138.407 349.1C137.658 347.225 136.535 345.351 135.598 343.477C133.726 339.916 131.666 336.167 129.793 332.606C125.861 325.484 121.554 318.736 116.685 312.176C112.565 306.554 108.071 301.118 102.64 296.807C98.5201 293.434 93.8385 290.435 88.4078 289.873C83.3517 289.31 78.6701 291.372 74.9248 294.746C73.4267 296.058 72.1158 297.37 70.4305 298.494C68.7451 299.619 66.8725 300.368 64.8126 300.931C62.7527 301.493 60.88 301.68 58.8201 301.68C56.3857 301.493 53.9512 301.306 51.5168 301.118C49.8314 301.118 48.1461 301.306 46.4607 301.68C44.9626 301.868 43.6517 302.243 42.1536 302.618C39.7192 303.367 37.472 304.304 35.4121 305.616C32.0414 307.678 29.4197 310.677 28.1088 314.425C26.9852 317.799 26.9852 321.36 28.1088 324.734C29.4197 328.295 31.6668 331.481 34.6631 333.73C38.0338 336.354 42.1536 338.041 46.4607 338.604C49.0824 338.978 51.5168 338.978 54.1385 338.791C55.4494 338.604 56.9475 338.416 58.2583 338.041C59.5692 337.666 61.0673 337.479 62.3781 336.917C64.9998 335.792 68.1833 335.98 70.9923 336.542C74.7375 337.292 78.4828 338.604 82.0408 340.29C86.1606 342.165 90.2804 344.226 94.4003 346.476C98.7073 348.725 102.827 351.161 106.947 353.598C110.879 355.847 114.812 358.096 118.745 359.97C121.928 361.657 125.299 363.157 128.857 364.281C131.104 365.031 133.913 365.593 136.16 364.843C138.407 364.094 139.531 362.219 139.905 360.158C140.28 358.658 140.093 357.159 140.093 355.659C139.905 354.722 138.969 354.722 139.156 355.285Z" fill="white"/>
<path d="M117.995 331.106C121.179 335.605 124.924 339.916 126.797 345.164C127.546 347.225 128.108 349.849 127.171 351.911C126.61 353.035 125.299 353.785 124.175 353.785C123.239 353.785 122.49 353.223 121.741 352.848C116.123 349.099 110.879 344.976 105.636 340.853C100.018 336.167 94.4002 331.294 89.9059 325.484C88.0333 322.86 83.9135 317.237 88.4078 315.175C89.5314 314.613 90.8422 314.425 91.9658 314.238C92.9021 314.238 93.8384 314.051 94.7748 314.238C96.2729 314.425 97.9583 314.988 99.4564 315.55C105.449 317.987 110.879 322.485 114.999 327.545C116.123 328.482 117.059 329.794 117.995 331.106C118.37 331.481 119.119 331.106 118.745 330.732C114.812 325.109 109.943 320.236 104.138 316.862C101.329 315.175 98.1455 313.676 94.7748 313.113C93.2767 312.926 91.404 313.113 89.7186 313.488C87.846 313.863 85.9734 314.988 85.5988 317.237C85.2243 319.486 86.5352 321.735 87.6587 323.609C89.5314 326.421 91.7785 329.045 94.0257 331.481C96.8347 334.48 99.8309 337.104 103.014 339.728C108.632 344.414 114.437 349.099 120.43 353.035C121.928 354.16 123.426 355.097 125.486 354.535C127.733 353.785 128.67 351.349 128.482 349.099C128.482 346.475 127.359 344.039 126.048 341.79C124.55 339.166 122.864 336.729 121.179 334.293C120.43 333.168 119.494 332.044 118.745 330.919C118.37 330.169 117.621 330.732 117.995 331.106Z" fill="white"/>
</g>
</g>
</g>
</svg>
