<svg width="220" height="361" viewBox="0 0 220 361" fill="none" xmlns="http://www.w3.org/2000/svg">
<mask id="mask0_1_122" style="mask-type:alpha" maskUnits="userSpaceOnUse" x="0" y="0" width="220" height="361">
<path d="M0 110.591C0 49.8395 49.2487 0.59079 110 0.59079V0.59079C170.751 0.59079 220 49.8395 220 110.591V250.591C220 311.342 170.751 360.591 110 360.591V360.591C49.2487 360.591 0 311.342 0 250.591V110.591Z" fill="#2D76F9"/>
</mask>
<g mask="url(#mask0_1_122)">
<path d="M0 110.591C0 49.8395 49.2487 0.59079 110 0.59079V0.59079C170.751 0.59079 220 49.8395 220 110.591V250.591C220 311.342 170.751 360.591 110 360.591V360.591C49.2487 360.591 0 311.342 0 250.591V110.591Z" fill="#2D76F9"/>
<path opacity="0.2" d="M38 251H0V243.635C0.21902 243.635 0.383287 243.58 0.602307 243.58C1.91643 243.58 3.17579 243.912 4.2709 244.466C4.70894 238.873 9.14409 234.443 14.6744 234.055C14.9481 234.055 15.1671 234 15.4409 234C18.1239 234 20.5879 234.941 22.5043 236.547C24.4755 238.153 25.8444 240.423 26.3919 243.026C27.3775 242.638 28.4179 242.417 29.5677 242.417C30.2248 242.417 30.8271 242.472 31.4294 242.638C35.1527 243.524 38 246.958 38 251Z" fill="#F2F2F2"/>
<path opacity="0.3" d="M172.844 173.972C167.996 173.972 163.703 176.188 160.933 179.789C157.332 174.664 151.376 171.202 144.451 171.202C136.418 171.202 129.492 175.911 126.307 182.836C125.753 182.698 125.06 182.698 124.506 182.698C117.581 182.698 111.764 187.822 110.656 194.47H124.783H138.357H158.855H164.257H186.971C187.664 192.808 187.941 191.008 187.941 189.069C187.941 180.759 181.292 173.972 172.844 173.972Z" fill="#F2F2F2"/>
<path opacity="0.2" d="M251.143 115.374C249.066 115.374 247.127 115.789 245.326 116.482C243.387 107.064 235.077 100 224.966 100C214.025 100 205.16 108.449 204.329 119.113C202.252 118.005 200.036 117.451 197.543 117.451C189.787 117.451 183.554 123.407 183 131.025H206.961H211.947H235.493H242.972H266.794C266.794 122.437 259.731 115.374 251.143 115.374Z" fill="#F2F2F2"/>
<path d="M223.951 288.237V382.142H143.897V305.134C143.897 304.719 143.897 304.165 143.897 303.749C144.589 295.162 151.93 288.237 160.656 288.237H223.951V288.237Z" fill="#FFD15B"/>
<path d="M191.68 382.142H-9.98013V296.131C3.59315 292.253 17.8589 290.037 32.6787 289.76C34.2023 289.76 35.8643 289.76 37.3878 289.76C48.0526 289.76 58.5788 290.73 68.6895 292.53C76.8611 294.054 84.8943 296.131 92.6505 298.625C97.3596 300.148 101.93 301.949 106.362 303.888C119.797 309.705 132.401 317.045 143.897 325.91C151.93 332.142 159.409 338.929 166.195 346.408C173.398 354.303 179.907 362.751 185.586 371.893C187.802 375.078 189.879 378.679 191.68 382.142Z" fill="#1B4F9A"/>
<mask id="mask1_1_122" style="mask-type:alpha" maskUnits="userSpaceOnUse" x="32" y="245" width="37" height="138">
<path d="M68.6894 263.168V382.28H32.6786V263.168C32.6786 260.952 33.0941 258.874 33.7866 256.935C34.6177 254.581 36.0027 252.642 37.5262 250.841C39.6038 248.625 42.3738 246.963 45.2824 245.993C46.9444 245.439 48.7449 245.162 50.5455 245.162C52.346 245.162 54.1466 245.439 55.8086 245.993C58.5786 246.824 61.2102 248.487 63.1492 250.426C63.2877 250.564 63.4262 250.703 63.5647 250.841C65.2268 252.503 66.4733 254.581 67.3043 256.935C68.2738 258.736 68.6894 260.952 68.6894 263.168Z" fill="#A7D3B0"/>
</mask>
<g mask="url(#mask1_1_122)">
<path d="M68.6894 263.168V382.28H32.6786V263.168C32.6786 260.952 33.0941 258.874 33.7866 256.935C34.6177 254.581 36.0027 252.642 37.5262 250.841C39.6038 248.625 42.3738 246.963 45.2824 245.993C46.9444 245.439 48.7449 245.162 50.5455 245.162C52.346 245.162 54.1466 245.439 55.8086 245.993C58.5786 246.824 61.2102 248.487 63.1492 250.426C63.2877 250.564 63.4262 250.703 63.5647 250.841C65.2268 252.503 66.4733 254.581 67.3043 256.935C68.2738 258.736 68.6894 260.952 68.6894 263.168Z" fill="#A7D3B0"/>
<g opacity="0.5">
<path opacity="0.3" d="M102.622 252.905C96.1129 245.841 86.9717 241.686 77.2765 241.132C72.2904 240.855 67.5813 241.686 62.8722 243.209C58.0246 244.733 53.454 246.949 49.1604 249.581C44.8668 252.351 40.9887 255.536 37.6647 259.414C34.2021 263.292 31.155 267.724 30.324 272.849C29.6315 277.974 31.432 282.96 34.4791 286.976C37.6647 291.27 42.2353 294.456 46.6673 297.503C51.3764 300.688 56.0855 303.874 60.5176 307.336C64.9497 310.937 69.1048 314.815 72.9829 318.971C80.739 327.142 87.2487 336.422 95.4203 344.178C99.2984 347.779 103.592 351.38 108.717 353.042C113.564 354.566 119.243 354.289 123.259 350.965C127.137 347.779 129.354 342.793 130.185 337.945C131.154 332.682 130.6 327.419 129.354 322.295C126.583 311.63 120.489 302.35 115.642 292.517C113.287 287.53 111.071 282.406 110.102 277.004C108.994 271.326 108.994 265.231 107.055 259.691C106.085 256.921 104.285 254.844 102.622 252.905C102.345 252.628 101.93 253.043 102.207 253.32C104.146 255.398 105.808 257.614 106.639 260.384C107.47 263.154 107.886 266.062 108.301 268.971C108.717 271.741 108.994 274.65 109.548 277.42C110.102 280.051 110.794 282.544 111.764 285.037C115.503 295.148 121.736 304.012 125.891 313.846C129.908 323.403 132.262 334.898 127.415 344.594C126.306 346.81 124.921 348.749 123.121 350.272C121.182 351.934 118.689 352.904 116.057 353.181C110.656 353.735 105.531 351.38 101.237 348.195C96.9439 345.009 93.0658 340.992 89.4647 336.976C85.7251 332.821 82.4011 328.527 78.8 324.372C71.5979 316.062 63.7032 308.444 54.839 302.073C46.5288 295.979 35.4486 290.993 31.8475 280.467C31.0165 277.974 30.7395 275.481 31.0165 272.849C31.432 270.218 32.4016 267.863 33.6481 265.647C36.1411 261.353 39.7422 257.614 43.6203 254.428C47.4984 251.243 51.792 248.473 56.224 246.395C60.6561 244.318 65.3652 242.794 70.2128 242.101C79.631 240.716 89.3262 243.071 96.9439 248.611C98.8829 249.996 100.545 251.52 102.207 253.32C102.484 253.597 102.9 253.182 102.622 252.905Z" fill="white"/>
<path opacity="0.3" d="M83.0932 260.245C80.8772 255.536 76.3066 252.351 71.0435 251.658C68.4119 251.381 65.7804 251.658 63.2873 252.628C60.3788 253.736 57.6087 255.259 55.1156 256.921C52.6226 258.583 50.1295 260.661 48.052 262.877C46.944 263.985 45.9745 265.231 45.0049 266.478C44.0354 267.724 43.2044 269.109 42.9274 270.633C42.5119 273.542 44.5894 275.896 46.944 277.281C49.714 279.082 53.0381 279.913 56.0852 281.021C58.9937 281.99 61.7638 283.237 64.2568 285.037C66.3344 286.699 68.2734 288.638 69.9355 290.716C73.398 294.871 76.3066 299.58 79.9077 303.735C81.5697 305.813 83.5087 307.752 85.7248 309.275C88.2178 311.076 91.1264 312.599 94.312 312.322C97.082 312.045 99.2981 310.106 99.8521 307.336C100.406 304.843 99.5751 302.212 98.467 299.857C95.8355 294.317 91.4034 290.023 88.3563 284.76C86.6943 281.852 85.5863 278.943 85.1708 275.619C84.6168 272.018 84.7553 268.417 84.2012 264.954C84.2012 263.292 83.7857 261.769 83.0932 260.245C82.9547 259.83 82.4007 260.245 82.5392 260.522C83.2317 262.184 83.5087 263.846 83.7857 265.508C83.9242 267.17 84.0627 268.832 84.2012 270.633C84.4782 273.957 84.6167 277.281 85.7248 280.467C87.6638 286.007 91.6804 290.3 94.866 295.01C96.3895 297.226 98.0515 299.719 98.744 302.35C99.4366 304.705 99.5751 307.475 98.0515 309.552C95.974 312.184 92.2344 312.045 89.4644 310.799C86.8328 309.691 84.6168 307.752 82.6777 305.813C78.9381 302.073 76.1681 297.641 72.9825 293.486C69.9355 289.469 66.6114 285.453 62.1793 282.96C59.4092 281.436 56.5007 280.467 53.4536 279.497C50.5451 278.528 47.498 277.42 45.2819 275.204C44.3124 274.234 43.4814 272.849 43.4814 271.464C43.4814 269.802 44.3124 268.417 45.2819 267.032C47.0825 264.539 49.16 262.323 51.5146 260.384C53.8691 258.445 56.3622 256.783 58.9937 255.259C61.4868 253.874 64.1183 252.628 67.0269 252.212C72.013 251.52 77.2761 253.32 80.6002 257.198C81.4312 258.168 82.1237 259.276 82.6777 260.384C82.8162 260.938 83.3702 260.661 83.0932 260.245Z" fill="white"/>
<path opacity="0.3" d="M50.1298 268.694C49.2988 269.664 48.6063 270.772 48.6063 272.157C48.6063 273.265 49.0218 274.234 49.8528 274.927C50.6838 275.619 51.7918 275.896 52.8999 276.173C54.1464 276.589 55.5314 277.004 56.9165 277.281C59.548 277.974 62.1796 278.666 64.6726 279.636C65.9191 280.19 67.1657 280.744 68.2737 281.575C69.3817 282.406 70.3512 283.375 71.3208 284.206C72.2903 285.037 73.3983 285.591 74.6448 285.453C75.8913 285.176 76.5839 284.206 76.5839 283.098C76.5839 281.713 76.3068 280.328 75.8913 279.082C75.6143 277.697 75.1988 276.173 74.6448 274.788C73.6753 272.157 72.2903 269.387 70.2127 267.448C68.5507 265.924 66.3346 264.677 64.1186 264.262C59.548 263.154 54.7004 264.539 51.3763 267.586C50.9608 267.725 50.4068 268.14 50.1298 268.694C49.8528 268.971 50.2683 269.387 50.5453 269.11C53.4539 265.785 57.7475 263.985 62.0411 264.4C64.2571 264.539 66.3346 265.231 68.1352 266.478C70.3512 267.863 71.8748 269.941 72.9828 272.295C74.2293 274.788 75.0603 277.42 75.6143 280.051C75.7528 280.744 75.8913 281.298 75.8913 281.99C76.0298 282.544 76.0298 283.237 75.8913 283.791C75.3373 285.314 73.3983 284.899 72.4288 284.206C71.4592 283.514 70.6282 282.544 69.6587 281.852C68.6892 281.159 67.7197 280.467 66.6117 279.913C64.3956 278.805 62.1796 278.112 59.825 277.42C57.1935 276.727 54.4234 276.035 51.7918 275.204C50.8223 274.788 49.7143 274.373 49.2988 273.265C48.7448 271.741 49.5758 270.356 50.5453 269.248C50.8223 268.833 50.2683 268.279 50.1298 268.694Z" fill="white"/>
<path opacity="0.3" d="M36.8335 302.489C41.9581 304.705 46.8057 307.475 51.3763 310.66C56.2238 314.123 60.7944 318.001 65.088 322.156C69.2431 326.45 73.1212 331.02 76.4453 335.868C79.6308 340.577 82.2624 345.563 84.3399 350.826C85.1709 353.319 86.002 355.812 86.4175 358.305C86.833 360.798 87.11 363.153 86.6945 365.646C86.002 370.078 83.5089 373.956 79.9078 376.588C76.4453 379.081 72.0132 380.327 67.7196 379.773C65.365 379.496 63.149 378.665 61.2099 377.557C59.5479 376.588 58.0244 375.341 56.5009 374.095C54.1463 372.156 51.9303 370.078 49.4372 368.278C47.2212 366.615 44.8666 365.092 42.0966 363.984C38.7725 362.737 35.3099 362.183 31.8474 362.045C26.5842 361.768 21.1826 362.322 15.9195 363.153C12.8725 363.568 9.9639 364.261 6.77834 364.261C4.00828 364.261 1.37672 363.984 -1.39333 363.43C-6.65644 362.183 -11.504 359.69 -15.5206 356.228C-19.5372 352.627 -22.7228 348.056 -24.5233 343.07C-26.1853 338.499 -26.8779 333.513 -25.7698 328.804C-24.6618 323.818 -21.4762 319.525 -17.3212 316.616C-14.9666 314.954 -12.4736 313.569 -9.7035 312.599C-7.07195 311.768 -4.16339 311.214 -1.39333 310.937C3.73127 310.383 9.27138 310.383 14.2575 308.721C15.3655 308.306 16.4735 307.89 17.4431 307.198C18.5511 306.505 19.3821 305.674 20.3516 304.982C22.5677 303.043 25.4762 301.796 28.3848 301.519C31.4318 300.965 34.2019 301.381 36.8335 302.489C37.249 302.627 37.3875 302.073 36.972 301.935C31.5703 299.719 25.3377 300.411 20.6286 304.012C19.5206 304.843 18.6896 305.813 17.4431 306.505C16.335 307.198 15.227 307.752 13.9805 308.029C11.4874 308.86 8.85588 309.275 6.22432 309.552C0.684209 310.106 -5.13291 310.245 -10.396 312.184C-11.781 312.599 -13.0276 313.292 -14.2741 313.984C-15.5206 314.677 -16.9057 315.508 -18.0137 316.339C-20.0912 317.862 -22.0303 319.802 -23.4153 322.018C-26.0468 326.034 -27.1549 330.882 -26.7394 335.729C-26.3238 340.854 -24.3848 345.979 -21.4762 350.272C-18.4292 354.704 -14.4126 358.444 -9.565 361.075C-4.8559 363.568 0.545705 364.953 5.94732 365.092C8.99438 365.092 11.9029 364.676 14.8115 364.122C17.9971 363.707 21.0441 363.291 24.2297 363.014C28.6618 362.737 33.0939 362.599 37.526 363.43C40.573 363.984 43.4816 365.092 46.1131 366.754C48.6062 368.278 50.8222 370.217 53.1768 372.156C54.4233 373.264 55.6698 374.233 57.0549 375.341C58.7169 376.588 60.3789 377.973 62.1795 378.942C66.196 380.881 70.9051 381.297 75.1987 379.912C79.3538 378.665 82.9549 375.757 85.1709 372.017C86.279 370.078 87.11 368.001 87.387 365.646C87.8025 363.153 87.5255 360.798 86.9715 358.305C85.8635 352.904 83.9244 347.779 81.4314 342.931C78.6613 337.668 75.3372 332.821 71.4592 328.25C67.5811 323.541 63.149 319.248 58.4399 315.231C54.0078 311.491 49.1602 308.029 44.0356 305.259C41.681 304.012 39.3265 302.766 36.8335 301.796C36.695 301.658 36.4179 302.35 36.8335 302.489Z" fill="white"/>
<path opacity="0.3" d="M72.2904 358.305C72.4289 360.106 72.4289 362.322 71.1824 363.707C70.2128 364.815 68.5508 364.954 67.0273 364.677C64.8112 364.399 62.5952 363.43 60.5177 362.599C57.7476 361.352 55.116 359.967 52.4845 358.444C49.4374 356.782 46.5289 355.12 43.6203 353.319C40.5733 351.657 37.6647 349.995 34.4791 348.333C31.7091 346.948 28.939 345.702 26.0304 344.594C23.6759 343.763 21.1829 343.209 18.6898 343.209C17.7203 343.209 16.6123 343.347 15.6427 343.763C13.8422 344.317 12.0417 344.871 10.2411 345.148C6.64006 345.702 3.03898 345.425 -0.285088 344.178C-3.05514 343.07 -5.54819 341.408 -7.21023 339.053C-8.73376 336.976 -9.84178 334.483 -9.84178 331.851C-9.98028 329.22 -9.01076 326.727 -7.34873 324.788C-5.13268 322.156 -2.08562 320.633 1.09994 319.663C3.45449 318.971 5.80904 318.555 8.30209 318.694C9.96412 318.832 11.6262 319.109 13.4267 319.109C14.8117 319.109 16.1968 318.971 17.5818 318.555C20.3518 317.863 22.8449 316.339 24.9224 314.4C26.3075 313.015 27.9695 311.907 29.77 311.214C33.2326 309.968 36.8337 310.66 39.8807 312.184C43.8973 314.261 47.3599 317.447 50.2684 320.771C54.008 324.926 57.1936 329.497 60.2407 334.206C63.4262 339.192 66.3348 344.455 69.1048 349.718C70.4899 352.488 72.0134 355.12 72.2904 358.305C72.2904 358.721 72.9829 358.721 72.8444 358.305C72.7059 356.643 72.2904 355.12 71.7364 353.735C71.1824 352.35 70.3514 350.965 69.6588 349.58C68.2738 346.948 66.7503 344.178 65.3653 341.547C62.4567 336.283 59.2711 331.297 55.6701 326.45C52.623 322.295 49.2989 318.278 45.2823 315.092C42.2353 312.599 38.7727 310.383 34.7561 309.968C31.0166 309.552 27.554 311.076 24.7839 313.569C23.6759 314.538 22.7064 315.508 21.4599 316.339C20.2133 317.17 18.8283 317.724 17.3048 318.14C15.7812 318.555 14.3962 318.694 12.8727 318.694C11.0721 318.555 9.27161 318.417 7.47107 318.278C6.22455 318.278 4.97802 318.417 3.7315 318.694C2.62347 318.832 1.65395 319.109 0.545932 319.386C-1.2546 319.94 -2.91664 320.633 -4.44017 321.602C-6.93322 323.126 -8.87226 325.342 -9.84178 328.112C-10.6728 330.605 -10.6728 333.236 -9.84178 335.729C-8.87226 338.361 -7.21023 340.716 -4.99418 342.378C-2.50113 344.317 0.545931 345.563 3.7315 345.979C5.67054 346.256 7.47107 346.256 9.41011 346.117C10.3796 345.979 11.4877 345.84 12.4572 345.563C13.4267 345.286 14.5347 345.148 15.5042 344.732C17.4433 343.901 19.7978 344.04 21.8754 344.455C24.6454 345.009 27.4155 345.979 30.047 347.225C33.0941 348.61 36.1412 350.134 39.1882 351.796C42.3738 353.458 45.4209 355.258 48.4679 357.059C51.3765 358.721 54.285 360.383 57.1936 361.768C59.5481 363.014 62.0412 364.123 64.6727 364.954C66.3348 365.508 68.4123 365.923 70.0744 365.369C71.7364 364.815 72.5674 363.43 72.8444 361.906C73.1214 360.798 72.9829 359.69 72.9829 358.582C72.8444 357.89 72.1519 357.89 72.2904 358.305Z" fill="white"/>
<path opacity="0.3" d="M56.6397 340.438C58.9942 343.763 61.7643 346.948 63.1493 350.826C63.7033 352.35 64.1188 354.289 63.4263 355.812C63.0108 356.643 62.0413 357.197 61.2103 357.197C60.5178 357.197 59.9638 356.782 59.4097 356.505C55.2547 353.735 51.3766 350.688 47.4985 347.641C43.3434 344.178 39.1883 340.577 35.8643 336.283C34.4792 334.344 31.4322 330.189 34.7563 328.666C35.5873 328.25 36.5568 328.112 37.3878 327.973C38.0803 327.973 38.7728 327.835 39.4653 327.973C40.5734 328.112 41.8199 328.527 42.9279 328.943C47.36 330.743 51.3766 334.067 54.4236 337.807C55.2547 338.499 55.9472 339.469 56.6397 340.438C56.9167 340.715 57.4707 340.438 57.1937 340.161C54.2851 336.006 50.6841 332.405 46.3905 329.912C44.3129 328.666 41.9584 327.558 39.4653 327.142C38.3573 327.004 36.9723 327.142 35.7258 327.419C34.3407 327.696 32.9557 328.527 32.6787 330.189C32.4017 331.851 33.3712 333.513 34.2022 334.898C35.5873 336.976 37.2493 338.915 38.9113 340.715C40.9889 342.932 43.2049 344.871 45.5595 346.81C49.7145 350.272 54.0081 353.735 58.4402 356.643C59.5483 357.474 60.6563 358.167 62.1798 357.751C63.8418 357.197 64.5344 355.397 64.3959 353.735C64.3959 351.796 63.5648 349.995 62.5953 348.333C61.4873 346.394 60.2408 344.594 58.9942 342.793C58.4402 341.962 57.7477 341.131 57.1937 340.3C56.9167 339.746 56.3627 340.161 56.6397 340.438Z" fill="white"/>
</g>
</g>
<path d="M223.951 341.145V382.142H140.572C141.126 377.848 142.234 373.832 143.896 370.092C146.251 364.413 149.713 359.427 154.007 355.134C157.608 351.533 161.763 348.624 166.195 346.269C168.411 345.161 170.627 344.192 172.982 343.499C177.552 341.976 182.4 341.283 187.525 341.283H223.951V341.145Z" fill="#FEDE8C"/>
<path d="M68.6892 198.903C69.6587 197.794 70.6282 196.825 71.5978 195.855" stroke="white" stroke-miterlimit="10"/>
<path d="M77.6919 190.869C108.301 168.847 153.453 183.667 166.749 220.093" stroke="white" stroke-miterlimit="10" stroke-dasharray="5.78 5.78"/>
<path d="M167.996 223.833C168.412 225.218 168.689 226.465 168.966 227.85" stroke="#6D75E7" stroke-miterlimit="10"/>
<path d="M74.9222 220.647C74.9222 225.08 73.6757 229.235 71.5982 232.836C67.4431 240.038 59.5484 245.024 50.5458 245.024C41.5431 245.024 33.6484 240.176 29.4933 232.836C27.4158 229.235 26.1693 225.08 26.1693 220.647C26.1693 207.213 37.111 196.271 50.5458 196.271C64.119 196.271 74.9222 207.213 74.9222 220.647Z" fill="#F3AFAE"/>
<mask id="mask2_1_122" style="mask-type:alpha" maskUnits="userSpaceOnUse" x="29" y="220" width="43" height="25">
<path d="M71.7366 232.697C67.5815 239.899 59.6869 244.885 50.6842 244.885C41.6815 244.885 33.7868 240.038 29.6317 232.697C33.7868 225.495 41.6815 220.509 50.6842 220.509C59.6869 220.647 67.5815 225.495 71.7366 232.697Z" fill="#E65F5C"/>
</mask>
<g mask="url(#mask2_1_122)">
<path d="M71.7366 232.697C67.5815 239.899 59.6869 244.885 50.6842 244.885C41.6815 244.885 33.7868 240.038 29.6317 232.697C33.7868 225.495 41.6815 220.509 50.6842 220.509C59.6869 220.647 67.5815 225.495 71.7366 232.697Z" fill="#E65F5C"/>
<g opacity="0.3">
<path d="M91.6125 185.825C88.5063 182.452 84.1444 180.467 79.5181 180.203C77.1389 180.07 74.8918 180.467 72.6448 181.195C70.3317 181.922 68.1507 182.981 66.1019 184.238C64.0532 185.561 62.2027 187.082 60.6165 188.934C58.9643 190.786 57.5103 192.903 57.1138 195.35C56.7833 197.798 57.6425 200.179 59.0964 202.097C60.6165 204.148 62.7975 205.669 64.9123 207.125C67.1594 208.646 69.4064 210.167 71.5213 211.821C73.6361 213.541 75.6188 215.393 77.4693 217.377C81.1703 221.28 84.2766 225.712 88.1758 229.416C90.0263 231.136 92.0751 232.856 94.5204 233.65C96.8336 234.377 99.5432 234.245 101.46 232.657C103.31 231.136 104.368 228.755 104.764 226.44C105.227 223.926 104.963 221.412 104.368 218.965C103.046 213.872 100.138 209.44 97.8249 204.743C96.7014 202.362 95.644 199.914 95.1813 197.335C94.6526 194.623 94.6526 191.712 93.7274 189.066C93.2647 187.81 92.4056 186.751 91.6125 185.825C91.4803 185.693 91.2821 185.891 91.4142 186.024C92.3395 187.016 93.1326 188.074 93.5291 189.397C93.9256 190.72 94.1239 192.109 94.3222 193.498C94.5204 194.821 94.6526 196.21 94.917 197.533C95.1813 198.79 95.5118 199.981 95.9744 201.171C97.7588 206 100.733 210.233 102.716 214.93C104.632 219.494 105.756 224.984 103.443 229.615C102.914 230.673 102.253 231.599 101.394 232.327C100.468 233.12 99.2789 233.583 98.0232 233.716C95.4457 233.98 93.0004 232.856 90.9516 231.334C88.9028 229.813 87.0523 227.895 85.334 225.977C83.5496 223.992 81.9634 221.942 80.2451 219.957C76.8084 215.988 73.0413 212.35 68.8116 209.307C64.8462 206.397 59.5591 204.016 57.8407 198.988C57.4442 197.798 57.312 196.607 57.4442 195.35C57.6425 194.094 58.1051 192.969 58.6999 191.911C59.8895 189.86 61.6078 188.074 63.4584 186.553C65.3089 185.031 67.3576 183.708 69.4725 182.716C71.5874 181.724 73.8344 180.996 76.1475 180.666C80.6416 180.004 85.2679 181.129 88.9028 183.775C89.8281 184.436 90.6212 185.164 91.4142 186.024C91.4803 186.222 91.7447 186.024 91.6125 185.825Z" fill="white"/>
<path d="M60.2198 209.572C62.6651 210.63 64.9782 211.953 67.1592 213.475C69.4723 215.128 71.6533 216.98 73.7021 218.965C75.6848 221.015 77.5353 223.198 79.1214 225.513C80.6415 227.762 81.8972 230.144 82.8885 232.657C83.285 233.848 83.6816 235.039 83.8799 236.229C84.0781 237.42 84.2103 238.544 84.012 239.735C83.6816 241.852 82.492 243.704 80.7736 244.961C79.1214 246.151 77.0065 246.747 74.9578 246.482C73.8342 246.35 72.7768 245.953 71.8516 245.424C71.0585 244.961 70.3315 244.365 69.6045 243.77C68.481 242.844 67.4236 241.852 66.2339 240.992C65.1765 240.198 64.053 239.471 62.7312 238.941C61.145 238.346 59.4928 238.081 57.8406 238.015C55.3292 237.883 52.7517 238.148 50.2403 238.544C48.7863 238.743 47.3984 239.074 45.8784 239.074C44.5566 239.074 43.3009 238.941 41.9791 238.677C39.4677 238.081 37.1545 236.891 35.2379 235.237C33.3213 233.517 31.8013 231.334 30.9421 228.953C30.149 226.77 29.8186 224.389 30.3473 222.14C30.876 219.759 32.3961 217.708 34.3788 216.319C35.5023 215.525 36.6919 214.864 38.0137 214.401C39.2694 214.004 40.6573 213.739 41.9791 213.607C44.4244 213.342 47.068 213.342 49.4472 212.549C49.9759 212.35 50.5046 212.152 50.9673 211.821C51.496 211.49 51.8925 211.093 52.3551 210.763C53.4126 209.837 54.8005 209.241 56.1883 209.109C57.6423 208.844 58.9641 209.043 60.2198 209.572C60.4181 209.638 60.4842 209.374 60.2859 209.307C57.7084 208.249 54.7344 208.58 52.4873 210.3C51.9586 210.696 51.5621 211.16 50.9673 211.49C50.4385 211.821 49.9098 212.086 49.315 212.218C48.1254 212.615 46.8697 212.813 45.614 212.945C42.9704 213.21 40.1947 213.276 37.6833 214.202C37.0224 214.401 36.4276 214.731 35.8327 215.062C35.2379 215.393 34.577 215.79 34.0483 216.187C33.057 216.914 32.1317 217.84 31.4708 218.899C30.2151 220.817 29.6864 223.132 29.8847 225.447C30.083 227.895 31.0082 230.342 32.3961 232.393C33.8501 234.51 35.7667 236.295 38.0798 237.552C40.3268 238.743 42.9043 239.404 45.4818 239.471C46.9358 239.471 48.3237 239.272 49.7116 239.008C51.2316 238.809 52.6856 238.611 54.2056 238.478C56.3205 238.346 58.4354 238.28 60.5502 238.677C62.0042 238.941 63.3921 239.471 64.6478 240.264C65.8374 240.992 66.8948 241.918 68.0184 242.844C68.6132 243.373 69.208 243.836 69.8689 244.365C70.6619 244.961 71.455 245.622 72.3142 246.085C74.2308 247.011 76.4778 247.21 78.5266 246.548C80.5093 245.953 82.2276 244.564 83.2851 242.778C83.8138 241.852 84.2103 240.86 84.3425 239.735C84.5407 238.544 84.4086 237.42 84.1442 236.229C83.6155 233.65 82.6902 231.202 81.5006 228.887C80.1788 226.373 78.5927 224.058 76.7422 221.875C74.8917 219.626 72.7768 217.576 70.5298 215.658C68.4149 213.872 66.1018 212.218 63.6565 210.895C62.5329 210.3 61.4094 209.704 60.2198 209.241C60.1537 209.175 60.0215 209.44 60.2198 209.572Z" fill="white"/>
<path d="M77.1387 236.229C77.2048 237.089 77.2048 238.148 76.61 238.809C76.1474 239.338 75.3543 239.404 74.6273 239.272C73.5699 239.14 72.5124 238.677 71.5211 238.28C70.1993 237.685 68.9436 237.023 67.6879 236.296C66.2339 235.502 64.8461 234.708 63.4582 233.848C62.0042 233.054 60.6163 232.261 59.0963 231.467C57.7745 230.805 56.4527 230.21 55.0648 229.681C53.9413 229.284 52.7517 229.019 51.5621 229.019C51.0994 229.019 50.5707 229.085 50.1081 229.284C49.2489 229.548 48.3898 229.813 47.5306 229.945C45.8123 230.21 44.0939 230.078 42.5078 229.482C41.186 228.953 39.9964 228.159 39.2033 227.035C38.4763 226.043 37.9476 224.852 37.9476 223.595C37.8815 222.338 38.3441 221.148 39.1372 220.222C40.1946 218.965 41.6486 218.237 43.1687 217.774C44.2922 217.444 45.4157 217.245 46.6053 217.311C47.3984 217.377 48.1915 217.51 49.0506 217.51C49.7115 217.51 50.3724 217.444 51.0333 217.245C52.3551 216.914 53.5447 216.187 54.5361 215.261C55.197 214.599 55.9901 214.07 56.8492 213.739C58.5015 213.144 60.2198 213.475 61.6738 214.202C63.5904 215.195 65.2426 216.716 66.6305 218.303C68.4149 220.288 69.9349 222.471 71.3889 224.72C72.909 227.101 74.2969 229.615 75.6186 232.128C76.2795 233.451 77.0065 234.708 77.1387 236.229C77.1387 236.428 77.4691 236.428 77.4031 236.229C77.337 235.436 77.1387 234.708 76.8743 234.046C76.61 233.385 76.2135 232.724 75.883 232.062C75.2221 230.805 74.4951 229.482 73.8342 228.226C72.4463 225.712 70.9263 223.331 69.208 221.015C67.754 219.031 66.1678 217.113 64.2512 215.591C62.7973 214.401 61.145 213.342 59.2284 213.144C57.444 212.946 55.7918 213.673 54.47 214.864C53.9413 215.327 53.4786 215.79 52.8838 216.187C52.289 216.584 51.6281 216.848 50.9012 217.047C50.1742 217.245 49.5133 217.311 48.7863 217.311C47.9271 217.245 47.068 217.179 46.2088 217.113C45.614 217.113 45.0192 217.179 44.4244 217.311C43.8957 217.377 43.433 217.51 42.9043 217.642C42.0452 217.907 41.2521 218.237 40.5251 218.7C39.3355 219.428 38.4102 220.486 37.9476 221.809C37.5511 223 37.5511 224.257 37.9476 225.447C38.4102 226.704 39.2033 227.829 40.2607 228.622C41.4503 229.548 42.9704 230.144 44.4244 230.342C45.3496 230.475 46.2088 230.475 47.1341 230.408C47.5967 230.342 48.1254 230.276 48.588 230.144C49.0507 230.012 49.5794 229.945 50.042 229.747C50.9672 229.35 52.0908 229.416 53.0821 229.615C54.4039 229.879 55.7257 230.342 56.9814 230.938C58.4354 231.599 59.8893 232.327 61.3433 233.12C62.8634 233.914 64.3173 234.774 65.7713 235.634C67.1592 236.428 68.5471 237.222 69.9349 237.883C71.0585 238.478 72.2481 239.008 73.5038 239.404C74.2969 239.669 75.2882 239.867 76.0813 239.603C76.8743 239.338 77.2709 238.677 77.4031 237.949C77.5352 237.42 77.4692 236.891 77.4692 236.362C77.4031 236.031 77.0726 236.031 77.1387 236.229Z" fill="white"/>
<path d="M69.6705 227.696C70.7941 229.284 72.1159 230.805 72.7768 232.657C73.0411 233.385 73.2394 234.311 72.9089 235.039C72.7107 235.436 72.3141 235.7 71.8515 235.7C71.5211 235.7 71.2567 235.502 70.9923 235.369C69.0097 234.046 67.1591 232.591 65.3086 231.136C63.326 229.482 61.3433 227.762 59.7571 225.712C59.0962 224.786 57.6422 222.801 59.2284 222.074C59.6249 221.875 60.0876 221.809 60.4841 221.743C60.8146 221.743 61.145 221.677 61.4754 221.743C62.0042 221.809 62.599 222.008 63.1277 222.206C65.2426 223.066 67.1591 224.654 68.6131 226.44C69.0097 226.704 69.3401 227.167 69.6705 227.696C69.8027 227.829 70.0671 227.696 69.9349 227.564C68.547 225.58 66.8287 223.86 64.7799 222.669C63.7886 222.074 62.6651 221.545 61.4754 221.346C60.9467 221.28 60.2858 221.346 59.691 221.478C59.0301 221.611 58.3692 222.008 58.2371 222.801C58.1049 223.595 58.5675 224.389 58.964 225.05C59.6249 226.043 60.418 226.969 61.2111 227.829C62.2024 228.887 63.2599 229.813 64.3834 230.739C66.3661 232.393 68.4148 234.046 70.5297 235.436C71.0584 235.832 71.5871 236.163 72.3141 235.965C73.1072 235.7 73.4376 234.84 73.4376 234.046C73.4376 233.12 73.0411 232.26 72.5785 231.467C72.0498 230.541 71.455 229.681 70.8602 228.821C70.5958 228.424 70.2654 228.027 70.001 227.63C69.8027 227.366 69.5384 227.498 69.6705 227.696Z" fill="white"/>
<path d="M60.2193 209.572C62.6646 210.63 64.9778 211.953 67.1587 213.475C69.4719 215.128 71.6528 216.98 73.7016 218.965C75.6843 221.015 77.5348 223.198 79.1209 225.513C80.641 227.762 81.8967 230.144 82.888 232.657C83.2846 233.848 83.6811 235.039 83.8794 236.229C84.0776 237.42 84.2098 238.544 84.0116 239.735C83.6811 241.852 82.4915 243.704 80.7732 244.961C79.1209 246.151 77.0061 246.747 74.9573 246.482C73.8338 246.35 72.7763 245.953 71.8511 245.424C71.058 244.961 70.331 244.365 69.604 243.77C68.4805 242.844 67.4231 241.852 66.2335 240.992C65.176 240.198 64.0525 239.471 62.7307 238.941C61.1446 238.346 59.4923 238.081 57.8401 238.015C55.3287 237.883 52.7512 238.148 50.2398 238.544C48.7858 238.743 47.3979 239.074 45.8779 239.074C44.5561 239.074 43.3004 238.941 41.9786 238.677C39.4672 238.081 37.1541 236.891 35.2375 235.237C33.3209 233.517 31.8008 231.334 30.9416 228.953C30.1486 226.77 29.8181 224.389 30.3468 222.14C30.8756 219.759 32.3956 217.708 34.3783 216.319C35.5018 215.525 36.6914 214.864 38.0132 214.401C39.2689 214.004 40.6568 213.739 41.9786 213.607C44.4239 213.342 47.0675 213.342 49.4467 212.549C49.9754 212.35 50.5042 212.152 50.9668 211.821C51.4955 211.49 51.892 211.093 52.3547 210.763C53.4121 209.837 54.8 209.241 56.1879 209.109C57.6418 208.844 58.9636 209.043 60.2193 209.572C60.4176 209.638 60.4837 209.374 60.2854 209.307C57.7079 208.249 54.7339 208.58 52.4868 210.3C51.9581 210.696 51.5616 211.159 50.9668 211.49C50.4381 211.821 49.9093 212.086 49.3145 212.218C48.1249 212.615 46.8692 212.813 45.6135 212.945C42.9699 213.21 40.1942 213.276 37.6828 214.202C37.0219 214.401 36.4271 214.731 35.8323 215.062C35.2375 215.393 34.5766 215.79 34.0479 216.187C33.0565 216.914 32.1313 217.84 31.4704 218.899C30.2147 220.817 29.6859 223.132 29.8842 225.447C30.0825 227.895 31.0077 230.342 32.3956 232.393C33.8496 234.509 35.7662 236.295 38.0793 237.552C40.3264 238.743 42.9039 239.404 45.4814 239.471C46.9353 239.471 48.3232 239.272 49.7111 239.007C51.2311 238.809 52.6851 238.611 54.2052 238.478C56.32 238.346 58.4349 238.28 60.5498 238.677C62.0037 238.941 63.3916 239.471 64.6473 240.264C65.8369 240.992 66.8944 241.918 68.0179 242.844C68.6127 243.373 69.2075 243.836 69.8684 244.365C70.6615 244.961 71.4545 245.622 72.3137 246.085C74.2303 247.011 76.4774 247.21 78.5261 246.548C80.5088 245.953 82.2271 244.564 83.2846 242.778C83.8133 241.852 84.2098 240.86 84.342 239.735C84.5403 238.544 84.4081 237.42 84.1437 236.229C83.615 233.65 82.6898 231.202 81.5002 228.887C80.1784 226.373 78.5922 224.058 76.7417 221.875C74.8912 219.626 72.7763 217.576 70.5293 215.658C68.4144 213.872 66.1013 212.218 63.656 210.895C62.5325 210.3 61.4089 209.704 60.2193 209.241C60.1532 209.175 60.021 209.44 60.2193 209.572Z" fill="white"/>
<path d="M77.1382 236.229C77.2043 237.089 77.2043 238.148 76.6095 238.809C76.1469 239.338 75.3538 239.404 74.6268 239.272C73.5694 239.14 72.512 238.677 71.5206 238.28C70.1988 237.685 68.9431 237.023 67.6874 236.295C66.2335 235.502 64.8456 234.708 63.4577 233.848C62.0037 233.054 60.6159 232.26 59.0958 231.467C57.774 230.805 56.4522 230.21 55.0643 229.681C53.9408 229.284 52.7512 229.019 51.5616 229.019C51.099 229.019 50.5702 229.085 50.1076 229.284C49.2485 229.548 48.3893 229.813 47.5301 229.945C45.8118 230.21 44.0935 230.078 42.5073 229.482C41.1855 228.953 39.9959 228.159 39.2028 227.035C38.4759 226.043 37.9471 224.852 37.9471 223.595C37.881 222.338 38.3437 221.148 39.1368 220.222C40.1942 218.965 41.6482 218.237 43.1682 217.774C44.2917 217.443 45.4153 217.245 46.6049 217.311C47.3979 217.377 48.191 217.51 49.0502 217.51C49.7111 217.51 50.372 217.443 51.0329 217.245C52.3547 216.914 53.5443 216.187 54.5356 215.261C55.1965 214.599 55.9896 214.07 56.8488 213.739C58.501 213.144 60.2193 213.475 61.6733 214.202C63.5899 215.194 65.2421 216.716 66.63 218.303C68.4144 220.288 69.9345 222.471 71.3884 224.72C72.9085 227.101 74.2964 229.615 75.6182 232.128C76.2791 233.451 77.0061 234.708 77.1382 236.229C77.1382 236.428 77.4687 236.428 77.4026 236.229C77.3365 235.436 77.1382 234.708 76.8739 234.046C76.6095 233.385 76.213 232.724 75.8825 232.062C75.2216 230.805 74.4947 229.482 73.8338 228.225C72.4459 225.712 70.9258 223.331 69.2075 221.015C67.7535 219.031 66.1674 217.113 64.2508 215.591C62.7968 214.401 61.1446 213.342 59.228 213.144C57.4436 212.945 55.7913 213.673 54.4695 214.864C53.9408 215.327 53.4782 215.79 52.8834 216.187C52.2886 216.584 51.6277 216.848 50.9007 217.047C50.1737 217.245 49.5128 217.311 48.7858 217.311C47.9267 217.245 47.0675 217.179 46.2083 217.113C45.6135 217.113 45.0187 217.179 44.4239 217.311C43.8952 217.377 43.4326 217.51 42.9039 217.642C42.0447 217.907 41.2516 218.237 40.5246 218.7C39.335 219.428 38.4098 220.486 37.9471 221.809C37.5506 223 37.5506 224.257 37.9471 225.447C38.4098 226.704 39.2028 227.829 40.2603 228.622C41.4499 229.548 42.9699 230.144 44.4239 230.342C45.3492 230.475 46.2083 230.475 47.1336 230.408C47.5962 230.342 48.1249 230.276 48.5876 230.144C49.0502 230.011 49.5789 229.945 50.0415 229.747C50.9668 229.35 52.0903 229.416 53.0816 229.615C54.4034 229.879 55.7252 230.342 56.9809 230.938C58.4349 231.599 59.8889 232.327 61.3428 233.12C62.8629 233.914 64.3169 234.774 65.7708 235.634C67.1587 236.428 68.5466 237.222 69.9345 237.883C71.058 238.478 72.2476 239.008 73.5033 239.404C74.2964 239.669 75.2877 239.867 76.0808 239.603C76.8739 239.338 77.2704 238.677 77.4026 237.949C77.5348 237.42 77.4687 236.891 77.4687 236.362C77.4026 236.031 77.0721 236.031 77.1382 236.229Z" fill="white"/>
</g>
</g>
<path d="M56.5014 209.429C56.5014 212.614 53.8698 215.246 50.6843 215.246C47.4987 215.246 44.8671 212.614 44.8671 209.429C44.8671 206.243 47.4987 203.612 50.6843 203.612C53.8698 203.612 56.5014 206.243 56.5014 209.429Z" fill="#E65F5C"/>
<path d="M200.267 249.595H137.941V281.727H200.267V249.595Z" fill="#3C4191"/>
<path d="M175.337 236.575C175.337 240.176 172.428 242.946 168.966 242.946C165.503 242.946 162.595 240.038 162.595 236.575C162.595 232.974 165.503 230.204 168.966 230.204C172.428 230.204 175.337 232.974 175.337 236.575Z" fill="white"/>
<path d="M206.915 282.281C206.915 282.143 206.915 282.143 206.915 282.004V280.342C206.915 278.957 205.807 277.988 204.561 277.988H202.76V250.841C202.76 250.564 202.622 250.426 202.622 250.287H203.868C204.976 250.287 205.807 249.318 205.807 248.348C205.807 247.655 205.53 247.101 204.976 246.686L172.151 224.11C170.905 223.279 169.381 223.002 167.996 223.279C167.442 223.417 166.749 223.694 166.195 224.11L133.37 246.686C132.539 247.378 132.262 248.486 132.816 249.456C133.232 250.01 133.786 250.287 134.478 250.287H135.725C135.586 250.426 135.586 250.703 135.586 250.841V277.988H133.786C132.539 277.988 131.431 279.096 131.431 280.342V282.281C130.185 282.281 129.215 283.251 129.215 284.497V286.852C129.215 287.544 129.769 288.237 130.6 288.237H208.023C208.716 288.237 209.408 287.683 209.408 286.852V284.636C209.131 283.251 208.162 282.281 206.915 282.281ZM142.234 277.988V250.841C142.234 250.564 142.096 250.426 142.096 250.287H154.423C154.284 250.426 154.284 250.564 154.284 250.841V277.988H142.234ZM160.794 250.287H175.891C175.752 250.426 175.752 250.564 175.752 250.841V277.988H160.932V250.841C160.932 250.703 160.932 250.426 160.794 250.287ZM195.974 250.841V277.988H182.4V250.841C182.4 250.703 182.4 250.426 182.262 250.287H196.112C196.112 250.426 195.974 250.703 195.974 250.841ZM169.104 231.174C171.597 231.174 173.675 233.251 173.675 235.744C173.675 236.991 173.121 238.099 172.29 238.93C171.459 239.761 170.351 240.315 169.104 240.315C166.611 240.315 164.533 238.237 164.533 235.744C164.533 233.251 166.611 231.174 169.104 231.174Z" fill="#545BBC"/>
</g>
</svg>
