<svg width="411" height="181" viewBox="0 0 411 181" fill="none" xmlns="http://www.w3.org/2000/svg">
<path d="M283.837 138.698C263.17 152.576 239.067 165.537 213.058 173.327C170.189 186.194 131.208 180.735 113.699 159.485C105.703 149.757 102.132 137.126 98.6795 124.828C98.0487 122.643 97.4178 120.459 96.787 118.275C92.6463 104.174 86.9173 90.0419 73.9026 82.1746C72.1401 86.2404 70.0664 90.3093 67.6813 94.3814C59.9246 107.413 45.9185 120.319 32.7581 126.549C24.2591 130.541 16.4487 131.668 10.2376 129.731C3.14123 127.566 -0.229519 121.457 1.00612 112.873C2.47065 102.762 9.90099 91.7336 20.0225 84.8681C20.1665 84.7714 20.2385 84.723 20.3825 84.6263C38.4568 72.4889 59.395 72.0845 72.6726 77.8537C79.2419 59.7861 79.0576 41.9302 71.5453 28.7209C61.884 11.5333 39.7758 1.94938 13.9963 3.54617L14.9877 0.821668C42.1565 -0.884554 64.3917 8.88856 74.5612 26.8328C82.5646 41.0848 82.698 59.7984 75.2625 79.0654C75.5971 79.2525 75.9317 79.4395 76.2663 79.6266C89.8549 87.7261 95.7025 102.191 99.9617 116.624C100.593 118.808 101.223 120.992 101.886 123.223C105.284 135.284 108.791 147.82 116.628 157.312C133.62 177.948 171.54 183.228 213.283 170.706C258.085 157.295 297.436 127.987 322.538 105.778C354.791 77.2569 381.98 44.9304 408.311 13.6604L410.639 14.6367C384.267 46.0024 356.965 78.4728 324.385 107.283C313.295 117.063 299.535 128.156 283.837 138.698ZM21.6847 86.5655C21.5407 86.6622 21.4687 86.7105 21.3247 86.8072C12.2113 92.9958 5.463 103.017 4.12141 112.222C3.04895 119.805 5.97504 125.251 12.1544 127.14C17.6561 128.798 24.6279 127.822 32.1675 124.269C44.4723 118.476 57.6058 106.294 64.9368 94.0285C67.4743 89.7167 69.6688 85.3609 71.4885 80.9135C59.1935 74.8961 38.9669 74.9599 21.6847 86.5655Z" fill="black"/>
</svg>
