<svg width="162" height="71" viewBox="0 0 162 71" fill="none" xmlns="http://www.w3.org/2000/svg">
<path d="M111.41 54.6083C103.288 60.0625 93.815 65.1562 83.5934 68.2176C66.7457 73.2744 51.4261 71.129 44.5449 62.7775C41.4027 58.9543 39.9992 53.9905 38.6423 49.1571C38.3944 48.2988 38.1465 47.4404 37.8985 46.5821C36.2712 41.0403 34.0197 35.4862 28.9049 32.3944C28.2122 33.9922 27.3972 35.5913 26.4599 37.1917C23.4115 42.3133 17.907 47.3852 12.7349 49.8336C9.39479 51.4023 6.32528 51.8454 3.88428 51.0844C1.0954 50.2332 -0.229314 47.8325 0.256295 44.4589C0.831863 40.4854 3.75201 36.1511 7.7298 33.4529C7.7864 33.4149 7.8147 33.3959 7.8713 33.3579C14.9746 28.5878 23.2034 28.4289 28.4215 30.6962C31.0032 23.5956 30.9308 16.5782 27.9785 11.3868C24.1815 4.63207 15.4929 0.86555 5.36149 1.49309L5.75112 0.422354C16.4286 -0.248197 25.1671 3.59267 29.1637 10.6448C32.3091 16.2459 32.3615 23.6004 29.4393 31.1724C29.5708 31.2459 29.7023 31.3195 29.8338 31.393C35.1742 34.5761 37.4723 40.2607 39.1462 45.933C39.3941 46.7914 39.642 47.6497 39.9024 48.5267C41.2377 53.2666 42.6162 58.1933 45.6961 61.9236C52.3742 70.0338 67.2768 72.1086 83.6817 67.1874C101.289 61.917 116.754 50.3989 126.62 41.6705C139.295 30.4617 149.98 17.7573 160.329 5.46802L161.243 5.8517C150.879 18.1785 140.15 30.9395 127.345 42.262C122.987 46.1056 117.579 50.4654 111.41 54.6083ZM8.38307 34.12C8.32647 34.158 8.29817 34.177 8.24157 34.215C4.65997 36.6471 2.00787 40.5857 1.48062 44.2031C1.05914 47.1831 2.2091 49.3235 4.63762 50.066C6.79981 50.7177 9.53973 50.3341 12.5028 48.9376C17.3386 46.6611 22.5002 41.8735 25.3813 37.053C26.3785 35.3585 27.241 33.6466 27.9561 31.8988C23.1242 29.5339 15.175 29.559 8.38307 34.12Z" fill="black"/>
</svg>
