<svg width="21" height="20" viewBox="0 0 21 20" fill="none" xmlns="http://www.w3.org/2000/svg">
<path d="M15.3537 3.46C15.1163 3.46 14.8843 3.53038 14.687 3.66224C14.4896 3.79409 14.3358 3.98151 14.245 4.20078C14.1542 4.42005 14.1304 4.66133 14.1767 4.89411C14.223 5.12689 14.3373 5.34071 14.5051 5.50853C14.673 5.67635 14.8868 5.79064 15.1196 5.83694C15.3523 5.88324 15.5936 5.85948 15.8129 5.76866C16.0322 5.67783 16.2196 5.52402 16.3514 5.32668C16.4833 5.12935 16.5537 4.89734 16.5537 4.66C16.5537 4.34174 16.4272 4.03652 16.2022 3.81147C15.9772 3.58643 15.6719 3.46 15.3537 3.46V3.46ZM19.9537 5.88C19.9342 5.0503 19.7788 4.2294 19.4937 3.45C19.2394 2.78313 18.8437 2.17928 18.3337 1.68C17.8385 1.16743 17.2332 0.774176 16.5637 0.53C15.7863 0.236161 14.9645 0.07721 14.1337 0.0599999C13.0737 -5.58794e-08 12.7337 0 10.0137 0C7.29367 0 6.95367 -5.58794e-08 5.89367 0.0599999C5.06282 0.07721 4.24101 0.236161 3.46367 0.53C2.79535 0.776649 2.19061 1.16956 1.69367 1.68C1.1811 2.17518 0.787848 2.78044 0.543672 3.45C0.249833 4.22734 0.0908819 5.04915 0.0736718 5.88C0.0136718 6.94 0.0136719 7.28 0.0136719 10C0.0136719 12.72 0.0136718 13.06 0.0736718 14.12C0.0908819 14.9508 0.249833 15.7727 0.543672 16.55C0.787848 17.2196 1.1811 17.8248 1.69367 18.32C2.19061 18.8304 2.79535 19.2234 3.46367 19.47C4.24101 19.7638 5.06282 19.9228 5.89367 19.94C6.95367 20 7.29367 20 10.0137 20C12.7337 20 13.0737 20 14.1337 19.94C14.9645 19.9228 15.7863 19.7638 16.5637 19.47C17.2332 19.2258 17.8385 18.8326 18.3337 18.32C18.8459 17.8226 19.242 17.2182 19.4937 16.55C19.7788 15.7706 19.9342 14.9497 19.9537 14.12C19.9537 13.06 20.0137 12.72 20.0137 10C20.0137 7.28 20.0137 6.94 19.9537 5.88V5.88ZM18.1537 14C18.1464 14.6348 18.0314 15.2637 17.8137 15.86C17.654 16.2952 17.3976 16.6884 17.0637 17.01C16.7393 17.3405 16.3469 17.5964 15.9137 17.76C15.3174 17.9778 14.6884 18.0927 14.0537 18.1C13.0537 18.15 12.6837 18.16 10.0537 18.16C7.42367 18.16 7.05367 18.16 6.05367 18.1C5.39456 18.1123 4.73827 18.0109 4.11367 17.8C3.69945 17.6281 3.32503 17.3728 3.01367 17.05C2.68176 16.7287 2.42852 16.3352 2.27367 15.9C2.02953 15.2952 1.89412 14.6519 1.87367 14C1.87367 13 1.81367 12.63 1.81367 10C1.81367 7.37 1.81367 7 1.87367 6C1.87815 5.35106 1.99662 4.70795 2.22367 4.1C2.39972 3.67791 2.66994 3.30166 3.01367 3C3.31749 2.65617 3.69296 2.3831 4.11367 2.2C4.72322 1.98004 5.36567 1.86508 6.01367 1.86C7.01367 1.86 7.38367 1.8 10.0137 1.8C12.6437 1.8 13.0137 1.8 14.0137 1.86C14.6484 1.86728 15.2774 1.98225 15.8737 2.2C16.3281 2.36865 16.736 2.64285 17.0637 3C17.3914 3.30718 17.6474 3.68273 17.8137 4.1C18.0359 4.70893 18.151 5.35178 18.1537 6C18.2037 7 18.2137 7.37 18.2137 10C18.2137 12.63 18.2037 13 18.1537 14ZM10.0137 4.87C8.99948 4.87198 8.00863 5.17453 7.16633 5.73942C6.32402 6.30431 5.66805 7.1062 5.28131 8.04375C4.89456 8.98131 4.7944 10.0125 4.99347 11.0069C5.19254 12.0014 5.68191 12.9145 6.39975 13.631C7.11759 14.3474 8.03168 14.835 9.02653 15.0321C10.0214 15.2293 11.0523 15.1271 11.9891 14.7385C12.9259 14.35 13.7265 13.6924 14.2898 12.849C14.8531 12.0056 15.1537 11.0142 15.1537 10C15.155 9.3251 15.0229 8.65661 14.7649 8.03296C14.5069 7.40931 14.1282 6.84281 13.6505 6.36605C13.1729 5.88929 12.6056 5.51168 11.9815 5.25493C11.3573 4.99818 10.6886 4.86736 10.0137 4.87V4.87ZM10.0137 13.33C9.35506 13.33 8.71124 13.1347 8.16362 12.7688C7.61601 12.4029 7.18919 11.8828 6.93715 11.2743C6.68511 10.6659 6.61917 9.99631 6.74766 9.35035C6.87615 8.70439 7.1933 8.11104 7.65901 7.64533C8.12471 7.17963 8.71806 6.86247 9.36402 6.73398C10.01 6.6055 10.6795 6.67144 11.288 6.92348C11.8965 7.17552 12.4166 7.60234 12.7825 8.14995C13.1484 8.69757 13.3437 9.34139 13.3437 10C13.3437 10.4373 13.2575 10.8703 13.0902 11.2743C12.9228 11.6784 12.6776 12.0454 12.3683 12.3547C12.0591 12.6639 11.692 12.9092 11.288 13.0765C10.884 13.2439 10.451 13.33 10.0137 13.33V13.33Z" fill="black"/>
<path d="M15.3537 3.46C15.1163 3.46 14.8843 3.53038 14.687 3.66224C14.4896 3.79409 14.3358 3.98151 14.245 4.20078C14.1542 4.42005 14.1304 4.66133 14.1767 4.89411C14.223 5.12689 14.3373 5.34071 14.5051 5.50853C14.673 5.67635 14.8868 5.79064 15.1196 5.83694C15.3523 5.88324 15.5936 5.85948 15.8129 5.76866C16.0322 5.67783 16.2196 5.52402 16.3514 5.32668C16.4833 5.12935 16.5537 4.89734 16.5537 4.66C16.5537 4.34174 16.4272 4.03652 16.2022 3.81147C15.9772 3.58643 15.6719 3.46 15.3537 3.46V3.46ZM19.9537 5.88C19.9342 5.0503 19.7788 4.2294 19.4937 3.45C19.2394 2.78313 18.8437 2.17928 18.3337 1.68C17.8385 1.16743 17.2332 0.774176 16.5637 0.53C15.7863 0.236161 14.9645 0.07721 14.1337 0.0599999C13.0737 -5.58794e-08 12.7337 0 10.0137 0C7.29367 0 6.95367 -5.58794e-08 5.89367 0.0599999C5.06282 0.07721 4.24101 0.236161 3.46367 0.53C2.79535 0.776649 2.19061 1.16956 1.69367 1.68C1.1811 2.17518 0.787848 2.78044 0.543672 3.45C0.249833 4.22734 0.0908819 5.04915 0.0736718 5.88C0.0136718 6.94 0.0136719 7.28 0.0136719 10C0.0136719 12.72 0.0136718 13.06 0.0736718 14.12C0.0908819 14.9508 0.249833 15.7727 0.543672 16.55C0.787848 17.2196 1.1811 17.8248 1.69367 18.32C2.19061 18.8304 2.79535 19.2234 3.46367 19.47C4.24101 19.7638 5.06282 19.9228 5.89367 19.94C6.95367 20 7.29367 20 10.0137 20C12.7337 20 13.0737 20 14.1337 19.94C14.9645 19.9228 15.7863 19.7638 16.5637 19.47C17.2332 19.2258 17.8385 18.8326 18.3337 18.32C18.8459 17.8226 19.242 17.2182 19.4937 16.55C19.7788 15.7706 19.9342 14.9497 19.9537 14.12C19.9537 13.06 20.0137 12.72 20.0137 10C20.0137 7.28 20.0137 6.94 19.9537 5.88V5.88ZM18.1537 14C18.1464 14.6348 18.0314 15.2637 17.8137 15.86C17.654 16.2952 17.3976 16.6884 17.0637 17.01C16.7393 17.3405 16.3469 17.5964 15.9137 17.76C15.3174 17.9778 14.6884 18.0927 14.0537 18.1C13.0537 18.15 12.6837 18.16 10.0537 18.16C7.42367 18.16 7.05367 18.16 6.05367 18.1C5.39456 18.1123 4.73827 18.0109 4.11367 17.8C3.69945 17.6281 3.32503 17.3728 3.01367 17.05C2.68176 16.7287 2.42852 16.3352 2.27367 15.9C2.02953 15.2952 1.89412 14.6519 1.87367 14C1.87367 13 1.81367 12.63 1.81367 10C1.81367 7.37 1.81367 7 1.87367 6C1.87815 5.35106 1.99662 4.70795 2.22367 4.1C2.39972 3.67791 2.66994 3.30166 3.01367 3C3.31749 2.65617 3.69296 2.3831 4.11367 2.2C4.72322 1.98004 5.36567 1.86508 6.01367 1.86C7.01367 1.86 7.38367 1.8 10.0137 1.8C12.6437 1.8 13.0137 1.8 14.0137 1.86C14.6484 1.86728 15.2774 1.98225 15.8737 2.2C16.3281 2.36865 16.736 2.64285 17.0637 3C17.3914 3.30718 17.6474 3.68273 17.8137 4.1C18.0359 4.70893 18.151 5.35178 18.1537 6C18.2037 7 18.2137 7.37 18.2137 10C18.2137 12.63 18.2037 13 18.1537 14ZM10.0137 4.87C8.99948 4.87198 8.00863 5.17453 7.16633 5.73942C6.32402 6.30431 5.66805 7.1062 5.28131 8.04375C4.89456 8.98131 4.7944 10.0125 4.99347 11.0069C5.19254 12.0014 5.68191 12.9145 6.39975 13.631C7.11759 14.3474 8.03168 14.835 9.02653 15.0321C10.0214 15.2293 11.0523 15.1271 11.9891 14.7385C12.9259 14.35 13.7265 13.6924 14.2898 12.849C14.8531 12.0056 15.1537 11.0142 15.1537 10C15.155 9.3251 15.0229 8.65661 14.7649 8.03296C14.5069 7.40931 14.1282 6.84281 13.6505 6.36605C13.1729 5.88929 12.6056 5.51168 11.9815 5.25493C11.3573 4.99818 10.6886 4.86736 10.0137 4.87V4.87ZM10.0137 13.33C9.35506 13.33 8.71124 13.1347 8.16362 12.7688C7.61601 12.4029 7.18919 11.8828 6.93715 11.2743C6.68511 10.6659 6.61917 9.99631 6.74766 9.35035C6.87615 8.70439 7.1933 8.11104 7.65901 7.64533C8.12471 7.17963 8.71806 6.86247 9.36402 6.73398C10.01 6.6055 10.6795 6.67144 11.288 6.92348C11.8965 7.17552 12.4166 7.60234 12.7825 8.14995C13.1484 8.69757 13.3437 9.34139 13.3437 10C13.3437 10.4373 13.2575 10.8703 13.0902 11.2743C12.9228 11.6784 12.6776 12.0454 12.3683 12.3547C12.0591 12.6639 11.692 12.9092 11.288 13.0765C10.884 13.2439 10.451 13.33 10.0137 13.33V13.33Z" fill="black"/>
</svg>
