<svg width="16" height="16" viewBox="0 0 16 16" fill="none" xmlns="http://www.w3.org/2000/svg">
<path fill-rule="evenodd" clip-rule="evenodd" d="M7.99999 0C12.4221 0 16 3.57789 16 8C16 12.4221 12.4221 16 7.99999 16C3.57788 16 0 12.4221 0 8C0 3.57789 3.57788 0 7.99999 0ZM5.64824 9.66834C5.46733 9.86934 5.46733 10.1709 5.64824 10.3719C5.74874 10.4724 5.86933 10.5126 5.98994 10.5126C6.11054 10.5126 6.23116 10.4724 6.33166 10.3719L7.97989 8.72361L9.62812 10.3719C9.72863 10.4724 9.84924 10.5126 9.96985 10.5126C10.0905 10.5126 10.211 10.4724 10.3115 10.3719C10.5126 10.1709 10.5126 9.86934 10.3115 9.66834L8.66331 8.0201L10.3115 6.37186C10.5126 6.17086 10.5126 5.86935 10.3115 5.66835C10.1306 5.48744 9.80903 5.48744 9.60803 5.66835L7.9598 7.31658L6.31154 5.66835C6.13064 5.46734 5.80903 5.46734 5.60802 5.66835C5.42712 5.84925 5.42712 6.17086 5.60802 6.37186L7.25628 8.0201L5.64824 9.66834Z" fill="#FF5959"/>
</svg>
