<svg width="170" height="113" viewBox="0 0 170 113" fill="none" xmlns="http://www.w3.org/2000/svg">
<path opacity="0.3" d="M59.6 13.5C57.8 13.5 56 13.9 54.5 14.5C52.8 6.2 45.5 0 36.7 0C27.1 0 19.3 7.4 18.6 16.8C16.8 15.9 14.8 15.3 12.7 15.3C5.9 15.3 0.4 20.5 0 27.2H21H25.4H46H52.5H73.4C73.3 19.6 67.2 13.5 59.6 13.5Z" fill="#2D76F9"/>
<path opacity="0.2" d="M135.699 94.2002C138.299 94.2002 140.699 95.4002 142.199 97.4002C144.199 94.6002 147.499 92.7002 151.199 92.7002C155.599 92.7002 159.399 95.3002 161.099 99.1002C161.399 99.1002 161.799 99.0002 162.099 99.0002C165.899 99.0002 169.099 101.8 169.699 105.4H161.999H154.599H143.399H140.399H127.999C127.599 104.5 127.399 103.5 127.399 102.4C127.399 97.8002 131.099 94.2002 135.699 94.2002Z" fill="#2D76F9"/>
<path d="M89.0995 9.10002L45.0995 24.9C43.4995 25.5 42.2995 26.7 41.8995 28.3L27.5995 78.3C26.7995 81 28.3995 83.9 31.1995 84.7L111.499 107.6C114.199 108.4 117.099 106.8 117.899 104L132.199 54C132.699 52.4 132.299 50.7 131.299 49.4L102.299 12.7C99.0995 8.90002 93.7995 7.40002 89.0995 9.10002Z" fill="#3667C0"/>
<path d="M128.499 52.5999L113.799 57.8999L78.5992 70.4999L55.3992 41.1999L45.7992 28.9999H45.6992H45.7992L60.3992 23.6999L89.5992 13.1999L91.1992 12.5999C93.7992 11.6999 96.6992 12.4999 98.3992 14.6999L99.4992 15.9999L106.799 25.2999L116.099 36.9999L118.799 40.3999L128.499 52.5999Z" fill="white"/>
<path d="M119.499 38L113.799 57.9L78.5994 70.5L55.3994 41.2L64.4994 9.49998C64.9994 7.69998 66.8994 6.69998 68.5994 7.19998L108.699 18.7L119.499 38Z" fill="#FFBE82"/>
<path d="M105.8 29.2L108.8 18.7L119.5 38L109 35C106.5 34.3 105 31.7 105.8 29.2Z" fill="#FFDBBA"/>
<path d="M132 12C132 17.5224 136.478 22 142 22C147.522 22 152 17.5224 152 12C152 6.47761 147.522 2 142 2C136.478 2 132 6.47761 132 12Z" fill="#FAD26C"/>
<path d="M135 12C135 15.8738 138.126 19 142 19C145.874 19 149 15.8738 149 12C149 8.12621 145.874 5 142 5C138.126 5 135 8.12621 135 12Z" fill="#F9BD26"/>
<path d="M113 103C113 108.522 117.478 113 123 113C128.522 113 133 108.522 133 103C133 97.4776 128.522 93 123 93C117.478 93 113 97.4776 113 103Z" fill="#FAD26C"/>
<path d="M116 103C116 106.874 119.126 110 123 110C126.874 110 130 106.874 130 103C130 99.1262 126.874 96 123 96C119.126 96 116 99.1262 116 103Z" fill="#F9BD26"/>
</svg>
