<svg width="40" height="40" viewBox="0 0 40 40" fill="none" xmlns="http://www.w3.org/2000/svg">
<path d="M36.3201 0.0541992H3.08633C1.49434 0.0541992 0.207031 1.31104 0.207031 2.86494V36.2358C0.207031 37.7897 1.49434 39.0542 3.08633 39.0542H36.3201C37.9121 39.0542 39.207 37.7897 39.207 36.2435V2.86494C39.207 1.31104 37.9121 0.0541992 36.3201 0.0541992ZM11.7775 33.288H5.98848V14.6716H11.7775V33.288ZM8.88301 12.1351C7.02441 12.1351 5.52383 10.6345 5.52383 8.7835C5.52383 6.93252 7.02441 5.43193 8.88301 5.43193C10.734 5.43193 12.2346 6.93252 12.2346 8.7835C12.2346 10.6269 10.734 12.1351 8.88301 12.1351ZM33.4408 33.288H27.6594V24.2388C27.6594 22.0831 27.6213 19.3028 24.6506 19.3028C21.6418 19.3028 21.1848 21.6565 21.1848 24.0864V33.288H15.4109V14.6716H20.9562V17.2157H21.0324C21.8018 15.7532 23.6908 14.2069 26.5016 14.2069C32.3592 14.2069 33.4408 18.0612 33.4408 23.0733V33.288V33.288Z" fill="#000000"/>
</svg>
