<svg width="116" height="28" viewBox="0 0 116 28" fill="none" xmlns="http://www.w3.org/2000/svg">
<path d="M15.3137 7.2121C14.018 7.2121 12.7234 7.22341 11.4277 7.2121C10.103 7.19828 9.06234 6.62768 8.35727 5.50912C7.00494 3.35746 8.27557 0.505748 10.7754 0.0558091C11.0012 0.0173108 11.23 -0.00119347 11.4591 0.000510005C14.033 0.000510005 16.6074 0.000510005 19.1822 0.000510005C20.0154 -0.01353 20.8276 0.262693 21.4795 0.781832C22.1314 1.30097 22.5825 2.0307 22.7553 2.84593C23.1965 4.74749 21.9246 6.74205 20.0092 7.12538C19.7382 7.17997 19.4624 7.20775 19.186 7.20833C17.8927 7.2121 16.6032 7.2121 15.3137 7.2121Z" fill="#537FFF"/>
<path d="M0 19.1971C0.000365663 18.3287 0.315495 17.49 0.886991 16.8362C1.45849 16.1824 2.2476 15.758 3.1081 15.6416C3.47634 15.5913 3.85213 15.6001 4.22038 15.5486C5.05063 15.4313 5.82596 15.0656 6.44442 14.4994C7.06288 13.9332 7.4955 13.1931 7.68541 12.3764C7.76299 12.0505 7.80513 11.7172 7.81109 11.3822C7.81481 10.6885 8.01828 10.0106 8.39715 9.42951C8.77602 8.84841 9.31425 8.38875 9.94749 8.1055C10.5807 7.82225 11.2821 7.7274 11.9679 7.83229C12.6536 7.93719 13.2946 8.23739 13.8142 8.69699C14.3338 9.15659 14.71 9.75614 14.8978 10.4239C15.0856 11.0917 15.0771 11.7995 14.8733 12.4625C14.6695 13.1256 14.279 13.7159 13.7485 14.1629C13.218 14.6099 12.57 14.8946 11.8819 14.983C11.5501 15.027 11.2108 15.0081 10.8765 15.0534C9.51784 15.2394 8.48851 15.9331 7.78721 17.1083C7.41832 17.7232 7.22409 18.4272 7.22542 19.1443C7.21536 20.8774 6.12948 22.2863 4.48305 22.7074C2.43068 23.2352 0.319231 21.8163 0.0439892 19.7199C0.0226234 19.5465 0.0150818 19.3718 0 19.1971Z" fill="#537FFF"/>
<path d="M3.61192 15.0042C2.89896 15.003 2.20238 14.7903 1.61028 14.3932C1.01818 13.996 0.557164 13.4322 0.285531 12.773C0.0138991 12.1138 -0.0561447 11.3889 0.0842584 10.6899C0.224661 9.99087 0.569205 9.3492 1.07431 8.84603C1.57942 8.34285 2.2224 8.00078 2.92194 7.86306C3.62147 7.72534 4.34614 7.79816 5.00428 8.07232C5.66243 8.34648 6.22448 8.80966 6.61937 9.40327C7.01426 9.99689 7.22423 10.6943 7.22274 11.4072C7.21843 12.3623 6.83618 13.2768 6.15955 13.9508C5.48293 14.6248 4.56698 15.0036 3.61192 15.0042V15.0042Z" fill="#537FFF"/>
<path d="M3.61835 7.21183C2.9054 7.21084 2.20876 6.99852 1.61645 6.6017C1.02414 6.20489 0.562758 5.6414 0.290614 4.98244C0.0184707 4.32348 -0.0522196 3.59863 0.087478 2.8995C0.227176 2.20038 0.57099 1.55836 1.07547 1.05458C1.57995 0.550807 2.22245 0.207887 2.92177 0.0691632C3.62108 -0.0695602 4.34583 0.00213959 5.00441 0.275201C5.66299 0.548262 6.22584 1.01043 6.62183 1.60329C7.01782 2.19615 7.22917 2.89309 7.22917 3.60604C7.22684 4.56251 6.84551 5.47907 6.16871 6.15492C5.49191 6.83078 4.57482 7.21084 3.61835 7.21183V7.21183Z" fill="#537FFF"/>
<path d="M98.4988 21.374C98.7502 21.5298 98.9751 21.6756 99.2064 21.8151C100.482 22.6016 101.886 23.158 103.354 23.459C104.312 23.6418 105.29 23.6934 106.262 23.6123C106.794 23.59 107.32 23.487 107.822 23.3069C108.94 22.8658 109.574 22.0212 109.777 20.8587C109.836 20.3999 109.871 19.9385 109.883 19.4762C109.881 19.4378 109.877 19.3996 109.87 19.3618C109.745 19.4699 109.637 19.5629 109.527 19.6521C108.607 20.4048 107.488 20.875 106.306 21.0057C104.858 21.1741 103.444 21.0396 102.1 20.4489C100.561 19.7728 99.5507 18.6002 98.9802 17.0367C98.6335 16.069 98.4579 15.0483 98.4611 14.0203C98.4498 11.5067 98.451 8.9931 98.4473 6.47947C98.4473 6.25073 98.4473 6.25073 98.6672 6.25073H104.105C104.105 6.32991 104.115 6.40155 104.115 6.47444C104.115 8.57207 104.115 10.6709 104.115 12.7698C104.115 13.4736 104.183 14.1724 104.46 14.8335C104.829 15.7133 105.507 16.167 106.448 16.2562C107.076 16.3342 107.712 16.2194 108.273 15.9269C109.038 15.5134 109.457 14.8335 109.686 14.0203C109.818 13.5428 109.884 13.0492 109.88 12.5536C109.88 10.5302 109.88 8.50629 109.88 6.48199V6.2633H115.554V6.43548C115.554 10.7551 115.568 15.0748 115.542 19.3945C115.534 21.0434 115.218 22.6408 114.402 24.1038C113.506 25.71 112.14 26.7519 110.431 27.3576C109.499 27.675 108.53 27.871 107.548 27.9408C106.464 28.029 105.375 28.0147 104.294 27.8981C102.67 27.7322 101.095 27.3664 99.6211 26.6413C99.268 26.4678 98.9324 26.2642 98.5956 26.0556C98.5654 26.0338 98.5401 26.0058 98.5215 25.9735C98.5028 25.9413 98.4913 25.9054 98.4875 25.8683C98.4875 24.3979 98.4875 22.9286 98.4875 21.4582C98.4837 21.4406 98.4875 21.4205 98.4988 21.374Z" fill="#537FFF"/>
<path d="M83.4773 6.28325V7.82787C83.5036 7.81109 83.5284 7.79218 83.5515 7.77132C84.3269 6.89155 85.3186 6.37877 86.4585 6.1626C88.1037 5.85091 89.7262 5.94391 91.2859 6.58991C93.5557 7.52875 94.9923 9.22922 95.6848 11.5581C96.0237 12.7413 96.1342 13.9783 96.0103 15.2029C95.8846 16.6985 95.4384 18.0935 94.5675 19.3227C93.3974 20.9804 91.8025 21.9834 89.8117 22.3692C88.5133 22.6417 87.1667 22.5768 85.9005 22.1807C85.1494 21.9384 84.4623 21.5308 83.8896 20.988L83.74 20.8497V27.9934H78.3621C78.1384 27.9934 78.1309 28.0487 78.1309 27.7597V8.60584C78.1309 7.897 78.1309 7.18941 78.1309 6.48057C78.1309 6.3285 78.161 6.26943 78.3307 6.26943C79.9834 6.27697 81.6361 6.26943 83.2876 6.26943C83.3429 6.27445 83.3994 6.27948 83.4773 6.28325ZM90.4187 14.269C90.3898 13.9787 90.376 13.6859 90.3295 13.3981C90.2038 12.6515 89.9323 11.9728 89.3982 11.4236C88.6114 10.6142 87.6387 10.3402 86.5389 10.4823C85.3563 10.6369 84.5142 11.2791 84.0253 12.3587C83.5942 13.3113 83.5477 14.3118 83.7513 15.3273C83.878 16.0571 84.2373 16.7264 84.7756 17.2351C85.4618 17.8635 86.2838 18.1237 87.2113 18.0747C88.3249 18.0156 89.1984 17.5317 89.7991 16.5853C90.2453 15.884 90.3986 15.0948 90.4187 14.269Z" fill="#537FFF"/>
<path d="M63.1672 6.27471V7.82436C63.1939 7.81004 63.2191 7.79321 63.2426 7.77409C64.0181 6.88804 65.0022 6.37903 66.1484 6.16412C67.8551 5.84112 69.533 5.95171 71.1379 6.65679C73.4002 7.65344 74.8179 9.40167 75.4362 11.772C75.9691 13.8181 75.8975 15.8629 75.0768 17.8273C74.0324 20.3297 72.1409 21.8491 69.4789 22.3757C68.0971 22.6732 66.6593 22.5739 65.3314 22.0892C64.6765 21.8427 64.078 21.4665 63.5719 20.9832C63.5355 20.948 63.4965 20.9166 63.4286 20.8575V27.9962H58.0746C57.8232 27.9962 57.8232 28.0528 57.8232 27.7448V6.50094C57.8232 6.27472 57.8232 6.27471 58.0495 6.27471H63.1672V6.27471ZM70.096 14.1688C70.0885 14.0494 70.0772 13.8206 70.0545 13.5931C70.0408 13.4664 70.0202 13.3406 69.993 13.2161C69.6222 11.4063 68.2523 10.4033 66.6524 10.4511C65.2824 10.4913 64.2883 11.121 63.7152 12.3665C63.3067 13.2538 63.2539 14.1939 63.4098 15.1478C63.5088 15.8873 63.8382 16.5768 64.3511 17.1185C65.0474 17.8324 65.9108 18.1239 66.8974 18.0749C68.0286 18.0196 68.9083 17.5244 69.5053 16.5668C69.9402 15.868 70.0885 15.09 70.096 14.1688Z" fill="#537FFF"/>
<path d="M39.3327 5.11759C38.9862 4.84154 38.5879 4.63769 38.1613 4.51809C37.7198 4.39014 37.2535 4.37331 36.804 4.46908C36.5383 4.52137 36.2911 4.64228 36.0867 4.81977C35.8823 4.99726 35.7279 5.22516 35.6389 5.48081C35.468 5.93327 35.4529 6.40457 35.4768 6.90352H39.3301V11.1415H35.6163V22.2781C35.6163 22.576 35.6163 22.5207 35.3787 22.5207H29.9568C29.9568 22.439 29.9468 22.3673 29.9468 22.2957V11.4771C29.9436 11.4239 29.9436 11.3706 29.9468 11.3175C29.9606 11.1918 29.9141 11.1402 29.7784 11.1428C29.3196 11.1503 28.8609 11.1428 28.4034 11.1428H27.5928V6.90729H27.77C28.4361 6.90729 29.1035 6.90729 29.7696 6.90729C29.9129 6.90729 29.9506 6.86331 29.948 6.72506C29.9131 5.84605 30.0282 4.96751 30.2886 4.12723C30.9095 2.22692 32.2028 1.01284 34.093 0.415858C35.0897 0.121813 36.1298 0.00274783 37.1672 0.0639496C37.8462 0.0889628 38.5205 0.188 39.1781 0.359301C39.2698 0.384438 39.3339 0.40706 39.3339 0.532741C39.3276 2.0296 39.3339 3.52647 39.3339 5.02333C39.3389 5.04847 39.3352 5.07361 39.3327 5.11759Z" fill="#537FFF"/>
<path d="M41.7266 22.4686V0.269531H41.9088C43.6683 0.269531 45.4279 0.269531 47.1874 0.269531C47.3533 0.269531 47.391 0.318547 47.391 0.475648C47.391 7.74003 47.391 15.0044 47.391 22.2688C47.391 22.4221 47.3609 22.4774 47.1899 22.4762C45.4304 22.4699 43.6709 22.4762 41.9113 22.4762L41.7266 22.4686Z" fill="#537FFF"/>
<path d="M49.7863 7.33057C51.6165 7.95644 53.6029 7.95644 55.4331 7.33057C55.4331 7.411 55.4444 7.47384 55.4444 7.53543C55.4444 12.4471 55.4444 17.3578 55.4444 22.2678C55.4444 22.4211 55.4155 22.4764 55.2446 22.4752C53.4851 22.4689 51.7255 22.4752 49.966 22.4752H49.7812L49.7863 7.33057Z" fill="#537FFF"/>
<path d="M55.4433 2.91643C55.4453 3.29324 55.3723 3.66667 55.2284 4.01495C55.0846 4.36323 54.8728 4.67937 54.6055 4.94493C54.3382 5.2105 54.0207 5.42017 53.6714 5.56171C53.3222 5.70324 52.9483 5.77382 52.5715 5.76931C52.1947 5.76481 51.8226 5.68531 51.4769 5.53546C51.1312 5.38561 50.8187 5.16841 50.5578 4.89652C50.2969 4.62464 50.0928 4.30352 49.9573 3.9519C49.8219 3.60029 49.7578 3.22521 49.7688 2.84856C49.7906 2.10474 50.1036 1.39923 50.6406 0.884002C51.1775 0.368774 51.8953 0.0850538 52.6394 0.0939532C53.3835 0.102853 54.0943 0.40366 54.6188 0.931583C55.1432 1.4595 55.4393 2.1723 55.4433 2.91643V2.91643Z" fill="#537FFF"/>
</svg>
