<svg width="166" height="40" viewBox="0 0 166 40" fill="none" xmlns="http://www.w3.org/2000/svg">
<path d="M21.876 10.3027C20.025 10.3027 18.1757 10.3188 16.3247 10.3027C14.4323 10.2829 12.9457 9.46783 11.9385 7.86993C10.0067 4.79622 11.8218 0.722475 15.3928 0.0797248C15.7155 0.024729 16.0423 -0.00170491 16.3695 0.000728556C20.0465 0.000728556 23.7241 0.000728556 27.4022 0.000728556C28.5925 -0.0193279 29.7527 0.375264 30.684 1.11687C31.6153 1.85847 32.2596 2.90091 32.5065 4.0655C33.1367 6.78192 31.3198 9.63121 28.5836 10.1788C28.1964 10.2568 27.8025 10.2965 27.4076 10.2973C25.5601 10.3027 23.7181 10.3027 21.876 10.3027Z" fill="white"/>
<path d="M0 27.4241C0.00052236 26.1837 0.450694 24.9855 1.26709 24.0515C2.08349 23.1176 3.21076 22.5113 4.44 22.345C4.96605 22.2731 5.50287 22.2857 6.02892 22.2121C7.21496 22.0446 8.32255 21.5221 9.20603 20.7133C10.0895 19.9045 10.7075 18.8472 10.9788 17.6805C11.0896 17.215 11.1498 16.7388 11.1584 16.2604C11.1637 15.2694 11.4543 14.301 11.9956 13.4709C12.5368 12.6407 13.3057 11.9841 14.2103 11.5795C15.1148 11.1748 16.1169 11.0394 17.0964 11.1892C18.076 11.339 18.9917 11.7679 19.7339 12.4244C20.4762 13.081 21.0136 13.9375 21.2819 14.8914C21.5502 15.8454 21.5381 16.8564 21.2469 17.8036C20.9557 18.7509 20.3979 19.5942 19.6401 20.2327C18.8822 20.8712 17.9565 21.2779 16.9736 21.4042C16.4996 21.467 16.0149 21.4401 15.5373 21.5047C13.5965 21.7704 12.1261 22.7615 11.1242 24.4402C10.5973 25.3187 10.3198 26.3243 10.3217 27.3487C10.3073 29.8246 8.75612 31.8372 6.40416 32.4386C3.47229 33.1927 0.45603 31.1657 0.0628398 28.171C0.0323181 27.9232 0.0215447 27.6737 0 27.4241Z" fill="white"/>
<path d="M5.15875 21.4341C4.14026 21.4323 3.14518 21.1285 2.29935 20.5612C1.45352 19.9938 0.794947 19.1884 0.406913 18.2467C0.0188793 17.305 -0.0811802 16.2694 0.119389 15.2709C0.319959 14.2724 0.812148 13.3557 1.53371 12.6369C2.25527 11.9181 3.17378 11.4295 4.17309 11.2327C5.17239 11.036 6.2076 11.14 7.14778 11.5317C8.08795 11.9233 8.89087 12.585 9.45497 13.433C10.0191 14.281 10.319 15.2772 10.3169 16.2957C10.3107 17.66 9.76468 18.9664 8.79811 19.9292C7.83154 20.8921 6.52308 21.4332 5.15875 21.4341Z" fill="white"/>
<path d="M5.16821 10.302C4.14975 10.3005 3.15457 9.99723 2.30844 9.43037C1.46231 8.86351 0.803218 8.05854 0.414454 7.1172C0.0256891 6.17586 -0.0752939 5.14039 0.124268 4.14167C0.32383 3.14296 0.814978 2.22581 1.53564 1.50615C2.2563 0.786494 3.17413 0.296623 4.17313 0.0984528C5.17212 -0.0997175 6.20745 0.0027077 7.14825 0.392783C8.08905 0.782859 8.8931 1.44308 9.45878 2.28999C10.0245 3.13691 10.3264 4.13251 10.3264 5.15098C10.3231 6.51732 9.77831 7.82665 8.81148 8.79213C7.84465 9.75761 6.53456 10.3005 5.16821 10.302Z" fill="white"/>
<path d="M140.708 30.5346C141.067 30.7572 141.389 30.9655 141.719 31.1648C143.541 32.2883 145.547 33.0831 147.644 33.5132C149.012 33.7743 150.41 33.848 151.799 33.7322C152.559 33.7002 153.31 33.5531 154.027 33.2959C155.624 32.6657 156.529 31.4592 156.82 29.7985C156.904 29.1432 156.954 28.484 156.971 27.8236C156.968 27.7688 156.962 27.7142 156.953 27.6602C156.774 27.8146 156.619 27.9474 156.463 28.0749C155.148 29.1502 153.55 29.8218 151.861 30.0086C149.793 30.2491 147.773 30.057 145.852 29.2132C143.655 28.2473 142.211 26.5722 141.396 24.3387C140.901 22.9563 140.65 21.4982 140.655 20.0298C140.638 16.439 140.64 12.8482 140.635 9.25742C140.635 8.93066 140.635 8.93066 140.949 8.93066H148.718C148.718 9.04377 148.732 9.14611 148.732 9.25024C148.732 12.2468 148.732 15.2451 148.732 18.2434C148.732 19.2488 148.829 20.247 149.224 21.1914C149.752 22.4482 150.719 23.0963 152.064 23.2238C152.961 23.3352 153.87 23.1711 154.671 22.7534C155.765 22.1627 156.362 21.1914 156.689 20.0298C156.878 19.3476 156.972 18.6425 156.967 17.9345C156.967 15.044 156.967 12.1528 156.967 9.26102V8.94862H165.072V9.19459C165.072 15.3653 165.092 21.5361 165.056 27.7069C165.043 30.0624 164.592 32.3444 163.427 34.4342C162.147 36.7287 160.196 38.2171 157.754 39.0825C156.422 39.5359 155.038 39.8158 153.635 39.9155C152.087 40.0416 150.531 40.0211 148.987 39.8545C146.667 39.6175 144.418 39.095 142.312 38.0591C141.807 37.8113 141.328 37.5205 140.847 37.2224C140.803 37.1913 140.767 37.1513 140.741 37.1052C140.714 37.0591 140.698 37.0079 140.692 36.9549C140.692 34.8543 140.692 32.7555 140.692 30.6549C140.687 30.6298 140.692 30.601 140.708 30.5346Z" fill="white"/>
<path d="M119.25 8.97718V11.1837C119.287 11.1597 119.323 11.1327 119.356 11.1029C120.464 9.84615 121.88 9.11363 123.509 8.80482C125.859 8.35956 128.177 8.49242 130.405 9.41525C133.647 10.7564 135.699 13.1856 136.689 16.5124C137.173 18.2027 137.331 19.9697 137.154 21.7191C136.974 23.8556 136.337 25.8485 135.092 27.6044C133.421 29.9725 131.143 31.4052 128.299 31.9564C126.444 32.3457 124.52 32.253 122.711 31.6871C121.639 31.341 120.657 30.7588 119.839 29.9833L119.625 29.7858V39.9908H111.943C111.623 39.9908 111.612 40.0698 111.612 39.6568V12.2951C111.612 11.2825 111.612 10.2717 111.612 9.25905C111.612 9.04181 111.655 8.95743 111.898 8.95743C114.259 8.9682 116.62 8.95743 118.979 8.95743C119.058 8.96461 119.139 8.97179 119.25 8.97718ZM129.166 20.3851C129.125 19.9704 129.105 19.552 129.038 19.1409C128.859 18.0744 128.471 17.1049 127.708 16.3203C126.584 15.1641 125.194 14.7727 123.623 14.9756C121.934 15.1964 120.731 16.1139 120.033 17.6561C119.417 19.017 119.35 20.4461 119.641 21.8968C119.822 22.9394 120.335 23.8954 121.105 24.6222C122.085 25.5199 123.259 25.8916 124.584 25.8215C126.175 25.7372 127.423 25.0459 128.281 23.694C128.918 22.6922 129.137 21.5647 129.166 20.3851Z" fill="white"/>
<path d="M90.2356 8.96456V11.1783C90.2737 11.1578 90.3098 11.1338 90.3433 11.1065C91.4511 9.84072 92.8569 9.11358 94.4943 8.80657C96.9324 8.34516 99.3292 8.50315 101.622 9.51036C104.854 10.9341 106.879 13.4315 107.762 16.8176C108.523 19.7405 108.421 22.6616 107.249 25.4678C105.757 29.0424 103.055 31.2131 99.252 31.9653C97.278 32.3902 95.2241 32.2483 93.3272 31.556C92.3916 31.2038 91.5367 30.6664 90.8137 29.976C90.7616 29.9258 90.706 29.8809 90.609 29.7965V39.9943H82.9606C82.6016 39.9943 82.6016 40.0751 82.6016 39.6352V9.28773C82.6016 8.96456 82.6016 8.96456 82.9247 8.96456H90.2356ZM100.134 20.2414C100.123 20.0709 100.107 19.7441 100.074 19.4191C100.055 19.2381 100.025 19.0584 99.9864 18.8805C99.4567 16.2951 97.4997 14.8624 95.2142 14.9307C93.2572 14.9881 91.8371 15.8876 91.0184 17.6668C90.4349 18.9344 90.3595 20.2773 90.5821 21.64C90.7235 22.6964 91.194 23.6813 91.9268 24.4552C92.9215 25.475 94.1549 25.8915 95.5643 25.8215C97.1802 25.7425 98.4369 25.0351 99.2897 23.667C99.9109 22.6688 100.123 21.5574 100.134 20.2414Z" fill="white"/>
<path d="M56.1877 7.31188C55.6928 6.91753 55.1238 6.62633 54.5144 6.45548C53.8837 6.2727 53.2176 6.24865 52.5754 6.38546C52.196 6.46016 51.8427 6.63288 51.5507 6.88643C51.2588 7.13998 51.0382 7.46555 50.9111 7.83075C50.6669 8.47709 50.6454 9.15036 50.6795 9.86313H56.1841V15.9172H50.8788V31.8262C50.8788 32.2517 50.8788 32.1727 50.5394 32.1727H42.7941C42.7941 32.056 42.7798 31.9536 42.7798 31.8513V16.3966C42.7753 16.3206 42.7753 16.2445 42.7798 16.1685C42.7995 15.989 42.7331 15.9154 42.5392 15.919C41.8839 15.9298 41.2285 15.919 40.575 15.919H39.417V9.86852H39.6701C40.6217 9.86852 41.5751 9.86852 42.5266 9.86852C42.7313 9.86852 42.7851 9.80568 42.7816 9.60819C42.7316 8.3525 42.8961 7.09748 43.2681 5.89711C44.155 3.18248 46.0025 1.44813 48.7028 0.595322C50.1266 0.175271 51.6124 0.00518305 53.0943 0.0926115C54.0643 0.128344 55.0276 0.269821 55.9669 0.51453C56.098 0.550437 56.1895 0.582754 56.1895 0.762293C56.1805 2.9006 56.1895 5.03892 56.1895 7.17723C56.1967 7.21314 56.1913 7.24904 56.1877 7.31188Z" fill="white"/>
<path d="M59.6084 32.0987V0.386719H59.8687C62.3823 0.386719 64.8958 0.386719 67.4094 0.386719C67.6464 0.386719 67.7002 0.456739 67.7002 0.681163C67.7002 11.0585 67.7002 21.4359 67.7002 31.8133C67.7002 32.0323 67.6571 32.1113 67.413 32.1095C64.8994 32.1005 62.3859 32.1095 59.8723 32.1095L59.6084 32.0987Z" fill="white"/>
<path d="M71.1214 10.4727C73.736 11.3667 76.5736 11.3667 79.1881 10.4727C79.1881 10.5876 79.2043 10.6773 79.2043 10.7653C79.2043 17.7817 79.2043 24.7969 79.2043 31.8109C79.2043 32.0299 79.163 32.1089 78.9188 32.1071C76.4053 32.0981 73.8917 32.1071 71.3782 32.1071H71.1143L71.1214 10.4727Z" fill="white"/>
<path d="M79.2026 4.16704C79.2055 4.70532 79.1012 5.23878 78.8957 5.73631C78.6902 6.23383 78.3877 6.68545 78.0058 7.06481C77.624 7.44418 77.1704 7.7437 76.6715 7.94589C76.1726 8.14808 75.6385 8.2489 75.1002 8.24247C74.562 8.23603 74.0304 8.12246 73.5365 7.9084C73.0426 7.69433 72.5963 7.38405 72.2236 6.99566C71.8509 6.60727 71.5593 6.14854 71.3658 5.64625C71.1723 5.14395 71.0807 4.60815 71.0965 4.07009C71.1276 3.00752 71.5748 1.99968 72.3418 1.26366C73.1088 0.527645 74.1342 0.122343 75.1972 0.135056C76.2601 0.147769 77.2756 0.577481 78.0248 1.33163C78.774 2.08578 79.1969 3.10403 79.2026 4.16704Z" fill="white"/>
</svg>
