<svg width="385" height="240" viewBox="0 0 385 240" fill="none" xmlns="http://www.w3.org/2000/svg">
<mask id="mask0_97_419" style="mask-type:alpha" maskUnits="userSpaceOnUse" x="0" y="0" width="385" height="240">
<rect width="385" height="240" rx="16" fill="#EC6967"/>
</mask>
<g mask="url(#mask0_97_419)">
<rect y="-1" width="385" height="240" rx="16" fill="#4D55CA"/>
<path opacity="0.1" d="M238.142 76.1207C236.061 76.1207 234.119 76.5369 232.315 77.2305C230.512 67.9361 222.189 61 212.339 61C201.658 61 192.779 69.3233 191.947 79.8662C190.005 78.7564 187.647 78.2016 185.288 78.2016C177.659 78.2016 171.555 84.1666 171 91.5189H194.583H199.577H222.743H230.096H253.54C253.54 83.0568 246.604 76.1207 238.142 76.1207Z" fill="#F2F2F2"/>
<path opacity="0.1" d="M4.11111 53.9291C7.33333 53.9291 10.2222 55.5177 12.1111 57.9007C14.5556 54.2695 18.5556 52 23.2222 52C28.6667 52 33.3333 55.2908 35.4444 60.0567C35.8889 60.0567 36.2222 59.9433 36.6667 59.9433C41.3333 59.9433 45.2222 63.461 46 68H36.5556H27.4444H13.6667H10H-5.33333C-5.77778 66.8652 -6 65.617 -6 64.2553C-6 58.5816 -1.44444 53.9291 4.11111 53.9291Z" fill="white"/>
<path d="M151.075 220.171V240.635H198.191V239.81C198.191 229 189.362 220.171 178.553 220.171H151.075Z" fill="#6D75E7"/>
<path d="M5.00002 173.827V191.816H83.1416C83.1416 186.37 82.0689 181.171 80.1711 176.385C74.065 161.285 59.2948 150.641 42.0492 150.641C25.7938 150.723 11.6837 160.13 5.00002 173.827Z" fill="#FF9493"/>
<path d="M-0.99958 172.643V228.67C-0.99958 229.413 -0.917076 230.238 -0.752045 230.981C-0.587021 231.806 -0.339478 232.548 -0.0094223 233.374C1.7234 237.582 5.76664 240.552 10.5525 240.8C10.635 240.8 10.8 240.8 10.8826 240.8H114.439C117.244 236.757 118.895 231.888 118.895 226.607C118.895 220.501 117.822 214.56 115.924 209.114C113.201 201.275 108.745 194.344 103.052 188.568C102.227 187.743 101.319 186.918 100.411 186.093C93.1499 179.656 84.0732 175.201 74.1715 173.55C71.2009 173.055 68.1479 172.725 65.0123 172.725H0.733208C0.155609 172.643 -0.421982 172.643 -0.99958 172.643Z" fill="#D9D4A6"/>
<path d="M97.9353 195.004V229.165C97.9353 233.621 99.5856 237.664 102.309 240.718H170.796V195.004C170.796 185.268 162.792 177.346 153.138 177.346H115.676C109.24 177.346 103.546 180.812 100.493 186.093C98.8429 188.651 97.9353 191.704 97.9353 195.004Z" fill="#F9E272"/>
<path d="M-0.999695 208.207V228.67C-0.999695 229.495 -0.917191 230.238 -0.752167 230.981C-0.587128 231.806 -0.339584 232.548 -0.00952148 233.374C1.72328 237.582 5.76653 240.552 10.5524 240.8C10.6349 240.8 10.7999 240.8 10.8824 240.8H142.906C142.081 225.205 130.777 212.332 115.924 209.114C113.531 208.619 111.138 208.289 108.58 208.289H-0.999695V208.207Z" fill="#89D499"/>
<path d="M63.4443 154.985L40.1751 146.238C34.1516 143.597 32.4187 135.924 33.8215 130.643L41.1653 101.762C42.4856 96.4815 47.9315 93.2634 53.2125 94.5836L106.765 106.878L63.4443 154.985Z" fill="#6D75E7"/>
<path d="M18.8037 121.153L41.4953 129.157C42.4029 129.487 43.3931 128.992 43.5581 128.167L47.3538 113.314C47.6013 112.489 46.9412 111.582 46.0336 111.417L22.3518 107.456C20.784 107.043 19.2162 107.951 18.8037 109.354L16.6583 117.77C16.2457 119.256 17.2359 120.823 18.8037 121.153Z" fill="white"/>
<path d="M73.429 99.8646L113.531 108.364C114.026 108.446 116.419 109.106 118.977 109.766C121.535 110.426 123.928 111.087 124.423 111.169L163.7 122.969C168.734 124.454 171.704 129.652 170.384 134.768L161.472 169.672C160.235 174.541 155.531 177.594 150.663 176.933L124.671 173.22C119.967 172.56 115.677 170.25 112.624 166.702L111.881 165.876C110.231 163.979 108.168 162.741 105.857 162.163C105.775 162.163 105.692 162.163 105.61 162.081C105.527 162.081 105.445 162.081 105.362 161.998C103.052 161.421 100.576 161.503 98.2659 162.328L97.2758 162.741C92.82 164.391 87.9516 164.309 83.4958 162.658L58.9063 153.417C54.203 151.684 51.645 146.651 52.8828 141.865L61.7944 106.961C63.2796 101.845 68.313 98.7094 73.429 99.8646Z" fill="white"/>
<g opacity="0.8">
<g opacity="0.8">
<path opacity="0.8" d="M76.1522 104.65L113.201 112.654C113.614 112.737 115.924 113.315 118.235 113.892C120.628 114.47 122.856 115.047 123.268 115.212L159.657 126.022C164.278 127.342 167.084 131.88 166.011 136.254L158.337 166.289C157.264 170.415 153.056 173.055 148.435 172.395L124.506 168.765C120.215 168.104 116.172 166.042 113.284 162.906L112.624 162.163C111.056 160.513 109.158 159.44 107.013 158.863C106.93 158.863 106.848 158.863 106.848 158.78C106.765 158.78 106.683 158.78 106.683 158.698C104.537 158.12 102.309 158.203 100.164 158.863L99.2564 159.193C95.2132 160.513 90.6749 160.431 86.6316 158.945L63.8575 150.611C59.5667 149.043 57.0913 144.67 58.0815 140.544L65.7554 110.509C66.8281 106.218 71.4489 103.578 76.1522 104.65Z" fill="#5A63E6"/>
</g>
</g>
<path d="M109.736 121.896L122.443 125.114C123.516 125.362 124.671 124.949 125.248 123.959L130.529 115.377C131.354 112.159 129.869 108.611 127.724 108.034L112.294 104.073C110.313 103.578 108.085 105.393 107.178 108.199C107.095 108.529 107.013 108.941 107.013 109.354L107.755 119.586C107.838 120.741 108.663 121.649 109.736 121.896Z" fill="white"/>
<path opacity="0.1" d="M355.141 235.155L355.141 229.29L375.915 222.625L355.141 215.96L355.141 210.095L385 220.246L385 225.004L355.141 235.155ZM355.141 238.724L355.141 232.653L378.027 231.525L385 231.525L385 238.724L355.141 238.724ZM355.141 212.597L355.141 206.506L385 206.506L385 213.725L378.027 213.725L355.141 212.597ZM379.463 181.343L385 181.343L385 197.257L379.463 197.257L379.463 181.343ZM355.141 194.693L385 194.693L385 201.892L355.141 201.892L355.141 194.693ZM366.994 183.394L372.347 183.394L372.347 197.257L366.994 197.257L366.994 183.394ZM355.141 181.281L360.698 181.281L360.698 197.257L355.141 197.257L355.141 181.281ZM355.141 163.521L385 163.521L385 170.72L355.141 170.72L355.141 163.521ZM355.141 154.539L360.698 154.539L360.698 179.497L355.141 179.497L355.141 154.539ZM361.416 141.332L385 148.612L385 156.344L355.141 145.372L355.141 140.471L361.416 141.332ZM385 135.303L361.416 142.604L355.141 143.547L355.141 138.584L385 127.551L385 135.303ZM373.864 135.59L379.422 135.59L379.422 150.909L373.864 150.909L373.864 135.59ZM377.966 115.656L355.141 109.442L355.141 101.383L385 111.452L385 116.661L377.966 115.656ZM355.141 121.296L377.966 115.082L385 114.036L385 119.307L355.141 129.314L355.141 121.296ZM379.463 78.6396L385 78.6396L385 94.5537L379.463 94.5537L379.463 78.6396ZM355.141 91.9902L385 91.9902L385 99.1885L355.141 99.1885L355.141 91.9902ZM366.994 80.6904L372.347 80.6904L372.347 94.5537L366.994 94.5537L366.994 80.6904ZM355.141 78.5781L360.698 78.5781L360.698 94.5537L355.141 94.5537L355.141 78.5781ZM355.141 75.6865L355.141 63.9355C355.141 61.6387 355.482 59.6426 356.166 57.9473C356.85 56.252 357.861 54.9463 359.201 54.0303C360.541 53.1006 362.195 52.6357 364.164 52.6357C365.873 52.6357 367.302 52.9023 368.45 53.4355C369.599 53.9687 370.549 54.7139 371.301 55.6709C372.039 56.6143 372.647 57.7148 373.126 58.9727L374.459 61.3311L374.459 71.1953L368.901 71.2363L368.901 63.9355C368.901 63.0195 368.737 62.2607 368.409 61.6592C368.081 61.0576 367.616 60.6064 367.015 60.3057C366.399 59.9912 365.668 59.834 364.82 59.834C363.959 59.834 363.221 59.9912 362.605 60.3057C361.99 60.6201 361.519 61.085 361.19 61.7002C360.862 62.3018 360.698 63.0469 360.698 63.9355L360.698 68.4883L385 68.4883L385 75.6865L355.141 75.6865ZM385 59.3418L371.793 65.9453L371.752 58.3164L384.692 51.6309L385 51.6309L385 59.3418ZM377.063 32.9072C376.599 32.9072 376.182 32.9756 375.812 33.1123C375.43 33.249 375.074 33.502 374.746 33.8711C374.418 34.2402 374.09 34.7734 373.762 35.4707C373.42 36.1543 373.064 37.0566 372.695 38.1777C372.258 39.4902 371.766 40.7549 371.219 41.9717C370.658 43.1885 370.009 44.2754 369.27 45.2324C368.519 46.1895 367.644 46.9482 366.645 47.5088C365.634 48.0693 364.458 48.3496 363.118 48.3496C361.833 48.3496 360.678 48.0625 359.652 47.4883C358.613 46.9141 357.731 46.1143 357.007 45.0889C356.269 44.0498 355.708 42.833 355.325 41.4385C354.929 40.0439 354.73 38.5195 354.73 36.8652C354.73 34.6777 355.113 32.75 355.879 31.082C356.631 29.4004 357.704 28.0879 359.099 27.1445C360.479 26.1875 362.113 25.709 364 25.709L364 32.8662C363.248 32.8662 362.585 33.0234 362.011 33.3379C361.437 33.6387 360.985 34.0967 360.657 34.7119C360.329 35.3271 360.165 36.0996 360.165 37.0293C360.165 37.9316 360.302 38.6904 360.575 39.3057C360.849 39.9209 361.218 40.3857 361.683 40.7002C362.134 41.0146 362.633 41.1719 363.18 41.1719C363.631 41.1719 364.041 41.0488 364.41 40.8027C364.766 40.543 365.101 40.1807 365.415 39.7158C365.729 39.2373 366.03 38.6631 366.317 37.9932C366.604 37.3096 366.885 36.5439 367.158 35.6963C367.664 34.1104 368.231 32.7021 368.86 31.4717C369.476 30.2275 370.18 29.1816 370.973 28.334C371.752 27.4727 372.641 26.8232 373.639 26.3857C374.637 25.9346 375.765 25.709 377.022 25.709C378.362 25.709 379.552 25.9687 380.591 26.4883C381.63 27.0078 382.512 27.7529 383.236 28.7236C383.947 29.6943 384.487 30.8564 384.856 32.21C385.226 33.5635 385.41 35.0742 385.41 36.7422C385.41 38.2734 385.219 39.7842 384.836 41.2744C384.439 42.751 383.838 44.0908 383.031 45.2939C382.211 46.4971 381.165 47.4609 379.894 48.1855C378.608 48.8965 377.084 49.252 375.32 49.252L375.32 42.0332C376.195 42.0332 376.934 41.917 377.535 41.6846C378.137 41.4521 378.622 41.1104 378.991 40.6592C379.347 40.208 379.606 39.6543 379.77 38.998C379.921 38.3418 379.996 37.5898 379.996 36.7422C379.996 35.8262 379.866 35.0879 379.606 34.5273C379.333 33.9668 378.978 33.5566 378.54 33.2969C378.089 33.0371 377.597 32.9072 377.063 32.9072ZM379.463 1.44824L385 1.44824L385 17.3623L379.463 17.3623L379.463 1.44824ZM355.141 14.7988L385 14.7988L385 21.9971L355.141 21.9971L355.141 14.7988ZM366.994 3.49902L372.347 3.49902L372.347 17.3623L366.994 17.3623L366.994 3.49902ZM355.141 1.38672L360.698 1.38672L360.698 17.3623L355.141 17.3623L355.141 1.38672Z" fill="white"/>
</g>
</svg>
