<svg width="1026" height="312" viewBox="0 0 1026 312" fill="none" xmlns="http://www.w3.org/2000/svg">
<mask id="mask0_1_246" style="mask-type:alpha" maskUnits="userSpaceOnUse" x="0" y="0" width="1026" height="312">
<rect width="1026" height="312" rx="40" fill="#EEEAFF"/>
</mask>
<g mask="url(#mask0_1_246)">
<rect width="1026" height="312" rx="40" fill="#EFEBFF"/>
<mask id="mask1_1_246" style="mask-type:alpha" maskUnits="userSpaceOnUse" x="80" y="249" width="79" height="79">
<path d="M158.6 288.3C158.6 309.966 141.046 327.6 119.3 327.6C97.6336 327.6 80 310.046 80 288.3C80 266.555 97.6336 249 119.3 249C141.046 249 158.6 266.555 158.6 288.3Z" fill="#FEDE8C"/>
</mask>
<g mask="url(#mask1_1_246)">
<path d="M158.6 288.3C158.6 309.966 141.046 327.6 119.3 327.6C97.6336 327.6 80 310.046 80 288.3C80 266.555 97.6336 249 119.3 249C141.046 249 158.6 266.555 158.6 288.3Z" fill="#FFC839"/>
<g opacity="0.5">
<path d="M32.2391 333.26L43.6094 332.617L128.887 247.339L117.516 247.983L32.2391 333.26Z" fill="white"/>
<path d="M51.3325 333.26L62.7028 332.617L148.087 247.339L136.717 247.983L51.3325 333.26Z" fill="white"/>
<path d="M71.9277 333.26L83.298 332.617L168.575 247.339L157.205 247.983L71.9277 333.26Z" fill="white"/>
<path d="M89.3052 335.191L100.676 334.548L185.953 249.163L174.69 249.914L89.3052 335.191Z" fill="white"/>
<path d="M108.506 335.191L119.876 334.548L205.153 249.163L193.783 249.914L108.506 335.191Z" fill="white"/>
<path d="M128.994 335.191L140.365 334.548L225.642 249.163L214.379 249.914L128.994 335.191Z" fill="white"/>
</g>
</g>
<path d="M918.345 311.771H1033.18V213.961H968.845C953.738 213.961 940.19 220.557 930.97 231.055C947.638 236.374 959.696 251.979 959.696 270.42C959.696 293.259 941.183 311.771 918.345 311.771Z" fill="#A7D3B0"/>
<mask id="mask2_1_246" style="mask-type:alpha" maskUnits="userSpaceOnUse" x="896" y="212" width="165" height="114">
<g opacity="0.8">
<path d="M987.35 215.079C994.708 218.158 1001.68 222.199 1008.26 226.626C1015.23 231.437 1021.81 237.018 1027.82 242.984C1033.82 248.95 1039.43 255.493 1044.08 262.614C1048.53 269.157 1052.41 276.277 1055.31 283.975C1056.67 287.44 1057.63 291.096 1058.41 294.753C1059.18 298.217 1059.38 301.681 1058.79 305.145C1057.83 311.303 1054.15 316.884 1049.11 320.541C1044.08 324.197 1037.69 325.929 1031.69 325.16C1028.4 324.775 1025.3 323.62 1022.39 321.888C1020.07 320.541 1017.94 318.616 1015.62 317.077C1012.33 314.382 1009.04 311.496 1005.55 308.801C1002.26 306.3 998.967 304.183 995.095 302.835C990.448 301.103 985.414 300.334 980.38 300.141C972.829 299.756 965.084 300.719 957.533 301.681C953.274 302.258 949.014 303.22 944.561 303.22C940.689 303.22 936.816 302.835 932.944 302.066C925.587 300.334 918.423 296.87 912.808 291.866C906.999 286.862 902.546 280.319 899.836 273.006C897.512 266.463 896.544 259.342 898.093 252.606C899.836 245.486 904.289 239.327 910.291 235.286C913.582 232.976 917.261 230.859 921.133 229.705C925.006 228.358 928.878 227.78 932.944 227.395C940.301 226.626 948.24 226.626 955.21 224.124C956.759 223.546 958.308 222.969 959.857 222.007C961.406 221.045 962.761 219.89 964.116 218.735C967.408 216.041 971.28 214.309 975.54 213.731C979.606 212.962 983.672 213.539 987.35 215.079C987.931 215.271 988.125 214.501 987.544 214.309C979.799 211.23 970.893 212.192 964.31 217.196C962.761 218.35 961.406 219.697 959.857 220.852C958.308 221.814 956.565 222.584 955.016 223.162C951.531 224.316 947.659 224.894 943.98 225.278C936.042 226.048 927.716 226.241 920.165 228.935C918.229 229.705 916.487 230.475 914.744 231.437C913.001 232.592 911.065 233.554 909.323 234.901C906.225 237.21 903.708 239.712 901.578 242.984C897.706 248.757 896.35 255.685 896.931 262.421C897.512 269.734 900.223 277.047 904.482 283.013C908.742 289.364 914.744 294.753 921.521 298.217C928.297 301.873 936.042 303.798 943.787 303.798C948.046 303.798 952.306 303.028 956.565 302.451C961.018 301.681 965.472 301.296 969.925 300.911C976.121 300.526 982.704 300.334 988.899 301.488C993.159 302.258 997.418 303.99 1001.1 306.3C1004.78 308.416 1007.87 311.303 1011.17 313.998C1012.91 315.537 1014.84 317.077 1016.78 318.424C1019.1 320.348 1021.43 322.08 1024.14 323.428C1029.95 326.314 1036.53 326.699 1042.72 324.775C1048.73 322.85 1053.76 319.001 1057.05 313.613C1058.79 310.918 1059.76 307.839 1060.34 304.567C1060.92 301.103 1060.54 297.639 1059.76 294.175C1058.21 286.477 1055.5 279.164 1051.82 272.428C1047.95 264.923 1043.11 257.995 1037.69 251.452C1032.08 244.716 1025.88 238.557 1019.1 232.976C1012.71 227.588 1005.74 222.777 998.386 218.735C995.095 216.811 991.61 215.271 988.125 213.731C987.157 214.116 986.963 214.886 987.35 215.079Z" fill="white"/>
<path d="M1037.74 295.352C1037.93 297.912 1037.93 301.063 1036.2 303.229C1034.67 304.805 1032.36 305.002 1030.44 304.805C1027.17 304.411 1024.09 303.032 1021.21 301.654C1017.36 299.882 1013.52 297.715 1009.67 295.549C1005.44 293.186 1001.21 290.626 996.985 288.263C992.756 285.703 988.526 283.34 984.105 281.174C980.26 279.205 976.223 277.235 971.993 275.857C968.725 274.675 965.072 273.691 961.612 273.888C960.266 273.888 958.728 274.085 957.382 274.675C954.883 275.66 952.384 276.251 949.693 276.645C944.694 277.432 939.504 277.038 934.698 275.266C930.853 273.691 927.392 271.131 924.701 267.783C922.394 264.829 921.048 261.088 920.856 257.346C920.664 253.604 922.009 249.863 924.316 246.909C927.392 243.167 931.814 240.804 936.428 239.426C939.696 238.441 943.156 237.85 946.617 238.047C948.924 238.244 951.423 238.638 953.73 238.638C955.652 238.638 957.767 238.441 959.689 237.85C963.534 236.866 967.187 234.7 970.071 231.746C971.993 229.777 974.3 228.004 976.992 227.02C981.798 225.247 986.988 226.232 991.41 228.398C997.177 231.352 1001.98 236.078 1006.21 241.001C1011.4 247.106 1016.02 253.604 1020.25 260.497C1024.86 267.783 1028.9 275.463 1032.93 283.143C1035.24 286.885 1037.36 290.626 1037.74 295.352C1037.74 295.943 1038.7 295.943 1038.7 295.352C1038.51 292.989 1037.93 290.823 1036.97 288.657C1036.2 286.688 1035.05 284.718 1034.09 282.749C1032.17 278.811 1030.05 274.872 1027.94 271.131C1023.71 263.648 1019.29 256.164 1014.09 249.272C1009.67 243.364 1005.06 237.457 999.292 232.73C995.063 229.186 990.064 225.838 984.489 225.247C979.106 224.657 974.108 226.823 970.263 230.564C968.725 231.943 967.187 233.321 965.457 234.503C963.727 235.684 961.612 236.472 959.689 237.063C957.575 237.654 955.46 237.85 953.345 237.85C950.846 237.654 948.347 237.457 945.655 237.26C943.925 237.26 942.003 237.457 940.273 237.85C938.735 238.047 937.197 238.441 935.851 239.032C933.352 239.82 930.853 240.804 928.738 242.38C925.277 244.546 922.394 247.894 921.048 251.832C919.895 255.377 919.895 259.315 921.24 262.86C922.586 266.601 925.085 269.949 928.161 272.509C931.814 275.463 936.043 277.235 940.657 277.826C943.349 278.22 946.04 278.22 948.731 278.023C950.269 277.826 951.615 277.629 953.153 277.235C954.499 276.841 956.037 276.645 957.382 276.054C960.266 274.872 963.534 275.069 966.418 275.463C970.455 276.251 974.3 277.826 977.953 279.401C982.374 281.371 986.604 283.734 990.833 286.097C995.255 288.657 999.676 291.217 1004.1 293.777C1008.14 296.14 1012.36 298.503 1016.4 300.669C1019.86 302.442 1023.32 304.214 1026.98 305.199C1029.47 305.986 1032.17 306.577 1034.67 305.789C1036.97 305.002 1038.13 303.032 1038.7 300.669C1039.09 299.094 1039.09 297.322 1038.89 295.746C1038.51 294.762 1037.55 294.762 1037.74 295.352Z" fill="white"/>
<path d="M1015.66 269.14C1018.93 273.914 1022.96 278.305 1024.88 283.842C1025.65 285.942 1026.23 288.615 1025.27 290.906C1024.69 292.052 1023.35 292.816 1022 292.816C1021.04 292.816 1020.27 292.243 1019.31 291.67C1013.36 287.852 1007.79 283.46 1002.41 279.069C996.46 274.296 990.699 269.14 985.897 263.031C983.977 260.358 979.752 254.439 984.361 252.148C985.513 251.575 986.858 251.384 988.202 251.193C989.162 251.193 990.122 251.002 991.083 251.193C992.811 251.384 994.347 251.957 995.884 252.529C1002.22 255.202 1007.79 259.785 1012.21 264.94C1013.74 266.276 1014.7 267.613 1015.66 269.14C1016.05 269.522 1016.82 269.14 1016.43 268.759C1012.4 263.031 1007.21 257.875 1001.07 254.248C997.996 252.338 994.732 250.811 991.083 250.429C989.354 250.238 987.434 250.429 985.897 250.811C983.785 251.384 981.864 252.529 981.48 254.63C981.096 256.921 982.441 259.403 983.593 261.121C985.513 264.176 987.818 266.658 990.314 269.331C993.387 272.386 996.46 275.25 999.725 277.923C1005.49 282.887 1011.63 287.661 1017.97 291.861C1019.51 293.007 1021.23 293.961 1023.15 293.389C1025.65 292.625 1026.42 290.143 1026.42 287.661C1026.42 284.988 1025.07 282.315 1023.92 280.023C1022.39 277.35 1020.66 274.677 1018.74 272.195C1017.97 271.05 1017.01 269.904 1016.24 268.568C1016.24 268.186 1015.47 268.568 1015.66 269.14Z" fill="white"/>
</g>
</mask>
<g mask="url(#mask2_1_246)">
<g opacity="0.3">
<path d="M987.35 215.079C994.708 218.158 1001.68 222.199 1008.26 226.626C1015.23 231.437 1021.81 237.018 1027.82 242.984C1033.82 248.95 1039.43 255.493 1044.08 262.614C1048.53 269.157 1052.41 276.277 1055.31 283.975C1056.67 287.44 1057.63 291.096 1058.41 294.753C1059.18 298.217 1059.38 301.681 1058.79 305.145C1057.83 311.303 1054.15 316.884 1049.11 320.541C1044.08 324.197 1037.69 325.929 1031.69 325.16C1028.4 324.775 1025.3 323.62 1022.39 321.888C1020.07 320.541 1017.94 318.616 1015.62 317.077C1012.33 314.382 1009.04 311.496 1005.55 308.801C1002.26 306.3 998.967 304.183 995.095 302.835C990.448 301.103 985.414 300.334 980.38 300.141C972.829 299.756 965.084 300.719 957.533 301.681C953.274 302.258 949.014 303.22 944.561 303.22C940.689 303.22 936.816 302.835 932.944 302.066C925.587 300.334 918.423 296.87 912.808 291.866C906.999 286.862 902.546 280.319 899.836 273.006C897.512 266.463 896.544 259.342 898.093 252.606C899.836 245.486 904.289 239.327 910.291 235.286C913.582 232.976 917.261 230.859 921.133 229.705C925.006 228.358 928.878 227.78 932.944 227.395C940.301 226.626 948.24 226.626 955.21 224.124C956.759 223.546 958.308 222.969 959.857 222.007C961.406 221.045 962.761 219.89 964.116 218.735C967.408 216.041 971.28 214.309 975.54 213.731C979.606 212.962 983.672 213.539 987.35 215.079C987.931 215.271 988.125 214.501 987.544 214.309C979.799 211.23 970.893 212.192 964.31 217.196C962.761 218.35 961.406 219.697 959.857 220.852C958.308 221.814 956.565 222.584 955.016 223.162C951.531 224.316 947.659 224.894 943.98 225.278C936.042 226.048 927.716 226.241 920.165 228.935C918.229 229.705 916.487 230.475 914.744 231.437C913.001 232.592 911.065 233.554 909.323 234.901C906.225 237.21 903.708 239.712 901.578 242.984C897.706 248.757 896.35 255.685 896.931 262.421C897.512 269.734 900.223 277.047 904.482 283.013C908.742 289.364 914.744 294.753 921.521 298.217C928.297 301.873 936.042 303.798 943.787 303.798C948.046 303.798 952.306 303.028 956.565 302.451C961.018 301.681 965.472 301.296 969.925 300.911C976.121 300.526 982.704 300.334 988.899 301.488C993.159 302.258 997.418 303.99 1001.1 306.3C1004.78 308.416 1007.87 311.303 1011.17 313.998C1012.91 315.537 1014.84 317.077 1016.78 318.424C1019.1 320.348 1021.43 322.08 1024.14 323.428C1029.95 326.314 1036.53 326.699 1042.72 324.775C1048.73 322.85 1053.76 319.001 1057.05 313.613C1058.79 310.918 1059.76 307.839 1060.34 304.567C1060.92 301.103 1060.54 297.639 1059.76 294.175C1058.21 286.477 1055.5 279.164 1051.82 272.428C1047.95 264.923 1043.11 257.995 1037.69 251.452C1032.08 244.716 1025.88 238.557 1019.1 232.976C1012.71 227.588 1005.74 222.777 998.386 218.735C995.095 216.811 991.61 215.271 988.125 213.731C987.157 214.116 986.963 214.886 987.35 215.079Z" fill="white"/>
<path d="M1037.74 295.352C1037.93 297.912 1037.93 301.063 1036.2 303.229C1034.67 304.805 1032.36 305.002 1030.44 304.805C1027.17 304.411 1024.09 303.032 1021.21 301.654C1017.36 299.882 1013.52 297.715 1009.67 295.549C1005.44 293.186 1001.21 290.626 996.985 288.263C992.756 285.703 988.526 283.34 984.105 281.174C980.26 279.205 976.223 277.235 971.993 275.857C968.725 274.675 965.072 273.691 961.612 273.888C960.266 273.888 958.728 274.085 957.382 274.675C954.883 275.66 952.384 276.251 949.693 276.645C944.694 277.432 939.504 277.038 934.698 275.266C930.853 273.691 927.392 271.131 924.701 267.783C922.394 264.829 921.048 261.088 920.856 257.346C920.664 253.604 922.009 249.863 924.316 246.909C927.392 243.167 931.814 240.804 936.428 239.426C939.696 238.441 943.156 237.85 946.617 238.047C948.924 238.244 951.423 238.638 953.73 238.638C955.652 238.638 957.767 238.441 959.689 237.85C963.534 236.866 967.187 234.7 970.071 231.746C971.993 229.777 974.3 228.004 976.992 227.02C981.798 225.247 986.988 226.232 991.41 228.398C997.177 231.352 1001.98 236.078 1006.21 241.001C1011.4 247.106 1016.02 253.604 1020.25 260.497C1024.86 267.783 1028.9 275.463 1032.93 283.143C1035.24 286.885 1037.36 290.626 1037.74 295.352C1037.74 295.943 1038.7 295.943 1038.7 295.352C1038.51 292.989 1037.93 290.823 1036.97 288.657C1036.2 286.688 1035.05 284.718 1034.09 282.749C1032.17 278.811 1030.05 274.872 1027.94 271.131C1023.71 263.648 1019.29 256.164 1014.09 249.272C1009.67 243.364 1005.06 237.457 999.292 232.73C995.063 229.186 990.064 225.838 984.489 225.247C979.106 224.657 974.108 226.823 970.263 230.564C968.725 231.943 967.187 233.321 965.457 234.503C963.727 235.684 961.612 236.472 959.689 237.063C957.575 237.654 955.46 237.85 953.345 237.85C950.846 237.654 948.347 237.457 945.655 237.26C943.925 237.26 942.003 237.457 940.273 237.85C938.735 238.047 937.197 238.441 935.851 239.032C933.352 239.82 930.853 240.804 928.738 242.38C925.277 244.546 922.394 247.894 921.048 251.832C919.895 255.377 919.895 259.315 921.24 262.86C922.586 266.601 925.085 269.949 928.161 272.509C931.814 275.463 936.043 277.235 940.657 277.826C943.349 278.22 946.04 278.22 948.731 278.023C950.269 277.826 951.615 277.629 953.153 277.235C954.499 276.841 956.037 276.645 957.382 276.054C960.266 274.872 963.534 275.069 966.418 275.463C970.455 276.251 974.3 277.826 977.953 279.401C982.374 281.371 986.604 283.734 990.833 286.097C995.255 288.657 999.676 291.217 1004.1 293.777C1008.14 296.14 1012.36 298.503 1016.4 300.669C1019.86 302.442 1023.32 304.214 1026.98 305.199C1029.47 305.986 1032.17 306.577 1034.67 305.789C1036.97 305.002 1038.13 303.032 1038.7 300.669C1039.09 299.094 1039.09 297.322 1038.89 295.746C1038.51 294.762 1037.55 294.762 1037.74 295.352Z" fill="white"/>
<path d="M1015.66 269.14C1018.93 273.914 1022.96 278.305 1024.88 283.842C1025.65 285.942 1026.23 288.615 1025.27 290.906C1024.69 292.052 1023.35 292.816 1022 292.816C1021.04 292.816 1020.27 292.243 1019.31 291.67C1013.36 287.852 1007.79 283.46 1002.41 279.069C996.46 274.296 990.699 269.14 985.897 263.031C983.977 260.358 979.752 254.439 984.361 252.148C985.513 251.575 986.858 251.384 988.202 251.193C989.162 251.193 990.122 251.002 991.083 251.193C992.811 251.384 994.347 251.957 995.884 252.529C1002.22 255.202 1007.79 259.785 1012.21 264.94C1013.74 266.276 1014.7 267.613 1015.66 269.14C1016.05 269.522 1016.82 269.14 1016.43 268.759C1012.4 263.031 1007.21 257.875 1001.07 254.248C997.996 252.338 994.732 250.811 991.083 250.429C989.354 250.238 987.434 250.429 985.897 250.811C983.785 251.384 981.864 252.529 981.48 254.63C981.096 256.921 982.441 259.403 983.593 261.121C985.513 264.176 987.818 266.658 990.314 269.331C993.387 272.386 996.46 275.25 999.725 277.923C1005.49 282.887 1011.63 287.661 1017.97 291.861C1019.51 293.007 1021.23 293.961 1023.15 293.389C1025.65 292.625 1026.42 290.143 1026.42 287.661C1026.42 284.988 1025.07 282.315 1023.92 280.023C1022.39 277.35 1020.66 274.677 1018.74 272.195C1017.97 271.05 1017.01 269.904 1016.24 268.568C1016.24 268.186 1015.47 268.568 1015.66 269.14Z" fill="white"/>
</g>
</g>
<path d="M918.345 264.391V311.7C941.183 311.7 959.695 293.188 959.695 270.349C959.695 251.908 947.638 236.303 930.97 230.984C923.097 239.921 918.345 251.624 918.345 264.391Z" fill="#E0F0E3"/>
<path d="M876.994 270.42C876.994 293.259 895.506 311.771 918.345 311.771V264.462C918.345 251.695 923.097 239.992 930.97 231.055C926.998 229.778 922.742 229.069 918.345 229.069C895.506 229.069 876.994 247.581 876.994 270.42Z" fill="#F3AFAE"/>
<path d="M972.25 188.498C971.257 200.627 980.336 211.195 992.464 212.188C1004.59 213.181 1015.23 204.102 1016.15 191.974C1017.15 179.845 1008.07 169.206 995.94 168.284C983.811 167.291 973.172 176.37 972.25 188.498Z" fill="#FEDE8C"/>
<path d="M887.632 244.247C880.611 227.154 877.49 212.046 876 199.918C882.029 198.783 891.746 196.229 901.96 189.704C912.954 182.753 919.337 173.249 922.884 168H922.954C928.771 170.482 939.268 175.022 952.319 175.022C964.447 175.022 974.023 171.972 979.697 169.631C984.945 180.554 990.407 195.094 993.74 213.252" stroke="#2D76F9" stroke-miterlimit="10"/>
<path d="M66.4682 231.272L19.1845 231.92C17.5273 231.925 15.9572 232.788 14.9727 234.171L-15.11 277.252C-16.7514 279.62 -16.2106 282.866 -13.788 284.526L55.3402 332.813C57.7057 334.455 60.9686 333.855 62.61 331.486L92.6928 288.405C93.6773 287.022 93.9035 285.251 93.366 283.664L77.6712 239.072C76.0019 234.292 71.536 231.164 66.4682 231.272Z" fill="#C6B9FF" stroke="#9D90D7" stroke-miterlimit="10"/>
<path d="M89.7844 285.749L74.0291 286.009L36.2705 286.552L23.6919 250.87L18.5363 236.032L18.4793 236.013L18.5363 236.032L18.5932 236.052L34.272 235.828L65.6294 235.382L67.3632 235.34C70.1828 235.289 72.6427 237.026 73.5699 239.703L74.1448 241.366L78.1152 252.61L83.0857 266.875L84.5326 271.005L89.7844 285.749Z" fill="white"/>
<path d="M85.9817 268.826L74.0291 286.01L36.2705 286.552L23.6919 250.87L42.7691 223.513C43.8693 221.979 45.9681 221.616 47.4632 222.64L82.0175 246.812L85.9817 268.826Z" fill="#F3AFAE"/>
<path d="M75.7793 255.887L82.0743 246.831L85.9816 268.826L76.9358 262.531C74.7981 260.968 74.2732 258.047 75.7793 255.887Z" fill="#FFEBEB"/>
</g>
</svg>
