<svg width="335" height="276" viewBox="0 0 335 276" fill="none" xmlns="http://www.w3.org/2000/svg">
<mask id="mask0_1_1336" style="mask-type:alpha" maskUnits="userSpaceOnUse" x="0" y="0" width="335" height="276">
<rect width="335" height="276" rx="40" fill="#EEEAFF"/>
</mask>
<g mask="url(#mask0_1_1336)">
<rect width="335" height="276" rx="40" fill="#EEEAFF"/>
<path d="M258.181 276.443H335.212V210.831H292.058C281.923 210.831 272.836 215.256 266.65 222.298C277.831 225.866 285.92 236.334 285.92 248.704C285.92 264.025 273.502 276.443 258.181 276.443Z" fill="#A7D3B0"/>
<mask id="mask1_1_1336" style="mask-type:alpha" maskUnits="userSpaceOnUse" x="243" y="209" width="111" height="77">
<g opacity="0.8">
<path d="M304.471 211.581C309.406 213.646 314.082 216.357 318.498 219.327C323.174 222.554 327.59 226.298 331.616 230.3C335.642 234.302 339.409 238.691 342.526 243.468C345.513 247.857 348.111 252.634 350.059 257.797C350.968 260.121 351.618 262.574 352.137 265.027C352.657 267.351 352.786 269.674 352.397 271.998C351.747 276.129 349.28 279.873 345.903 282.326C342.526 284.779 338.24 285.941 334.214 285.424C332.006 285.166 329.928 284.391 327.979 283.23C326.421 282.326 324.992 281.035 323.434 280.002C321.226 278.195 319.018 276.258 316.68 274.451C314.472 272.773 312.264 271.353 309.666 270.449C306.549 269.287 303.172 268.771 299.795 268.642C294.73 268.383 289.535 269.029 284.469 269.674C281.612 270.062 278.755 270.707 275.767 270.707C273.17 270.707 270.572 270.449 267.975 269.933C263.039 268.771 258.234 266.447 254.467 263.09C250.571 259.734 247.583 255.345 245.765 250.439C244.207 246.05 243.557 241.273 244.596 236.755C245.765 231.978 248.752 227.847 252.779 225.136C254.987 223.587 257.454 222.167 260.052 221.392C262.65 220.488 265.247 220.101 267.975 219.843C272.91 219.327 278.235 219.327 282.911 217.648C283.95 217.261 284.989 216.874 286.028 216.228C287.067 215.583 287.976 214.808 288.885 214.034C291.093 212.226 293.691 211.064 296.548 210.677C299.276 210.161 302.003 210.548 304.471 211.581C304.861 211.71 304.991 211.193 304.601 211.064C299.406 208.999 293.431 209.644 289.015 213.001C287.976 213.775 287.067 214.679 286.028 215.454C284.989 216.099 283.82 216.616 282.781 217.003C280.443 217.777 277.846 218.165 275.378 218.423C270.053 218.939 264.468 219.068 259.403 220.876C258.104 221.392 256.935 221.908 255.766 222.554C254.597 223.329 253.298 223.974 252.129 224.878C250.051 226.427 248.363 228.105 246.934 230.3C244.336 234.173 243.427 238.82 243.817 243.339C244.207 248.244 246.025 253.15 248.882 257.152C251.74 261.412 255.766 265.027 260.312 267.351C264.858 269.803 270.053 271.094 275.248 271.094C278.105 271.094 280.963 270.578 283.82 270.191C286.807 269.674 289.795 269.416 292.782 269.158C296.938 268.9 301.354 268.771 305.51 269.545C308.367 270.062 311.225 271.224 313.692 272.773C316.16 274.193 318.238 276.129 320.446 277.937C321.615 278.969 322.914 280.002 324.213 280.906C325.771 282.197 327.33 283.359 329.148 284.262C333.045 286.199 337.461 286.457 341.617 285.166C345.643 283.875 349.02 281.293 351.228 277.678C352.397 275.871 353.046 273.805 353.436 271.611C353.825 269.287 353.566 266.963 353.046 264.64C352.007 259.476 350.189 254.57 347.721 250.052C345.124 245.017 341.876 240.369 338.24 235.98C334.473 231.462 330.317 227.331 325.771 223.587C321.485 219.972 316.81 216.745 311.874 214.034C309.666 212.743 307.328 211.71 304.991 210.677C304.341 210.935 304.211 211.452 304.471 211.581Z" fill="white"/>
<path d="M338.274 265.429C338.403 267.147 338.403 269.26 337.242 270.713C336.21 271.77 334.663 271.902 333.373 271.77C331.181 271.506 329.118 270.581 327.183 269.656C324.604 268.468 322.025 267.014 319.446 265.561C316.608 263.976 313.771 262.259 310.934 260.674C308.097 258.956 305.26 257.371 302.294 255.918C299.715 254.597 297.007 253.276 294.169 252.352C291.977 251.559 289.527 250.898 287.206 251.031C286.303 251.031 285.271 251.163 284.368 251.559C282.692 252.219 281.015 252.616 279.21 252.88C275.857 253.408 272.375 253.144 269.151 251.955C266.572 250.898 264.251 249.181 262.445 246.935C260.898 244.954 259.995 242.444 259.866 239.934C259.737 237.424 260.64 234.914 262.187 232.933C264.251 230.423 267.217 228.838 270.312 227.913C272.504 227.253 274.825 226.856 277.147 226.989C278.694 227.121 280.371 227.385 281.918 227.385C283.208 227.385 284.626 227.253 285.916 226.856C288.495 226.196 290.945 224.743 292.88 222.761C294.169 221.44 295.717 220.251 297.522 219.591C300.746 218.402 304.228 219.063 307.194 220.516C311.063 222.497 314.287 225.668 317.124 228.97C320.606 233.065 323.701 237.424 326.538 242.048C329.633 246.935 332.342 252.087 335.05 257.239C336.597 259.749 338.016 262.259 338.274 265.429C338.274 265.826 338.919 265.826 338.919 265.429C338.79 263.844 338.403 262.391 337.758 260.938C337.242 259.617 336.468 258.296 335.824 256.975C334.534 254.333 333.115 251.691 331.697 249.181C328.86 244.161 325.894 239.142 322.412 234.518C319.446 230.555 316.351 226.592 312.482 223.422C309.645 221.044 306.292 218.798 302.552 218.402C298.941 218.006 295.588 219.459 293.009 221.969C291.977 222.893 290.945 223.818 289.785 224.611C288.624 225.403 287.206 225.932 285.916 226.328C284.497 226.724 283.079 226.856 281.66 226.856C279.984 226.724 278.307 226.592 276.502 226.46C275.341 226.46 274.052 226.592 272.891 226.856C271.859 226.989 270.828 227.253 269.925 227.649C268.248 228.177 266.572 228.838 265.153 229.895C262.832 231.348 260.898 233.593 259.995 236.235C259.221 238.613 259.221 241.255 260.124 243.633C261.027 246.143 262.703 248.389 264.766 250.106C267.217 252.087 270.054 253.276 273.149 253.672C274.954 253.937 276.76 253.937 278.565 253.805C279.597 253.672 280.5 253.54 281.531 253.276C282.434 253.012 283.466 252.88 284.368 252.484C286.303 251.691 288.495 251.823 290.43 252.087C293.138 252.616 295.717 253.672 298.167 254.729C301.133 256.05 303.97 257.635 306.807 259.221C309.774 260.938 312.74 262.655 315.706 264.372C318.414 265.958 321.251 267.543 323.959 268.996C326.281 270.185 328.602 271.374 331.052 272.034C332.729 272.563 334.534 272.959 336.21 272.431C337.758 271.902 338.532 270.581 338.919 268.996C339.177 267.939 339.177 266.75 339.048 265.693C338.79 265.033 338.145 265.033 338.274 265.429Z" fill="white"/>
<path d="M323.464 247.846C325.655 251.048 328.36 253.994 329.648 257.708C330.163 259.117 330.55 260.91 329.906 262.447C329.519 263.215 328.618 263.728 327.716 263.728C327.072 263.728 326.556 263.343 325.912 262.959C321.919 260.398 318.183 257.452 314.575 254.506C310.582 251.304 306.717 247.846 303.496 243.747C302.208 241.954 299.374 237.984 302.466 236.447C303.239 236.063 304.14 235.935 305.042 235.806C305.686 235.806 306.331 235.678 306.975 235.806C308.134 235.935 309.165 236.319 310.195 236.703C314.447 238.496 318.183 241.57 321.146 245.028C322.176 245.925 322.82 246.821 323.464 247.846C323.722 248.102 324.237 247.846 323.98 247.59C321.274 243.747 317.796 240.289 313.674 237.856C311.612 236.575 309.422 235.55 306.975 235.294C305.815 235.166 304.527 235.294 303.496 235.55C302.079 235.935 300.791 236.703 300.533 238.112C300.276 239.649 301.177 241.314 301.95 242.467C303.239 244.516 304.785 246.181 306.459 247.974C308.521 250.023 310.582 251.944 312.772 253.737C316.637 257.067 320.759 260.269 325.01 263.087C326.041 263.856 327.2 264.496 328.489 264.112C330.163 263.599 330.679 261.934 330.679 260.269C330.679 258.476 329.777 256.683 329.004 255.146C327.973 253.353 326.814 251.56 325.526 249.895C325.01 249.127 324.366 248.358 323.851 247.462C323.851 247.205 323.336 247.462 323.464 247.846Z" fill="white"/>
</g>
</mask>
<g mask="url(#mask1_1_1336)">
<g opacity="0.3">
<path d="M304.471 211.581C309.406 213.646 314.082 216.357 318.498 219.327C323.174 222.554 327.59 226.298 331.616 230.3C335.642 234.302 339.409 238.691 342.526 243.468C345.513 247.857 348.111 252.634 350.059 257.797C350.968 260.121 351.618 262.574 352.137 265.027C352.657 267.351 352.786 269.674 352.397 271.998C351.747 276.129 349.28 279.873 345.903 282.326C342.526 284.779 338.24 285.941 334.214 285.424C332.006 285.166 329.928 284.391 327.979 283.23C326.421 282.326 324.992 281.035 323.434 280.002C321.226 278.195 319.018 276.258 316.68 274.451C314.472 272.773 312.264 271.353 309.666 270.449C306.549 269.287 303.172 268.771 299.795 268.642C294.73 268.383 289.535 269.029 284.469 269.674C281.612 270.062 278.755 270.707 275.767 270.707C273.17 270.707 270.572 270.449 267.975 269.933C263.039 268.771 258.234 266.447 254.467 263.09C250.571 259.734 247.583 255.345 245.765 250.439C244.207 246.05 243.557 241.273 244.596 236.755C245.765 231.978 248.752 227.847 252.779 225.136C254.987 223.587 257.454 222.167 260.052 221.392C262.65 220.488 265.247 220.101 267.975 219.843C272.91 219.327 278.235 219.327 282.911 217.648C283.95 217.261 284.989 216.874 286.028 216.228C287.067 215.583 287.976 214.808 288.885 214.034C291.093 212.226 293.691 211.064 296.548 210.677C299.276 210.161 302.003 210.548 304.471 211.581C304.861 211.71 304.991 211.193 304.601 211.064C299.406 208.999 293.431 209.644 289.015 213.001C287.976 213.775 287.067 214.679 286.028 215.454C284.989 216.099 283.82 216.616 282.781 217.003C280.443 217.777 277.846 218.165 275.378 218.423C270.053 218.939 264.468 219.068 259.403 220.876C258.104 221.392 256.935 221.908 255.766 222.554C254.597 223.329 253.298 223.974 252.129 224.878C250.051 226.427 248.363 228.105 246.934 230.3C244.336 234.173 243.427 238.82 243.817 243.339C244.207 248.244 246.025 253.15 248.882 257.152C251.74 261.412 255.766 265.027 260.312 267.351C264.858 269.803 270.053 271.094 275.248 271.094C278.105 271.094 280.963 270.578 283.82 270.191C286.807 269.674 289.795 269.416 292.782 269.158C296.938 268.9 301.354 268.771 305.51 269.545C308.367 270.062 311.225 271.224 313.692 272.773C316.16 274.193 318.238 276.129 320.446 277.937C321.615 278.969 322.914 280.002 324.213 280.906C325.771 282.197 327.33 283.359 329.148 284.262C333.045 286.199 337.461 286.457 341.617 285.166C345.643 283.875 349.02 281.293 351.228 277.678C352.397 275.871 353.046 273.805 353.436 271.611C353.825 269.287 353.566 266.963 353.046 264.64C352.007 259.476 350.189 254.57 347.721 250.052C345.124 245.017 341.876 240.369 338.24 235.98C334.473 231.462 330.317 227.331 325.771 223.587C321.485 219.972 316.81 216.745 311.874 214.034C309.666 212.743 307.328 211.71 304.991 210.677C304.341 210.935 304.211 211.452 304.471 211.581Z" fill="white"/>
<path d="M338.274 265.429C338.403 267.147 338.403 269.26 337.242 270.713C336.21 271.77 334.663 271.902 333.373 271.77C331.181 271.506 329.118 270.581 327.183 269.656C324.604 268.468 322.025 267.014 319.446 265.561C316.608 263.976 313.771 262.259 310.934 260.674C308.097 258.956 305.26 257.371 302.294 255.918C299.715 254.597 297.007 253.276 294.169 252.352C291.977 251.559 289.527 250.898 287.206 251.031C286.303 251.031 285.271 251.163 284.368 251.559C282.692 252.219 281.015 252.616 279.21 252.88C275.857 253.408 272.375 253.144 269.151 251.955C266.572 250.898 264.251 249.181 262.445 246.935C260.898 244.954 259.995 242.444 259.866 239.934C259.737 237.424 260.64 234.914 262.187 232.933C264.251 230.423 267.217 228.838 270.312 227.913C272.504 227.253 274.825 226.856 277.147 226.989C278.694 227.121 280.371 227.385 281.918 227.385C283.208 227.385 284.626 227.253 285.916 226.856C288.495 226.196 290.945 224.743 292.88 222.761C294.169 221.44 295.717 220.251 297.522 219.591C300.746 218.402 304.228 219.063 307.194 220.516C311.063 222.497 314.287 225.668 317.124 228.97C320.606 233.065 323.701 237.424 326.538 242.048C329.633 246.935 332.342 252.087 335.05 257.239C336.597 259.749 338.016 262.259 338.274 265.429C338.274 265.826 338.919 265.826 338.919 265.429C338.79 263.844 338.403 262.391 337.758 260.938C337.242 259.617 336.468 258.296 335.824 256.975C334.534 254.333 333.115 251.691 331.697 249.181C328.86 244.161 325.894 239.142 322.412 234.518C319.446 230.555 316.351 226.592 312.482 223.422C309.645 221.044 306.292 218.798 302.552 218.402C298.941 218.006 295.588 219.459 293.009 221.969C291.977 222.893 290.945 223.818 289.785 224.611C288.624 225.403 287.206 225.932 285.916 226.328C284.497 226.724 283.079 226.856 281.66 226.856C279.984 226.724 278.307 226.592 276.502 226.46C275.341 226.46 274.052 226.592 272.891 226.856C271.859 226.989 270.828 227.253 269.925 227.649C268.248 228.177 266.572 228.838 265.153 229.895C262.832 231.348 260.898 233.593 259.995 236.235C259.221 238.613 259.221 241.255 260.124 243.633C261.027 246.143 262.703 248.389 264.766 250.106C267.217 252.087 270.054 253.276 273.149 253.672C274.954 253.937 276.76 253.937 278.565 253.805C279.597 253.672 280.5 253.54 281.531 253.276C282.434 253.012 283.466 252.88 284.368 252.484C286.303 251.691 288.495 251.823 290.43 252.087C293.138 252.616 295.717 253.672 298.167 254.729C301.133 256.05 303.97 257.635 306.807 259.221C309.774 260.938 312.74 262.655 315.706 264.372C318.414 265.958 321.251 267.543 323.959 268.996C326.281 270.185 328.602 271.374 331.052 272.034C332.729 272.563 334.534 272.959 336.21 272.431C337.758 271.902 338.532 270.581 338.919 268.996C339.177 267.939 339.177 266.75 339.048 265.693C338.79 265.033 338.145 265.033 338.274 265.429Z" fill="white"/>
<path d="M323.464 247.846C325.655 251.048 328.36 253.994 329.648 257.708C330.163 259.117 330.55 260.91 329.906 262.447C329.519 263.215 328.618 263.728 327.716 263.728C327.072 263.728 326.556 263.343 325.912 262.959C321.919 260.398 318.183 257.452 314.575 254.506C310.582 251.304 306.717 247.846 303.496 243.747C302.208 241.954 299.374 237.984 302.466 236.447C303.239 236.063 304.14 235.935 305.042 235.806C305.686 235.806 306.331 235.678 306.975 235.806C308.134 235.935 309.165 236.319 310.195 236.703C314.447 238.496 318.183 241.57 321.146 245.028C322.176 245.925 322.82 246.821 323.464 247.846C323.722 248.102 324.237 247.846 323.98 247.59C321.274 243.747 317.796 240.289 313.674 237.856C311.612 236.575 309.422 235.55 306.975 235.294C305.815 235.166 304.527 235.294 303.496 235.55C302.079 235.935 300.791 236.703 300.533 238.112C300.276 239.649 301.177 241.314 301.95 242.467C303.239 244.516 304.785 246.181 306.459 247.974C308.521 250.023 310.582 251.944 312.772 253.737C316.637 257.067 320.759 260.269 325.01 263.087C326.041 263.856 327.2 264.496 328.489 264.112C330.163 263.599 330.679 261.934 330.679 260.269C330.679 258.476 329.777 256.683 329.004 255.146C327.973 253.353 326.814 251.56 325.526 249.895C325.01 249.127 324.366 248.358 323.851 247.462C323.851 247.205 323.336 247.462 323.464 247.846Z" fill="white"/>
</g>
</g>
<path d="M258.181 244.66V276.395C273.501 276.395 285.919 263.977 285.919 248.657C285.919 236.286 277.831 225.819 266.65 222.25C261.369 228.245 258.181 236.096 258.181 244.66Z" fill="#E0F0E3"/>
<path d="M230.442 248.704C230.442 264.025 242.86 276.443 258.181 276.443V244.708C258.181 236.143 261.369 228.293 266.65 222.298C263.986 221.441 261.131 220.966 258.181 220.966C242.86 220.966 230.442 233.384 230.442 248.704Z" fill="#F3AFAE"/>
<path d="M294.341 193.751C293.675 201.887 299.766 208.976 307.902 209.642C316.038 210.308 323.174 204.218 323.793 196.082C324.459 187.946 318.369 180.809 310.233 180.19C302.097 179.524 294.96 185.614 294.341 193.751Z" fill="#FEDE8C"/>
<path d="M237.579 231.148C232.869 219.681 230.776 209.547 229.776 201.411C233.821 200.649 240.339 198.937 247.19 194.559C254.565 189.896 258.847 183.521 261.226 180H261.274C265.175 181.665 272.217 184.71 280.972 184.71C289.108 184.71 295.531 182.664 299.337 181.094C302.858 188.422 306.522 198.175 308.758 210.356" stroke="#2D76F9" stroke-miterlimit="10"/>
<mask id="mask2_1_1336" style="mask-type:alpha" maskUnits="userSpaceOnUse" x="43" y="227" width="54" height="54">
<path d="M97.0001 253.931C97.0001 268.564 85.1441 280.474 70.4576 280.474C55.8245 280.474 43.915 268.618 43.915 253.931C43.915 239.245 55.8245 227.389 70.4576 227.389C85.1441 227.389 97.0001 239.245 97.0001 253.931Z" fill="#FEDE8C"/>
</mask>
<g mask="url(#mask2_1_1336)">
<path d="M97.0001 253.931C97.0001 268.564 85.1441 280.474 70.4576 280.474C55.8245 280.474 43.915 268.618 43.915 253.931C43.915 239.245 55.8245 227.389 70.4576 227.389C85.1441 227.389 97.0001 239.245 97.0001 253.931Z" fill="#FFC839"/>
<g opacity="0.5">
<path d="M11.6582 284.296L19.3375 283.862L76.9322 226.267L69.2529 226.702L11.6582 284.296Z" fill="white"/>
<path d="M24.5537 284.296L32.233 283.862L89.9001 226.267L82.2208 226.702L24.5537 284.296Z" fill="white"/>
<path d="M38.4629 284.296L46.1422 283.862L103.737 226.267L96.0576 226.702L38.4629 284.296Z" fill="white"/>
<path d="M50.1997 285.601L57.879 285.166L115.474 227.499L107.867 228.006L50.1997 285.601Z" fill="white"/>
<path d="M63.1675 285.601L70.8468 285.166L128.441 227.499L120.762 228.006L63.1675 285.601Z" fill="white"/>
<path d="M77.0049 285.601L84.6842 285.166L142.279 227.499L134.672 228.006L77.0049 285.601Z" fill="white"/>
</g>
</g>
<path d="M44.7752 215.415L12.8407 215.853C11.7215 215.856 10.6611 216.439 9.99617 217.373L-10.3212 246.469C-11.4297 248.069 -11.0644 250.261 -9.42831 251.382L37.2596 283.995C38.8572 285.103 41.0609 284.698 42.1695 283.098L62.4868 254.002C63.1517 253.068 63.3045 251.872 62.9415 250.8L52.3416 220.683C51.2141 217.455 48.1979 215.343 44.7752 215.415Z" fill="#C6B9FF" stroke="#9D90D7" stroke-miterlimit="10"/>
<path d="M60.5225 252.208L49.8817 252.384L24.3802 252.75L15.8849 228.652L12.4029 218.63L12.3644 218.617L12.4029 218.63L12.4413 218.644L23.0305 218.493L44.2087 218.191L45.3797 218.163C47.284 218.128 48.9454 219.302 49.5716 221.11L49.9598 222.233L52.6413 229.827L55.9984 239.461L56.9755 242.25L60.5225 252.208Z" fill="white"/>
<path d="M57.9543 240.779L49.8817 252.384L24.3803 252.751L15.8849 228.652L28.7693 210.175C29.5124 209.139 30.9298 208.894 31.9396 209.586L55.2769 225.911L57.9543 240.779Z" fill="#F3AFAE"/>
<path d="M51.0642 232.04L55.3158 225.924L57.9547 240.779L51.8453 236.527C50.4016 235.472 50.0471 233.499 51.0642 232.04Z" fill="#FFEBEB"/>
</g>
</svg>
