<svg width="385" height="240" viewBox="0 0 385 240" fill="none" xmlns="http://www.w3.org/2000/svg">
<mask id="mask0_97_608" style="mask-type:alpha" maskUnits="userSpaceOnUse" x="0" y="0" width="385" height="240">
<rect width="385" height="240" rx="16" fill="#EC6967"/>
</mask>
<g mask="url(#mask0_97_608)">
<rect width="385" height="240" rx="16" fill="#30458F"/>
<path d="M0.000267029 164.994V227.754C-0.00126648 228.564 0.0774307 229.372 0.235291 230.166C0.398773 231.016 0.649658 231.848 0.983978 232.647C2.8433 233.992 5.07924 234.717 7.3741 234.719H97.0444C98.1771 234.721 99.3028 234.542 100.379 234.188C102.316 233.547 104.049 232.406 105.402 230.88C107.463 228.54 108.594 225.526 108.58 222.409V174.527C108.617 172.053 107.908 169.626 106.546 167.561C105.185 165.495 103.233 163.888 100.945 162.948C99.7012 162.464 98.3786 162.216 97.0444 162.217H7.3741C4.65762 162.2 2.03117 163.19 0.000267029 164.994Z" fill="#FF9493"/>
<path d="M51.6261 233.082V240.421H206.999V233.082C207.034 229.018 205.46 225.105 202.621 222.197C199.781 219.288 195.907 217.622 191.843 217.56H66.7829C62.7189 217.622 58.8443 219.288 56.0048 222.197C53.1652 225.105 51.5911 229.018 51.6261 233.082Z" fill="#D5D7F1"/>
<path d="M0.000602722 199.774V227.754C-0.000938416 228.564 0.0777664 229.372 0.235626 230.166C0.399109 231.016 0.649994 231.848 0.984314 232.647C1.90533 234.875 3.44148 236.795 5.41323 238.182C7.38497 239.57 9.71088 240.368 12.1191 240.482H109.851C109.599 239.812 109.346 239.15 109.076 238.497C108.476 237.035 107.831 235.607 107.117 234.205C106.56 233.082 105.96 231.977 105.376 230.897C102.682 226.251 99.4023 221.97 95.617 218.16L95.4777 218.021C87.3786 209.886 77.1795 204.159 66.0171 201.48C62.0983 200.55 58.0976 200.007 54.0727 199.861C53.3152 199.861 52.5578 199.817 51.7917 199.817L0.000602722 199.774Z" fill="#FEDE8C"/>
<path d="M37.4268 0.487793H40.0386V48.7705H37.4268V0.487793Z" fill="#6D75E7"/>
<path d="M4.72678 50.6361L76.1347 38.4429C78.04 38.1176 79.8482 39.3984 80.1735 41.3037L98.042 145.948C98.3673 147.854 97.0865 149.662 95.1813 149.987L23.7734 162.18C21.8681 162.506 20.0598 161.225 19.7344 159.32L1.86601 54.675C1.54068 52.7697 2.8215 50.9614 4.72678 50.6361Z" fill="white"/>
<mask id="mask1_97_608" style="mask-type:alpha" maskUnits="userSpaceOnUse" x="12" y="48" width="76" height="104">
<path d="M14.3102 58.1937L69.5932 48.7539C70.6406 48.575 71.6347 49.2792 71.8136 50.3266L87.1631 140.219C87.3419 141.267 86.6378 142.261 85.5904 142.44L30.3074 151.88C29.26 152.058 28.2659 151.354 28.087 150.307L12.7375 60.414C12.5586 59.3666 13.2628 58.3725 14.3102 58.1937Z" fill="url(#paint0_linear_97_608)"/>
</mask>
<g mask="url(#mask1_97_608)">
<path d="M14.3102 58.1937L69.5932 48.7539C70.6406 48.575 71.6347 49.2792 71.8136 50.3266L87.1631 140.219C87.3419 141.267 86.6378 142.261 85.5904 142.44L30.3074 151.88C29.26 152.058 28.2659 151.354 28.087 150.307L12.7375 60.414C12.5586 59.3666 13.2628 58.3725 14.3102 58.1937Z" fill="url(#paint1_linear_97_608)"/>
<g opacity="0.5">
<path d="M70.2257 61.7626C76.2913 66.0268 80.4531 72.6591 81.8526 79.9771C82.5592 83.6881 82.4351 87.5099 81.7778 91.2972C81.1344 95.1883 79.944 98.941 78.2966 102.438C76.663 106.038 74.5587 109.279 71.9973 112.263C69.436 115.247 66.3276 118.093 62.3606 119.257C58.4973 120.407 54.5646 119.452 51.1303 117.479C47.4744 115.43 44.6285 112.322 41.8864 109.199C39.0127 105.883 36.049 102.685 32.8915 99.6182C29.644 96.6692 26.3065 93.8379 22.6852 91.2558C15.6641 86.1678 7.83303 82.1393 1.06804 76.5943C-2.13789 73.9568 -5.26769 71.0978 -7.04058 67.3177C-8.78575 63.7454 -9.04244 59.4459 -6.86193 55.9838C-4.87527 52.6534 -1.15065 50.4651 2.38714 49.253C6.34034 47.9855 10.446 47.8604 14.531 48.3723C23.0124 49.3544 30.6981 53.0853 38.7782 55.8122C42.7663 57.1826 46.9206 58.2137 51.1855 58.4901C55.6582 58.7388 60.3315 58.1151 64.7973 59.1046C66.7637 59.5821 68.5916 60.6066 70.2257 61.7626C70.4611 61.9426 70.1912 62.2958 69.9557 62.1158C68.2039 60.8697 66.2721 59.8591 64.1119 59.5132C61.8479 59.1812 59.6254 59.1607 57.403 59.1402C55.1805 59.1197 52.9719 59.203 50.8394 59.0648C48.8108 58.9127 46.7544 58.5529 44.7881 58.0755C36.715 56.1932 29.2232 52.3308 21.2263 50.227C13.4509 48.1993 4.47784 47.4942 -2.50053 52.2308C-4.05128 53.2833 -5.45661 54.6336 -6.4188 56.1361C-7.45713 57.8602 -8.03846 59.8404 -7.98284 61.8413C-7.84386 66.0508 -5.55172 69.7616 -2.62962 72.6483C0.306328 75.639 3.7061 78.1449 7.09202 80.547C10.5818 82.9352 14.2654 85.1918 17.8451 87.4623C24.9147 92.121 31.5481 97.4721 37.4477 103.661C42.9803 109.476 47.9455 117.375 56.3163 119.112C58.2688 119.486 60.2835 119.534 62.2151 118.959C64.1467 118.384 65.919 117.408 67.4421 116.148C70.502 113.731 73.0495 110.643 75.05 107.416C77.1544 104.176 78.7879 100.575 79.8883 96.9401C80.9887 93.3051 81.7499 89.504 81.784 85.7998C81.8662 78.4955 79.1029 71.2538 73.9511 65.9163C72.7185 64.601 71.2921 63.4172 69.7757 62.3512C69.7342 62.0396 69.9903 61.5827 70.2257 61.7626Z" fill="white"/>
<path d="M66.5092 77.4807C70.3797 78.7611 73.2256 81.8694 74.2715 85.7465C74.7426 87.6919 74.8121 89.7967 74.3346 91.763C73.7948 94.0548 72.9435 96.3881 71.8568 98.5415C70.77 100.695 69.5517 102.654 68.1118 104.538C67.3919 105.479 66.5543 106.331 65.7166 107.183C64.879 108.035 63.9236 108.796 62.7051 109.17C60.4619 109.787 58.4886 108.465 57.2144 106.838C55.5733 104.837 54.6176 102.428 53.4818 100.254C52.45 98.0661 51.2381 96.1138 49.5347 94.4385C48.0667 92.9432 46.4188 91.6833 44.5908 90.6589C41.0111 88.3884 37.0852 86.6926 33.6093 84.4082C31.8714 83.266 30.2234 82.0061 28.7693 80.6147C27.0659 78.9394 25.6186 76.8071 25.6114 74.3769C25.5419 72.2722 26.8641 70.2988 28.8857 69.6062C30.8034 68.9275 32.8597 69.2872 34.7361 69.8824C39.2574 71.2874 43.038 74.271 47.2893 76.029C49.6365 76.9842 52.0321 77.5101 54.58 77.5929C57.3355 77.648 60.1395 77.2737 62.8813 77.2249C64.1136 76.9548 65.2976 77.1139 66.5092 77.4807C66.8347 77.543 66.5785 77.9999 66.357 77.9238C65.0276 77.467 63.7675 77.5295 62.3897 77.5019C61.1296 77.5644 59.7657 77.6407 58.4018 77.7171C55.8816 77.842 53.2576 77.9808 50.7581 77.4687C46.3062 76.5831 42.5671 73.911 38.5997 71.9037C36.6679 70.893 34.6461 70.0001 32.4859 69.6542C30.6511 69.3706 28.4425 69.4539 27.0649 71.0119C25.3135 72.9369 25.7916 75.727 27.0173 77.7832C28.1114 79.6455 29.7871 81.1131 31.5528 82.4629C34.8348 84.8789 38.4491 86.6162 41.9873 88.5752C45.4078 90.4441 48.766 92.6385 51.1965 95.8023C52.7199 97.713 53.648 99.9146 54.7837 102.088C55.8017 104.172 56.9513 106.45 58.8347 107.89C59.6587 108.52 60.7803 109.004 61.9227 108.852C63.1689 108.686 64.2281 107.91 65.0658 107.058C66.7549 105.459 68.1948 103.575 69.517 101.602C70.7353 99.6425 71.8359 97.593 72.7011 95.3635C73.4901 93.3556 74.1476 91.1538 74.1681 88.9313C74.2784 85.0056 72.1939 81.2672 68.9396 79.059C68.1295 78.5329 67.2294 78.1245 66.2393 77.8338C66.0316 77.8615 66.1838 77.4184 66.5092 77.4807Z" fill="white"/>
<path d="M63.5565 103.665C62.9127 104.385 62.1512 105.015 61.1126 105.153C60.2818 105.264 59.5133 105.05 58.9109 104.496C58.3085 103.942 57.976 103.035 57.5674 102.35C57.1173 101.353 56.681 100.46 56.3347 99.449C55.5521 97.5451 54.7557 95.5374 53.6615 93.6751C53.1214 92.7958 52.4635 91.8266 51.8334 91.0651C51.0994 90.3175 50.2754 89.6875 49.5414 88.9399C48.8213 88.296 48.1773 87.4307 48.2603 86.4683C48.3432 85.5059 49.0009 84.8896 49.9356 84.7649C50.9741 84.6263 52.0403 84.6954 53.1204 84.8684C54.2905 84.9236 55.3844 85.2004 56.5684 85.3595C58.7424 85.8093 60.9719 86.6745 62.6338 88.0382C64.0602 89.222 65.0989 90.6689 65.7499 92.3789C67.0381 95.6951 66.4985 99.5724 64.5603 102.474C64.0964 102.958 63.8265 103.311 63.5565 103.665C63.3765 103.9 63.0234 103.63 63.2033 103.395C65.4047 100.881 66.4151 97.3638 65.6601 94.0821C65.3345 92.4343 64.5035 90.9597 63.4786 89.6167C62.1145 88.1075 60.3904 87.0692 58.5141 86.474C56.52 85.7888 54.3598 85.4429 52.2273 85.3047C51.6942 85.2701 51.2649 85.2217 50.7457 85.291C50.3164 85.2426 49.7971 85.3119 49.3956 85.4712C48.3087 86.039 48.7104 87.4652 49.3405 88.2268C49.9568 88.8844 50.7669 89.4105 51.3832 90.0682C52.1033 90.712 52.6158 91.3835 53.1421 92.1589C54.1946 93.7096 55.0533 95.3919 55.8082 97.0881C56.6047 99.0959 57.4011 101.104 58.3914 102.98C58.8 103.665 59.2224 104.454 60.0948 104.655C61.2926 104.918 62.3518 104.142 63.0856 103.305C63.3833 103.159 63.7365 103.429 63.5565 103.665Z" fill="white"/>
</g>
</g>
<path d="M175.928 129.317L138.685 63.4921C138.184 62.6086 137.486 61.8527 136.645 61.2835C135.804 60.7142 134.843 60.347 133.837 60.2105C132.831 60.0739 131.806 60.1718 130.844 60.4964C129.882 60.821 129.008 61.3636 128.29 62.0817L74.8358 115.579L175.928 129.317ZM132.939 62.7608C133.121 62.7478 133.305 62.7478 133.487 62.7608C134.095 62.8432 134.675 63.0653 135.183 63.4097C135.69 63.7541 136.111 64.2114 136.412 64.7457L171.044 126.018L80.4076 113.707L130.127 63.9274C130.495 63.5563 130.933 63.2621 131.416 63.0618C131.898 62.8615 132.416 62.7592 132.939 62.7608Z" fill="#6D75E7"/>
<path d="M201.642 120.007L189.006 213.098C188.665 215.613 186.348 217.376 183.833 217.034L43.7517 198.02C41.2361 197.679 39.4736 195.362 39.8151 192.847L52.4511 99.7556C52.7926 97.24 55.1087 95.4776 57.6243 95.819L197.705 114.833C200.221 115.175 201.984 117.491 201.642 120.007Z" fill="#E0F0E3"/>
<path d="M65.8677 109.732L186.159 126.06C187.545 126.248 188.517 127.525 188.329 128.911L178.545 200.987C178.357 202.374 177.08 203.345 175.694 203.157L55.4027 186.829C54.0162 186.641 53.0448 185.364 53.233 183.978L63.0166 111.901C63.2048 110.515 64.4813 109.544 65.8677 109.732Z" fill="#FECC4D"/>
<path d="M96.9221 192.426L175.684 203.125C176.348 203.212 177.02 203.033 177.553 202.627C178.087 202.221 178.438 201.621 178.531 200.958L185.844 147.286L148.269 145.24C146.45 145.196 139.624 144.517 137.822 144.439C131.728 144.143 125.773 145.614 119.792 151.508C118.312 152.971 116.789 154.416 115.222 155.861C113.82 157.132 112.384 158.368 110.869 159.57L103.904 165.168C103.478 165.507 103.034 165.864 102.677 166.221C94.2494 173.778 92.8391 183.598 96.9221 192.426Z" fill="#C9E1F4"/>
<mask id="mask2_97_608" style="mask-type:alpha" maskUnits="userSpaceOnUse" x="53" y="121" width="85" height="77">
<path d="M61.7509 121.168L53.2191 183.938C53.1323 184.602 53.3114 185.274 53.7173 185.807C54.1233 186.34 54.7233 186.691 55.3869 186.784L137.962 197.998L131.119 176.738C130.309 174.2 129.296 171.731 128.089 169.355C127.333 167.781 126.366 166.317 125.217 165.002C121.586 160.545 119.575 159.84 115.187 155.8C102.451 144.117 85.927 132.852 71.8758 126.2L61.7509 121.168Z" fill="#6BCA91"/>
</mask>
<g mask="url(#mask2_97_608)">
<path d="M61.7509 121.168L53.2191 183.938C53.1323 184.602 53.3114 185.274 53.7173 185.807C54.1233 186.34 54.7233 186.691 55.3869 186.784L137.962 197.998L131.119 176.738C130.309 174.2 129.296 171.731 128.089 169.355C127.333 167.781 126.366 166.317 125.217 165.002C121.586 160.545 119.575 159.84 115.187 155.8C102.451 144.117 85.927 132.852 71.8758 126.2L61.7509 121.168Z" fill="#6BCA91"/>
<g opacity="0.5">
<path d="M115.784 142.014C121.849 146.279 126.011 152.911 127.411 160.229C128.117 163.94 127.993 167.762 127.336 171.549C126.692 175.44 125.502 179.193 123.855 182.689C122.221 186.29 120.117 189.53 117.555 192.515C114.994 195.499 111.886 198.345 107.919 199.509C104.055 200.658 100.123 199.703 96.6884 197.731C93.0325 195.682 90.1866 192.573 87.4445 189.451C84.5708 186.135 81.6071 182.937 78.4496 179.87C75.2021 176.921 71.8646 174.09 68.2433 171.508C61.2222 166.42 53.3911 162.391 46.6261 156.846C43.4202 154.209 40.2904 151.35 38.5175 147.57C36.7724 143.997 36.5157 139.698 38.6962 136.236C40.6828 132.905 44.4075 130.717 47.9452 129.505C51.8984 128.237 56.0041 128.112 60.0891 128.624C68.5706 129.606 76.2562 133.337 84.3363 136.064C88.3244 137.434 92.4787 138.465 96.7436 138.742C101.216 138.991 105.89 138.367 110.355 139.356C112.322 139.834 114.15 140.858 115.784 142.014C116.019 142.194 115.749 142.548 115.514 142.368C113.762 141.122 111.83 140.111 109.67 139.765C107.406 139.433 105.184 139.412 102.961 139.392C100.739 139.371 98.53 139.455 96.3975 139.317C94.3689 139.165 92.3126 138.805 90.3462 138.327C82.2731 136.445 74.7813 132.583 66.7844 130.479C59.009 128.451 50.0359 127.746 43.0576 132.483C41.5068 133.535 40.1015 134.885 39.1393 136.388C38.101 138.112 37.5196 140.092 37.5753 142.093C37.7142 146.303 40.0064 150.013 42.9285 152.9C45.8644 155.891 49.2642 158.397 52.6501 160.799C56.1399 163.187 59.8235 165.444 63.4032 167.714C70.4728 172.373 77.1062 177.724 83.0058 183.913C88.5384 189.728 93.5036 197.627 101.874 199.364C103.827 199.738 105.842 199.786 107.773 199.211C109.705 198.636 111.477 197.66 113 196.399C116.06 193.983 118.608 190.894 120.608 187.668C122.712 184.427 124.346 180.827 125.446 177.192C126.547 173.557 127.308 169.756 127.342 166.052C127.424 158.747 124.661 151.506 119.509 146.168C118.277 144.853 116.85 143.669 115.334 142.603C115.292 142.291 115.548 141.834 115.784 142.014Z" fill="white"/>
<path d="M112.067 157.733C115.938 159.013 118.784 162.121 119.83 165.998C120.301 167.944 120.37 170.049 119.893 172.015C119.353 174.307 118.502 176.64 117.415 178.793C116.328 180.947 115.11 182.906 113.67 184.79C112.95 185.731 112.112 186.583 111.275 187.435C110.437 188.286 109.482 189.048 108.263 189.422C106.02 190.039 104.047 188.716 102.773 187.09C101.131 185.089 100.176 182.68 99.04 180.506C98.0081 178.318 96.7962 176.366 95.0928 174.69C93.6248 173.195 91.9769 171.935 90.1489 170.911C86.5692 168.64 82.6433 166.944 79.1674 164.66C77.4295 163.518 75.7815 162.258 74.3274 160.867C72.624 159.191 71.1767 157.059 71.1695 154.629C71.1 152.524 72.4222 150.551 74.4438 149.858C76.3615 149.179 78.4179 149.539 80.2942 150.134C84.8155 151.539 88.5961 154.523 92.8474 156.281C95.1946 157.236 97.5902 157.762 100.138 157.845C102.894 157.9 105.698 157.526 108.439 157.477C109.672 157.207 110.856 157.366 112.067 157.733C112.393 157.795 112.137 158.252 111.915 158.176C110.586 157.719 109.326 157.781 107.948 157.754C106.688 157.816 105.324 157.893 103.96 157.969C101.44 158.094 98.8157 158.233 96.3162 157.721C91.8643 156.835 88.1252 154.163 84.1578 152.155C82.226 151.145 80.2042 150.252 78.044 149.906C76.2092 149.622 74.0006 149.706 72.623 151.264C70.8716 153.189 71.3497 155.979 72.5754 158.035C73.6695 159.897 75.3452 161.365 77.1109 162.715C80.3929 165.131 84.0073 166.868 87.5454 168.827C90.9659 170.696 94.3241 172.89 96.7546 176.054C98.2781 177.965 99.2061 180.166 100.342 182.34C101.36 184.424 102.509 186.702 104.393 188.142C105.217 188.772 106.338 189.256 107.481 189.104C108.727 188.937 109.786 188.162 110.624 187.31C112.313 185.711 113.753 183.827 115.075 181.854C116.293 179.894 117.394 177.845 118.259 175.615C119.048 173.607 119.706 171.406 119.726 169.183C119.836 165.257 117.752 161.519 114.498 159.311C113.688 158.785 112.787 158.376 111.797 158.086C111.59 158.113 111.742 157.67 112.067 157.733Z" fill="white"/>
<path d="M109.115 183.916C108.471 184.637 107.709 185.267 106.671 185.405C105.84 185.516 105.071 185.302 104.469 184.748C103.867 184.194 103.534 183.287 103.126 182.602C102.675 181.605 102.239 180.712 101.893 179.701C101.11 177.797 100.314 175.789 99.2196 173.927C98.6795 173.048 98.0216 172.078 97.3915 171.317C96.6575 170.569 95.8335 169.939 95.0995 169.192C94.3794 168.548 93.7354 167.683 93.8184 166.72C93.9013 165.758 94.559 165.141 95.4937 165.017C96.5322 164.878 97.5984 164.947 98.6785 165.12C99.8486 165.175 100.943 165.452 102.127 165.611C104.301 166.061 106.53 166.926 108.192 168.29C109.618 169.474 110.657 170.921 111.308 172.631C112.596 175.947 112.057 179.824 110.118 182.725C109.655 183.21 109.385 183.563 109.115 183.916C108.935 184.152 108.581 183.882 108.761 183.646C110.963 181.133 111.973 177.616 111.218 174.334C110.893 172.686 110.062 171.212 109.037 169.869C107.673 168.359 105.949 167.321 104.072 166.726C102.078 166.041 99.9179 165.695 97.7854 165.556C97.2523 165.522 96.823 165.474 96.3038 165.543C95.8745 165.494 95.3553 165.564 94.9537 165.723C93.8668 166.291 94.2685 167.717 94.8986 168.479C95.5149 169.136 96.325 169.662 96.9413 170.32C97.6615 170.964 98.1739 171.635 98.7002 172.411C99.7527 173.961 100.611 175.644 101.366 177.34C102.163 179.348 102.959 181.355 103.95 183.232C104.358 183.917 104.781 184.706 105.653 184.907C106.851 185.17 107.91 184.394 108.644 183.556C108.941 183.411 109.295 183.681 109.115 183.916Z" fill="white"/>
</g>
</g>
<path d="M150.072 153.902C144.245 153.902 139.521 149.178 139.521 143.351C139.521 137.524 144.245 132.799 150.072 132.799C155.899 132.799 160.624 137.524 160.624 143.351C160.624 149.178 155.899 153.902 150.072 153.902Z" fill="white"/>
<path d="M133.354 70.7982C129.286 70.7982 125.988 67.5007 125.988 63.433C125.988 59.3654 129.286 56.0679 133.354 56.0679C137.421 56.0679 140.719 59.3654 140.719 63.433C140.719 67.5007 137.421 70.7982 133.354 70.7982Z" fill="#E0F0E3"/>
<path opacity="0.1" d="M250.142 60.1207C248.061 60.1207 246.119 60.5369 244.315 61.2305C242.512 51.9361 234.189 45 224.339 45C213.658 45 204.779 53.3233 203.947 63.8662C202.005 62.7564 199.647 62.2016 197.288 62.2016C189.659 62.2016 183.555 68.1666 183 75.5189H206.583H211.577H234.743H242.096H265.54C265.54 67.0568 258.604 60.1207 250.142 60.1207Z" fill="#F2F2F2"/>
<path opacity="0.1" d="M26.1416 41.1207C24.0607 41.1207 22.1186 41.5369 20.3152 42.2305C18.5118 32.9361 10.1885 26 0.339233 26C-10.3424 26 -19.2206 34.3233 -20.0529 44.8662C-21.9951 43.7564 -24.3533 43.2016 -26.7116 43.2016C-34.3413 43.2016 -40.4451 49.1666 -41 56.5189H-17.4172H-12.4232H10.7434H18.0957H41.5397C41.5397 48.0568 34.6036 41.1207 26.1416 41.1207Z" fill="#F2F2F2"/>
<path opacity="0.1" d="M291.156 161.188L385 161.187L385 183.746L326.605 216.939L385 216.939L385 239.562L291.156 239.563L291.156 216.939L349.551 183.746L291.156 183.746L291.156 161.188ZM291.156 124.256L385 124.256L385 146.879L291.156 146.879L291.156 124.256ZM330.215 87.7754L347.617 87.7754L347.617 130.701L330.215 130.701L330.215 87.7754ZM291.156 84.1016L308.623 84.1016L308.623 130.701L291.156 130.701L291.156 84.1016ZM291.156 27.9629L385 27.9629L385 50.5859L291.156 50.5859L291.156 27.9629ZM291.156 -0.267577L308.623 -0.267578L308.623 78.1719L291.156 78.1719L291.156 -0.267577Z" fill="white"/>
</g>
<defs>
<linearGradient id="paint0_linear_97_608" x1="51.5653" y1="111.851" x2="58.0224" y2="147.146" gradientUnits="userSpaceOnUse">
<stop stop-color="#3368C8"/>
<stop offset="1" stop-color="#3368C8" stop-opacity="0"/>
</linearGradient>
<linearGradient id="paint1_linear_97_608" x1="51.5653" y1="111.851" x2="58.0224" y2="147.146" gradientUnits="userSpaceOnUse">
<stop stop-color="#3368C8"/>
<stop offset="1" stop-color="#3368C8" stop-opacity="0"/>
</linearGradient>
</defs>
</svg>
