<svg width="35" height="35" viewBox="0 0 35 35" fill="none" xmlns="http://www.w3.org/2000/svg">
<path d="M17.5 35C27.165 35 35 27.165 35 17.5C35 7.83502 27.165 0 17.5 0C7.83502 0 0 7.83502 0 17.5C0 27.165 7.83502 35 17.5 35Z" fill="#2D76F9"/>
<path d="M15.6966 12.2675L21.7697 16.4029C22.1205 16.6584 22.3279 17.0661 22.3279 17.5C22.3279 17.9339 22.1205 18.3416 21.7697 18.5971L15.6966 22.7325C15.3164 22.971 14.8344 22.975 14.4503 22.7429C14.0662 22.5109 13.8455 22.0823 13.8796 21.6348V13.3676C13.8445 12.9197 14.0648 12.4902 14.4491 12.2576C14.8334 12.0249 15.3161 12.0287 15.6966 12.2675Z" fill="white"/>
</svg>
