<svg width="279" height="481" viewBox="0 0 279 481" fill="none" xmlns="http://www.w3.org/2000/svg">
<mask id="mask0_1_325" style="mask-type:alpha" maskUnits="userSpaceOnUse" x="0" y="0" width="279" height="481">
<rect width="279" height="481" rx="139.5" transform="matrix(1 0 0 -1 0 481)" fill="#4E59EB"/>
</mask>
<g mask="url(#mask0_1_325)">
<rect width="279" height="481" rx="139.5" transform="matrix(1 0 0 -1 0 481)" fill="#6268BD"/>
<path opacity="0.1" d="M232.089 293.255C235.488 293.255 238.546 294.784 240.416 297.333C242.965 293.765 247.213 291.386 251.971 291.386C257.579 291.386 262.507 294.784 264.716 299.542C265.056 299.542 265.566 299.542 266.076 299.542C271.004 299.542 275.082 303.111 275.762 307.699H265.906H256.39H242.115H238.037H222.063C221.553 306.51 221.383 305.32 221.383 303.961C221.553 298.013 226.141 293.255 232.089 293.255Z" fill="#F2F2F2"/>
<path opacity="0.1" d="M55.5294 359.529C51.1111 359.529 47.2027 361.568 44.6536 364.797C41.4249 360.039 35.987 356.98 29.6995 356.98C22.3923 356.98 16.1047 361.228 13.2159 367.516C12.7061 367.516 12.1963 367.346 11.5165 367.346C5.22897 367.346 -0.0389899 371.934 -1.05859 378.052H11.6865H23.9217H42.4445H47.7125H68.2745C68.7843 376.522 69.1241 374.823 69.1241 373.124C69.1241 365.646 63.0065 359.529 55.5294 359.529Z" fill="#F2F2F2"/>
<path opacity="0.1" d="M92.5738 246.523C90.0248 246.523 87.6457 247.033 85.4366 247.882C83.2275 236.497 73.0314 228 60.9661 228C47.8812 228 37.0054 238.196 35.9858 251.111C33.6068 249.752 30.7179 249.072 27.829 249.072C18.4826 249.072 11.0055 256.379 10.3258 265.385H39.2146H45.3322H73.7112H82.7177H111.437C111.437 255.019 102.94 246.523 92.5738 246.523Z" fill="#F2F2F2"/>
<path d="M28.5091 318.405V478.653C28.5091 482.901 27.1496 486.81 24.7706 490.038C24.4307 490.548 24.0908 491.058 23.581 491.568H-0.889465V299.033H8.62684C19.5026 299.033 28.5091 307.869 28.5091 318.405Z" fill="#FEDE8C"/>
<mask id="mask1_1_325" style="mask-type:alpha" maskUnits="userSpaceOnUse" x="123" y="398" width="159" height="94">
<path d="M123.937 398.512V490.462H240.855C241.335 490.804 241.695 490.974 242.174 491.316C243.134 491.829 244.093 492 245.172 492H281.987C281.867 491.487 281.627 490.974 281.507 490.462C280.908 488.582 280.308 486.702 279.588 484.822C278.629 481.916 277.55 479.182 276.471 476.447C271.674 464.825 265.918 454.058 259.323 444.487C259.203 444.316 259.203 444.316 259.083 444.145C251.888 433.89 243.733 425.003 234.86 417.995C226.345 411.159 216.992 406.032 207.279 402.613C205.72 402.101 204.041 401.588 202.482 401.075C197.206 399.708 191.81 398.683 186.293 398.512C184.974 398.512 183.655 398.341 182.336 398.341H123.937V398.512Z" fill="#A7D3B0"/>
</mask>
<g mask="url(#mask1_1_325)">
<path d="M123.937 398.512V490.462H240.855C241.335 490.804 241.695 490.974 242.174 491.316C243.134 491.829 244.093 492 245.172 492H281.987C281.867 491.487 281.627 490.974 281.507 490.462C280.908 488.582 280.308 486.702 279.588 484.822C278.629 481.916 277.55 479.182 276.471 476.447C271.674 464.825 265.918 454.058 259.323 444.487C259.203 444.316 259.203 444.316 259.083 444.145C251.888 433.89 243.733 425.003 234.86 417.995C226.345 411.159 216.992 406.032 207.279 402.613C205.72 402.101 204.041 401.588 202.482 401.075C197.206 399.708 191.81 398.683 186.293 398.512C184.974 398.512 183.655 398.341 182.336 398.341H123.937V398.512Z" fill="#A7D3B0"/>
<g opacity="0.3">
<path d="M204.519 399.131C212.493 402.468 220.048 406.849 227.183 411.646C234.738 416.861 241.873 422.91 248.379 429.377C254.884 435.843 260.97 442.935 266.007 450.653C270.834 457.745 275.031 465.463 278.179 473.807C279.648 477.561 280.697 481.525 281.536 485.488C282.376 489.243 282.586 492.997 281.956 496.752C280.907 503.427 276.919 509.476 271.463 513.439C266.007 517.402 259.082 519.28 252.576 518.445C249.008 518.028 245.651 516.777 242.503 514.899C239.985 513.439 237.676 511.353 235.158 509.685C231.59 506.764 228.023 503.635 224.245 500.715C220.678 498.003 217.11 495.709 212.913 494.249C207.876 492.371 202.42 491.537 196.964 491.328C188.779 490.911 180.385 491.954 172.201 492.997C167.584 493.623 162.967 494.666 158.14 494.666C153.943 494.666 149.746 494.249 145.549 493.414C137.574 491.537 129.809 487.782 123.724 482.359C117.428 476.936 112.601 469.844 109.663 461.917C107.145 454.825 106.096 447.107 107.774 439.806C109.663 432.088 114.49 425.413 120.995 421.033C124.563 418.53 128.55 416.235 132.747 414.984C136.945 413.524 141.142 412.898 145.549 412.481C153.523 411.646 162.127 411.646 169.682 408.935C171.361 408.309 173.04 407.683 174.719 406.64C176.398 405.597 177.867 404.346 179.336 403.094C182.903 400.174 187.1 398.297 191.717 397.671C196.124 396.836 200.531 397.462 204.519 399.131C205.148 399.339 205.358 398.505 204.729 398.297C196.334 394.959 186.681 396.002 179.546 401.425C177.867 402.677 176.398 404.137 174.719 405.389C173.04 406.432 171.151 407.266 169.472 407.892C165.695 409.143 161.498 409.769 157.511 410.186C148.906 411.021 139.883 411.229 131.698 414.149C129.6 414.984 127.711 415.818 125.822 416.861C123.933 418.113 121.835 419.156 119.946 420.616C116.588 423.119 113.86 425.831 111.552 429.377C107.355 435.634 105.886 443.144 106.515 450.444C107.145 458.371 110.083 466.297 114.7 472.764C119.317 479.647 125.822 485.488 133.167 489.243C140.512 493.206 148.906 495.292 157.301 495.292C161.918 495.292 166.534 494.457 171.151 493.832C175.978 492.997 180.805 492.58 185.631 492.163C192.347 491.746 199.482 491.537 206.198 492.789C210.814 493.623 215.431 495.5 219.419 498.003C223.406 500.298 226.764 503.427 230.331 506.347C232.22 508.016 234.318 509.685 236.417 511.145C238.935 513.231 241.454 515.108 244.392 516.568C250.687 519.697 257.822 520.114 264.538 518.028C271.043 515.942 276.5 511.77 280.067 505.93C281.956 503.01 283.005 499.672 283.635 496.126C284.264 492.371 283.845 488.617 283.005 484.862C281.326 476.518 278.388 468.592 274.401 461.291C270.204 453.156 264.958 445.647 259.082 438.555C252.996 431.254 246.28 424.579 238.935 418.53C232.01 412.689 224.455 407.475 216.481 403.094C212.913 401.008 209.136 399.339 205.358 397.671C204.309 398.088 204.099 398.922 204.519 399.131Z" fill="white"/>
<path d="M259.136 486.138C259.345 488.913 259.345 492.328 257.469 494.676C255.802 496.383 253.302 496.597 251.218 496.383C247.676 495.956 244.342 494.462 241.216 492.968C237.049 491.047 232.881 488.699 228.714 486.351C224.13 483.79 219.546 481.015 214.961 478.454C210.377 475.679 205.793 473.118 201.001 470.77C196.833 468.636 192.457 466.501 187.873 465.007C184.331 463.726 180.372 462.659 176.621 462.873C175.163 462.873 173.496 463.086 172.037 463.727C169.328 464.794 166.619 465.434 163.702 465.861C158.285 466.715 152.659 466.288 147.449 464.367C143.282 462.659 139.531 459.885 136.614 456.256C134.113 453.054 132.655 448.999 132.446 444.944C132.238 440.888 133.697 436.833 136.197 433.631C139.531 429.576 144.324 427.014 149.325 425.52C152.867 424.453 156.618 423.813 160.368 424.026C162.869 424.24 165.578 424.667 168.078 424.667C170.162 424.667 172.454 424.453 174.537 423.813C178.705 422.746 182.664 420.398 185.79 417.196C187.873 415.062 190.374 413.141 193.291 412.073C198.5 410.153 204.126 411.22 208.919 413.568C215.17 416.769 220.379 421.892 224.963 427.228C230.589 433.845 235.59 440.888 240.174 448.359C245.175 456.256 249.551 464.58 253.927 472.905C256.427 476.96 258.719 481.015 259.136 486.138C259.136 486.778 260.178 486.778 260.178 486.138C259.97 483.577 259.345 481.229 258.303 478.881C257.469 476.746 256.219 474.612 255.177 472.478C253.093 468.209 250.801 463.94 248.509 459.885C243.925 451.774 239.133 443.663 233.506 436.192C228.714 429.789 223.713 423.386 217.462 418.263C212.878 414.421 207.46 410.793 201.417 410.153C195.583 409.512 190.165 411.86 185.998 415.915C184.331 417.41 182.664 418.904 180.789 420.184C178.913 421.465 176.621 422.319 174.537 422.959C172.245 423.599 169.953 423.813 167.661 423.813C164.952 423.599 162.244 423.386 159.326 423.172C157.451 423.172 155.367 423.386 153.492 423.813C151.825 424.026 150.158 424.453 148.699 425.093C145.991 425.947 143.282 427.014 140.99 428.722C137.239 431.07 134.113 434.698 132.655 438.967C131.405 442.809 131.405 447.078 132.863 450.92C134.322 454.975 137.031 458.604 140.365 461.379C144.324 464.58 148.908 466.501 153.909 467.142C156.826 467.568 159.743 467.568 162.66 467.355C164.327 467.142 165.786 466.928 167.453 466.501C168.911 466.074 170.578 465.861 172.037 465.221C175.163 463.94 178.705 464.153 181.83 464.58C186.206 465.434 190.374 467.142 194.333 468.849C199.125 470.984 203.709 473.545 208.294 476.106C213.086 478.881 217.879 481.656 222.671 484.43C227.047 486.992 231.631 489.553 236.007 491.901C239.758 493.822 243.508 495.743 247.467 496.81C250.176 497.664 253.093 498.304 255.802 497.45C258.303 496.597 259.553 494.462 260.178 491.901C260.595 490.193 260.595 488.272 260.386 486.565C259.97 485.498 258.928 485.498 259.136 486.138Z" fill="white"/>
<path d="M235.208 457.727C238.747 462.901 243.118 467.661 245.199 473.662C246.032 475.939 246.656 478.836 245.616 481.319C244.991 482.561 243.534 483.389 242.077 483.389C241.036 483.389 240.204 482.768 239.163 482.147C232.71 478.008 226.674 473.248 220.845 468.488C214.392 463.315 208.148 457.727 202.944 451.105C200.862 448.208 196.283 441.792 201.279 439.309C202.528 438.688 203.985 438.481 205.442 438.274C206.482 438.274 207.523 438.067 208.564 438.274C210.437 438.481 212.103 439.102 213.768 439.723C220.637 442.62 226.674 447.587 231.461 453.174C233.126 454.623 234.167 456.072 235.208 457.727C235.624 458.141 236.457 457.727 236.041 457.313C231.669 451.105 226.049 445.517 219.388 441.585C216.058 439.516 212.519 437.86 208.564 437.447C206.691 437.24 204.609 437.447 202.944 437.86C200.654 438.481 198.573 439.723 198.156 441.999C197.74 444.483 199.197 447.173 200.446 449.036C202.528 452.347 205.025 455.037 207.731 457.934C211.062 461.245 214.392 464.35 217.931 467.247C224.176 472.627 230.837 477.801 237.706 482.354C239.371 483.596 241.244 484.63 243.326 484.009C246.032 483.182 246.865 480.491 246.865 477.801C246.865 474.904 245.408 472.007 244.159 469.523C242.493 466.626 240.62 463.729 238.538 461.038C237.706 459.797 236.665 458.555 235.832 457.106C235.832 456.693 235 457.106 235.208 457.727Z" fill="white"/>
</g>
</g>
<path d="M131.741 393.835V467.237C131.741 472.32 130.214 476.793 127.669 480.25C126.311 481.876 124.784 483.3 123.087 484.316C122.409 484.723 121.9 484.926 121.221 485.333C119.864 485.943 118.506 486.146 116.979 486.146H3.29851V484.316H2.95917V374.926H116.979C118.676 374.926 120.373 375.333 121.9 376.146C127.669 378.586 131.741 385.702 131.741 393.835Z" fill="#F4B0AE"/>
<path d="M208.13 328.431L115.856 390.967C114.496 391.986 112.457 391.477 111.607 390.117L67.9344 325.712C66.9148 324.353 67.4246 322.314 68.7841 321.464L160.888 258.928C162.248 257.909 164.287 258.418 165.137 259.778L208.98 324.183C209.829 325.542 209.489 327.412 208.13 328.431Z" fill="#A7B6CC"/>
<path d="M118.914 281.7C118.914 294.445 129.28 304.641 141.855 304.641C154.6 304.641 164.796 294.275 164.796 281.7C164.796 268.954 154.43 258.758 141.855 258.758C129.11 258.758 118.914 269.124 118.914 281.7Z" fill="#FFE8AE"/>
<path d="M124.183 281.699C124.183 291.555 132.17 299.372 141.856 299.372C151.712 299.372 159.529 291.385 159.529 281.699C159.529 271.843 151.542 264.026 141.856 264.026C132.17 264.026 124.183 272.013 124.183 281.699Z" fill="#FECC4D"/>
<mask id="mask2_1_325" style="mask-type:alpha" maskUnits="userSpaceOnUse" x="65" y="277" width="140" height="122">
<path d="M174.483 279.49L204.731 351.372C205.411 352.902 204.731 354.771 203.032 355.451L100.392 398.614C98.8623 399.294 96.993 398.614 96.3133 396.914L66.065 325.032C65.3853 323.503 66.065 321.634 67.7644 320.954L170.404 277.791C172.104 277.111 173.803 277.961 174.483 279.49Z" fill="#1B4F9A"/>
</mask>
<g mask="url(#mask2_1_325)">
<path d="M174.483 279.49L204.731 351.372C205.411 352.902 204.731 354.771 203.032 355.451L100.392 398.614C98.8623 399.294 96.993 398.614 96.3133 396.914L66.065 325.032C65.3853 323.503 66.065 321.634 67.7644 320.954L170.404 277.791C172.104 277.111 173.803 277.961 174.483 279.49Z" fill="#1B4F9A"/>
<g opacity="0.1">
<path d="M149.139 301.118C140.982 292.281 129.426 287.013 117.361 286.333C111.244 285.993 105.126 287.013 99.1782 288.882C93.0606 290.752 87.2828 293.471 82.0149 296.869C76.577 300.268 71.8188 304.346 67.5705 309.104C63.3221 313.863 59.4136 319.47 58.394 326.098C57.3744 332.555 59.7535 338.673 63.662 343.771C67.7404 349.209 73.3482 353.117 78.9561 356.856C84.9037 360.764 90.6815 364.843 96.2893 369.261C101.727 373.849 106.995 378.607 111.923 383.875C121.609 394.071 129.766 405.797 140.132 415.483C145.06 420.071 150.328 424.49 156.786 426.529C162.903 428.568 169.871 428.058 174.969 423.81C179.897 419.901 182.616 413.444 183.805 407.496C184.995 400.869 184.315 394.241 182.616 387.784C179.217 374.359 171.57 362.804 165.452 350.398C162.394 344.281 159.845 337.823 158.485 331.026C157.126 323.889 157.126 316.242 154.577 309.274C153.387 306.216 151.348 303.497 149.139 301.118C148.799 300.778 148.289 301.288 148.629 301.627C151.008 304.176 153.047 307.065 154.067 310.464C155.086 314.033 155.596 317.601 156.106 321.17C156.616 324.738 156.956 328.307 157.635 331.706C158.315 334.934 159.335 338.163 160.524 341.222C165.282 353.797 173.099 365.013 178.197 377.418C183.126 389.483 186.184 403.758 180.067 415.993C178.707 418.712 176.838 421.261 174.629 423.13C172.08 425.169 169.021 426.529 165.792 426.869C158.995 427.548 152.537 424.66 147.27 420.581C141.832 416.503 137.073 411.575 132.485 406.647C127.897 401.549 123.479 396.111 119.06 390.843C110.054 380.477 100.028 370.96 88.8122 362.804C78.2763 355.157 64.5117 348.869 59.9235 335.784C58.9038 332.725 58.394 329.497 58.9039 326.268C59.4137 323.039 60.6032 319.98 62.3025 317.261C65.5313 311.823 69.9496 307.065 74.7077 303.157C79.4659 299.078 84.9037 295.68 90.5116 293.131C96.1194 290.582 102.067 288.542 108.015 287.693C119.74 285.993 131.975 288.882 141.662 296.02C144.041 297.719 146.25 299.758 148.289 301.967C148.799 301.967 149.479 301.457 149.139 301.118Z" fill="white"/>
<path d="M124.668 310.464C121.779 304.516 116.171 300.608 109.714 299.758C106.485 299.418 103.086 299.758 100.027 300.948C96.4588 302.307 92.8902 304.176 89.6614 306.385C86.4327 308.595 83.5438 310.974 80.8249 313.693C79.4654 315.052 78.2759 316.581 77.0863 318.111C75.8968 319.64 74.8772 321.34 74.5373 323.379C74.0275 327.117 76.5765 330.006 79.4654 331.706C83.034 333.915 87.1124 334.934 90.851 336.294C94.5895 337.483 97.9882 339.013 101.047 341.392C103.766 343.431 106.145 345.81 108.184 348.529C112.603 353.797 116.171 359.745 120.589 364.843C122.799 367.392 125.178 369.771 127.727 371.81C130.785 374.189 134.524 376.058 138.432 375.549C141.831 375.209 144.72 372.66 145.4 369.261C146.08 366.032 145.06 362.803 143.7 359.915C140.472 352.947 134.864 347.509 131.125 341.052C129.086 337.483 127.727 333.745 127.047 329.666C126.367 325.248 126.367 320.66 125.857 316.242C126.027 314.202 125.518 312.333 124.668 310.464C124.498 309.954 123.818 310.464 123.988 310.804C125.008 312.843 125.178 314.882 125.518 317.091C125.687 319.13 125.857 321.34 126.027 323.549C126.367 327.627 126.707 331.875 128.067 335.784C130.446 342.751 135.544 348.189 139.622 354.137C141.661 357.026 143.531 360.085 144.55 363.483C145.4 366.372 145.74 369.941 143.531 372.49C140.812 375.718 136.223 375.549 132.655 374.019C129.426 372.66 126.707 370.281 124.158 367.732C119.57 362.973 116.001 357.536 112.093 352.268C108.354 347.17 104.106 342.241 98.498 339.013C95.0993 336.974 91.3608 335.954 87.6222 334.594C84.0536 333.405 80.1451 332.045 77.4262 329.326C76.2367 328.137 75.2171 326.438 75.2171 324.568C75.2171 322.529 76.2367 320.66 77.4262 319.13C79.6353 316.072 82.3543 313.353 85.2432 310.804C88.132 308.425 91.1909 306.215 94.5895 304.346C97.6483 302.647 101.047 301.117 104.616 300.608C110.903 299.588 117.361 302.137 121.609 306.895C122.629 308.085 123.478 309.444 124.158 310.974C124.158 311.313 124.838 310.974 124.668 310.464Z" fill="white"/>
<path d="M83.2039 320.83C82.1843 322.019 81.3346 323.379 81.3346 325.078C81.3346 326.437 81.8444 327.627 82.864 328.477C83.8836 329.326 85.413 329.666 86.6026 330.176C88.3019 330.686 89.8313 331.196 91.5306 331.535C94.7594 332.385 98.1581 333.235 101.387 334.594C102.916 335.274 104.616 336.124 105.975 336.973C107.334 337.993 108.524 339.182 109.884 340.202C111.073 341.222 112.602 342.071 114.132 341.731C115.661 341.392 116.511 340.202 116.511 338.673C116.511 336.973 116.171 335.274 115.661 333.575C115.321 331.705 114.642 330.006 114.132 328.137C112.942 324.738 111.073 321.339 108.524 318.96C106.315 316.921 103.766 315.562 100.877 314.882C95.2692 313.522 89.1516 315.222 84.9032 318.96C84.2235 319.81 83.7137 320.32 83.2039 320.83C82.864 321.169 83.3738 321.679 83.7137 321.339C87.2823 317.261 92.7202 314.882 98.1581 315.392C100.877 315.562 103.426 316.581 105.805 317.941C108.524 319.81 110.563 322.359 111.923 325.248C113.452 328.307 114.472 331.705 115.151 335.104C115.321 335.954 115.491 336.633 115.491 337.483C115.661 338.163 115.661 339.013 115.491 339.692C114.812 341.562 112.433 341.222 111.073 340.372C109.884 339.522 108.864 338.333 107.674 337.483C106.485 336.464 105.295 335.784 103.936 335.104C101.217 333.745 98.328 332.725 95.4391 331.875C92.0404 331.026 88.6418 330.176 85.413 328.986C84.2235 328.477 82.864 327.967 82.3542 326.607C81.6745 324.738 82.6941 322.869 83.8836 321.509C84.0535 321 83.5437 320.49 83.2039 320.83Z" fill="white"/>
</g>
</g>
<path d="M187.737 302.601L195.724 321.634L167.175 333.699C165.816 334.379 163.437 334.209 162.077 333.529C155.45 330.13 153.92 324.013 155.959 319.255C156.979 316.876 158.848 314.667 161.567 313.647L187.737 302.601Z" fill="white"/>
<path d="M163.475 317.29L160.141 325.473L168.323 328.807L171.658 320.625L163.475 317.29Z" fill="#1B4F9A"/>
<path d="M216.115 374.823C216.115 387.568 226.481 397.764 239.056 397.764C251.801 397.764 261.997 387.398 261.997 374.823C261.997 362.078 251.631 351.882 239.056 351.882C226.481 351.882 216.115 362.248 216.115 374.823Z" fill="#FFE8AE"/>
<path d="M221.555 374.823C221.555 384.679 229.542 392.496 239.228 392.496C248.914 392.496 256.901 384.509 256.901 374.823C256.901 364.967 248.914 357.15 239.228 357.15C229.542 357.15 221.555 365.137 221.555 374.823Z" fill="#FECC4D"/>
</g>
</svg>
