<svg width="385" height="240" viewBox="0 0 385 240" fill="none" xmlns="http://www.w3.org/2000/svg">
<mask id="mask0_97_378" style="mask-type:alpha" maskUnits="userSpaceOnUse" x="0" y="0" width="385" height="240">
<rect width="385" height="240" rx="16" fill="#EC6967"/>
</mask>
<g mask="url(#mask0_97_378)">
<rect width="385" height="240" rx="16" fill="#654E98"/>
<path d="M-1 130.422V230.312V230.394C-0.911041 231.208 -0.777599 231.94 -0.599678 232.673C0.334396 236.825 2.5139 239.756 5.09372 240C5.1382 240 5.22717 240 5.27164 240H55V130.422C55 120.815 50.7299 113 45.4813 113H8.60763C3.31454 113 -1 120.815 -1 130.422Z" fill="#B4B8F3"/>
<g opacity="0.6">
<g opacity="0.6">
<path opacity="0.6" d="M160.111 110.929C163.333 110.929 166.222 112.518 168.111 114.901C170.556 111.27 174.556 109 179.222 109C184.667 109 189.333 112.291 191.444 117.057C191.889 117.057 192.222 116.943 192.667 116.943C197.333 116.943 201.222 120.461 202 125H192.556H183.444H169.667H166H150.667C150.222 123.865 150 122.617 150 121.255C150 115.582 154.556 110.929 160.111 110.929Z" fill="white"/>
</g>
</g>
<path d="M47.2467 216.364V240H192.232C186.141 226.111 172.17 216.364 156.088 216.364H47.2467Z" fill="#A7D3B0"/>
<path d="M-1 199.045V230.406V230.487C-0.812614 231.293 -0.53154 232.019 -0.156776 232.825C1.81072 236.936 6.40153 239.839 11.8356 240C11.9293 240 12.1166 240 12.2103 240H97V199.045C97 192.998 91.2849 188 84.1644 188H11.8356C4.80879 188.081 -1 192.998 -1 199.045Z" fill="#82A5FF"/>
<path d="M52.4454 132.621C52.0392 130.591 53.1764 128.641 55.1258 127.991C60.8115 126.204 68.5278 123.118 76.4066 117.351C85.1788 111.015 90.5396 103.055 93.8699 97.5322C94.8445 95.9077 96.7939 95.2579 98.5809 95.8265C104.673 97.8571 113.932 100.538 124.654 99.8065C134.401 99.1567 142.28 96.6387 147.803 94.3645C149.671 93.5522 151.864 94.3645 152.839 96.1514C158.118 106.142 163.56 118.813 167.459 134.571C170.383 146.023 169.571 166.817 159.824 188.829C154.382 201.175 146.585 210.028 140.98 215.551C140.168 216.364 139.031 216.77 137.894 216.689C130.096 216.039 118.4 214.171 106.297 208.241C84.7727 197.438 70.8021 182.087 65.685 171.609C58.6996 156.907 54.7196 143.668 52.4454 132.621Z" fill="white"/>
<mask id="mask1_97_378" style="mask-type:alpha" maskUnits="userSpaceOnUse" x="61" y="102" width="101" height="107">
<path d="M61.6232 135.951C61.2983 134.246 62.273 132.54 63.9787 131.971C68.9334 130.509 75.5126 127.748 82.2542 122.874C89.7269 117.432 94.3567 110.609 97.2808 105.898C98.093 104.518 99.7987 103.949 101.342 104.436C106.622 106.223 114.5 108.498 123.76 107.848C132.126 107.279 138.949 105.167 143.66 103.137C145.284 102.487 147.153 103.137 147.965 104.68C152.513 113.209 157.143 124.174 160.555 137.738C162.991 147.485 162.26 165.273 153.975 184.28C149.346 194.839 142.604 202.555 137.812 207.266C137.081 207.998 136.106 208.322 135.131 208.241C128.471 207.673 118.318 206.129 108.002 200.931C89.4832 191.671 77.5432 178.432 73.1571 169.416C67.0653 156.826 63.5726 145.455 61.6232 135.951Z" fill="#F3AFAE"/>
</mask>
<g mask="url(#mask1_97_378)">
<path d="M61.6232 135.951C61.2983 134.246 62.273 132.54 63.9787 131.971C68.9334 130.509 75.5126 127.748 82.2542 122.874C89.7269 117.432 94.3567 110.609 97.2808 105.898C98.093 104.518 99.7987 103.949 101.342 104.436C106.622 106.223 114.5 108.498 123.76 107.848C132.126 107.279 138.949 105.167 143.66 103.137C145.284 102.487 147.153 103.137 147.965 104.68C152.513 113.209 157.143 124.174 160.555 137.738C162.991 147.485 162.26 165.273 153.975 184.28C149.346 194.839 142.604 202.555 137.812 207.266C137.081 207.998 136.106 208.322 135.131 208.241C128.471 207.673 118.318 206.129 108.002 200.931C89.4832 191.671 77.5432 178.432 73.1571 169.416C67.0653 156.826 63.5726 145.455 61.6232 135.951Z" fill="#F3AFAE"/>
<g opacity="0.5">
<path d="M47.8952 86.973C54.5556 79.7441 63.9776 75.4392 73.7246 74.9518C78.7605 74.7081 83.7152 75.5204 88.5074 76.9824C93.4621 78.5257 98.1732 80.7188 102.559 83.4804C106.945 86.242 110.925 89.5722 114.337 93.471C117.83 97.3698 120.997 102 121.81 107.279C122.541 112.478 120.672 117.595 117.586 121.737C114.256 126.204 109.707 129.372 105.158 132.459C100.366 135.627 95.574 138.876 91.0254 142.531C86.5581 146.186 82.2532 150.166 78.2732 154.389C70.3944 162.756 63.734 172.178 55.2866 180.138C51.3066 183.874 46.9205 187.529 41.7221 189.235C36.6862 190.859 31.0005 190.453 26.858 187.042C22.878 183.793 20.6038 178.676 19.7103 173.721C18.7356 168.36 19.3042 162.918 20.6038 157.638C23.3654 146.673 29.6197 137.251 34.5744 127.179C37.0111 122.143 39.2042 116.945 40.2601 111.422C41.3972 105.573 41.3972 99.4004 43.3466 93.7147C44.3213 91.1155 46.027 88.9224 47.8952 86.973C48.1389 86.6481 48.6262 87.1355 48.3825 87.4604C46.4332 89.5722 44.7274 91.9277 43.9152 94.6894C43.0217 97.5322 42.6156 100.456 42.2095 103.462C41.8034 106.304 41.5597 109.229 40.9099 112.071C40.3413 114.752 39.6103 117.27 38.6356 119.869C34.818 130.103 28.4825 139.2 24.2589 149.272C20.1976 159.019 17.7609 170.716 22.7156 180.625C23.8527 182.818 25.3148 184.849 27.1829 186.473C29.2136 188.179 31.7315 189.235 34.4119 189.478C39.9352 190.047 45.1336 187.61 49.5197 184.361C53.987 181.112 57.8046 177.051 61.5409 172.909C65.2772 168.685 68.8511 164.38 72.5062 160.075C79.8164 151.547 87.9389 143.83 97.036 137.251C105.565 131.078 116.774 125.88 120.51 115.239C121.403 112.721 121.728 110.122 121.322 107.523C120.916 104.924 119.941 102.406 118.561 100.131C115.961 95.7453 112.306 91.8465 108.407 88.5975C104.509 85.2673 100.123 82.5869 95.4928 80.3939C90.9442 78.282 86.1519 76.6575 81.1972 75.9265C71.6127 74.5457 61.7034 76.9824 53.8246 82.6681C51.8752 84.049 50.0882 85.6735 48.4638 87.4604C48.0576 87.7041 47.5703 87.2979 47.8952 86.973Z" fill="#979797"/>
<path d="M67.7144 94.5269C69.9887 89.7347 74.6997 86.4045 79.9793 85.7547C82.6597 85.4298 85.4214 85.7547 87.9393 86.8106C90.8634 87.9478 93.7063 89.4098 96.3055 91.1967C98.9046 92.9025 101.341 94.9331 103.534 97.2073C104.59 98.3445 105.646 99.5629 106.621 100.862C107.596 102.162 108.489 103.543 108.733 105.167C109.139 108.173 107.027 110.528 104.672 111.99C101.829 113.777 98.4985 114.671 95.3308 115.727C92.3255 116.782 89.4826 118.001 86.9646 119.869C84.7716 121.493 82.9034 123.524 81.1165 125.636C77.5426 129.941 74.6185 134.733 70.9634 138.957C69.1765 141.069 67.3083 143.018 65.1152 144.642C62.5973 146.511 59.592 148.054 56.4242 147.648C53.5814 147.323 51.3071 145.373 50.7385 142.531C50.2512 139.931 50.9822 137.251 52.1193 134.977C54.7997 129.372 59.2671 124.905 62.4348 119.544C64.1406 116.62 65.1965 113.533 65.6838 110.203C66.1712 106.548 66.1712 102.893 66.6585 99.238C66.6585 97.6947 66.9834 96.0702 67.7144 94.5269C67.8769 94.1208 68.4455 94.4457 68.283 94.8518C67.552 96.4763 67.2271 98.182 67.0646 99.969C66.9022 101.675 66.821 103.462 66.6585 105.167C66.4148 108.579 66.1712 111.99 65.034 115.158C63.0846 120.762 59.0234 125.23 55.612 130.022C53.9875 132.378 52.4442 134.814 51.5508 137.576C50.8197 139.931 50.6573 142.856 52.2818 144.886C54.4748 147.485 58.2112 147.404 61.1353 146.186C63.7344 145.049 66.0087 143.099 68.0393 141.069C71.7757 137.251 74.6997 132.702 77.9487 128.398C81.0353 124.255 84.4467 120.275 88.9953 117.595C91.7569 115.97 94.8434 115.077 97.8487 114.021C100.773 113.046 104.022 111.909 106.215 109.716C107.19 108.66 108.002 107.36 108.002 105.898C108.002 104.274 107.19 102.731 106.215 101.431C104.428 98.9131 102.235 96.6388 99.8793 94.6894C97.5238 92.6588 95.0059 90.9531 92.2442 89.491C89.7263 88.1102 86.9646 86.8106 84.1218 86.4045C79.0046 85.6735 73.6438 87.6229 70.3136 91.5216C69.5014 92.4963 68.7704 93.6335 68.2018 94.7706C68.1206 95.258 67.552 94.9331 67.7144 94.5269Z" fill="#979797"/>
<path d="M101.503 103.056C102.396 104.03 103.046 105.167 103.046 106.548C103.046 107.604 102.64 108.66 101.828 109.31C100.934 109.96 99.7969 110.285 98.741 110.609C97.4414 111.016 96.0606 111.422 94.6798 111.747C91.9994 112.478 89.2377 113.127 86.7198 114.183C85.4202 114.752 84.1206 115.402 82.9834 116.133C81.8463 116.945 80.8716 117.92 79.8157 118.813C78.841 119.625 77.6226 120.275 76.4043 120.031C75.1859 119.788 74.4549 118.813 74.3736 117.595C74.2924 116.214 74.6985 114.752 75.0234 113.452C75.3483 111.99 75.7545 110.528 76.323 109.066C77.379 106.386 78.7598 103.543 80.8716 101.593C82.6586 99.969 84.7704 98.8319 87.1259 98.2633C91.7557 97.2074 96.7104 98.507 100.203 101.675C100.69 102.162 101.097 102.568 101.503 103.056C101.746 103.38 101.34 103.787 101.015 103.543C98.0912 100.213 93.7051 98.3445 89.2377 98.6694C87.0447 98.8319 84.8516 99.5629 83.0647 100.781C80.7904 102.243 79.2471 104.355 78.0288 106.711C76.7292 109.229 75.9169 111.909 75.3483 114.671C75.1859 115.32 75.1047 115.97 75.0234 116.62C74.9422 117.189 74.861 117.838 75.1047 118.407C75.6732 119.95 77.6226 119.625 78.6786 118.894C79.7345 118.245 80.5467 117.27 81.5214 116.458C82.4961 115.727 83.552 115.077 84.6079 114.508C86.801 113.371 89.2377 112.64 91.5932 111.909C94.3549 111.178 97.1165 110.528 99.7969 109.635C100.853 109.31 101.909 108.741 102.315 107.685C102.802 106.142 102.071 104.68 101.097 103.543C100.772 103.218 101.259 102.731 101.503 103.056Z" fill="#979797"/>
<path d="M115.068 137.657C109.788 139.85 104.834 142.693 100.204 145.942C95.249 149.435 90.538 153.333 86.2331 157.72C81.9282 162.024 77.9482 166.736 74.5368 171.771C71.2878 176.564 68.5261 181.681 66.5768 187.042C65.6833 189.56 64.871 192.078 64.3837 194.758C63.8964 197.276 63.6527 199.794 64.0588 202.312C64.7898 206.779 67.3078 210.759 70.9629 213.44C74.5368 216.039 79.0853 217.257 83.4715 216.689C85.827 216.364 88.1012 215.551 90.1319 214.333C91.8376 213.277 93.3809 212.059 94.9241 210.84C97.3609 208.891 99.6351 206.779 102.153 204.911C104.427 203.124 106.864 201.662 109.626 200.606C112.956 199.307 116.53 198.738 120.104 198.657C125.546 198.413 130.988 198.982 136.349 199.794C139.435 200.281 142.522 200.85 145.608 200.931C148.37 201.012 151.213 200.687 153.893 200.038C159.254 198.819 164.209 196.22 168.351 192.646C172.494 188.991 175.743 184.361 177.611 179.163C179.316 174.533 179.966 169.416 178.829 164.542C177.611 159.425 174.443 155.039 170.138 152.034C167.783 150.328 165.183 148.866 162.422 147.973C159.66 147.079 156.817 146.592 153.974 146.267C148.695 145.698 143.09 145.698 138.054 143.911C136.917 143.505 135.78 143.018 134.805 142.449C133.668 141.8 132.775 140.987 131.8 140.094C129.526 138.144 126.602 136.926 123.596 136.52C120.591 136.114 117.667 136.52 115.068 137.657C114.662 137.82 114.499 137.17 114.905 137.007C120.347 134.733 126.845 135.464 131.556 139.119C132.612 140.013 133.587 140.987 134.805 141.718C135.942 142.368 137.08 142.937 138.298 143.343C140.816 144.236 143.496 144.561 146.177 144.886C151.862 145.455 157.711 145.617 163.153 147.567C164.534 148.054 165.833 148.622 167.051 149.353C168.351 150.084 169.651 150.897 170.869 151.79C173.062 153.415 174.93 155.283 176.392 157.557C179.154 161.7 180.21 166.654 179.804 171.609C179.398 176.889 177.367 182.087 174.443 186.473C171.356 191.103 167.133 194.839 162.259 197.438C157.386 200.038 151.944 201.418 146.42 201.5C143.334 201.5 140.329 201.012 137.323 200.525C134.156 200.038 130.907 199.631 127.739 199.388C123.271 199.063 118.642 198.982 114.174 199.875C111.088 200.525 108.164 201.581 105.483 203.287C102.884 204.83 100.61 206.86 98.3355 208.729C97.0359 209.866 95.7364 210.922 94.3555 211.978C92.6498 213.277 90.9441 214.658 89.0759 215.633C84.9335 217.663 80.2225 218.069 75.8364 216.689C71.6127 215.389 67.8764 212.465 65.6021 208.647C64.3837 206.698 63.6527 204.505 63.2466 202.231C62.8404 199.713 63.0841 197.276 63.5715 194.758C64.6274 189.316 66.658 184.036 69.2572 179.082C72.1 173.721 75.5115 168.685 79.4102 164.055C83.3902 159.263 87.8576 154.796 92.6498 150.816C97.1984 146.998 102.153 143.505 107.351 140.581C109.707 139.282 112.144 138.063 114.662 137.007C115.23 136.845 115.393 137.495 115.068 137.657Z" fill="#979797"/>
<path d="M78.8408 194.677C78.6784 196.464 78.6784 198.738 79.8967 200.2C80.9527 201.337 82.6584 201.418 84.1204 201.256C86.3947 200.931 88.669 200.038 90.7808 199.063C93.6237 197.763 96.3041 196.301 99.0657 194.839C102.152 193.133 105.158 191.347 108.163 189.641C111.249 187.935 114.336 186.148 117.504 184.605C120.347 183.224 123.189 181.843 126.195 180.869C128.55 180.056 131.149 179.407 133.667 179.488C134.723 179.488 135.779 179.65 136.754 179.975C138.541 180.625 140.409 181.112 142.277 181.356C145.932 181.843 149.669 181.6 153.08 180.3C155.842 179.244 158.36 177.457 160.228 175.102C161.852 172.99 162.827 170.472 162.908 167.791C162.989 165.111 162.096 162.512 160.39 160.481C158.197 157.801 154.948 156.176 151.699 155.283C149.344 154.633 146.826 154.146 144.389 154.308C142.683 154.389 140.978 154.714 139.191 154.714C137.729 154.714 136.267 154.552 134.886 154.146C132.043 153.415 129.525 151.871 127.413 149.841C125.951 148.46 124.327 147.242 122.458 146.511C118.966 145.211 115.311 145.861 112.062 147.567C107.919 149.678 104.508 152.927 101.421 156.339C97.6037 160.562 94.3547 165.273 91.2682 170.066C88.0192 175.183 85.0139 180.544 82.171 185.904C80.709 188.747 79.1657 191.509 78.8408 194.677C78.8408 195.083 78.191 195.083 78.191 194.677C78.3535 193.052 78.7596 191.428 79.4094 189.966C80.0592 188.504 80.7902 187.123 81.5212 185.742C82.9833 182.98 84.4453 180.219 85.9886 177.538C88.9939 172.259 92.2429 167.06 95.898 162.106C98.9845 157.882 102.477 153.821 106.538 150.491C109.625 147.973 113.199 145.698 117.26 145.292C121.078 144.886 124.651 146.429 127.494 149.029C128.55 150.084 129.687 151.059 130.987 151.79C132.287 152.602 133.749 153.171 135.211 153.577C136.673 153.983 138.216 154.146 139.759 154.064C141.627 153.983 143.414 153.74 145.201 153.658C146.501 153.577 147.8 153.821 149.019 154.064C150.075 154.227 151.212 154.552 152.187 154.796C153.973 155.364 155.76 156.095 157.385 157.07C159.903 158.694 161.933 160.887 162.908 163.73C163.802 166.248 163.72 169.01 162.827 171.447C161.933 174.127 160.147 176.482 157.872 178.269C155.273 180.3 152.105 181.518 148.856 182.006C146.907 182.249 144.958 182.331 143.089 182.087C142.033 182.006 140.978 181.843 140.003 181.6C138.947 181.356 137.891 181.112 136.916 180.706C134.886 179.813 132.53 179.975 130.418 180.381C127.494 180.95 124.733 182.006 122.052 183.143C118.885 184.524 115.798 186.148 112.711 187.854C109.544 189.56 106.376 191.428 103.208 193.215C100.284 194.92 97.36 196.545 94.2735 198.088C91.8367 199.307 89.3188 200.525 86.7196 201.337C85.0139 201.824 82.902 202.312 81.1963 201.743C79.5718 201.175 78.6784 199.794 78.3535 198.169C78.1098 197.032 78.1098 195.895 78.2722 194.758C78.2722 194.271 78.922 194.271 78.8408 194.677Z" fill="#979797"/>
<path d="M94.8433 176.401C92.4878 179.813 89.6449 183.143 88.1829 187.042C87.6143 188.585 87.2082 190.534 87.9392 192.159C88.3453 193.052 89.32 193.54 90.2947 193.54C91.0257 193.54 91.5943 193.133 92.1629 192.809C96.3865 190.047 100.448 186.879 104.265 183.711C108.489 180.219 112.794 176.482 116.124 172.096C117.586 170.147 120.591 165.923 117.261 164.218C116.449 163.811 115.474 163.649 114.5 163.568C113.85 163.487 113.119 163.405 112.388 163.568C111.169 163.73 110.032 164.136 108.895 164.542C104.347 166.411 100.285 169.822 97.1176 173.558C96.3053 174.452 95.4931 175.427 94.8433 176.401C94.5996 176.726 94.031 176.401 94.2747 176.076C97.1988 171.853 100.854 168.198 105.321 165.517C107.514 164.218 109.87 163.08 112.469 162.756C113.687 162.593 115.068 162.756 116.205 163.08C117.667 163.405 119.129 164.299 119.373 165.842C119.617 167.548 118.642 169.253 117.83 170.634C116.449 172.746 114.743 174.696 112.956 176.482C110.844 178.676 108.489 180.787 106.215 182.737C101.991 186.311 97.6049 189.722 93.0563 192.809C91.9192 193.621 90.7008 194.352 89.2388 193.864C87.5331 193.296 86.8833 191.428 86.8833 189.803C86.9645 187.854 87.7767 185.986 88.7514 184.28C89.8073 182.331 91.1882 180.462 92.4878 178.594C93.1376 177.701 93.7061 176.889 94.3559 175.995C94.5184 175.751 95.0057 176.076 94.8433 176.401Z" fill="#979797"/>
</g>
</g>
<path d="M125.791 139.769C128.228 146.592 124.735 154.146 117.912 156.582C111.089 159.019 103.536 155.527 101.099 148.704C98.6621 141.881 102.155 134.327 108.978 131.89C115.801 129.453 123.354 132.946 125.791 139.769Z" fill="#654E98"/>
<path d="M124.654 175.183C127.497 174.127 128.959 171.04 127.903 168.198L121.486 150.491C120.43 147.648 117.343 146.186 114.501 147.242C111.658 148.298 110.196 151.384 111.252 154.227L117.668 171.934C118.643 174.695 121.811 176.158 124.654 175.183Z" fill="#654E98"/>
<path d="M66.9844 87.704C66.9844 101.837 55.5317 113.209 41.4799 113.209C27.428 113.209 15.9754 101.756 15.9754 87.704C15.9754 73.571 27.428 62.1995 41.4799 62.1995C55.5317 62.1995 66.9844 73.6522 66.9844 87.704Z" fill="#FEDE8C"/>
<path d="M61.1367 87.704C61.1367 98.5069 52.3645 107.36 41.4804 107.36C30.5963 107.36 21.8241 98.5881 21.8241 87.704C21.8241 76.9012 30.5963 68.0477 41.4804 68.0477C52.3645 68.0477 61.1367 76.9012 61.1367 87.704Z" fill="#FECC4D"/>
<g opacity="0.6">
<g opacity="0.6">
<path opacity="0.2" d="M-0.999996 13V45H42C41.5389 37.2286 34.9678 30.9429 26.8981 30.9429C24.3619 30.9429 21.941 31.5143 19.866 32.6571C18.9437 21.9143 10.067 13.3429 -0.999996 13Z" fill="white"/>
</g>
</g>
<path opacity="0.1" d="M371.01 223.283L371.01 233.535L363.335 233.535L363.335 223.283C363.335 221.886 363.099 220.753 362.627 219.885C362.155 219.016 361.504 218.384 360.673 217.987C359.823 217.572 358.87 217.364 357.812 217.364C356.68 217.364 355.632 217.572 354.669 217.987C353.706 218.384 352.932 219.016 352.347 219.885C351.743 220.753 351.44 221.886 351.44 223.283L351.44 229.797L385 229.797L385 239.737L343.766 239.737L343.766 223.283C343.766 219.979 344.37 217.138 345.578 214.759C346.786 212.361 348.448 210.52 350.562 209.236C352.658 207.952 355.056 207.311 357.756 207.311C360.418 207.311 362.74 207.952 364.723 209.236C366.705 210.52 368.253 212.361 369.367 214.759C370.462 217.138 371.01 219.979 371.01 223.283ZM343.766 201.958L343.766 185.73C343.766 182.559 344.238 179.802 345.182 177.461C346.126 175.12 347.523 173.317 349.373 172.052C351.223 170.768 353.508 170.126 356.227 170.126C358.587 170.126 360.56 170.494 362.146 171.23C363.731 171.967 365.044 172.996 366.082 174.317C367.102 175.62 367.942 177.14 368.603 178.877L370.443 182.134L370.443 195.756L362.769 195.812L362.769 185.73C362.769 184.465 362.542 183.418 362.089 182.587C361.636 181.756 360.994 181.133 360.163 180.718C359.313 180.284 358.303 180.066 357.133 180.066C355.943 180.066 354.924 180.284 354.074 180.718C353.225 181.152 352.573 181.794 352.12 182.644C351.667 183.474 351.44 184.503 351.44 185.73L351.44 192.018L385 192.018L385 201.958L343.766 201.958ZM385 179.387L366.762 188.506L366.705 177.971L384.575 168.738L385 168.738L385 179.387ZM343.766 153.559L385 153.559L385 163.471L343.766 163.471L343.766 153.559ZM375.286 130.959L343.766 122.378L343.766 111.248L385 125.153L385 132.347L375.286 130.959ZM343.766 138.747L375.286 130.166L385 128.722L385 136L343.766 149.82L343.766 138.747ZM352.432 92.8965L385 102.95L385 113.627L343.766 98.4756L343.766 91.707L352.432 92.8965ZM385 84.5703L352.432 94.6523L343.766 95.9551L343.766 89.1016L385 73.8652L385 84.5703ZM369.622 84.9668L377.297 84.9668L377.297 106.122L369.622 106.122L369.622 84.9668ZM371.038 48.0088L371.038 38.0967C373.908 38.2288 376.438 39.0029 378.628 40.4189C380.818 41.835 382.527 43.7985 383.754 46.3096C384.962 48.8018 385.566 51.7471 385.566 55.1455C385.566 57.902 385.104 60.3659 384.179 62.5371C383.254 64.6895 381.923 66.5208 380.186 68.0312C378.449 69.5228 376.343 70.665 373.87 71.458C371.397 72.2321 368.612 72.6191 365.516 72.6191L363.278 72.6191C360.182 72.6191 357.397 72.2132 354.924 71.4014C352.432 70.5706 350.317 69.4001 348.58 67.8896C346.824 66.3604 345.484 64.529 344.559 62.3955C343.633 60.262 343.171 57.8926 343.171 55.2871C343.171 51.6999 343.813 48.6696 345.097 46.1963C346.381 43.723 348.146 41.8066 350.393 40.4473C352.62 39.0879 355.16 38.2855 358.011 38.04L358.011 47.9521C356.463 47.9899 355.169 48.2542 354.131 48.7451C353.074 49.236 352.281 50.0101 351.752 51.0674C351.223 52.1247 350.959 53.5312 350.959 55.2871C350.959 56.5143 351.186 57.5811 351.639 58.4873C352.092 59.3936 352.809 60.1488 353.791 60.7529C354.773 61.3571 356.047 61.8102 357.614 62.1123C359.162 62.3955 361.032 62.5371 363.222 62.5371L365.516 62.5371C367.706 62.5371 369.575 62.4049 371.123 62.1406C372.671 61.8763 373.936 61.4515 374.918 60.8662C375.9 60.2809 376.627 59.5257 377.099 58.6006C377.552 57.6566 377.778 56.5049 377.778 55.1455C377.778 53.6351 377.542 52.3607 377.07 51.3223C376.579 50.2839 375.843 49.4814 374.861 48.915C373.861 48.3486 372.586 48.0465 371.038 48.0088ZM343.766 25.9189L361.664 18.3291L343.766 10.7109L343.766 0.00585952L370.188 13.2598L385 13.2598L385 23.3701L370.188 23.3701L343.766 36.6523L343.766 25.9189Z" fill="white"/>
</g>
</svg>
