<svg width="385" height="240" viewBox="0 0 385 240" fill="none" xmlns="http://www.w3.org/2000/svg">
<mask id="mask0_97_448" style="mask-type:alpha" maskUnits="userSpaceOnUse" x="0" y="0" width="385" height="240">
<rect width="385" height="240" rx="16" fill="#EC6967"/>
</mask>
<g mask="url(#mask0_97_448)">
<rect width="385" height="240" rx="16" fill="#5C55A3"/>
<path opacity="0.1" d="M190.267 131.758C193.041 131.758 195.538 133.007 197.064 135.088C199.145 132.175 202.613 130.232 206.497 130.232C211.075 130.232 215.098 133.007 216.902 136.891C217.179 136.891 217.595 136.891 218.011 136.891C222.034 136.891 225.364 139.804 225.918 143.55H217.873H210.104H198.451H195.122H182.082C181.666 142.579 181.527 141.608 181.527 140.498C181.666 135.643 185.412 131.758 190.267 131.758Z" fill="#F2F2F2"/>
<path opacity="0.1" d="M42.1359 155.86C38.5291 155.86 35.3385 157.524 33.2577 160.16C30.622 156.276 26.1829 153.779 21.0501 153.779C15.0851 153.779 9.95236 157.247 7.59408 162.38C7.17791 162.38 6.76175 162.241 6.20686 162.241C1.07413 162.241 -3.22626 165.986 -4.05859 170.98H6.34558H16.3336H31.4543H35.7547H52.5401C52.9563 169.732 53.2337 168.345 53.2337 166.958C53.2337 160.854 48.2397 155.86 42.1359 155.86Z" fill="#F2F2F2"/>
<path opacity="0.1" d="M72.3769 53.6095C70.2961 53.6095 68.354 54.0257 66.5506 54.7193C64.7472 45.4249 56.4239 38.4888 46.5746 38.4888C35.893 38.4888 27.0147 46.8121 26.1824 57.355C24.2403 56.2452 21.882 55.6903 19.5237 55.6903C11.894 55.6903 5.79024 61.6554 5.23535 69.0077H28.8181H33.8121H56.9788H64.331H87.7751C87.7751 60.5456 80.839 53.6095 72.3769 53.6095Z" fill="#F2F2F2"/>
<path d="M20.0781 122.289V253.104C20.0781 256.572 18.9683 259.763 17.0262 262.399C16.7487 262.815 16.4713 263.231 16.0551 263.647H-3.9209V106.475H3.84755C12.7258 106.475 20.0781 113.688 20.0781 122.289Z" fill="#9CBAE7"/>
<mask id="mask1_97_448" style="mask-type:alpha" maskUnits="userSpaceOnUse" x="97" y="187" width="130" height="77">
<path d="M97.979 187.683V262.744H193.423C193.815 263.023 194.108 263.163 194.5 263.442C195.283 263.86 196.066 264 196.947 264H227C226.902 263.581 226.706 263.163 226.608 262.744C226.119 261.21 225.63 259.675 225.042 258.14C224.259 255.768 223.378 253.536 222.497 251.304C218.581 241.816 213.883 233.027 208.499 225.213C208.401 225.074 208.401 225.074 208.303 224.934C202.429 216.563 195.773 209.308 188.529 203.588C181.578 198.007 173.943 193.821 166.014 191.031C164.741 190.612 163.371 190.194 162.098 189.775C157.791 188.659 153.386 187.822 148.883 187.683C147.806 187.683 146.729 187.543 145.652 187.543H97.979V187.683Z" fill="#A7D3B0"/>
</mask>
<g mask="url(#mask1_97_448)">
<path d="M97.979 187.683V262.744H193.423C193.815 263.023 194.108 263.163 194.5 263.442C195.283 263.86 196.066 264 196.947 264H227C226.902 263.581 226.706 263.163 226.608 262.744C226.119 261.21 225.63 259.675 225.042 258.14C224.259 255.768 223.378 253.536 222.497 251.304C218.581 241.816 213.883 233.027 208.499 225.213C208.401 225.074 208.401 225.074 208.303 224.934C202.429 216.563 195.773 209.308 188.529 203.588C181.578 198.007 173.943 193.821 166.014 191.031C164.741 190.612 163.371 190.194 162.098 189.775C157.791 188.659 153.386 187.822 148.883 187.683C147.806 187.683 146.729 187.543 145.652 187.543H97.979V187.683Z" fill="#A7D3B0"/>
<g opacity="0.3">
<path d="M163.76 188.188C170.27 190.913 176.437 194.488 182.261 198.405C188.429 202.662 194.253 207.6 199.564 212.879C204.875 218.157 209.843 223.947 213.954 230.247C217.895 236.037 221.321 242.337 223.891 249.148C225.09 252.213 225.946 255.449 226.632 258.684C227.317 261.749 227.488 264.814 226.974 267.879C226.118 273.328 222.863 278.266 218.409 281.501C213.954 284.737 208.301 286.269 202.99 285.588C200.078 285.248 197.337 284.226 194.767 282.693C192.712 281.501 190.827 279.799 188.771 278.436C185.859 276.052 182.947 273.498 179.863 271.114C176.951 268.901 174.038 267.028 170.612 265.836C166.501 264.303 162.047 263.622 157.592 263.452C150.911 263.111 144.059 263.963 137.378 264.814C133.609 265.325 129.84 266.176 125.9 266.176C122.473 266.176 119.047 265.836 115.621 265.155C109.111 263.622 102.772 260.557 97.8042 256.13C92.6648 251.702 88.7246 245.913 86.3262 239.442C84.2705 233.653 83.4139 227.352 84.7844 221.393C86.3262 215.092 90.2664 209.643 95.5771 206.067C98.4894 204.024 101.744 202.151 105.171 201.129C108.597 199.937 112.023 199.427 115.621 199.086C122.131 198.405 129.154 198.405 135.322 196.191C136.692 195.68 138.063 195.17 139.433 194.318C140.804 193.467 142.003 192.445 143.202 191.423C146.114 189.039 149.541 187.507 153.31 186.996C156.907 186.315 160.505 186.826 163.76 188.188C164.274 188.358 164.445 187.677 163.931 187.507C157.078 184.783 149.198 185.634 143.373 190.061C142.003 191.083 140.804 192.275 139.433 193.296C138.063 194.148 136.521 194.829 135.15 195.34C132.067 196.362 128.641 196.872 125.386 197.213C118.362 197.894 110.995 198.064 104.314 200.448C102.601 201.129 101.059 201.81 99.5173 202.662C97.9755 203.684 96.2624 204.535 94.7206 205.727C91.9795 207.77 89.7525 209.984 87.868 212.879C84.4418 217.987 83.2426 224.117 83.7565 230.077C84.2705 236.548 86.6688 243.018 90.4377 248.297C94.2066 253.916 99.5173 258.684 105.513 261.749C111.509 264.984 118.362 266.687 125.214 266.687C128.983 266.687 132.752 266.006 136.521 265.495C140.461 264.814 144.401 264.473 148.342 264.133C153.824 263.792 159.648 263.622 165.13 264.644C168.899 265.325 172.668 266.857 175.923 268.901C179.178 270.774 181.919 273.328 184.831 275.712C186.373 277.074 188.086 278.436 189.799 279.628C191.855 281.331 193.911 282.864 196.309 284.056C201.449 286.61 207.273 286.95 212.755 285.248C218.066 283.545 222.52 280.139 225.432 275.371C226.974 272.987 227.831 270.263 228.345 267.368C228.859 264.303 228.516 261.238 227.831 258.173C226.46 251.362 224.062 244.891 220.807 238.931C217.381 232.291 213.098 226.16 208.301 220.371C203.333 214.411 197.851 208.962 191.855 204.024C186.202 199.256 180.034 194.999 173.525 191.423C170.612 189.721 167.529 188.358 164.445 186.996C163.588 187.337 163.417 188.018 163.76 188.188Z" fill="white"/>
<path d="M208.346 259.215C208.516 261.48 208.516 264.268 206.985 266.184C205.624 267.578 203.583 267.752 201.882 267.578C198.99 267.23 196.268 266.01 193.717 264.79C190.315 263.222 186.913 261.305 183.511 259.389C179.769 257.298 176.027 255.033 172.284 252.942C168.542 250.677 164.8 248.586 160.888 246.669C157.486 244.927 153.914 243.185 150.171 241.965C147.28 240.919 144.048 240.048 140.986 240.222C139.795 240.222 138.435 240.397 137.244 240.919C135.033 241.791 132.821 242.313 130.44 242.662C126.017 243.359 121.425 243.01 117.172 241.442C113.77 240.048 110.708 237.783 108.327 234.821C106.286 232.207 105.095 228.897 104.925 225.586C104.755 222.276 105.946 218.965 107.987 216.352C110.708 213.041 114.621 210.95 118.703 209.731C121.595 208.859 124.656 208.337 127.718 208.511C129.759 208.685 131.971 209.034 134.012 209.034C135.713 209.034 137.584 208.859 139.285 208.337C142.687 207.466 145.919 205.549 148.47 202.935C150.171 201.193 152.213 199.625 154.594 198.754C158.847 197.185 163.439 198.057 167.352 199.973C172.455 202.587 176.707 206.769 180.449 211.125C185.042 216.526 189.124 222.276 192.866 228.374C196.949 234.821 200.521 241.616 204.093 248.412C206.134 251.722 208.005 255.033 208.346 259.215C208.346 259.737 209.196 259.737 209.196 259.215C209.026 257.124 208.516 255.207 207.665 253.29C206.985 251.548 205.964 249.806 205.114 248.063C203.413 244.578 201.542 241.094 199.67 237.783C195.928 231.162 192.016 224.541 187.423 218.443C183.511 213.215 179.429 207.988 174.326 203.806C170.583 200.67 166.161 197.708 161.228 197.185C156.465 196.663 152.043 198.579 148.641 201.89C147.28 203.11 145.919 204.329 144.388 205.375C142.857 206.42 140.986 207.117 139.285 207.64C137.414 208.162 135.543 208.337 133.672 208.337C131.46 208.162 129.249 207.988 126.868 207.814C125.337 207.814 123.636 207.988 122.105 208.337C120.744 208.511 119.383 208.859 118.193 209.382C115.981 210.079 113.77 210.95 111.899 212.344C108.837 214.261 106.286 217.223 105.095 220.708C104.074 223.844 104.074 227.329 105.265 230.465C106.456 233.776 108.667 236.738 111.389 239.003C114.621 241.616 118.363 243.185 122.445 243.707C124.827 244.056 127.208 244.056 129.589 243.882C130.95 243.707 132.141 243.533 133.502 243.185C134.692 242.836 136.053 242.662 137.244 242.139C139.795 241.094 142.687 241.268 145.239 241.616C148.811 242.313 152.213 243.707 155.445 245.101C159.357 246.844 163.099 248.934 166.841 251.025C170.754 253.29 174.666 255.556 178.578 257.821C182.15 259.912 185.892 262.002 189.464 263.919C192.526 265.487 195.588 267.055 198.82 267.927C201.031 268.624 203.413 269.146 205.624 268.449C207.665 267.752 208.686 266.01 209.196 263.919C209.536 262.525 209.536 260.957 209.366 259.563C209.026 258.692 208.175 258.692 208.346 259.215Z" fill="white"/>
<path d="M188.812 236.022C191.701 240.245 195.27 244.131 196.969 249.03C197.648 250.888 198.158 253.254 197.309 255.281C196.799 256.294 195.609 256.97 194.42 256.97C193.57 256.97 192.891 256.463 192.041 255.956C186.773 252.578 181.846 248.692 177.088 244.807C171.82 240.583 166.722 236.022 162.474 230.616C160.775 228.251 157.037 223.014 161.115 220.987C162.134 220.48 163.324 220.311 164.513 220.142C165.363 220.142 166.213 219.973 167.062 220.142C168.592 220.311 169.951 220.818 171.31 221.325C176.918 223.69 181.846 227.744 185.754 232.305C187.113 233.488 187.963 234.671 188.812 236.022C189.152 236.36 189.832 236.022 189.492 235.684C185.924 230.616 181.336 226.055 175.898 222.845C173.179 221.156 170.291 219.804 167.062 219.466C165.533 219.297 163.834 219.466 162.474 219.804C160.605 220.311 158.906 221.325 158.566 223.183C158.226 225.21 159.416 227.406 160.435 228.927C162.134 231.63 164.174 233.826 166.383 236.191C169.101 238.894 171.82 241.428 174.709 243.793C179.806 248.185 185.244 252.409 190.852 256.125C192.211 257.139 193.74 257.984 195.439 257.477C197.648 256.801 198.328 254.605 198.328 252.409C198.328 250.044 197.139 247.679 196.119 245.651C194.76 243.286 193.23 240.921 191.531 238.725C190.852 237.711 190.002 236.698 189.322 235.515C189.322 235.177 188.643 235.515 188.812 236.022Z" fill="white"/>
</g>
</g>
<path d="M104.349 183.865V243.785C104.349 247.935 103.102 251.586 101.025 254.408C99.9167 255.736 98.6701 256.898 97.285 257.728C96.731 258.06 96.3155 258.225 95.7614 258.557C94.6533 259.055 93.5453 259.221 92.2987 259.221H-0.502281V257.728H-0.779297V168.429H92.2987C93.6838 168.429 95.0689 168.761 96.3155 169.425C101.025 171.417 104.349 177.226 104.349 183.865Z" fill="#F4B0AE"/>
<path d="M207.9 102.846L175.466 170.829C174.917 171.941 173.651 172.37 172.512 171.874L125.161 149.425C124.049 148.876 123.619 147.61 124.116 146.472L151.503 88.5804L169.514 82.1208L206.828 99.8136C207.967 100.442 208.449 101.734 207.9 102.846Z" fill="#8D93D3"/>
<path d="M165.046 91.7074L169.515 82.2531L151.505 88.7127L160.959 93.1815C162.521 93.8867 164.367 93.2167 165.046 91.7074Z" fill="white"/>
<path d="M148.175 191.021L81.9828 172.843C80.4748 172.428 79.5421 170.848 79.957 169.34L101.472 89.446L123.099 77.2615L169.026 89.9168L150.6 102.957L143.563 111.209C143.116 111.713 143.649 112.503 144.256 112.341L155.071 109.248L177.208 93.626C177.369 94.1007 177.399 94.7082 177.216 95.211L151.652 189.18C151.237 190.556 149.683 191.436 148.175 191.021Z" fill="#FDDE8D"/>
<path d="M119.574 90.2774L123.073 77.1824L101.446 89.367L114.674 92.9974C116.817 93.5939 119.003 92.3674 119.574 90.2774Z" fill="white"/>
<path opacity="0.1" d="M167.286 131.613L163.993 143.756L143.117 111.845L167.286 131.613Z" fill="#6B71B5"/>
<path d="M207.086 67.6618C205.835 65.9247 203.403 65.5145 201.692 66.7122L150.547 102.799L143.51 111.051C143.063 111.555 143.596 112.345 144.229 112.131L155.044 109.037L206.189 72.9501C207.953 71.7786 208.337 69.399 207.086 67.6618Z" fill="#C680E7"/>
<path d="M193.47 101.652L199.51 89.4159C200.399 87.6148 202.614 86.8637 204.415 87.7527C206.216 88.6416 206.967 90.8568 206.078 92.6579L200.039 104.894" stroke="#F3AFAE" stroke-miterlimit="10" stroke-linecap="round" stroke-linejoin="round"/>
<path d="M200.039 104.894C199.15 106.695 196.935 107.446 195.134 106.557" stroke="#F3AFAE" stroke-miterlimit="10" stroke-linecap="round" stroke-linejoin="round"/>
<path d="M199.86 101.117L203.128 94.4958C203.572 93.5953 203.197 92.4877 202.296 92.0432C201.396 91.5988 200.288 91.9743 199.844 92.8748L194.275 104.158C193.83 105.058 194.206 106.166 195.107 106.61" stroke="#F3AFAE" stroke-miterlimit="10" stroke-linecap="round" stroke-linejoin="round"/>
<path opacity="0.15" d="M337.441 173.641C336.999 173.641 336.602 173.706 336.25 173.836C335.885 173.966 335.547 174.207 335.234 174.559C334.922 174.91 334.609 175.418 334.297 176.082C333.971 176.733 333.633 177.592 333.281 178.66C332.865 179.91 332.396 181.115 331.875 182.273C331.341 183.432 330.723 184.467 330.02 185.379C329.303 186.29 328.47 187.013 327.52 187.547C326.556 188.081 325.436 188.348 324.16 188.348C322.936 188.348 321.836 188.074 320.859 187.527C319.87 186.98 319.03 186.219 318.34 185.242C317.637 184.253 317.103 183.094 316.738 181.766C316.361 180.437 316.172 178.986 316.172 177.41C316.172 175.327 316.536 173.491 317.266 171.902C317.982 170.301 319.004 169.051 320.332 168.152C321.647 167.241 323.203 166.785 325 166.785L325 173.602C324.284 173.602 323.652 173.751 323.105 174.051C322.559 174.337 322.129 174.773 321.816 175.359C321.504 175.945 321.348 176.681 321.348 177.566C321.348 178.426 321.478 179.148 321.738 179.734C321.999 180.32 322.35 180.763 322.793 181.062C323.223 181.362 323.698 181.512 324.219 181.512C324.648 181.512 325.039 181.395 325.391 181.16C325.729 180.913 326.048 180.568 326.348 180.125C326.647 179.669 326.934 179.122 327.207 178.484C327.48 177.833 327.747 177.104 328.008 176.297C328.49 174.786 329.03 173.445 329.629 172.273C330.215 171.089 330.885 170.092 331.641 169.285C332.383 168.465 333.229 167.846 334.18 167.43C335.13 167 336.204 166.785 337.402 166.785C338.678 166.785 339.811 167.033 340.801 167.527C341.79 168.022 342.63 168.732 343.32 169.656C343.997 170.581 344.512 171.687 344.863 172.977C345.215 174.266 345.391 175.704 345.391 177.293C345.391 178.751 345.208 180.19 344.844 181.609C344.466 183.016 343.893 184.292 343.125 185.437C342.344 186.583 341.348 187.501 340.137 188.191C338.913 188.868 337.461 189.207 335.781 189.207L335.781 182.332C336.615 182.332 337.318 182.221 337.891 182C338.464 181.779 338.926 181.453 339.277 181.023C339.616 180.594 339.863 180.066 340.02 179.441C340.163 178.816 340.234 178.1 340.234 177.293C340.234 176.421 340.111 175.717 339.863 175.184C339.603 174.65 339.264 174.259 338.848 174.012C338.418 173.764 337.949 173.641 337.441 173.641ZM316.562 159.852L316.562 154.266L336.348 147.918L316.562 141.57L316.562 135.984L345 145.652L345 150.184L316.562 159.852ZM316.562 163.25L316.562 157.469L338.359 156.395L345 156.395L345 163.25L316.562 163.25ZM316.562 138.367L316.562 132.566L345 132.566L345 139.441L338.359 139.441L316.562 138.367ZM322.539 115.77L345 122.703L345 130.066L316.562 119.617L316.562 114.949L322.539 115.77ZM345 110.027L322.539 116.98L316.562 117.879L316.562 113.152L345 102.645L345 110.027ZM334.395 110.301L339.687 110.301L339.687 124.891L334.395 124.891L334.395 110.301ZM316.562 100.555L316.562 89.3633C316.562 87.1758 316.888 85.2747 317.539 83.6602C318.19 82.0456 319.154 80.8021 320.43 79.9297C321.706 79.0443 323.281 78.6016 325.156 78.6016C326.784 78.6016 328.145 78.8555 329.238 79.3633C330.332 79.8711 331.237 80.5807 331.953 81.4922C332.656 82.3906 333.236 83.4388 333.691 84.6367L334.961 86.8828L334.961 96.2773L329.668 96.3164L329.668 89.3633C329.668 88.4909 329.512 87.7682 329.199 87.1953C328.887 86.6224 328.444 86.1927 327.871 85.9062C327.285 85.6068 326.589 85.457 325.781 85.457C324.961 85.457 324.258 85.6068 323.672 85.9062C323.086 86.2057 322.637 86.6484 322.324 87.2344C322.012 87.8073 321.855 88.5169 321.855 89.3633L321.855 93.6992L345 93.6992L345 100.555L316.562 100.555ZM345 84.9883L332.422 91.2773L332.383 84.0117L344.707 77.6445L345 77.6445L345 84.9883ZM316.562 61.668L345 61.668L345 68.5234L316.562 68.5234L316.562 61.668ZM316.562 53.1133L321.855 53.1133L321.855 76.8828L316.562 76.8828L316.562 53.1133ZM375.371 221.238L375.371 214.402C377.35 214.493 379.095 215.027 380.605 216.004C382.116 216.98 383.294 218.335 384.141 220.066C384.974 221.785 385.391 223.816 385.391 226.16C385.391 228.061 385.072 229.76 384.434 231.258C383.796 232.742 382.878 234.005 381.68 235.047C380.482 236.076 379.03 236.863 377.324 237.41C375.618 237.944 373.698 238.211 371.562 238.211L370.02 238.211C367.884 238.211 365.964 237.931 364.258 237.371C362.539 236.798 361.081 235.991 359.883 234.949C358.672 233.895 357.747 232.632 357.109 231.16C356.471 229.689 356.152 228.055 356.152 226.258C356.152 223.784 356.595 221.694 357.48 219.988C358.366 218.283 359.583 216.961 361.133 216.023C362.669 215.086 364.421 214.533 366.387 214.363L366.387 221.199C365.319 221.225 364.427 221.408 363.711 221.746C362.982 222.085 362.435 222.618 362.07 223.348C361.706 224.077 361.523 225.047 361.523 226.258C361.523 227.104 361.68 227.84 361.992 228.465C362.305 229.09 362.799 229.611 363.477 230.027C364.154 230.444 365.033 230.757 366.113 230.965C367.181 231.16 368.47 231.258 369.98 231.258L371.562 231.258C373.073 231.258 374.362 231.167 375.43 230.984C376.497 230.802 377.37 230.509 378.047 230.105C378.724 229.702 379.225 229.181 379.551 228.543C379.863 227.892 380.02 227.098 380.02 226.16C380.02 225.118 379.857 224.24 379.531 223.523C379.193 222.807 378.685 222.254 378.008 221.863C377.318 221.473 376.439 221.264 375.371 221.238ZM370.215 187.098L371.367 187.098C373.542 187.098 375.495 187.404 377.227 188.016C378.945 188.615 380.417 189.467 381.641 190.574C382.852 191.681 383.783 192.99 384.434 194.5C385.072 196.01 385.391 197.677 385.391 199.5C385.391 201.336 385.072 203.016 384.434 204.539C383.783 206.049 382.852 207.365 381.641 208.484C380.417 209.591 378.945 210.451 377.227 211.062C375.495 211.661 373.542 211.961 371.367 211.961L370.215 211.961C368.04 211.961 366.087 211.661 364.355 211.062C362.624 210.451 361.152 209.598 359.941 208.504C358.717 207.397 357.786 206.089 357.148 204.578C356.497 203.055 356.172 201.375 356.172 199.539C356.172 197.716 356.497 196.049 357.148 194.539C357.786 193.016 358.717 191.701 359.941 190.594C361.152 189.487 362.624 188.628 364.355 188.016C366.087 187.404 368.04 187.098 370.215 187.098ZM371.367 194.051L370.176 194.051C368.77 194.051 367.533 194.174 366.465 194.422C365.384 194.656 364.479 195.008 363.75 195.477C363.021 195.945 362.474 196.525 362.109 197.215C361.732 197.892 361.543 198.667 361.543 199.539C361.543 200.451 361.732 201.245 362.109 201.922C362.474 202.599 363.021 203.165 363.75 203.621C364.479 204.077 365.384 204.422 366.465 204.656C367.533 204.878 368.77 204.988 370.176 204.988L371.367 204.988C372.76 204.988 373.997 204.878 375.078 204.656C376.146 204.422 377.051 204.077 377.793 203.621C378.535 203.152 379.095 202.579 379.473 201.902C379.85 201.212 380.039 200.411 380.039 199.5C380.039 198.628 379.85 197.853 379.473 197.176C379.095 196.499 378.535 195.932 377.793 195.477C377.051 195.008 376.146 194.656 375.078 194.422C373.997 194.174 372.76 194.051 371.367 194.051ZM356.562 159.793L385 159.793L385 166.629L367.305 176.687L385 176.687L385 183.543L356.562 183.543L356.562 176.687L374.258 166.629L356.562 166.629L356.562 159.793ZM356.562 142.273L385 142.273L385 149.129L356.562 149.129L356.562 142.273ZM356.562 133.719L361.855 133.719L361.855 157.488L356.562 157.488L356.562 133.719ZM356.562 130.809L356.562 119.617C356.562 117.43 356.888 115.529 357.539 113.914C358.19 112.299 359.154 111.056 360.43 110.184C361.706 109.298 363.281 108.855 365.156 108.855C366.784 108.855 368.145 109.109 369.238 109.617C370.332 110.125 371.237 110.835 371.953 111.746C372.656 112.645 373.236 113.693 373.691 114.891L374.961 117.137L374.961 126.531L369.668 126.57L369.668 119.617C369.668 118.745 369.512 118.022 369.199 117.449C368.887 116.876 368.444 116.447 367.871 116.16C367.285 115.861 366.589 115.711 365.781 115.711C364.961 115.711 364.258 115.861 363.672 116.16C363.086 116.46 362.637 116.902 362.324 117.488C362.012 118.061 361.855 118.771 361.855 119.617L361.855 123.953L385 123.953L385 130.809L356.562 130.809ZM385 115.242L372.422 121.531L372.383 114.266L384.707 107.898L385 107.898L385 115.242ZM362.539 92.6641L385 99.5977L385 106.961L356.562 96.5117L356.562 91.8437L362.539 92.6641ZM385 86.9219L362.539 93.875L356.562 94.7734L356.562 90.0469L385 79.5391L385 86.9219ZM374.395 87.1953L379.687 87.1953L379.687 101.785L374.395 101.785L374.395 87.1953ZM375.371 61.707L375.371 54.8711C377.35 54.9622 379.095 55.4961 380.605 56.4727C382.116 57.4492 383.294 58.8034 384.141 60.5352C384.974 62.2539 385.391 64.2852 385.391 66.6289C385.391 68.5299 385.072 70.2292 384.434 71.7266C383.796 73.2109 382.878 74.474 381.68 75.5156C380.482 76.5443 379.03 77.332 377.324 77.8789C375.618 78.4128 373.698 78.6797 371.562 78.6797L370.02 78.6797C367.884 78.6797 365.964 78.3997 364.258 77.8398C362.539 77.2669 361.081 76.4596 359.883 75.418C358.672 74.3633 357.747 73.1003 357.109 71.6289C356.471 70.1576 356.152 68.5234 356.152 66.7266C356.152 64.2526 356.595 62.1628 357.48 60.457C358.366 58.7513 359.583 57.4297 361.133 56.4922C362.669 55.5547 364.421 55.0013 366.387 54.832L366.387 61.668C365.319 61.694 364.427 61.8763 363.711 62.2148C362.982 62.5534 362.435 63.0872 362.07 63.8164C361.706 64.5456 361.523 65.5156 361.523 66.7266C361.523 67.5729 361.68 68.3086 361.992 68.9336C362.305 69.5586 362.799 70.0794 363.477 70.4961C364.154 70.9128 365.033 71.2253 366.113 71.4336C367.181 71.6289 368.47 71.7266 369.98 71.7266L371.562 71.7266C373.073 71.7266 374.362 71.6354 375.43 71.4531C376.497 71.2708 377.37 70.9779 378.047 70.5742C378.724 70.1706 379.225 69.6497 379.551 69.0117C379.863 68.3607 380.02 67.5664 380.02 66.6289C380.02 65.5872 379.857 64.7083 379.531 63.9922C379.193 63.276 378.685 62.7227 378.008 62.332C377.318 61.9414 376.439 61.7331 375.371 61.707ZM356.562 38.4453L385 38.4453L385 45.3008L356.562 45.3008L356.562 38.4453ZM356.562 29.8906L361.855 29.8906L361.855 53.6602L356.562 53.6602L356.562 29.8906ZM377.441 12.6445C376.999 12.6445 376.602 12.7096 376.25 12.8398C375.885 12.97 375.547 13.2109 375.234 13.5625C374.922 13.9141 374.609 14.4219 374.297 15.0859C373.971 15.737 373.633 16.5964 373.281 17.6641C372.865 18.9141 372.396 20.1185 371.875 21.2773C371.341 22.4362 370.723 23.4714 370.02 24.3828C369.303 25.2943 368.47 26.0169 367.52 26.5508C366.556 27.0846 365.436 27.3516 364.16 27.3516C362.936 27.3516 361.836 27.0781 360.859 26.5312C359.87 25.9844 359.03 25.2227 358.34 24.2461C357.637 23.2565 357.103 22.0977 356.738 20.7695C356.361 19.4414 356.172 17.9896 356.172 16.4141C356.172 14.3307 356.536 12.4948 357.266 10.9062C357.982 9.30469 359.004 8.05469 360.332 7.15625C361.647 6.24479 363.203 5.78906 365 5.78906L365 12.6055C364.284 12.6055 363.652 12.7552 363.105 13.0547C362.559 13.3411 362.129 13.7773 361.816 14.3633C361.504 14.9492 361.348 15.6849 361.348 16.5703C361.348 17.4297 361.478 18.1523 361.738 18.7383C361.999 19.3242 362.35 19.7669 362.793 20.0664C363.223 20.3659 363.698 20.5156 364.219 20.5156C364.648 20.5156 365.039 20.3984 365.391 20.1641C365.729 19.9167 366.048 19.5716 366.348 19.1289C366.647 18.6732 366.934 18.1263 367.207 17.4883C367.48 16.8372 367.747 16.1081 368.008 15.3008C368.49 13.7904 369.03 12.4492 369.629 11.2773C370.215 10.0924 370.885 9.09635 371.641 8.28906C372.383 7.46875 373.229 6.85026 374.18 6.43359C375.13 6.0039 376.204 5.78906 377.402 5.78906C378.678 5.78906 379.811 6.03646 380.801 6.53125C381.79 7.02604 382.63 7.73567 383.32 8.66015C383.997 9.58463 384.512 10.6914 384.863 11.9805C385.215 13.2695 385.391 14.7083 385.391 16.2969C385.391 17.7552 385.208 19.194 384.844 20.6133C384.466 22.0195 383.893 23.2956 383.125 24.4414C382.344 25.5872 381.348 26.5052 380.137 27.1953C378.913 27.8724 377.461 28.2109 375.781 28.2109L375.781 21.3359C376.615 21.3359 377.318 21.2253 377.891 21.0039C378.464 20.7825 378.926 20.457 379.277 20.0273C379.616 19.5977 379.863 19.0703 380.02 18.4453C380.163 17.8203 380.234 17.1042 380.234 16.2969C380.234 15.4245 380.111 14.7214 379.863 14.1875C379.603 13.6536 379.264 13.263 378.848 13.0156C378.418 12.7682 377.949 12.6445 377.441 12.6445Z" fill="white"/>
</g>
</svg>
