<svg width="385" height="240" viewBox="0 0 385 240" fill="none" xmlns="http://www.w3.org/2000/svg">
<mask id="mask0_97_268" style="mask-type:alpha" maskUnits="userSpaceOnUse" x="0" y="0" width="385" height="240">
<rect width="385" height="240" rx="16" fill="#EC6967"/>
</mask>
<g mask="url(#mask0_97_268)">
<rect width="385" height="240" rx="16" fill="#40B37B"/>
<path opacity="0.2" d="M51.9813 75.6776C49.8435 75.6776 47.8481 76.1051 45.9953 76.8178C44.1425 67.2687 35.7336 60 25.472 60C14.4977 60 5.37617 68.5514 4.52103 79.3832C2.5257 78.243 0.102804 77.6729 -2.32009 77.6729C-10.1589 77.6729 -16.4299 83.8014 -17 91.3551H7.22897H12.3598H36.1612H43.715H67.8014C67.8014 82.6612 60.8178 75.6776 51.9813 75.6776Z" fill="#F2F2F2"/>
<path opacity="0.25" d="M377.252 225.303C376.799 225.303 376.392 225.369 376.031 225.503C375.658 225.636 375.311 225.883 374.99 226.244C374.67 226.604 374.35 227.125 374.029 227.805C373.696 228.472 373.349 229.353 372.988 230.448C372.561 231.729 372.081 232.964 371.547 234.151C371 235.339 370.366 236.4 369.645 237.334C368.911 238.269 368.057 239.009 367.083 239.557C366.095 240.104 364.947 240.377 363.639 240.377C362.385 240.377 361.257 240.097 360.256 239.537C359.242 238.976 358.381 238.195 357.673 237.194C356.953 236.18 356.405 234.992 356.032 233.631C355.645 232.27 355.451 230.781 355.451 229.167C355.451 227.031 355.825 225.149 356.572 223.521C357.306 221.879 358.354 220.598 359.715 219.677C361.063 218.743 362.658 218.276 364.5 218.276L364.5 225.263C363.766 225.263 363.119 225.416 362.558 225.723C361.998 226.017 361.557 226.464 361.237 227.064C360.917 227.665 360.756 228.419 360.756 229.327C360.756 230.208 360.89 230.948 361.157 231.549C361.424 232.149 361.784 232.603 362.238 232.91C362.678 233.217 363.165 233.371 363.699 233.371C364.14 233.371 364.54 233.25 364.9 233.01C365.247 232.757 365.574 232.403 365.881 231.949C366.188 231.482 366.482 230.922 366.762 230.268C367.042 229.6 367.316 228.853 367.583 228.025C368.077 226.477 368.631 225.103 369.245 223.901C369.845 222.687 370.533 221.666 371.307 220.838C372.067 219.998 372.935 219.364 373.909 218.937C374.883 218.496 375.985 218.276 377.212 218.276C378.52 218.276 379.681 218.529 380.696 219.037C381.71 219.544 382.571 220.271 383.278 221.219C383.972 222.166 384.5 223.301 384.86 224.622C385.22 225.943 385.4 227.418 385.4 229.046C385.4 230.541 385.214 232.016 384.84 233.471C384.453 234.912 383.866 236.22 383.078 237.395C382.277 238.569 381.256 239.51 380.015 240.217C378.761 240.911 377.272 241.258 375.551 241.258L375.551 234.211C376.405 234.211 377.126 234.098 377.713 233.871C378.3 233.644 378.774 233.311 379.134 232.87C379.481 232.43 379.735 231.889 379.895 231.249C380.042 230.608 380.115 229.874 380.115 229.046C380.115 228.152 379.988 227.431 379.735 226.884C379.468 226.337 379.121 225.937 378.694 225.683C378.253 225.43 377.773 225.303 377.252 225.303ZM355.852 200.539L385 200.539L385 207.565L355.852 207.565L355.852 200.539ZM355.852 191.77L361.277 191.77L361.277 216.134L355.852 216.134L355.852 191.77ZM361.978 178.877L385 185.984L385 193.532L355.852 182.821L355.852 178.037L361.978 178.877ZM385 172.992L361.978 180.119L355.852 181.04L355.852 176.195L385 165.424L385 172.992ZM374.129 173.272L379.555 173.272L379.555 188.227L374.129 188.227L374.129 173.272ZM372.608 151.391L372.608 158.898L368.003 158.938L368.003 152.852C368.003 151.758 367.883 150.883 367.643 150.229C367.389 149.576 367.022 149.102 366.542 148.808C366.062 148.501 365.461 148.348 364.74 148.348C363.913 148.348 363.245 148.501 362.738 148.808C362.231 149.115 361.864 149.602 361.637 150.27C361.397 150.924 361.277 151.771 361.277 152.812L361.277 156.255L385 156.255L385 163.282L355.852 163.282L355.852 152.812C355.852 151.01 356.018 149.402 356.352 147.987C356.672 146.573 357.166 145.371 357.833 144.384C358.501 143.383 359.342 142.622 360.356 142.102C361.357 141.581 362.538 141.321 363.899 141.321C365.087 141.321 366.202 141.574 367.243 142.082C368.284 142.589 369.131 143.436 369.785 144.624C370.426 145.799 370.759 147.407 370.786 149.449L372.608 151.391ZM385 151.671L385 160.6L379.595 158.197L379.595 151.671C379.595 150.71 379.448 149.943 379.154 149.369C378.847 148.781 378.447 148.361 377.953 148.107C377.446 147.84 376.885 147.707 376.271 147.707C375.524 147.707 374.877 147.834 374.33 148.087C373.782 148.328 373.362 148.715 373.068 149.249C372.761 149.782 372.608 150.496 372.608 151.391L372.608 157.296L368.003 157.256L368.003 150.189L369.845 148.548C369.765 146.599 370.039 145.058 370.666 143.923C371.293 142.776 372.121 141.955 373.148 141.461C374.176 140.967 375.25 140.72 376.372 140.72C378.28 140.72 379.875 141.134 381.156 141.961C382.437 142.776 383.398 143.997 384.039 145.625C384.68 147.253 385 149.269 385 151.671ZM379.595 117.558L385 117.558L385 132.292L379.595 132.292L379.595 117.558ZM355.852 129.79L385 129.79L385 136.816L355.852 136.816L355.852 129.79ZM379.595 94.5352L385 94.5352L385 110.07L379.595 110.07L379.595 94.5352ZM355.852 107.568L385 107.568L385 114.595L355.852 114.595L355.852 107.568ZM367.423 96.5371L372.648 96.5371L372.648 110.07L367.423 110.07L367.423 96.5371ZM355.852 94.4751L361.277 94.4751L361.277 110.07L355.852 110.07L355.852 94.4751ZM375.13 75.0762L375.13 68.0693C377.159 68.1628 378.947 68.71 380.496 69.7109C382.044 70.7119 383.252 72.0999 384.119 73.875C384.973 75.6367 385.4 77.7187 385.4 80.1211C385.4 82.0697 385.073 83.8114 384.419 85.3462C383.765 86.8677 382.825 88.1623 381.597 89.23C380.369 90.2843 378.881 91.0918 377.132 91.6523C375.384 92.1995 373.415 92.4731 371.227 92.4731L369.645 92.4731C367.456 92.4731 365.488 92.1862 363.739 91.6123C361.978 91.0251 360.483 90.1976 359.255 89.1299C358.014 88.0488 357.066 86.7542 356.412 85.2461C355.758 83.738 355.431 82.063 355.431 80.2212C355.431 77.6854 355.885 75.5433 356.792 73.7949C357.7 72.0465 358.948 70.6919 360.536 69.731C362.111 68.77 363.906 68.2028 365.921 68.0293L365.921 75.0361C364.827 75.0628 363.913 75.2497 363.179 75.5967C362.431 75.9437 361.871 76.4909 361.497 77.2383C361.123 77.9857 360.937 78.98 360.937 80.2212C360.937 81.0887 361.097 81.8428 361.417 82.4834C361.737 83.124 362.244 83.6579 362.938 84.085C363.632 84.512 364.533 84.8324 365.641 85.0459C366.736 85.2461 368.057 85.3462 369.605 85.3462L371.227 85.3462C372.775 85.3462 374.096 85.2528 375.19 85.0659C376.285 84.8791 377.179 84.5788 377.873 84.165C378.567 83.7513 379.081 83.2174 379.415 82.5635C379.735 81.8962 379.895 81.082 379.895 80.1211C379.895 79.0534 379.728 78.1525 379.395 77.4185C379.048 76.6844 378.527 76.1172 377.833 75.7168C377.126 75.3164 376.225 75.1029 375.13 75.0762ZM369.845 40.082L371.026 40.082C373.255 40.082 375.257 40.3957 377.032 41.0229C378.794 41.6369 380.302 42.5111 381.557 43.6455C382.798 44.7799 383.752 46.1213 384.419 47.6694C385.073 49.2176 385.4 50.9259 385.4 52.7944C385.4 54.6763 385.073 56.3979 384.419 57.9595C383.752 59.5076 382.798 60.8556 381.557 62.0034C380.302 63.1379 378.794 64.0187 377.032 64.646C375.257 65.2599 373.255 65.5669 371.026 65.5669L369.845 65.5669C367.616 65.5669 365.614 65.2599 363.839 64.646C362.064 64.0187 360.556 63.1445 359.315 62.0234C358.06 60.889 357.106 59.5477 356.452 57.9995C355.785 56.438 355.451 54.7163 355.451 52.8345C355.451 50.966 355.785 49.2576 356.452 47.7095C357.106 46.1479 358.06 44.8 359.315 43.6655C360.556 42.5311 362.064 41.6502 363.839 41.0229C365.614 40.3957 367.616 40.082 369.845 40.082ZM371.026 47.209L369.805 47.209C368.364 47.209 367.096 47.3358 366.001 47.5894C364.894 47.8296 363.966 48.1899 363.219 48.6704C362.471 49.1509 361.911 49.7448 361.537 50.4521C361.15 51.1462 360.957 51.9403 360.957 52.8345C360.957 53.7687 361.15 54.5828 361.537 55.2769C361.911 55.9709 362.471 56.5514 363.219 57.0186C363.966 57.4857 364.894 57.8394 366.001 58.0796C367.096 58.3065 368.364 58.4199 369.805 58.4199L371.026 58.4199C372.454 58.4199 373.722 58.3065 374.83 58.0796C375.924 57.8394 376.852 57.4857 377.613 57.0186C378.374 56.5381 378.947 55.9508 379.334 55.2568C379.722 54.5495 379.915 53.7287 379.915 52.7944C379.915 51.9002 379.722 51.1061 379.334 50.4121C378.947 49.7181 378.374 49.1375 377.613 48.6704C376.852 48.1899 375.924 47.8296 374.83 47.5894C373.722 47.3358 372.454 47.209 371.026 47.209ZM355.852 28.9712L385 28.9712L385 35.978L355.852 35.978L355.852 28.9712ZM355.852 -0.317383L385 -0.317384L385 6.68945L366.862 16.9995L385 16.9995L385 24.0264L355.852 24.0264L355.852 16.9995L373.989 6.68945L355.852 6.68945L355.852 -0.317383Z" fill="white"/>
<path d="M105.94 69H85.0605C77.8639 69 72 74.5404 72 81.34V229H119V81.34C119 74.5404 113.136 69 105.94 69Z" fill="url(#paint0_linear_97_268)"/>
<mask id="mask1_97_268" style="mask-type:alpha" maskUnits="userSpaceOnUse" x="-18" y="169" width="108" height="66">
<path d="M-18 169V228.08C-18 228.75 -17.9108 229.494 -17.7324 230.163C-17.5541 230.908 -17.2865 231.577 -16.9298 232.247C-16.3947 233.289 -15.7704 234.182 -14.9678 235H84.9166C88.1272 231.056 90 226.369 90 221.234C90 216.398 89.1974 211.71 87.6812 207.246C87.3245 206.278 86.9678 205.237 86.6111 204.269C83.5789 196.68 78.4955 189.909 71.9851 184.328C71.0041 183.51 70.0231 182.691 68.9529 181.947C60.659 175.771 50.403 171.381 39.0768 169.744C35.6879 169.223 32.2097 169 28.6424 169H-18Z" fill="#A7D3B0"/>
</mask>
<g mask="url(#mask1_97_268)">
<path d="M-18 169V228.08C-18 228.75 -17.9108 229.494 -17.7324 230.163C-17.5541 230.908 -17.2865 231.577 -16.9298 232.247C-16.3947 233.289 -15.7704 234.182 -14.9678 235H84.9166C88.1272 231.056 90 226.369 90 221.234C90 216.398 89.1974 211.71 87.6812 207.246C87.3245 206.278 86.9678 205.237 86.6111 204.269C83.5789 196.68 78.4955 189.909 71.9851 184.328C71.0041 183.51 70.0231 182.691 68.9529 181.947C60.659 175.771 50.403 171.381 39.0768 169.744C35.6879 169.223 32.2097 169 28.6424 169H-18Z" fill="#A7D3B0"/>
<g opacity="0.7">
<path d="M36.8604 168.405C40.9473 170.115 44.8192 172.36 48.4759 174.819C52.3477 177.492 56.0045 180.592 59.3386 183.906C62.6726 187.22 65.7916 190.855 68.3729 194.81C70.8465 198.445 72.9976 202.4 74.6108 206.676C75.3637 208.6 75.9014 210.631 76.3316 212.663C76.7618 214.587 76.8694 216.511 76.5467 218.435C76.009 221.856 73.9655 224.956 71.1692 226.988C68.3728 229.019 64.8237 229.981 61.4896 229.553C59.6612 229.339 57.9404 228.698 56.3271 227.736C55.0365 226.988 53.8535 225.919 52.5629 225.063C50.7345 223.567 48.9061 221.963 46.9702 220.466C45.1418 219.077 43.3135 217.901 41.1624 217.153C38.5812 216.19 35.7849 215.763 32.9885 215.656C28.7941 215.442 24.492 215.977 20.2975 216.511C17.9314 216.832 15.5653 217.366 13.0916 217.366C10.9406 217.366 8.78955 217.153 6.63853 216.725C2.55159 215.763 -1.42779 213.839 -4.54677 211.059C-7.7733 208.28 -10.247 204.645 -11.7527 200.583C-13.0433 196.948 -13.5811 192.993 -12.7207 189.251C-11.7527 185.296 -9.27902 181.875 -5.94494 179.63C-4.11657 178.347 -2.07309 177.171 0.0779276 176.53C2.22895 175.781 4.37996 175.461 6.63853 175.247C10.7255 174.819 15.1351 174.819 19.0069 173.429C19.8673 173.109 20.7277 172.788 21.5881 172.253C22.4486 171.719 23.2014 171.078 23.9543 170.436C25.7826 168.94 27.9336 167.977 30.2998 167.657C32.5583 167.229 34.8169 167.55 36.8604 168.405C37.183 168.512 37.2906 168.084 36.9679 167.977C32.6659 166.267 27.7186 166.801 24.0618 169.581C23.2014 170.222 22.4486 170.971 21.5881 171.612C20.7277 172.147 19.7598 172.574 18.8994 172.895C16.9634 173.536 14.8124 173.857 12.769 174.071C8.35936 174.498 3.73466 174.605 -0.459827 176.102C-1.53534 176.53 -2.5033 176.957 -3.47126 177.492C-4.43922 178.133 -5.51473 178.668 -6.48269 179.416C-8.20351 180.699 -9.60168 182.089 -10.7847 183.906C-12.9358 187.113 -13.6886 190.961 -13.366 194.703C-13.0433 198.765 -11.5376 202.828 -9.17147 206.142C-6.80535 209.669 -3.47126 212.663 0.293027 214.587C4.05731 216.618 8.35936 217.687 12.6614 217.687C15.0275 217.687 17.3937 217.259 19.7598 216.939C22.2335 216.511 24.7071 216.297 27.1808 216.083C30.6224 215.87 34.2792 215.763 37.7208 216.404C40.0869 216.832 42.4531 217.794 44.4965 219.077C46.54 220.253 48.2608 221.856 50.0892 223.353C51.0571 224.208 52.1326 225.063 53.2082 225.812C54.4988 226.881 55.7894 227.843 57.2951 228.591C60.5216 230.195 64.1784 230.408 67.62 229.339C70.9541 228.27 73.7504 226.132 75.5788 223.139C76.5467 221.642 77.0845 219.932 77.4071 218.115C77.7298 216.19 77.5147 214.266 77.0845 212.342C76.2241 208.066 74.7184 204.004 72.6749 200.262C70.5239 196.093 67.8351 192.244 64.8237 188.61C61.7047 184.868 58.263 181.447 54.4988 178.347C50.9496 175.354 47.0777 172.681 42.9908 170.436C41.1624 169.367 39.2265 168.512 37.2906 167.657C36.7528 167.87 36.6453 168.298 36.8604 168.405Z" fill="white"/>
<path d="M64.8516 212.996C64.9584 214.418 64.9584 216.168 63.9973 217.371C63.143 218.246 61.8615 218.356 60.7936 218.246C58.9782 218.028 57.2696 217.262 55.6677 216.496C53.532 215.512 51.3962 214.308 49.2604 213.105C46.911 211.793 44.5616 210.37 42.2123 209.058C39.8629 207.636 37.5135 206.323 35.0574 205.12C32.9216 204.026 30.679 202.932 28.3297 202.166C26.5142 201.51 24.4852 200.963 22.563 201.072C21.8155 201.072 20.9612 201.182 20.2137 201.51C18.8254 202.057 17.4371 202.385 15.9421 202.604C13.1656 203.041 10.2823 202.823 7.61252 201.838C5.47674 200.963 3.55451 199.541 2.05946 197.681C0.77799 196.041 0.0304648 193.962 -0.0763246 191.884C-0.183114 189.805 0.564415 187.727 1.84589 186.086C3.55452 184.008 6.01068 182.695 8.57362 181.93C10.389 181.383 12.3113 181.054 14.2335 181.164C15.5149 181.273 16.9032 181.492 18.1847 181.492C19.2526 181.492 20.4272 181.383 21.4951 181.054C23.6309 180.507 25.6599 179.304 27.2618 177.663C28.3297 176.57 29.6111 175.585 31.1062 175.038C33.7759 174.054 36.6592 174.601 39.1154 175.804C42.3191 177.445 44.9888 180.07 47.3382 182.805C50.2215 186.196 52.7844 189.805 55.1338 193.634C57.6967 197.681 59.9393 201.948 62.1819 206.214C63.4634 208.292 64.638 210.37 64.8516 212.996C64.8516 213.324 65.3856 213.324 65.3856 212.996C65.2788 211.683 64.9584 210.48 64.4245 209.277C63.9973 208.183 63.3566 207.089 62.8226 205.995C61.7547 203.807 60.5801 201.619 59.4054 199.541C57.056 195.384 54.5998 191.228 51.7165 187.399C49.2604 184.117 46.6974 180.836 43.4937 178.21C41.1444 176.241 38.3679 174.382 35.271 174.054C32.2809 173.725 29.5043 174.929 27.3686 177.007C26.5142 177.773 25.6599 178.538 24.6988 179.195C23.7377 179.851 22.563 180.289 21.4951 180.617C20.3205 180.945 19.1458 181.054 17.9711 181.054C16.5828 180.945 15.1946 180.836 13.6995 180.726C12.7384 180.726 11.6705 180.836 10.7094 181.054C9.85509 181.164 9.00078 181.383 8.25325 181.711C6.86499 182.148 5.47673 182.695 4.30205 183.57C2.37984 184.774 0.777997 186.633 0.0304714 188.821C-0.610265 190.79 -0.610258 192.978 0.137267 194.947C0.884793 197.025 2.27305 198.885 3.98168 200.307C6.01067 201.948 8.36004 202.932 10.923 203.26C12.418 203.479 13.9131 203.479 15.4081 203.37C16.2624 203.26 17.01 203.151 17.8643 202.932C18.6118 202.713 19.4661 202.604 20.2137 202.276C21.8155 201.619 23.6309 201.729 25.2328 201.948C27.4753 202.385 29.6111 203.26 31.6401 204.135C34.0963 205.229 36.4456 206.542 38.795 207.855C41.2512 209.277 43.7073 210.699 46.1635 212.121C48.4061 213.433 50.7554 214.746 52.998 215.949C54.9202 216.934 56.8424 217.918 58.8714 218.465C60.2597 218.903 61.7547 219.231 63.143 218.793C64.4245 218.356 65.0652 217.262 65.3856 215.949C65.5991 215.074 65.5992 214.09 65.4924 213.215C65.2788 212.668 64.7448 212.668 64.8516 212.996Z" fill="white"/>
<path d="M52.5885 198.435C54.402 201.087 56.6423 203.526 57.7091 206.602C58.1358 207.769 58.4558 209.253 57.9224 210.526C57.6024 211.162 56.8556 211.587 56.1089 211.587C55.5755 211.587 55.1488 211.268 54.6154 210.95C51.3083 208.829 48.2147 206.39 45.2277 203.95C41.9206 201.299 38.7203 198.435 36.0533 195.041C34.9865 193.557 32.6396 190.269 35.1999 188.996C35.8399 188.678 36.5867 188.572 37.3334 188.466C37.8668 188.466 38.4002 188.36 38.9336 188.466C39.8937 188.572 40.7472 188.89 41.6006 189.208C45.121 190.693 48.2147 193.238 50.6683 196.102C51.5217 196.844 52.0551 197.587 52.5885 198.435C52.8019 198.647 53.2286 198.435 53.0152 198.223C50.775 195.041 47.8946 192.178 44.4809 190.163C42.774 189.102 40.9605 188.254 38.9336 188.042C37.9735 187.935 36.9067 188.042 36.0533 188.254C34.8798 188.572 33.813 189.208 33.5997 190.375C33.3863 191.648 34.1331 193.026 34.7731 193.981C35.8399 195.678 37.1201 197.057 38.5069 198.541C40.2138 200.238 41.9206 201.829 43.7342 203.314C46.9345 206.072 50.3482 208.723 53.8686 211.056C54.7221 211.693 55.6822 212.223 56.749 211.905C58.1358 211.481 58.5625 210.102 58.5625 208.723C58.5625 207.238 57.8157 205.753 57.1757 204.481C56.3222 202.996 55.3621 201.511 54.2953 200.132C53.8686 199.496 53.3352 198.86 52.9085 198.117C52.9085 197.905 52.4818 198.117 52.5885 198.435Z" fill="white"/>
</g>
</g>
<path d="M36 221V240H202C199.872 237.513 197.349 235.225 194.512 233.236C187.733 228.262 179.22 224.482 169.683 222.492H169.604C166.766 221.895 163.85 221.497 160.855 221.298H160.776C158.726 221.099 156.598 221 154.47 221H36Z" fill="#F4B0AE"/>
<path d="M0 202.089V227.007C0 227.808 0.0892944 228.698 0.267838 229.499C0.446396 230.389 0.714203 231.19 1.0713 231.991C1.60695 233.237 2.23186 234.304 3.03534 235.283C5.26721 238.042 8.65967 239.822 12.4092 240C12.4985 240 12.6771 240 12.7663 240H149C148.197 230.033 143.822 221.133 137.216 214.37C129.717 206.717 119.271 202 107.666 202H0V202.089Z" fill="#FEDE8C"/>
<path d="M161.699 89.7063H163.404V183.909H161.699V89.7063Z" fill="#A7B6CC"/>
<path d="M49.4251 47.186H51.4893V141.389H49.4251V47.186Z" fill="#A7B6CC"/>
<line x1="37.697" y1="44.1254" x2="193.697" y2="102.125" stroke="#313694" stroke-width="4"/>
<path d="M69.0791 103.632C70.1561 115.107 61.6301 125.337 50.0527 126.405C38.4753 127.472 28.1543 119.021 27.0774 107.546C26.0004 96.0711 34.5264 85.8413 46.1038 84.7738C57.6812 83.7064 68.0022 92.1571 69.0791 103.632Z" fill="#FEDE8C"/>
<path d="M64.2326 104.077C65.0404 112.884 58.5785 120.801 49.6038 121.601C40.7188 122.402 32.7313 115.997 31.9236 107.102C31.1158 98.2952 37.5777 90.3782 46.5524 89.5776C55.4374 88.777 63.4249 95.2707 64.2326 104.077Z" fill="#FECC4D"/>
<g opacity="0.75">
<g opacity="0.75">
<path opacity="0.75" d="M49.0692 105.945L47.723 105.856C46.0178 105.678 44.6715 104.166 44.851 102.476C44.9408 101.586 45.3895 100.875 46.0178 100.341C46.646 99.8072 47.4537 99.5403 48.3512 99.6293L52.0308 99.9851" stroke="white" stroke-width="2" stroke-miterlimit="10" stroke-linecap="round"/>
<path opacity="0.75" d="M47.7231 105.767L49.0693 105.856C50.7745 106.034 52.1207 107.546 51.9412 109.236C51.8515 110.126 51.4027 110.838 50.7745 111.371C50.1463 111.905 49.3385 112.172 48.4411 112.083L44.6717 111.727C44.5819 111.727 44.5819 111.727 44.4922 111.727" stroke="white" stroke-width="2" stroke-miterlimit="10" stroke-linecap="round"/>
<path opacity="0.75" d="M47.7236 114.663C47.8131 113.862 47.9027 112.973 47.9922 112.172" stroke="white" stroke-width="2" stroke-miterlimit="10" stroke-linecap="round"/>
<path opacity="0.75" d="M49.1592 99.6294C49.2487 98.6509 49.3382 97.6724 49.4277 96.6938" stroke="white" stroke-width="2" stroke-miterlimit="10" stroke-linecap="round"/>
</g>
</g>
<mask id="mask2_97_268" style="mask-type:alpha" maskUnits="userSpaceOnUse" x="6" y="108" width="89" height="36">
<path d="M91.2464 108.436L8.76857 123.736C7.24287 124.003 6.25562 125.426 6.70436 126.672C11.2815 139.481 32.1029 146.331 54.8987 142.061C77.7843 137.791 94.6568 124.003 94.2081 110.393C94.2081 109.059 92.7721 108.169 91.2464 108.436Z" fill="#6D75E7"/>
</mask>
<g mask="url(#mask2_97_268)">
<path d="M91.2464 108.436L8.76857 123.736C7.24287 124.003 6.25562 125.426 6.70436 126.672C11.2815 139.481 32.1029 146.331 54.8987 142.061C77.7843 137.791 94.6568 124.003 94.2081 110.393C94.2081 109.059 92.7721 108.169 91.2464 108.436Z" fill="#1B4F9A"/>
<g opacity="0.5">
<path d="M29.8945 84.096C34.6511 79.0256 41.2924 76.0011 48.2029 75.6453C51.7928 75.4674 55.293 76.0011 58.6136 77.0686C62.1138 78.136 65.4344 79.7372 68.5756 81.6942C71.627 83.6512 74.4989 85.964 76.9221 88.7216C79.3453 91.4792 81.6787 94.6816 82.2172 98.4177C82.7557 102.065 81.4095 105.623 79.2555 108.559C76.9221 111.672 73.6912 113.985 70.4603 116.031C67.0499 118.255 63.6395 120.567 60.4983 123.147C57.3572 125.727 54.3058 128.484 51.4338 131.509C45.8695 137.38 41.1129 144.052 35.1896 149.567C32.4074 152.146 29.2662 154.726 25.5866 155.971C22.0865 157.128 18.0478 156.861 15.0862 154.459C12.304 152.146 10.6886 148.588 10.0603 145.119C9.34234 141.383 9.79108 137.558 10.6886 133.822C12.663 126.172 17.0606 119.5 20.5608 112.473C22.266 108.914 23.7917 105.267 24.5994 101.353C25.4071 97.2613 25.4071 92.9025 26.8431 88.8995C27.3816 87.0315 28.5483 85.5193 29.8945 84.096C30.074 83.9181 30.433 84.1849 30.2535 84.4518C28.9073 85.964 27.6508 87.5652 27.1123 89.5222C26.4841 91.4792 26.2148 93.6142 25.9456 95.6601C25.6764 97.7061 25.4969 99.6631 25.0481 101.709C24.6891 103.577 24.0609 105.356 23.4327 107.135C20.7403 114.341 16.2529 120.745 13.2015 127.773C10.3296 134.622 8.62435 142.895 12.1245 149.834C12.9322 151.346 13.9194 152.858 15.2657 153.925C16.7016 155.171 18.4966 155.882 20.3813 156.06C24.3302 156.416 28.0098 154.726 31.0612 152.502C34.2024 150.189 36.9845 147.343 39.5872 144.496C42.2796 141.561 44.7028 138.447 47.3055 135.512C52.5108 129.552 58.2547 124.126 64.7165 119.5C70.8193 115.141 78.7171 111.583 81.3197 104.022C81.948 102.243 82.1275 100.375 81.8582 98.5956C81.589 96.7276 80.871 95.0374 79.8838 93.4362C78.0888 90.3228 75.4861 87.6542 72.704 85.3414C69.9218 83.0285 66.8704 81.0715 63.5497 79.5593C60.3188 78.0471 56.9084 76.8907 53.4083 76.4459C46.6772 75.4674 39.5872 77.1575 34.0229 81.1605C32.6767 82.139 31.3304 83.2954 30.2535 84.5408C29.9842 84.6297 29.6252 84.3629 29.8945 84.096Z" fill="#979797"/>
<path d="M43.8956 89.4334C45.511 86.0531 48.8317 83.7403 52.6011 83.2955C54.4858 83.0286 56.4602 83.2955 58.2552 84.0071C60.3194 84.8077 62.3835 85.8752 64.1785 87.1205C66.0632 88.3659 67.7684 89.7892 69.2941 91.3904C70.1018 92.191 70.8198 93.0805 71.448 93.9701C72.166 94.8596 72.7942 95.8381 72.884 96.9945C73.1532 99.1294 71.6275 100.731 70.0121 101.798C67.9479 103.043 65.6144 103.666 63.3708 104.467C61.2168 105.178 59.2424 106.068 57.4474 107.402C55.9217 108.559 54.5755 109.982 53.3191 111.405C50.8061 114.43 48.7419 117.81 46.1393 120.745C44.8828 122.258 43.5366 123.592 42.0109 124.748C40.2159 126.083 38.062 127.15 35.8183 126.883C33.8439 126.616 32.1387 125.282 31.7797 123.325C31.4207 121.546 31.9592 119.678 32.7669 117.988C34.6516 114.074 37.8825 110.96 40.0364 107.135C41.2032 105.089 42.0109 102.954 42.3699 100.553C42.7289 97.973 42.7289 95.3933 42.9981 92.8136C43.1776 91.6572 43.4468 90.5008 43.8956 89.4334C43.9853 89.1665 44.4341 89.4334 44.2546 89.7002C43.7161 90.8566 43.5366 92.013 43.3571 93.2584C43.2673 94.5038 43.1776 95.6602 43.0878 96.9056C42.9084 99.3073 42.7289 101.709 41.9211 103.933C40.5749 107.847 37.6133 111.049 35.2798 114.341C34.1131 115.942 33.0361 117.721 32.4079 119.678C31.8694 121.368 31.7797 123.414 32.9464 124.837C34.4721 126.705 37.1645 126.616 39.2287 125.727C41.1134 124.926 42.7289 123.503 44.0751 122.08C46.7675 119.411 48.8317 116.209 51.0754 113.184C53.2293 110.249 55.6525 107.491 58.8834 105.623C60.8578 104.467 63.0118 103.844 65.1657 103.132C67.2299 102.421 69.4736 101.709 71.089 100.108C71.807 99.3963 72.3455 98.4178 72.3455 97.4393C72.3455 96.2829 71.7173 95.2154 71.089 94.3259C69.8326 92.5468 68.3069 90.9456 66.6017 89.6113C64.9862 88.188 63.1015 86.9426 61.2168 85.9641C59.4219 84.9856 57.4474 84.0961 55.473 83.8292C51.8831 83.2955 48.1137 84.6298 45.6905 87.4764C45.0623 88.188 44.6136 88.9886 44.1648 89.7892C44.1648 89.9671 43.8058 89.7002 43.8956 89.4334Z" fill="#979797"/>
<path d="M77.4607 119.678C73.7811 121.19 70.1912 123.236 66.9603 125.549C63.4602 127.951 60.1395 130.797 57.0881 133.822C54.0367 136.846 51.2545 140.138 48.8313 143.696C46.5877 147.076 44.6132 150.634 43.1772 154.459C42.549 156.238 42.0105 158.017 41.6515 159.886C41.2926 161.665 41.1131 163.444 41.3823 165.134C41.9208 168.247 43.7157 171.094 46.3184 172.962C48.8313 174.83 52.0622 175.631 55.2034 175.275C56.9086 175.097 58.524 174.474 59.96 173.673C61.1267 172.962 62.2934 172.072 63.3704 171.183C65.0756 169.848 66.6911 168.336 68.486 167.002C70.1015 165.757 71.8067 164.689 73.7811 163.977C76.1145 163.088 78.7172 162.732 81.2301 162.554C85.0893 162.376 88.9484 162.821 92.7178 163.355C94.8717 163.711 97.0257 164.155 99.2694 164.155C101.244 164.155 103.218 163.977 105.193 163.533C108.962 162.643 112.552 160.864 115.424 158.373C118.386 155.794 120.629 152.502 121.975 148.855C123.142 145.564 123.681 142.006 122.873 138.625C122.065 134.978 119.732 131.954 116.68 129.819C114.975 128.662 113.18 127.595 111.206 126.972C109.231 126.35 107.257 125.994 105.193 125.816C101.423 125.371 97.4744 125.46 93.8845 124.215C93.0768 123.948 92.2691 123.592 91.5511 123.147C90.7434 122.702 90.1151 122.08 89.3972 121.546C87.7817 120.212 85.7175 119.322 83.5636 119.055C81.4096 118.699 79.3454 118.966 77.4607 119.678C77.1915 119.767 77.1018 119.322 77.371 119.233C81.2301 117.632 85.8073 118.166 89.1279 120.745C89.9356 121.368 90.5639 121.991 91.4613 122.524C92.2691 122.969 93.0768 123.414 93.9743 123.681C95.7692 124.304 97.6539 124.57 99.5386 124.748C103.577 125.193 107.706 125.193 111.565 126.616C112.552 126.972 113.449 127.417 114.347 127.862C115.244 128.396 116.232 128.929 117.039 129.552C118.565 130.708 119.911 132.043 120.988 133.555C122.963 136.49 123.681 139.96 123.411 143.429C123.052 147.165 121.706 150.723 119.642 153.837C117.488 157.039 114.526 159.708 111.026 161.576C107.616 163.355 103.667 164.422 99.8079 164.422C97.6539 164.422 95.5 164.066 93.346 163.711C91.1023 163.355 88.8587 163.088 86.5252 162.91C83.3841 162.643 80.0634 162.643 76.9223 163.266C74.7683 163.711 72.6144 164.511 70.7297 165.668C68.9347 166.735 67.3193 168.158 65.7038 169.493C64.8064 170.293 63.8191 171.005 62.9217 171.805C61.755 172.695 60.4985 173.674 59.1523 174.385C56.2804 175.808 52.87 176.075 49.7288 175.097C46.7671 174.118 44.0747 172.161 42.4593 169.493C41.6515 168.069 41.0233 166.557 40.8438 164.956C40.5746 163.177 40.7541 161.487 41.1131 159.708C41.831 155.883 43.3567 152.146 45.1517 148.677C47.1261 144.941 49.6391 141.383 52.3315 138.092C55.2034 134.711 58.3446 131.598 61.755 128.751C64.9859 126.083 68.486 123.592 72.1657 121.546C73.8709 120.656 75.5761 119.767 77.371 119.055C77.6403 119.144 77.73 119.589 77.4607 119.678Z" fill="#979797"/>
<path d="M51.7933 159.797C51.7036 161.042 51.6138 162.643 52.601 163.622C53.319 164.422 54.5755 164.511 55.5627 164.333C57.1782 164.155 58.7936 163.444 60.2296 162.821C62.204 161.931 64.1784 160.864 66.0631 159.885C68.2171 158.729 70.371 157.484 72.5249 156.238C74.6789 154.993 76.9226 153.837 79.0765 152.68C81.051 151.702 83.1151 150.723 85.2691 150.011C86.9743 149.478 88.7692 148.944 90.5642 149.033C91.2822 149.033 92.0001 149.122 92.7181 149.389C93.9746 149.834 95.3208 150.189 96.667 150.367C99.2697 150.723 101.872 150.545 104.296 149.656C106.27 148.944 108.065 147.699 109.321 146.009C110.488 144.585 111.206 142.717 111.206 140.849C111.296 138.981 110.578 137.202 109.411 135.69C107.885 133.822 105.552 132.665 103.219 132.043C101.513 131.598 99.8082 131.242 98.0132 131.331C96.7567 131.42 95.59 131.598 94.3336 131.598C93.3463 131.598 92.2694 131.509 91.2822 131.242C89.3077 130.708 87.5128 129.641 85.9871 128.218C84.9998 127.239 83.8331 126.35 82.4869 125.905C80.0637 125.015 77.3713 125.46 75.1276 126.616C72.166 128.129 69.7428 130.441 67.5888 132.843C64.8964 135.779 62.563 139.07 60.4091 142.45C58.0756 146.097 56.0114 149.745 53.9472 153.57C53.1395 155.616 52.0626 157.573 51.7933 159.797C51.7933 160.063 51.3446 160.063 51.3446 159.797C51.4343 158.64 51.7036 157.573 52.1523 156.505C52.601 155.527 53.1395 154.548 53.678 153.57C54.6652 151.613 55.7422 149.745 56.8192 147.788C58.9731 144.052 61.3065 140.404 63.8195 136.935C66.0631 134 68.4863 131.064 71.3582 128.751C73.5122 126.972 76.1148 125.371 78.897 125.104C81.5894 124.837 84.1921 125.905 86.1665 127.684C86.9743 128.395 87.6923 129.107 88.5897 129.641C89.4872 130.175 90.5642 130.619 91.5514 130.886C92.6284 131.153 93.7053 131.242 94.7823 131.242C96.0388 131.153 97.385 130.975 98.6414 130.975C99.5389 130.975 100.436 131.064 101.334 131.242C102.142 131.42 102.86 131.598 103.578 131.776C104.834 132.132 106.09 132.665 107.257 133.377C109.052 134.533 110.488 136.046 111.206 138.092C111.834 139.871 111.745 141.739 111.116 143.518C110.488 145.386 109.232 147.076 107.616 148.321C105.821 149.745 103.578 150.634 101.244 150.99C99.8979 151.168 98.5517 151.168 97.1157 151.079C96.3978 150.99 95.6798 150.901 94.8721 150.723C94.1541 150.545 93.3463 150.367 92.7181 150.1C91.2822 149.478 89.577 149.567 88.0512 149.834C85.9871 150.189 84.0126 150.99 82.1279 151.791C79.8842 152.769 77.7303 153.925 75.5764 155.082C73.3327 156.327 71.089 157.573 68.8453 158.818C66.7811 159.974 64.7169 161.131 62.563 162.287C60.8578 163.177 59.0629 163.977 57.1782 164.511C55.9217 164.867 54.4857 165.223 53.2293 164.778C52.0625 164.422 51.4343 163.444 51.2548 162.287C51.0753 161.487 51.0753 160.686 51.1651 159.885C51.4343 159.53 51.8831 159.53 51.7933 159.797Z" fill="#979797"/>
<path d="M63.1008 146.987C61.3956 149.389 59.4212 151.702 58.3442 154.459C57.8955 155.527 57.6263 156.95 58.1647 158.017C58.434 158.64 59.152 158.996 59.7802 158.996C60.3187 158.996 60.6777 158.729 61.1264 158.462C64.0881 156.505 66.96 154.281 69.7422 152.057C72.7038 149.567 75.7552 146.987 78.0887 143.874C79.0759 142.539 81.2298 139.515 78.8964 138.358C78.2682 138.092 77.6399 137.914 76.9219 137.914C76.4732 137.914 75.9347 137.825 75.3962 137.914C74.5885 138.003 73.691 138.269 72.9731 138.625C69.7421 139.96 66.8702 142.361 64.6265 144.941C64.1778 145.564 63.6393 146.275 63.1008 146.987C62.9213 147.254 62.5624 146.987 62.7419 146.72C64.806 143.785 67.4087 141.205 70.5499 139.337C72.0756 138.447 73.7808 137.647 75.5757 137.38C76.3835 137.291 77.3707 137.38 78.2682 137.558C79.2554 137.825 80.3323 138.358 80.5118 139.515C80.6913 140.671 80.0631 141.917 79.4349 142.895C78.4476 144.407 77.2809 145.742 76.0245 146.987C74.4988 148.499 72.8833 150.011 71.2679 151.435C68.3062 153.925 65.165 156.327 61.9341 158.551C61.1264 159.085 60.3187 159.619 59.2417 159.263C57.9852 158.907 57.5365 157.573 57.6263 156.416C57.6263 154.993 58.2545 153.748 58.9725 152.502C59.7802 151.079 60.6777 149.834 61.5751 148.499C62.0239 147.877 62.4726 147.254 62.9214 146.631C62.9214 146.453 63.2803 146.72 63.1008 146.987Z" fill="#979797"/>
</g>
</g>
<path d="M186.828 164.299C186.828 177.643 175.969 188.406 162.507 188.406C149.044 188.406 138.185 177.643 138.185 164.299C138.185 150.956 149.044 140.193 162.507 140.193C175.969 140.193 186.828 151.045 186.828 164.299Z" fill="#FEDE8C"/>
<path d="M181.174 164.299C181.174 174.529 172.827 182.802 162.506 182.802C152.185 182.802 143.839 174.529 143.839 164.299C143.839 154.07 152.185 145.797 162.506 145.797C172.827 145.797 181.174 154.07 181.174 164.299Z" fill="#FECC4D"/>
<g opacity="0.75">
<g opacity="0.75">
<path opacity="0.75" d="M170.763 155.671H154.788" stroke="white" stroke-width="2" stroke-miterlimit="10" stroke-linecap="round"/>
<path opacity="0.75" d="M162.505 173.017V155.671" stroke="white" stroke-width="2" stroke-miterlimit="10" stroke-linecap="round"/>
<path opacity="0.75" d="M159.813 161.809C156.582 162.075 154.339 162.787 154.339 163.677C154.339 164.744 158.018 165.634 162.506 165.634C166.993 165.634 170.583 164.744 170.583 163.677C170.583 162.876 168.429 162.164 165.378 161.898" stroke="white" stroke-width="1.75" stroke-miterlimit="10" stroke-linecap="round"/>
</g>
</g>
<mask id="mask3_97_268" style="mask-type:alpha" maskUnits="userSpaceOnUse" x="114" y="163" width="88" height="38">
<path d="M199.57 179.867L117.272 163.588C115.746 163.321 114.31 164.211 114.221 165.634C113.592 179.689 130.196 194.099 152.992 198.636C175.787 203.173 196.699 196.145 201.545 182.98C202.083 181.646 201.096 180.222 199.57 179.867Z" fill="#6D75E7"/>
</mask>
<g mask="url(#mask3_97_268)">
<path d="M199.57 179.867L117.272 163.588C115.746 163.321 114.31 164.211 114.221 165.634C113.592 179.689 130.196 194.099 152.992 198.636C175.787 203.173 196.699 196.145 201.545 182.98C202.083 181.646 201.096 180.222 199.57 179.867Z" fill="#1B4F9A"/>
<g opacity="0.4">
<path d="M116.858 128.573C121.615 123.503 128.256 120.479 135.167 120.123C138.757 119.945 142.257 120.479 145.578 121.546C149.078 122.613 152.398 124.215 155.539 126.172C158.591 128.129 161.463 130.441 163.886 133.199C166.309 135.957 168.643 139.159 169.181 142.895C169.72 146.542 168.373 150.1 166.219 153.036C163.886 156.149 160.655 158.462 157.424 160.508C154.014 162.732 150.603 165.045 147.462 167.625C144.321 170.204 141.27 172.962 138.398 175.986C132.833 181.857 128.077 188.529 122.153 194.044C119.371 196.624 116.23 199.204 112.55 200.449C109.05 201.605 105.012 201.338 102.05 198.937C99.2679 196.624 97.6524 193.066 97.0242 189.596C96.3062 185.86 96.7549 182.035 97.6524 178.299C99.6268 170.649 104.024 163.977 107.525 156.95C109.23 153.392 110.756 149.745 111.563 145.831C112.371 141.739 112.371 137.38 113.807 133.377C114.435 131.598 115.602 129.997 116.858 128.573C117.038 128.395 117.397 128.662 117.217 128.929C115.871 130.441 114.615 132.043 114.076 134C113.448 135.957 113.179 138.092 112.909 140.138C112.64 142.183 112.461 144.14 112.012 146.186C111.653 148.055 111.025 149.834 110.397 151.613C107.704 158.818 103.217 165.223 100.165 172.25C97.2934 179.1 95.5882 187.373 99.0884 194.311C99.8961 195.823 100.883 197.335 102.23 198.403C103.665 199.648 105.46 200.36 107.345 200.538C111.294 200.894 114.974 199.203 118.025 196.98C121.166 194.667 123.948 191.82 126.551 188.974C129.243 186.038 131.667 182.925 134.269 179.989C139.475 174.029 145.219 168.603 151.68 163.977C157.783 159.619 165.681 156.06 168.284 148.499C168.912 146.72 169.091 144.852 168.822 143.073C168.553 141.205 167.835 139.515 166.848 137.914C165.053 134.8 162.45 132.132 159.668 129.819C156.886 127.506 153.834 125.549 150.514 124.037C147.283 122.524 143.872 121.368 140.372 120.923C133.641 119.945 126.551 121.635 120.987 125.638C119.641 126.616 118.294 127.773 117.217 129.018C117.038 129.107 116.679 128.84 116.858 128.573Z" fill="#979797"/>
<path d="M130.948 133.911C132.564 130.53 135.884 128.218 139.654 127.773C141.539 127.506 143.513 127.773 145.308 128.484C147.372 129.285 149.436 130.352 151.231 131.598C153.116 132.843 154.821 134.266 156.347 135.868C157.155 136.668 157.873 137.558 158.501 138.447C159.219 139.337 159.847 140.315 159.937 141.472C160.206 143.607 158.68 145.208 157.065 146.275C155.001 147.521 152.667 148.143 150.423 148.944C148.27 149.656 146.295 150.545 144.5 151.88C142.974 153.036 141.628 154.459 140.372 155.882C137.859 158.907 135.795 162.287 133.192 165.223C131.936 166.735 130.589 168.069 129.064 169.226C127.269 170.56 125.115 171.627 122.871 171.361C120.897 171.094 119.191 169.759 118.832 167.802C118.473 166.023 119.012 164.155 119.82 162.465C121.704 158.551 124.935 155.438 127.089 151.613C128.256 149.567 129.064 147.432 129.423 145.03C129.782 142.45 129.782 139.871 130.051 137.291C130.23 136.135 130.41 135.067 130.948 133.911C131.038 133.644 131.487 133.911 131.307 134.178C130.769 135.334 130.589 136.49 130.41 137.736C130.32 138.981 130.23 140.137 130.141 141.383C129.961 143.785 129.782 146.186 128.974 148.41C127.628 152.324 124.666 155.527 122.333 158.818C121.166 160.419 120.089 162.198 119.461 164.155C118.922 165.845 118.832 167.891 119.999 169.315C121.525 171.183 124.217 171.094 126.281 170.204C128.166 169.404 129.782 167.98 131.128 166.557C133.82 163.888 135.884 160.686 138.128 157.662C140.282 154.726 142.705 151.968 145.936 150.1C147.911 148.944 150.065 148.321 152.218 147.61C154.283 146.898 156.526 146.186 158.142 144.585C158.86 143.874 159.398 142.895 159.398 141.917C159.398 140.76 158.77 139.693 158.142 138.803C156.885 137.024 155.36 135.423 153.654 134.089C152.039 132.665 150.154 131.42 148.27 130.441C146.475 129.463 144.5 128.573 142.526 128.306C138.936 127.773 135.166 129.107 132.743 131.954C132.115 132.665 131.666 133.466 131.218 134.266C131.218 134.444 130.859 134.178 130.948 133.911Z" fill="#979797"/>
<path d="M164.514 164.244C160.835 165.757 157.245 167.803 154.014 170.115C150.514 172.517 147.193 175.364 144.142 178.388C141.09 181.413 138.308 184.704 135.885 188.262C133.641 191.642 131.667 195.201 130.231 199.026C129.603 200.805 129.064 202.584 128.705 204.452C128.346 206.231 128.167 208.01 128.436 209.7C128.974 212.814 130.769 215.66 133.372 217.528C135.885 219.396 139.116 220.197 142.257 219.841C143.962 219.663 145.578 219.04 147.014 218.24C148.18 217.528 149.347 216.639 150.424 215.749C152.129 214.415 153.745 212.903 155.54 211.568C157.155 210.323 158.86 209.255 160.835 208.544C163.168 207.654 165.771 207.298 168.284 207.121C172.143 206.943 176.002 207.387 179.772 207.921C181.925 208.277 184.079 208.722 186.323 208.722C188.298 208.722 190.272 208.544 192.246 208.099C196.016 207.21 199.606 205.43 202.478 202.94C205.439 200.36 207.683 197.069 209.029 193.422C210.196 190.13 210.734 186.572 209.927 183.192C209.119 179.545 206.785 176.52 203.734 174.385C202.029 173.229 200.234 172.161 198.259 171.539C196.285 170.916 194.311 170.56 192.246 170.382C188.477 169.937 184.528 170.026 180.938 168.781C180.131 168.514 179.323 168.158 178.605 167.714C177.797 167.269 177.169 166.646 176.451 166.112C174.835 164.778 172.771 163.889 170.617 163.622C168.374 163.177 166.399 163.444 164.514 164.244C164.245 164.333 164.155 163.889 164.425 163.8C168.284 162.198 172.861 162.732 176.182 165.312C176.989 165.934 177.618 166.557 178.515 167.091C179.323 167.536 180.131 167.98 181.028 168.247C182.823 168.87 184.708 169.137 186.592 169.315C190.631 169.76 194.759 169.76 198.618 171.183C199.606 171.539 200.503 171.983 201.401 172.428C202.298 172.962 203.285 173.496 204.093 174.118C205.619 175.275 206.965 176.609 208.042 178.121C210.016 181.057 210.734 184.526 210.465 187.995C210.106 191.731 208.76 195.29 206.696 198.403C204.542 201.605 201.58 204.274 198.08 206.142C194.67 207.921 190.721 208.989 186.862 208.989C184.708 208.989 182.554 208.633 180.4 208.277C178.156 207.921 175.912 207.654 173.579 207.476C170.438 207.21 167.117 207.21 163.976 207.832C161.822 208.277 159.668 209.078 157.783 210.234C155.988 211.301 154.373 212.725 152.758 214.059C151.86 214.86 150.873 215.571 149.975 216.372C148.809 217.261 147.552 218.24 146.206 218.952C143.334 220.375 139.924 220.642 136.783 219.663C133.821 218.685 131.128 216.728 129.513 214.059C128.705 212.636 128.077 211.124 127.898 209.522C127.628 207.743 127.808 206.053 128.167 204.274C128.885 200.449 130.41 196.713 132.205 193.244C134.18 189.508 136.693 185.949 139.385 182.658C142.257 179.278 145.398 176.164 148.809 173.318C152.04 170.649 155.54 168.158 159.219 166.112C160.925 165.223 162.63 164.333 164.425 163.622C164.604 163.711 164.784 164.066 164.514 164.244Z" fill="#979797"/>
<path d="M138.846 204.274C138.756 205.519 138.667 207.12 139.654 208.099C140.372 208.9 141.628 208.989 142.615 208.811C144.231 208.633 145.846 207.921 147.282 207.298C149.257 206.409 151.231 205.341 153.116 204.363C155.27 203.206 157.424 201.961 159.578 200.716C161.732 199.47 163.975 198.314 166.129 197.158C168.104 196.179 170.168 195.201 172.322 194.489C174.027 193.955 175.822 193.421 177.617 193.51C178.335 193.51 179.053 193.599 179.771 193.866C181.027 194.311 182.374 194.667 183.72 194.845C186.322 195.201 188.925 195.023 191.348 194.133C193.323 193.421 195.118 192.176 196.374 190.486C197.541 189.063 198.259 187.195 198.259 185.327C198.349 183.459 197.631 181.679 196.464 180.167C194.938 178.299 192.605 177.143 190.271 176.52C188.566 176.075 186.861 175.719 185.066 175.808C183.809 175.897 182.643 176.075 181.386 176.075C180.399 176.075 179.322 175.986 178.335 175.719C176.36 175.186 174.565 174.118 173.04 172.695C172.053 171.716 170.886 170.827 169.54 170.382C167.116 169.493 164.424 169.937 162.18 171.094C159.219 172.606 156.796 174.919 154.642 177.321C151.949 180.256 149.616 183.547 147.462 186.928C145.128 190.575 143.064 194.222 141 198.047C140.103 200.093 139.026 202.05 138.846 204.274C138.846 204.541 138.397 204.541 138.397 204.274C138.487 203.118 138.756 202.05 139.205 200.983C139.654 200.004 140.192 199.026 140.731 198.047C141.718 196.09 142.795 194.222 143.872 192.265C146.026 188.529 148.359 184.882 150.872 181.413C153.116 178.477 155.539 175.542 158.411 173.229C160.565 171.45 163.168 169.848 165.95 169.582C168.642 169.315 171.245 170.382 173.219 172.161C174.027 172.873 174.745 173.585 175.642 174.118C176.54 174.652 177.617 175.097 178.604 175.364C179.681 175.63 180.758 175.719 181.835 175.719C183.091 175.63 184.438 175.453 185.694 175.453C186.592 175.453 187.489 175.542 188.387 175.719C189.194 175.897 189.912 176.075 190.63 176.253C191.887 176.609 193.143 177.143 194.31 177.854C196.105 179.011 197.541 180.523 198.259 182.569C198.887 184.348 198.797 186.216 198.169 187.995C197.541 189.863 196.284 191.553 194.669 192.799C192.874 194.222 190.63 195.112 188.297 195.378C186.951 195.556 185.604 195.556 184.168 195.467C183.45 195.378 182.733 195.29 181.925 195.112C181.207 194.934 180.399 194.756 179.771 194.489C178.335 193.866 176.63 193.955 175.104 194.222C173.04 194.578 171.065 195.378 169.181 196.179C166.937 197.158 164.783 198.314 162.629 199.47C160.385 200.716 158.142 201.961 155.898 203.206C153.834 204.363 151.77 205.519 149.616 206.676C147.911 207.565 146.116 208.366 144.231 208.9C142.974 209.255 141.538 209.611 140.282 209.166C139.115 208.811 138.487 207.832 138.308 206.676C138.128 205.875 138.128 205.075 138.218 204.274C138.397 204.007 138.846 204.007 138.846 204.274Z" fill="#979797"/>
<path d="M150.155 191.464C148.449 193.866 146.475 196.179 145.398 198.937C144.949 200.004 144.68 201.427 145.218 202.495C145.488 203.117 146.206 203.473 146.834 203.473C147.372 203.473 147.731 203.206 148.18 202.94C151.142 200.983 154.014 198.759 156.796 196.535C159.758 194.044 162.809 191.464 165.142 188.351C166.13 187.017 168.284 183.992 165.95 182.836C165.322 182.569 164.694 182.391 163.976 182.391C163.527 182.391 162.988 182.302 162.45 182.391C161.642 182.48 160.745 182.747 160.027 183.103C156.796 184.437 153.924 186.839 151.68 189.418C151.232 190.041 150.693 190.753 150.155 191.464C149.975 191.731 149.616 191.464 149.796 191.198C151.86 188.262 154.462 185.682 157.604 183.814C159.129 182.925 160.834 182.124 162.629 181.857C163.437 181.768 164.514 181.857 165.322 182.035C166.309 182.302 167.386 182.836 167.566 183.992C167.745 185.149 167.117 186.394 166.489 187.372C165.501 188.885 164.335 190.219 163.078 191.464C161.552 192.977 159.937 194.489 158.322 195.912C155.36 198.403 152.219 200.805 148.988 203.029C148.18 203.562 147.372 204.096 146.295 203.74C145.039 203.384 144.59 202.05 144.68 200.894C144.68 199.559 145.308 198.225 146.026 196.98C146.834 195.556 147.731 194.311 148.629 192.977C149.078 192.354 149.526 191.731 149.975 191.109C149.885 191.02 150.334 191.198 150.155 191.464Z" fill="#979797"/>
</g>
</g>
<path opacity="0.14" d="M180.904 28.2505C184.763 28.2505 188.174 30.0296 190.328 32.7872C193.2 28.6953 197.956 26.0266 203.341 26.0266C209.713 26.0266 215.188 29.7627 217.701 35.189C218.149 35.1 218.688 35.1 219.137 35.1C224.611 35.1 229.188 39.103 230.086 44.2623H218.867H208.187H192.033H187.725H169.776C169.237 42.928 168.968 41.5047 168.968 39.9925C168.968 33.4988 174.263 28.2505 180.904 28.2505Z" fill="white"/>
</g>
<defs>
<linearGradient id="paint0_linear_97_268" x1="95.226" y1="168.598" x2="96.7581" y2="228.968" gradientUnits="userSpaceOnUse">
<stop stop-color="#3368C8"/>
<stop offset="1" stop-color="#3368C8" stop-opacity="0"/>
</linearGradient>
</defs>
</svg>
