<svg width="387" height="426" viewBox="0 0 387 426" fill="none" xmlns="http://www.w3.org/2000/svg">
<mask id="mask0_530_8355" style="mask-type:alpha" maskUnits="userSpaceOnUse" x="0" y="0" width="387" height="426">
<path d="M0.998047 160C0.998047 84.5753 0.998047 46.8629 24.4295 23.4315C47.861 0 85.5733 0 160.998 0H226.427C301.851 0 339.564 0 362.995 23.4315C386.427 46.8629 386.427 84.5753 386.427 160V266C386.427 341.425 386.427 379.137 362.995 402.569C339.564 426 301.851 426 226.427 426H160.998C85.5733 426 47.861 426 24.4295 402.569C0.998047 379.137 0.998047 341.425 0.998047 266V160Z" fill="#E3DDFF"/>
</mask>
<g mask="url(#mask0_530_8355)">
<path d="M0.998047 160C0.998047 84.5753 0.998047 46.8629 24.4295 23.4315C47.861 0 85.5733 0 160.998 0H226.427C301.851 0 339.564 0 362.995 23.4315C386.427 46.8629 386.427 84.5753 386.427 160V266C386.427 341.425 386.427 379.137 362.995 402.569C339.564 426 301.851 426 226.427 426H160.998C85.5733 426 47.861 426 24.4295 402.569C0.998047 379.137 0.998047 341.425 0.998047 266V160Z" fill="#E3DDFF"/>
<mask id="mask1_530_8355" style="mask-type:alpha" maskUnits="userSpaceOnUse" x="-57" y="-19" width="298" height="185">
<g opacity="0.8">
<path d="M129.02 162.442C115.171 163.446 101.166 162.651 87.4605 160.954C72.8504 158.964 58.2364 155.473 44.2217 150.928C30.2071 146.383 16.3397 140.636 3.52184 133.232C-8.54118 126.571 -20.1561 118.558 -30.7216 108.886C-35.5512 104.571 -39.9308 99.6536 -44.0096 94.5836C-47.9371 89.8124 -50.9624 84.5844 -52.7849 78.7472C-56.125 68.4208 -54.801 56.8591 -49.8583 47.2205C-44.9155 37.5819 -36.3541 29.8663 -26.4263 26.3411C-21.0114 24.3501 -15.2917 23.707 -9.41861 24.1128C-4.7504 24.3777 0.0711654 25.6917 4.89074 26.2555C12.1221 27.8513 19.5049 29.746 27.0369 31.1895C34.1169 32.4865 40.8942 33.1856 47.9681 32.2322C56.5477 31.2675 64.9719 28.5037 72.942 24.8432C84.9727 19.5019 96.2446 11.916 107.216 4.48234C113.378 0.235349 119.237 -4.60949 126.153 -8.11205C132.168 -11.1578 138.485 -13.6057 145.104 -15.4557C157.894 -18.5524 171.745 -18.8067 184.402 -15.4514C197.359 -12.2484 209.422 -5.58818 219.384 3.63824C228.139 11.9736 235.243 22.2717 238.135 33.9517C241.029 46.3818 238.957 59.4493 232.813 70.4472C229.517 76.6229 225.468 82.8043 220.362 87.6434C215.407 92.7814 209.847 96.7239 203.835 100.52C193.013 107.502 180.683 113.746 171.825 123.114C169.874 125.229 167.922 127.344 166.273 130.057C164.624 132.769 163.427 135.629 162.231 138.488C159.237 145.262 154.585 150.998 148.424 155.245C142.714 159.638 135.945 161.94 129.02 162.442C127.967 162.6 128.271 163.948 129.325 163.79C143.776 162.481 156.852 153.981 163.141 141.032C164.638 138.02 165.684 134.862 167.181 131.85C168.83 129.137 170.931 126.571 172.883 124.456C177.388 119.922 182.948 115.979 188.359 112.488C200.083 105.049 212.862 98.2014 222.471 88.0776C224.873 85.3591 226.974 82.7929 228.924 79.9278C230.722 76.7638 232.972 73.7464 234.619 70.2835C237.614 64.2601 239.556 58.3946 240.291 51.6381C241.764 39.6252 238.42 27.7986 232.22 17.7938C225.566 6.89222 215.604 -2.33421 204.296 -8.25001C192.685 -14.7636 179.124 -18.4121 165.874 -18.4625C152.473 -18.8117 138.931 -15.7093 126.902 -9.61791C120.286 -6.26764 114.276 -1.72171 108.114 2.52529C101.803 7.22346 95.1891 11.3238 88.5753 15.4242C79.255 20.8951 69.1819 26.3718 58.6507 29.4515C51.4294 31.6061 43.4513 32.2662 35.9212 31.5728C28.5425 31.1783 21.4605 29.1312 14.2291 27.5354C10.3118 26.5147 6.09363 25.6463 2.02688 25.0768C-3.09543 23.9152 -8.06637 23.0525 -13.336 23.0921C-24.6281 23.1771 -35.1553 27.757 -43.2646 35.6192C-51.0732 43.3291 -55.8646 53.2666 -56.7385 64.2248C-57.3259 69.7801 -56.4076 75.324 -54.7365 80.8622C-52.9141 86.6994 -49.5881 91.7751 -45.6606 96.5463C-37.2001 107.284 -27.2381 116.511 -16.2266 124.079C-4.30893 132.691 8.65826 139.644 22.2249 145.543C36.2436 151.588 50.7103 156.28 65.6252 159.618C79.7872 162.962 94.3972 164.953 109.003 165.443C115.629 165.843 122.253 165.493 128.877 165.143C130.078 163.784 129.773 162.436 129.02 162.442Z" fill="white"/>
<path d="M-12.383 77.3971C-14.6951 73.5722 -17.1733 68.6785 -16.1897 63.9532C-15.0401 60.2967 -11.6119 58.1764 -8.47116 56.9702C-3.08536 55.0114 2.77625 54.7331 8.33929 54.606C15.7051 54.3345 23.3806 54.6748 31.0561 55.0151C39.4838 55.3588 48.0663 56.0084 56.4939 56.3521C65.0764 57.0017 73.504 57.3454 82.0753 57.2321C89.5959 57.2665 97.4152 57.1497 105.068 55.9642C111.074 55.2288 117.521 53.8852 122.741 50.8576C124.831 49.7991 127.065 48.2836 128.69 46.3076C131.798 42.8126 135.215 39.9294 139.085 37.2008C146.229 32.046 154.601 28.5751 163.459 27.5476C170.67 26.9703 178.058 28.2247 184.872 31.3074C190.778 34.0808 195.811 38.8336 199.053 44.4936C202.294 50.1537 203.147 57.0234 201.887 63.4257C200.052 71.6563 195.043 78.8043 188.961 84.5743C184.66 88.6741 179.75 92.3134 174.22 94.7292C170.482 96.2379 166.291 97.5919 162.708 99.4063C159.722 100.918 156.592 102.888 154.071 105.317C148.874 109.871 144.904 116.108 142.749 122.964C141.312 127.535 139.123 132.102 135.717 135.748C129.646 142.281 120.81 144.834 112.238 144.947C100.957 144.896 89.7755 141.335 79.3344 137.016C66.471 131.617 54.1935 125.152 42.2035 117.774C29.3066 110.086 16.9957 101.333 4.68469 92.58C-1.84123 88.5832 -8.06855 84.4353 -12.383 77.3971C-12.8477 76.4796 -14.3406 77.2356 -13.876 78.1532C-11.7187 81.6722 -9.11922 84.583 -5.92253 87.1914C-3.17929 89.6452 0.161117 91.7965 3.20293 94.099C9.28655 98.7041 15.6688 103.158 21.8961 107.306C34.3508 115.602 47.104 123.747 60.587 130.369C72.1011 136.067 83.9139 141.614 96.5888 144.418C105.946 146.597 116.342 147.865 125.466 144.398C134.291 141.081 140.351 133.786 143.38 124.95C144.684 121.6 145.989 118.249 147.747 115.053C149.505 111.857 152.169 108.97 154.691 106.541C157.511 103.96 160.64 101.991 163.925 100.327C167.961 98.6675 171.998 97.0077 176.333 95.1966C179.02 93.8358 181.851 92.0178 184.229 90.0453C186.463 88.5298 188.542 86.7084 190.167 84.7324C193.429 81.5433 196.536 78.0483 198.582 73.9382C202.253 67.852 204.098 60.3844 203.091 53.2088C202.094 46.7962 198.997 40.6791 194.118 36.2321C189.086 31.4793 182.571 28.2454 175.78 26.6886C167.783 24.9737 159.82 25.5475 152.19 28.2589C147.7 29.7641 143.519 31.881 139.494 34.3037C137.26 35.8192 135.325 37.1835 133.246 39.0049C131.466 40.6751 129.232 42.1906 127.606 44.1666C124.057 48.2698 118.826 50.5345 114.037 52.1909C107.147 54.1428 99.9364 54.7201 93.0241 55.1462C84.6077 55.5654 76.1801 55.2216 67.7525 54.8779C58.8714 54.3795 49.9903 53.8812 41.1092 53.3828C32.9802 52.8879 24.5526 52.5442 16.5785 52.3551C9.80987 52.3241 3.04128 52.2931 -3.40636 53.6368C-7.90756 54.379 -12.5525 55.5783 -15.8146 58.7674C-18.7781 61.8054 -19.0208 65.7712 -18.0579 69.895C-17.416 72.6443 -16.022 75.397 -14.4843 77.6927C-13.1127 78.9195 -11.6198 78.1635 -12.383 77.3971Z" fill="white"/>
<path d="M42.5224 100.745C33.6973 95.899 23.9795 92.2505 16.6417 85.1611C13.7967 82.5033 10.7994 78.8048 10.4887 74.491C10.4825 72.2585 11.9699 70.015 14.0578 68.9576C15.5492 68.2024 17.1928 68.4878 19.1347 68.6222C31.3849 69.8706 43.489 72.3107 55.2948 74.9019C68.2958 77.6331 81.2988 81.1083 93.5614 86.8216C98.6466 89.4628 109.864 95.3326 104.507 102.516C103.168 104.312 101.231 105.666 99.2927 107.02C97.8013 107.775 96.4601 108.827 94.8185 109.286C91.9838 110.349 89.1471 110.668 86.3103 110.986C74.3647 111.819 62.1104 109.083 51.1953 104.55C47.7578 103.683 45.2152 102.362 42.5224 100.745C41.6255 100.454 40.7328 101.651 41.6297 101.942C52.3987 107.667 64.507 111.595 76.9052 112.396C83.1794 112.944 89.4516 112.749 95.4192 110.472C98.2539 109.409 101.087 107.602 103.172 105.801C106.003 103.249 108.085 99.9597 107.029 96.3955C105.824 92.5349 101.784 89.7371 98.6425 87.9745C93.2569 84.7402 87.7253 82.6977 81.7453 80.5097C74.57 78.1817 67.5449 76.1503 60.3717 74.5665C47.5188 71.3878 34.2196 68.8077 21.0725 67.2683C17.7853 66.6974 14.3499 66.5741 11.8176 68.9743C8.54064 72.1241 9.29977 76.5834 11.252 80.4386C13.3544 84.5902 17.5448 87.6845 21.1366 90.3368C25.6252 93.2801 30.4122 96.0723 35.3472 98.4169C37.4414 99.592 39.8338 100.616 42.0781 102.088C42.3785 102.681 43.2712 101.483 42.5224 100.745Z" fill="white"/>
</g>
</mask>
<g mask="url(#mask1_530_8355)">
<g opacity="0.5">
<path d="M129.02 162.442C115.171 163.446 101.166 162.651 87.4605 160.954C72.8504 158.964 58.2364 155.473 44.2217 150.928C30.2071 146.383 16.3397 140.636 3.52184 133.232C-8.54118 126.571 -20.1561 118.558 -30.7216 108.886C-35.5512 104.571 -39.9308 99.6536 -44.0096 94.5836C-47.9371 89.8124 -50.9624 84.5844 -52.7849 78.7472C-56.125 68.4208 -54.801 56.8591 -49.8583 47.2205C-44.9155 37.5819 -36.3541 29.8663 -26.4263 26.3411C-21.0114 24.3501 -15.2917 23.707 -9.41861 24.1128C-4.7504 24.3777 0.0711654 25.6917 4.89074 26.2555C12.1221 27.8513 19.5049 29.746 27.0369 31.1895C34.1169 32.4865 40.8942 33.1856 47.9681 32.2322C56.5477 31.2675 64.9719 28.5037 72.942 24.8432C84.9727 19.5019 96.2446 11.916 107.216 4.48234C113.378 0.235349 119.237 -4.60949 126.153 -8.11205C132.168 -11.1578 138.485 -13.6057 145.104 -15.4557C157.894 -18.5524 171.745 -18.8067 184.402 -15.4514C197.359 -12.2484 209.422 -5.58818 219.384 3.63824C228.139 11.9736 235.243 22.2717 238.135 33.9517C241.029 46.3818 238.957 59.4493 232.813 70.4472C229.517 76.6229 225.468 82.8043 220.362 87.6434C215.407 92.7814 209.847 96.7239 203.835 100.52C193.013 107.502 180.683 113.746 171.825 123.114C169.874 125.229 167.922 127.344 166.273 130.057C164.624 132.769 163.427 135.629 162.231 138.488C159.237 145.262 154.585 150.998 148.424 155.245C142.714 159.638 135.945 161.94 129.02 162.442C127.967 162.6 128.271 163.948 129.325 163.79C143.776 162.481 156.852 153.981 163.141 141.032C164.638 138.02 165.684 134.862 167.181 131.85C168.83 129.137 170.931 126.571 172.883 124.456C177.388 119.922 182.948 115.979 188.359 112.488C200.083 105.049 212.862 98.2014 222.471 88.0776C224.873 85.3591 226.974 82.7929 228.924 79.9278C230.722 76.7638 232.972 73.7464 234.619 70.2835C237.614 64.2601 239.556 58.3946 240.291 51.6381C241.764 39.6252 238.42 27.7986 232.22 17.7938C225.566 6.89222 215.604 -2.33421 204.296 -8.25001C192.685 -14.7636 179.124 -18.4121 165.874 -18.4625C152.473 -18.8117 138.931 -15.7093 126.902 -9.61791C120.286 -6.26764 114.276 -1.72171 108.114 2.52529C101.803 7.22346 95.1891 11.3238 88.5753 15.4242C79.255 20.8951 69.1819 26.3718 58.6507 29.4515C51.4294 31.6061 43.4513 32.2662 35.9212 31.5728C28.5425 31.1783 21.4605 29.1312 14.2291 27.5354C10.3118 26.5147 6.09363 25.6463 2.02688 25.0768C-3.09543 23.9152 -8.06637 23.0525 -13.336 23.0921C-24.6281 23.1771 -35.1553 27.757 -43.2646 35.6192C-51.0732 43.3291 -55.8646 53.2666 -56.7385 64.2248C-57.3259 69.7801 -56.4076 75.324 -54.7365 80.8622C-52.9141 86.6994 -49.5881 91.7751 -45.6606 96.5463C-37.2001 107.284 -27.2381 116.511 -16.2266 124.079C-4.30893 132.691 8.65826 139.644 22.2249 145.543C36.2436 151.588 50.7103 156.28 65.6252 159.618C79.7872 162.962 94.3972 164.953 109.003 165.443C115.629 165.843 122.253 165.493 128.877 165.143C130.078 163.784 129.773 162.436 129.02 162.442Z" fill="white"/>
<path d="M-12.383 77.3971C-14.6951 73.5722 -17.1733 68.6785 -16.1897 63.9532C-15.0401 60.2967 -11.6119 58.1764 -8.47116 56.9702C-3.08536 55.0114 2.77625 54.7331 8.33929 54.606C15.7051 54.3345 23.3806 54.6748 31.0561 55.0151C39.4838 55.3588 48.0663 56.0084 56.4939 56.3521C65.0764 57.0017 73.504 57.3454 82.0753 57.2321C89.5959 57.2665 97.4152 57.1497 105.068 55.9642C111.074 55.2288 117.521 53.8852 122.741 50.8576C124.831 49.7991 127.065 48.2836 128.69 46.3076C131.798 42.8126 135.215 39.9294 139.085 37.2008C146.229 32.046 154.601 28.5751 163.459 27.5476C170.67 26.9703 178.058 28.2247 184.872 31.3074C190.778 34.0808 195.811 38.8336 199.053 44.4936C202.294 50.1537 203.147 57.0234 201.887 63.4257C200.052 71.6563 195.043 78.8043 188.961 84.5743C184.66 88.6741 179.75 92.3134 174.22 94.7292C170.482 96.2379 166.291 97.5919 162.708 99.4063C159.722 100.918 156.592 102.888 154.071 105.317C148.874 109.871 144.904 116.108 142.749 122.964C141.312 127.535 139.123 132.102 135.717 135.748C129.646 142.281 120.81 144.834 112.238 144.947C100.957 144.896 89.7755 141.335 79.3344 137.016C66.471 131.617 54.1935 125.152 42.2035 117.774C29.3066 110.086 16.9957 101.333 4.68469 92.58C-1.84123 88.5832 -8.06855 84.4353 -12.383 77.3971C-12.8477 76.4796 -14.3406 77.2356 -13.876 78.1532C-11.7187 81.6722 -9.11922 84.583 -5.92253 87.1914C-3.17929 89.6452 0.161117 91.7965 3.20293 94.099C9.28655 98.7041 15.6688 103.158 21.8961 107.306C34.3508 115.602 47.104 123.747 60.587 130.369C72.1011 136.067 83.9139 141.614 96.5888 144.418C105.946 146.597 116.342 147.865 125.466 144.398C134.291 141.081 140.351 133.786 143.38 124.95C144.684 121.6 145.989 118.249 147.747 115.053C149.505 111.857 152.169 108.97 154.691 106.541C157.511 103.96 160.64 101.991 163.925 100.327C167.961 98.6675 171.998 97.0077 176.333 95.1966C179.02 93.8358 181.851 92.0178 184.229 90.0453C186.463 88.5298 188.542 86.7084 190.167 84.7324C193.429 81.5433 196.536 78.0483 198.582 73.9382C202.253 67.852 204.098 60.3844 203.091 53.2088C202.094 46.7962 198.997 40.6791 194.118 36.2321C189.086 31.4793 182.571 28.2454 175.78 26.6886C167.783 24.9737 159.82 25.5475 152.19 28.2589C147.7 29.7641 143.519 31.881 139.494 34.3037C137.26 35.8192 135.325 37.1835 133.246 39.0049C131.466 40.6751 129.232 42.1906 127.606 44.1666C124.057 48.2698 118.826 50.5345 114.037 52.1909C107.147 54.1428 99.9364 54.7201 93.0241 55.1462C84.6077 55.5654 76.1801 55.2216 67.7525 54.8779C58.8714 54.3795 49.9903 53.8812 41.1092 53.3828C32.9802 52.8879 24.5526 52.5442 16.5785 52.3551C9.80987 52.3241 3.04128 52.2931 -3.40636 53.6368C-7.90756 54.379 -12.5525 55.5783 -15.8146 58.7674C-18.7781 61.8054 -19.0208 65.7712 -18.0579 69.895C-17.416 72.6443 -16.022 75.397 -14.4843 77.6927C-13.1127 78.9195 -11.6198 78.1635 -12.383 77.3971Z" fill="white"/>
<path d="M42.5224 100.745C33.6973 95.899 23.9795 92.2505 16.6417 85.1611C13.7967 82.5033 10.7994 78.8048 10.4887 74.491C10.4825 72.2585 11.9699 70.015 14.0578 68.9576C15.5492 68.2024 17.1928 68.4878 19.1347 68.6222C31.3849 69.8706 43.489 72.3107 55.2948 74.9019C68.2958 77.6331 81.2988 81.1083 93.5614 86.8216C98.6466 89.4628 109.864 95.3326 104.507 102.516C103.168 104.312 101.231 105.666 99.2927 107.02C97.8013 107.775 96.4601 108.827 94.8185 109.286C91.9838 110.349 89.1471 110.668 86.3103 110.986C74.3647 111.819 62.1104 109.083 51.1953 104.55C47.7578 103.683 45.2152 102.362 42.5224 100.745C41.6255 100.454 40.7328 101.651 41.6297 101.942C52.3987 107.667 64.507 111.595 76.9052 112.396C83.1794 112.944 89.4516 112.749 95.4192 110.472C98.2539 109.409 101.087 107.602 103.172 105.801C106.003 103.249 108.085 99.9597 107.029 96.3955C105.824 92.5349 101.784 89.7371 98.6425 87.9745C93.2569 84.7402 87.7253 82.6977 81.7453 80.5097C74.57 78.1817 67.5449 76.1503 60.3717 74.5665C47.5188 71.3878 34.2196 68.8077 21.0725 67.2683C17.7853 66.6974 14.3499 66.5741 11.8176 68.9743C8.54064 72.1241 9.29977 76.5834 11.252 80.4386C13.3544 84.5902 17.5448 87.6845 21.1366 90.3368C25.6252 93.2801 30.4122 96.0723 35.3472 98.4169C37.4414 99.592 39.8338 100.616 42.0781 102.088C42.3785 102.681 43.2712 101.483 42.5224 100.745Z" fill="white"/>
</g>
</g>
<mask id="mask2_530_8355" style="mask-type:alpha" maskUnits="userSpaceOnUse" x="302" y="357" width="79" height="79">
<path d="M380.6 396.3C380.6 417.966 363.046 435.6 341.3 435.6C319.634 435.6 302 418.046 302 396.3C302 374.555 319.634 357 341.3 357C363.046 357 380.6 374.555 380.6 396.3Z" fill="#FEDE8C"/>
</mask>
<g mask="url(#mask2_530_8355)">
<path d="M380.6 396.3C380.6 417.966 363.046 435.6 341.3 435.6C319.634 435.6 302 418.046 302 396.3C302 374.555 319.634 357 341.3 357C363.046 357 380.6 374.555 380.6 396.3Z" fill="#BBADFC"/>
<g opacity="0.5">
<path d="M254.239 441.26L265.61 440.617L350.887 355.339L339.517 355.983L254.239 441.26Z" fill="white"/>
<path d="M273.333 441.26L284.703 440.617L370.087 355.339L358.717 355.983L273.333 441.26Z" fill="white"/>
<path d="M293.928 441.26L305.298 440.617L390.575 355.339L379.205 355.983L293.928 441.26Z" fill="white"/>
<path d="M311.305 443.191L322.675 442.548L407.953 357.163L396.69 357.914L311.305 443.191Z" fill="white"/>
<path d="M330.506 443.191L341.876 442.548L427.153 357.163L415.783 357.914L330.506 443.191Z" fill="white"/>
<path d="M350.995 443.191L362.365 442.548L447.642 357.163L436.379 357.914L350.995 443.191Z" fill="white"/>
</g>
</g>
</g>
</svg>
