<svg width="386" height="426" viewBox="0 0 386 426" fill="none" xmlns="http://www.w3.org/2000/svg">
<mask id="mask0_1_209" style="mask-type:alpha" maskUnits="userSpaceOnUse" x="0" y="0" width="386" height="426">
<path d="M0.0859375 160C0.0859375 84.5753 0.0859375 46.8629 23.5174 23.4315C46.9489 0 84.6612 0 160.086 0H225.515C300.939 0 338.652 0 362.083 23.4315C385.514 46.8629 385.514 84.5753 385.514 160V266C385.514 341.425 385.514 379.137 362.083 402.569C338.652 426 300.939 426 225.514 426H160.086C84.6612 426 46.9489 426 23.5174 402.569C0.0859375 379.137 0.0859375 341.425 0.0859375 266V160Z" fill="#BEF3C0"/>
</mask>
<g mask="url(#mask0_1_209)">
<path d="M0.0859375 160C0.0859375 84.5753 0.0859375 46.8629 23.5174 23.4315C46.9489 0 84.6612 0 160.086 0H225.515C300.939 0 338.652 0 362.083 23.4315C385.514 46.8629 385.514 84.5753 385.514 160V266C385.514 341.425 385.514 379.137 362.083 402.569C338.652 426 300.939 426 225.514 426H160.086C84.6612 426 46.9489 426 23.5174 402.569C0.0859375 379.137 0.0859375 341.425 0.0859375 266V160Z" fill="#BEF3C0"/>
<mask id="mask1_1_209" style="mask-type:alpha" maskUnits="userSpaceOnUse" x="116" y="261" width="298" height="185">
<g opacity="0.8">
<path d="M302.02 442.442C288.171 443.446 274.166 442.651 260.461 440.954C245.85 438.964 231.236 435.473 217.222 430.928C203.207 426.383 189.34 420.636 176.522 413.232C164.459 406.571 152.844 398.558 142.278 388.886C137.449 384.571 133.069 379.654 128.99 374.584C125.063 369.812 122.038 364.584 120.215 358.747C116.875 348.421 118.199 336.859 123.142 327.221C128.084 317.582 136.646 309.866 146.574 306.341C151.989 304.35 157.708 303.707 163.581 304.113C168.25 304.378 173.071 305.692 177.891 306.255C185.122 307.851 192.505 309.746 200.037 311.19C207.117 312.486 213.894 313.186 220.968 312.232C229.548 311.268 237.972 308.504 245.942 304.843C257.973 299.502 269.245 291.916 280.216 284.482C286.378 280.235 292.237 275.391 299.153 271.888C305.168 268.842 311.485 266.394 318.104 264.544C330.894 261.448 344.745 261.193 357.402 264.549C370.359 267.752 382.422 274.412 392.384 283.638C401.139 291.974 408.243 302.272 411.135 313.952C414.029 326.382 411.957 339.449 405.813 350.447C402.517 356.623 398.468 362.804 393.362 367.643C388.407 372.781 382.847 376.724 376.835 380.52C366.013 387.502 353.683 393.746 344.825 403.114C342.874 405.229 340.922 407.344 339.273 410.057C337.624 412.769 336.427 415.629 335.231 418.488C332.237 425.262 327.585 430.998 321.424 435.245C315.714 439.638 308.945 441.94 302.02 442.442C300.967 442.6 301.271 443.948 302.325 443.79C316.776 442.481 329.852 433.981 336.141 421.032C337.638 418.02 338.684 414.862 340.181 411.85C341.83 409.137 343.931 406.571 345.883 404.456C350.388 399.922 355.948 395.979 361.359 392.488C373.083 385.049 385.862 378.201 395.471 368.078C397.873 365.359 399.974 362.793 401.924 359.928C403.722 356.764 405.972 353.746 407.619 350.284C410.614 344.26 412.556 338.395 413.291 331.638C414.764 319.625 411.42 307.799 405.22 297.794C398.566 286.892 388.604 277.666 377.296 271.75C365.685 265.236 352.124 261.588 338.874 261.538C325.473 261.188 311.931 264.291 299.902 270.382C293.286 273.732 287.276 278.278 281.114 282.525C274.803 287.223 268.189 291.324 261.575 295.424C252.255 300.895 242.182 306.372 231.651 309.451C224.429 311.606 216.451 312.266 208.921 311.573C201.543 311.178 194.461 309.131 187.229 307.535C183.312 306.515 179.094 305.646 175.027 305.077C169.905 303.915 164.934 303.052 159.664 303.092C148.372 303.177 137.845 307.757 129.735 315.619C121.927 323.329 117.135 333.267 116.261 344.225C115.674 349.78 116.592 355.324 118.263 360.862C120.086 366.699 123.412 371.775 127.339 376.546C135.8 387.284 145.762 396.511 156.773 404.079C168.691 412.691 181.658 419.644 195.225 425.543C209.244 431.588 223.71 436.28 238.625 439.618C252.787 442.962 267.397 444.953 282.003 445.443C288.629 445.843 295.253 445.493 301.877 445.143C303.078 443.784 302.773 442.436 302.02 442.442Z" fill="white"/>
<path d="M160.617 357.397C158.305 353.572 155.827 348.678 156.81 343.953C157.96 340.297 161.388 338.176 164.529 336.97C169.915 335.011 175.776 334.733 181.339 334.606C188.705 334.335 196.38 334.675 204.056 335.015C212.484 335.359 221.066 336.008 229.494 336.352C238.076 337.002 246.504 337.345 255.075 337.232C262.596 337.267 270.415 337.15 278.068 335.964C284.074 335.229 290.521 333.885 295.741 330.858C297.831 329.799 300.065 328.284 301.69 326.308C304.798 322.813 308.215 319.929 312.085 317.201C319.229 312.046 327.601 308.575 336.459 307.548C343.67 306.97 351.058 308.225 357.872 311.307C363.778 314.081 368.811 318.834 372.052 324.494C375.294 330.154 376.147 337.023 374.887 343.426C373.052 351.656 368.043 358.804 361.961 364.574C357.66 368.674 352.75 372.313 347.22 374.729C343.482 376.238 339.291 377.592 335.708 379.406C332.722 380.918 329.592 382.888 327.071 385.317C321.874 389.871 317.904 396.108 315.749 402.964C314.312 407.535 312.123 412.102 308.717 415.748C302.646 422.281 293.81 424.834 285.238 424.947C273.957 424.896 262.775 421.335 252.334 417.016C239.471 411.617 227.193 405.152 215.203 397.774C202.306 390.086 189.996 381.333 177.685 372.58C171.159 368.583 164.931 364.435 160.617 357.397C160.152 356.48 158.659 357.236 159.124 358.153C161.281 361.672 163.881 364.583 167.077 367.191C169.821 369.645 173.161 371.796 176.203 374.099C182.286 378.704 188.669 383.158 194.896 387.306C207.351 395.602 220.104 403.747 233.587 410.369C245.101 416.067 256.914 421.614 269.589 424.418C278.946 426.597 289.342 427.865 298.466 424.398C307.291 421.081 313.351 413.786 316.379 404.95C317.684 401.6 318.988 398.249 320.746 395.053C322.504 391.857 325.169 388.97 327.691 386.541C330.51 383.96 333.64 381.991 336.925 380.327C340.961 378.668 344.998 377.008 349.333 375.197C352.02 373.836 354.851 372.018 357.229 370.045C359.462 368.53 361.541 366.708 363.167 364.732C366.429 361.543 369.536 358.048 371.582 353.938C375.252 347.852 377.098 340.384 376.091 333.209C375.094 326.796 371.996 320.679 367.118 316.232C362.085 311.479 355.571 308.245 348.78 306.689C340.783 304.974 332.82 305.548 325.189 308.259C320.699 309.764 316.519 311.881 312.494 314.304C310.26 315.819 308.325 317.184 306.246 319.005C304.465 320.675 302.232 322.191 300.606 324.167C297.057 328.27 291.826 330.535 287.037 332.191C280.147 334.143 272.936 334.72 266.024 335.146C257.608 335.565 249.18 335.222 240.752 334.878C231.871 334.38 222.99 333.881 214.109 333.383C205.98 332.888 197.552 332.544 189.578 332.355C182.81 332.324 176.041 332.293 169.594 333.637C165.092 334.379 160.447 335.578 157.185 338.767C154.222 341.805 153.979 345.771 154.942 349.895C155.584 352.644 156.978 355.397 158.516 357.693C159.887 358.92 161.38 358.163 160.617 357.397Z" fill="white"/>
<path d="M215.522 380.745C206.697 375.899 196.98 372.25 189.642 365.161C186.797 362.503 183.799 358.805 183.489 354.491C183.483 352.259 184.97 350.015 187.058 348.958C188.549 348.202 190.193 348.488 192.135 348.622C204.385 349.871 216.489 352.311 228.295 354.902C241.296 357.633 254.299 361.108 266.561 366.822C271.647 369.463 282.864 375.333 277.507 382.516C276.168 384.312 274.231 385.666 272.293 387.02C270.801 387.775 269.46 388.827 267.819 389.286C264.984 390.349 262.147 390.668 259.31 390.986C247.365 391.819 235.11 389.083 224.195 384.55C220.758 383.683 218.215 382.362 215.522 380.745C214.626 380.454 213.733 381.651 214.63 381.942C225.399 387.667 237.507 391.595 249.905 392.396C256.179 392.944 262.452 392.749 268.419 390.472C271.254 389.409 274.087 387.602 276.172 385.801C279.003 383.249 281.085 379.96 280.029 376.396C278.824 372.535 274.784 369.737 271.643 367.974C266.257 364.74 260.725 362.698 254.745 360.51C247.57 358.182 240.545 356.15 233.372 354.567C220.519 351.388 207.22 348.808 194.073 347.268C190.785 346.697 187.35 346.574 184.818 348.974C181.541 352.124 182.3 356.583 184.252 360.439C186.354 364.59 190.545 367.685 194.137 370.337C198.625 373.28 203.412 376.072 208.347 378.417C210.441 379.592 212.834 380.616 215.078 382.088C215.378 382.681 216.271 381.483 215.522 380.745Z" fill="white"/>
</g>
</mask>
<g mask="url(#mask1_1_209)">
<g opacity="0.43">
<path d="M302.02 442.442C288.171 443.446 274.166 442.651 260.461 440.954C245.85 438.964 231.236 435.473 217.222 430.928C203.207 426.383 189.34 420.636 176.522 413.232C164.459 406.571 152.844 398.558 142.278 388.886C137.449 384.571 133.069 379.654 128.99 374.584C125.063 369.812 122.038 364.584 120.215 358.747C116.875 348.421 118.199 336.859 123.142 327.221C128.084 317.582 136.646 309.866 146.574 306.341C151.989 304.35 157.708 303.707 163.581 304.113C168.25 304.378 173.071 305.692 177.891 306.255C185.122 307.851 192.505 309.746 200.037 311.19C207.117 312.486 213.894 313.186 220.968 312.232C229.548 311.268 237.972 308.504 245.942 304.843C257.973 299.502 269.245 291.916 280.216 284.482C286.378 280.235 292.237 275.391 299.153 271.888C305.168 268.842 311.485 266.394 318.104 264.544C330.894 261.448 344.745 261.193 357.402 264.549C370.359 267.752 382.422 274.412 392.384 283.638C401.139 291.974 408.243 302.272 411.135 313.952C414.029 326.382 411.957 339.449 405.813 350.447C402.517 356.623 398.468 362.804 393.362 367.643C388.407 372.781 382.847 376.724 376.835 380.52C366.013 387.502 353.683 393.746 344.825 403.114C342.874 405.229 340.922 407.344 339.273 410.057C337.624 412.769 336.427 415.629 335.231 418.488C332.237 425.262 327.585 430.998 321.424 435.245C315.714 439.638 308.945 441.94 302.02 442.442C300.967 442.6 301.271 443.948 302.325 443.79C316.776 442.481 329.852 433.981 336.141 421.032C337.638 418.02 338.684 414.862 340.181 411.85C341.83 409.137 343.931 406.571 345.883 404.456C350.388 399.922 355.948 395.979 361.359 392.488C373.083 385.049 385.862 378.201 395.471 368.078C397.873 365.359 399.974 362.793 401.924 359.928C403.722 356.764 405.972 353.746 407.619 350.284C410.614 344.26 412.556 338.395 413.291 331.638C414.764 319.625 411.42 307.799 405.22 297.794C398.566 286.892 388.604 277.666 377.296 271.75C365.685 265.236 352.124 261.588 338.874 261.538C325.473 261.188 311.931 264.291 299.902 270.382C293.286 273.732 287.276 278.278 281.114 282.525C274.803 287.223 268.189 291.324 261.575 295.424C252.255 300.895 242.182 306.372 231.651 309.451C224.429 311.606 216.451 312.266 208.921 311.573C201.543 311.178 194.461 309.131 187.229 307.535C183.312 306.515 179.094 305.646 175.027 305.077C169.905 303.915 164.934 303.052 159.664 303.092C148.372 303.177 137.845 307.757 129.735 315.619C121.927 323.329 117.135 333.267 116.261 344.225C115.674 349.78 116.592 355.324 118.263 360.862C120.086 366.699 123.412 371.775 127.339 376.546C135.8 387.284 145.762 396.511 156.773 404.079C168.691 412.691 181.658 419.644 195.225 425.543C209.244 431.588 223.71 436.28 238.625 439.618C252.787 442.962 267.397 444.953 282.003 445.443C288.629 445.843 295.253 445.493 301.877 445.143C303.078 443.784 302.773 442.436 302.02 442.442Z" fill="white"/>
<path d="M160.617 357.397C158.305 353.572 155.827 348.678 156.81 343.953C157.96 340.297 161.388 338.176 164.529 336.97C169.915 335.011 175.776 334.733 181.339 334.606C188.705 334.335 196.38 334.675 204.056 335.015C212.484 335.359 221.066 336.008 229.494 336.352C238.076 337.002 246.504 337.345 255.075 337.232C262.596 337.267 270.415 337.15 278.068 335.964C284.074 335.229 290.521 333.885 295.741 330.858C297.831 329.799 300.065 328.284 301.69 326.308C304.798 322.813 308.215 319.929 312.085 317.201C319.229 312.046 327.601 308.575 336.459 307.548C343.67 306.97 351.058 308.225 357.872 311.307C363.778 314.081 368.811 318.834 372.052 324.494C375.294 330.154 376.147 337.023 374.887 343.426C373.052 351.656 368.043 358.804 361.961 364.574C357.66 368.674 352.75 372.313 347.22 374.729C343.482 376.238 339.291 377.592 335.708 379.406C332.722 380.918 329.592 382.888 327.071 385.317C321.874 389.871 317.904 396.108 315.749 402.964C314.312 407.535 312.123 412.102 308.717 415.748C302.646 422.281 293.81 424.834 285.238 424.947C273.957 424.896 262.775 421.335 252.334 417.016C239.471 411.617 227.193 405.152 215.203 397.774C202.306 390.086 189.996 381.333 177.685 372.58C171.159 368.583 164.931 364.435 160.617 357.397C160.152 356.48 158.659 357.236 159.124 358.153C161.281 361.672 163.881 364.583 167.077 367.191C169.821 369.645 173.161 371.796 176.203 374.099C182.286 378.704 188.669 383.158 194.896 387.306C207.351 395.602 220.104 403.747 233.587 410.369C245.101 416.067 256.914 421.614 269.589 424.418C278.946 426.597 289.342 427.865 298.466 424.398C307.291 421.081 313.351 413.786 316.379 404.95C317.684 401.6 318.988 398.249 320.746 395.053C322.504 391.857 325.169 388.97 327.691 386.541C330.51 383.96 333.64 381.991 336.925 380.327C340.961 378.668 344.998 377.008 349.333 375.197C352.02 373.836 354.851 372.018 357.229 370.045C359.462 368.53 361.541 366.708 363.167 364.732C366.429 361.543 369.536 358.048 371.582 353.938C375.252 347.852 377.098 340.384 376.091 333.209C375.094 326.796 371.996 320.679 367.118 316.232C362.085 311.479 355.571 308.245 348.78 306.689C340.783 304.974 332.82 305.548 325.189 308.259C320.699 309.764 316.519 311.881 312.494 314.304C310.26 315.819 308.325 317.184 306.246 319.005C304.465 320.675 302.232 322.191 300.606 324.167C297.057 328.27 291.826 330.535 287.037 332.191C280.147 334.143 272.936 334.72 266.024 335.146C257.608 335.565 249.18 335.222 240.752 334.878C231.871 334.38 222.99 333.881 214.109 333.383C205.98 332.888 197.552 332.544 189.578 332.355C182.81 332.324 176.041 332.293 169.594 333.637C165.092 334.379 160.447 335.578 157.185 338.767C154.222 341.805 153.979 345.771 154.942 349.895C155.584 352.644 156.978 355.397 158.516 357.693C159.887 358.92 161.38 358.163 160.617 357.397Z" fill="white"/>
<path d="M215.522 380.745C206.697 375.899 196.98 372.25 189.642 365.161C186.797 362.503 183.799 358.805 183.489 354.491C183.483 352.259 184.97 350.015 187.058 348.958C188.549 348.202 190.193 348.488 192.135 348.622C204.385 349.871 216.489 352.311 228.295 354.902C241.296 357.633 254.299 361.108 266.561 366.822C271.647 369.463 282.864 375.333 277.507 382.516C276.168 384.312 274.231 385.666 272.293 387.02C270.801 387.775 269.46 388.827 267.819 389.286C264.984 390.349 262.147 390.668 259.31 390.986C247.365 391.819 235.11 389.083 224.195 384.55C220.758 383.683 218.215 382.362 215.522 380.745C214.626 380.454 213.733 381.651 214.63 381.942C225.399 387.667 237.507 391.595 249.905 392.396C256.179 392.944 262.452 392.749 268.419 390.472C271.254 389.409 274.087 387.602 276.172 385.801C279.003 383.249 281.085 379.96 280.029 376.396C278.824 372.535 274.784 369.737 271.643 367.974C266.257 364.74 260.725 362.698 254.745 360.51C247.57 358.182 240.545 356.15 233.372 354.567C220.519 351.388 207.22 348.808 194.073 347.268C190.785 346.697 187.35 346.574 184.818 348.974C181.541 352.124 182.3 356.583 184.252 360.439C186.354 364.59 190.545 367.685 194.137 370.337C198.625 373.28 203.412 376.072 208.347 378.417C210.441 379.592 212.834 380.616 215.078 382.088C215.378 382.681 216.271 381.483 215.522 380.745Z" fill="white"/>
</g>
</g>
<mask id="mask2_1_209" style="mask-type:alpha" maskUnits="userSpaceOnUse" x="307" y="0" width="79" height="79">
<path d="M385.6 39.3C385.6 60.9665 368.046 78.6001 346.3 78.6001C324.634 78.6001 307 61.0455 307 39.3C307 17.5546 324.634 0 346.3 0C368.046 0 385.6 17.5546 385.6 39.3Z" fill="#FEDE8C"/>
</mask>
<g mask="url(#mask2_1_209)">
<path d="M385.6 39.3C385.6 60.9665 368.046 78.6001 346.3 78.6001C324.634 78.6001 307 61.0455 307 39.3C307 17.5546 324.634 0 346.3 0C368.046 0 385.6 17.5546 385.6 39.3Z" fill="#85E6B7"/>
<g opacity="0.5">
<path d="M259.239 84.2602L270.609 83.6166L355.887 -1.66064L344.516 -1.01704L259.239 84.2602Z" fill="white"/>
<path d="M278.332 84.2602L289.703 83.6166L375.087 -1.66064L363.717 -1.01704L278.332 84.2602Z" fill="white"/>
<path d="M298.928 84.2602L310.298 83.6166L395.575 -1.66064L384.205 -1.01704L298.928 84.2602Z" fill="white"/>
<path d="M316.305 86.1912L327.675 85.5476L412.953 0.163086L401.69 0.913954L316.305 86.1912Z" fill="white"/>
<path d="M335.506 86.1912L346.876 85.5476L432.153 0.163086L420.783 0.913954L335.506 86.1912Z" fill="white"/>
<path d="M355.994 86.1912L367.365 85.5476L452.642 0.163086L441.379 0.913954L355.994 86.1912Z" fill="white"/>
</g>
</g>
</g>
</svg>
