<svg width="13" height="11" viewBox="0 0 13 11" fill="none" xmlns="http://www.w3.org/2000/svg">
<path d="M0 5.51076C0 5.28743 0.0883179 5.07326 0.245526 4.91535C0.402735 4.75743 0.615956 4.66872 0.838283 4.66872H10.0322L6.62453 1.47741C6.53955 1.40317 6.47033 1.31249 6.42101 1.21079C6.37169 1.10909 6.34328 0.998445 6.33747 0.885469C6.33166 0.772492 6.34857 0.659498 6.3872 0.553233C6.42583 0.446968 6.48538 0.349611 6.56229 0.266974C6.63921 0.184338 6.73191 0.118117 6.83487 0.0722653C6.93783 0.0264134 7.04893 0.00187064 7.16153 0.000102824C7.27414 -0.00166499 7.38595 0.0193784 7.49029 0.0619761C7.59462 0.104574 7.68934 0.167852 7.76879 0.248034L12.7335 4.89396C12.8176 4.97275 12.8847 5.06807 12.9305 5.174C12.9763 5.27993 13 5.3942 13 5.5097C13 5.62521 12.9763 5.73948 12.9305 5.84541C12.8847 5.95133 12.8176 6.04665 12.7335 6.12544L7.76879 10.7735C7.60621 10.9259 7.39002 11.0072 7.16776 10.9995C6.94551 10.9918 6.7354 10.8957 6.58366 10.7324C6.43193 10.5691 6.35099 10.352 6.35865 10.1287C6.36632 9.90546 6.46196 9.69442 6.62453 9.542L10.0322 6.35279H0.838283C0.615956 6.35279 0.402735 6.26408 0.245526 6.10616C0.0883179 5.94825 0 5.73408 0 5.51076Z" fill="white"/>
</svg>
