<svg width="335" height="939" viewBox="0 0 335 939" fill="none" xmlns="http://www.w3.org/2000/svg">
<mask id="mask0_1_798" style="mask-type:alpha" maskUnits="userSpaceOnUse" x="0" y="0" width="335" height="939">
<rect width="335" height="939" rx="40" transform="matrix(1 0 0 -1 0 939)" fill="url(#paint0_radial_1_798)"/>
</mask>
<g mask="url(#mask0_1_798)">
<rect width="335" height="939" rx="40" transform="matrix(1 0 0 -1 0 939)" fill="url(#paint1_radial_1_798)"/>
<path d="M252.234 938.631H347.786V857.244H294.256C281.685 857.244 270.412 862.733 262.74 871.468C276.609 875.894 286.642 888.878 286.642 904.223C286.642 923.227 271.238 938.631 252.234 938.631Z" fill="#A7D3B0"/>
<mask id="mask1_1_798" style="mask-type:alpha" maskUnits="userSpaceOnUse" x="234" y="856" width="137" height="95">
<g opacity="0.8">
<path d="M309.654 858.174C315.776 860.736 321.576 864.099 327.053 867.782C332.853 871.785 338.331 876.429 343.325 881.393C348.32 886.358 352.992 891.802 356.858 897.727C360.564 903.172 363.786 909.097 366.203 915.502C367.33 918.385 368.136 921.427 368.78 924.47C369.425 927.352 369.586 930.235 369.102 933.117C368.297 938.242 365.236 942.885 361.047 945.928C356.858 948.971 351.542 950.412 346.547 949.771C343.809 949.451 341.231 948.49 338.814 947.049C336.881 945.928 335.109 944.327 333.176 943.046C330.437 940.804 327.698 938.402 324.798 936.16C322.059 934.078 319.32 932.317 316.098 931.196C312.232 929.754 308.043 929.114 303.854 928.954C297.571 928.633 291.127 929.434 284.843 930.235C281.299 930.715 277.755 931.516 274.049 931.516C270.827 931.516 267.605 931.196 264.383 930.555C258.261 929.114 252.3 926.231 247.628 922.068C242.794 917.904 239.089 912.46 236.833 906.375C234.9 900.93 234.095 895.005 235.383 889.4C236.833 883.475 240.539 878.351 245.533 874.988C248.272 873.066 251.333 871.305 254.555 870.344C257.777 869.223 260.999 868.743 264.383 868.422C270.505 867.782 277.11 867.782 282.91 865.7C284.199 865.22 285.488 864.739 286.777 863.939C288.066 863.138 289.193 862.177 290.321 861.216C293.06 858.974 296.282 857.533 299.826 857.053C303.21 856.412 306.593 856.893 309.654 858.174C310.137 858.334 310.298 857.693 309.815 857.533C303.371 854.971 295.96 855.772 290.482 859.935C289.193 860.896 288.066 862.017 286.777 862.978C285.488 863.778 284.038 864.419 282.749 864.899C279.849 865.86 276.627 866.341 273.566 866.661C266.96 867.301 260.033 867.462 253.75 869.703C252.139 870.344 250.689 870.985 249.239 871.785C247.789 872.746 246.178 873.547 244.728 874.668C242.15 876.589 240.056 878.671 238.283 881.393C235.061 886.197 233.933 891.962 234.417 897.567C234.9 903.652 237.156 909.737 240.7 914.702C244.244 919.986 249.239 924.47 254.877 927.352C260.516 930.395 266.96 931.996 273.405 931.996C276.949 931.996 280.493 931.356 284.038 930.875C287.743 930.235 291.449 929.915 295.154 929.594C300.31 929.274 305.787 929.114 310.943 930.075C314.487 930.715 318.031 932.156 321.093 934.078C324.154 935.84 326.731 938.242 329.47 940.483C330.92 941.765 332.531 943.046 334.142 944.167C336.075 945.768 338.009 947.209 340.264 948.33C345.097 950.732 350.575 951.052 355.731 949.451C360.725 947.85 364.914 944.647 367.653 940.163C369.102 937.921 369.908 935.359 370.391 932.637C370.875 929.754 370.552 926.872 369.908 923.989C368.619 917.584 366.364 911.499 363.303 905.894C360.08 899.649 356.053 893.884 351.542 888.439C346.87 882.835 341.714 877.71 336.075 873.066C330.759 868.583 324.959 864.579 318.837 861.216C316.098 859.615 313.198 858.334 310.298 857.053C309.493 857.373 309.332 858.014 309.654 858.174Z" fill="white"/>
<path d="M351.584 924.969C351.744 927.099 351.744 929.721 350.304 931.523C349.024 932.834 347.105 932.998 345.505 932.834C342.786 932.506 340.226 931.359 337.827 930.212C334.627 928.738 331.428 926.935 328.229 925.133C324.709 923.166 321.19 921.036 317.671 919.07C314.152 916.94 310.632 914.973 306.953 913.171C303.754 911.532 300.395 909.894 296.875 908.747C294.156 907.764 291.117 906.944 288.237 907.108C287.117 907.108 285.838 907.272 284.718 907.764C282.638 908.583 280.559 909.075 278.319 909.402C274.16 910.058 269.841 909.73 265.842 908.255C262.643 906.944 259.763 904.814 257.524 902.029C255.604 899.571 254.484 896.457 254.324 893.344C254.164 890.231 255.284 887.117 257.204 884.659C259.763 881.546 263.442 879.58 267.282 878.433C270.001 877.614 272.88 877.122 275.76 877.286C277.679 877.45 279.759 877.777 281.679 877.777C283.278 877.777 285.038 877.614 286.637 877.122C289.837 876.303 292.876 874.5 295.276 872.042C296.875 870.404 298.795 868.929 301.034 868.11C305.034 866.635 309.353 867.454 313.032 869.257C317.831 871.715 321.83 875.647 325.349 879.744C329.668 884.823 333.508 890.231 337.027 895.966C340.866 902.029 344.225 908.419 347.585 914.81C349.504 917.923 351.264 921.036 351.584 924.969C351.584 925.46 352.384 925.46 352.384 924.969C352.224 923.003 351.744 921.2 350.944 919.398C350.304 917.759 349.344 916.12 348.544 914.482C346.945 911.205 345.185 907.927 343.426 904.814C339.906 898.588 336.227 892.361 331.908 886.626C328.229 881.71 324.39 876.794 319.591 872.862C316.071 869.912 311.912 867.127 307.273 866.635C302.794 866.143 298.635 867.946 295.436 871.059C294.156 872.206 292.876 873.353 291.436 874.336C289.997 875.319 288.237 875.975 286.637 876.467C284.878 876.958 283.118 877.122 281.359 877.122C279.279 876.958 277.199 876.794 274.96 876.63C273.52 876.63 271.921 876.794 270.481 877.122C269.201 877.286 267.921 877.614 266.802 878.105C264.722 878.761 262.643 879.58 260.883 880.891C258.004 882.693 255.604 885.479 254.484 888.756C253.524 891.705 253.524 894.983 254.644 897.932C255.764 901.045 257.844 903.831 260.403 905.961C263.442 908.419 266.962 909.894 270.801 910.385C273.04 910.713 275.28 910.713 277.519 910.549C278.799 910.385 279.919 910.222 281.199 909.894C282.318 909.566 283.598 909.402 284.718 908.911C287.117 907.927 289.837 908.091 292.236 908.419C295.596 909.075 298.795 910.385 301.834 911.696C305.514 913.335 309.033 915.301 312.552 917.267C316.231 919.398 319.91 921.528 323.59 923.658C326.949 925.624 330.468 927.591 333.828 929.393C336.707 930.868 339.586 932.343 342.626 933.162C344.705 933.817 346.945 934.309 349.024 933.653C350.944 932.998 351.904 931.359 352.384 929.393C352.704 928.082 352.704 926.607 352.544 925.297C352.224 924.477 351.424 924.477 351.584 924.969Z" fill="white"/>
<path d="M333.214 903.158C335.931 907.13 339.286 910.784 340.884 915.391C341.524 917.139 342.003 919.363 341.204 921.27C340.725 922.223 339.606 922.858 338.487 922.858C337.688 922.858 337.049 922.382 336.25 921.905C331.296 918.728 326.662 915.074 322.188 911.42C317.234 907.448 312.44 903.158 308.445 898.074C306.847 895.85 303.331 890.925 307.167 889.019C308.125 888.542 309.244 888.383 310.363 888.224C311.162 888.224 311.961 888.065 312.76 888.224C314.198 888.383 315.476 888.86 316.755 889.336C322.028 891.56 326.662 895.373 330.338 899.663C331.616 900.775 332.415 901.887 333.214 903.158C333.534 903.476 334.173 903.158 333.853 902.84C330.497 898.074 326.183 893.785 321.069 890.766C318.512 889.177 315.796 887.906 312.76 887.589C311.321 887.43 309.723 887.589 308.445 887.906C306.687 888.383 305.089 889.336 304.77 891.084C304.45 892.99 305.569 895.056 306.527 896.486C308.125 899.027 310.043 901.093 312.12 903.317C314.677 905.859 317.234 908.242 319.951 910.466C324.745 914.597 329.858 918.569 335.132 922.064C336.41 923.017 337.848 923.812 339.446 923.335C341.524 922.699 342.163 920.634 342.163 918.569C342.163 916.345 341.044 914.12 340.085 912.214C338.807 909.99 337.369 907.765 335.771 905.7C335.132 904.747 334.333 903.794 333.693 902.682C333.693 902.364 333.054 902.682 333.214 903.158Z" fill="white"/>
</g>
</mask>
<g mask="url(#mask1_1_798)">
<g opacity="0.3">
<path d="M309.654 858.174C315.776 860.736 321.576 864.099 327.053 867.782C332.853 871.785 338.331 876.429 343.325 881.393C348.32 886.358 352.992 891.802 356.858 897.727C360.564 903.172 363.786 909.097 366.203 915.502C367.33 918.385 368.136 921.427 368.78 924.47C369.425 927.352 369.586 930.235 369.102 933.117C368.297 938.242 365.236 942.885 361.047 945.928C356.858 948.971 351.542 950.412 346.547 949.771C343.809 949.451 341.231 948.49 338.814 947.049C336.881 945.928 335.109 944.327 333.176 943.046C330.437 940.804 327.698 938.402 324.798 936.16C322.059 934.078 319.32 932.317 316.098 931.196C312.232 929.754 308.043 929.114 303.854 928.954C297.571 928.633 291.127 929.434 284.843 930.235C281.299 930.715 277.755 931.516 274.049 931.516C270.827 931.516 267.605 931.196 264.383 930.555C258.261 929.114 252.3 926.231 247.628 922.068C242.794 917.904 239.089 912.46 236.833 906.375C234.9 900.93 234.095 895.005 235.383 889.4C236.833 883.475 240.539 878.351 245.533 874.988C248.272 873.066 251.333 871.305 254.555 870.344C257.777 869.223 260.999 868.743 264.383 868.422C270.505 867.782 277.11 867.782 282.91 865.7C284.199 865.22 285.488 864.739 286.777 863.939C288.066 863.138 289.193 862.177 290.321 861.216C293.06 858.974 296.282 857.533 299.826 857.053C303.21 856.412 306.593 856.893 309.654 858.174C310.137 858.334 310.298 857.693 309.815 857.533C303.371 854.971 295.96 855.772 290.482 859.935C289.193 860.896 288.066 862.017 286.777 862.978C285.488 863.778 284.038 864.419 282.749 864.899C279.849 865.86 276.627 866.341 273.566 866.661C266.96 867.301 260.033 867.462 253.75 869.703C252.139 870.344 250.689 870.985 249.239 871.785C247.789 872.746 246.178 873.547 244.728 874.668C242.15 876.589 240.056 878.671 238.283 881.393C235.061 886.197 233.933 891.962 234.417 897.567C234.9 903.652 237.156 909.737 240.7 914.702C244.244 919.986 249.239 924.47 254.877 927.352C260.516 930.395 266.96 931.996 273.405 931.996C276.949 931.996 280.493 931.356 284.038 930.875C287.743 930.235 291.449 929.915 295.154 929.594C300.31 929.274 305.787 929.114 310.943 930.075C314.487 930.715 318.031 932.156 321.093 934.078C324.154 935.84 326.731 938.242 329.47 940.483C330.92 941.765 332.531 943.046 334.142 944.167C336.075 945.768 338.009 947.209 340.264 948.33C345.097 950.732 350.575 951.052 355.731 949.451C360.725 947.85 364.914 944.647 367.653 940.163C369.102 937.921 369.908 935.359 370.391 932.637C370.875 929.754 370.552 926.872 369.908 923.989C368.619 917.584 366.364 911.499 363.303 905.894C360.08 899.649 356.053 893.884 351.542 888.439C346.87 882.835 341.714 877.71 336.075 873.066C330.759 868.583 324.959 864.579 318.837 861.216C316.098 859.615 313.198 858.334 310.298 857.053C309.493 857.373 309.332 858.014 309.654 858.174Z" fill="white"/>
<path d="M351.584 924.969C351.744 927.099 351.744 929.721 350.304 931.523C349.024 932.834 347.105 932.998 345.505 932.834C342.786 932.506 340.226 931.359 337.827 930.212C334.627 928.738 331.428 926.935 328.229 925.133C324.709 923.166 321.19 921.036 317.671 919.07C314.152 916.94 310.632 914.973 306.953 913.171C303.754 911.532 300.395 909.894 296.875 908.747C294.156 907.764 291.117 906.944 288.237 907.108C287.117 907.108 285.838 907.272 284.718 907.764C282.638 908.583 280.559 909.075 278.319 909.402C274.16 910.058 269.841 909.73 265.842 908.255C262.643 906.944 259.763 904.814 257.524 902.029C255.604 899.571 254.484 896.457 254.324 893.344C254.164 890.231 255.284 887.117 257.204 884.659C259.763 881.546 263.442 879.58 267.282 878.433C270.001 877.614 272.88 877.122 275.76 877.286C277.679 877.45 279.759 877.777 281.679 877.777C283.278 877.777 285.038 877.614 286.637 877.122C289.837 876.303 292.876 874.5 295.276 872.042C296.875 870.404 298.795 868.929 301.034 868.11C305.034 866.635 309.353 867.454 313.032 869.257C317.831 871.715 321.83 875.647 325.349 879.744C329.668 884.823 333.508 890.231 337.027 895.966C340.866 902.029 344.225 908.419 347.585 914.81C349.504 917.923 351.264 921.036 351.584 924.969C351.584 925.46 352.384 925.46 352.384 924.969C352.224 923.003 351.744 921.2 350.944 919.398C350.304 917.759 349.344 916.12 348.544 914.482C346.945 911.205 345.185 907.927 343.426 904.814C339.906 898.588 336.227 892.361 331.908 886.626C328.229 881.71 324.39 876.794 319.591 872.862C316.071 869.912 311.912 867.127 307.273 866.635C302.794 866.143 298.635 867.946 295.436 871.059C294.156 872.206 292.876 873.353 291.436 874.336C289.997 875.319 288.237 875.975 286.637 876.467C284.878 876.958 283.118 877.122 281.359 877.122C279.279 876.958 277.199 876.794 274.96 876.63C273.52 876.63 271.921 876.794 270.481 877.122C269.201 877.286 267.921 877.614 266.802 878.105C264.722 878.761 262.643 879.58 260.883 880.891C258.004 882.693 255.604 885.479 254.484 888.756C253.524 891.705 253.524 894.983 254.644 897.932C255.764 901.045 257.844 903.831 260.403 905.961C263.442 908.419 266.962 909.894 270.801 910.385C273.04 910.713 275.28 910.713 277.519 910.549C278.799 910.385 279.919 910.222 281.199 909.894C282.318 909.566 283.598 909.402 284.718 908.911C287.117 907.927 289.837 908.091 292.236 908.419C295.596 909.075 298.795 910.385 301.834 911.696C305.514 913.335 309.033 915.301 312.552 917.267C316.231 919.398 319.91 921.528 323.59 923.658C326.949 925.624 330.468 927.591 333.828 929.393C336.707 930.868 339.586 932.343 342.626 933.162C344.705 933.817 346.945 934.309 349.024 933.653C350.944 932.998 351.904 931.359 352.384 929.393C352.704 928.082 352.704 926.607 352.544 925.297C352.224 924.477 351.424 924.477 351.584 924.969Z" fill="white"/>
<path d="M333.214 903.158C335.931 907.13 339.286 910.784 340.884 915.391C341.524 917.139 342.003 919.363 341.204 921.27C340.725 922.223 339.606 922.858 338.487 922.858C337.688 922.858 337.049 922.382 336.25 921.905C331.296 918.728 326.662 915.074 322.188 911.42C317.234 907.448 312.44 903.158 308.445 898.074C306.847 895.85 303.331 890.925 307.167 889.019C308.125 888.542 309.244 888.383 310.363 888.224C311.162 888.224 311.961 888.065 312.76 888.224C314.198 888.383 315.476 888.86 316.755 889.336C322.028 891.56 326.662 895.373 330.338 899.663C331.616 900.775 332.415 901.887 333.214 903.158C333.534 903.476 334.173 903.158 333.853 902.84C330.497 898.074 326.183 893.785 321.069 890.766C318.512 889.177 315.796 887.906 312.76 887.589C311.321 887.43 309.723 887.589 308.445 887.906C306.687 888.383 305.089 889.336 304.77 891.084C304.45 892.99 305.569 895.056 306.527 896.486C308.125 899.027 310.043 901.093 312.12 903.317C314.677 905.859 317.234 908.242 319.951 910.466C324.745 914.597 329.858 918.569 335.132 922.064C336.41 923.017 337.848 923.812 339.446 923.335C341.524 922.699 342.163 920.634 342.163 918.569C342.163 916.345 341.044 914.12 340.085 912.214C338.807 909.99 337.369 907.765 335.771 905.7C335.132 904.747 334.333 903.794 333.693 902.682C333.693 902.364 333.054 902.682 333.214 903.158Z" fill="white"/>
</g>
</g>
<path d="M252.234 899.206V938.572C271.238 938.572 286.642 923.168 286.642 904.164C286.642 888.819 276.609 875.835 262.739 871.409C256.188 878.845 252.234 888.583 252.234 899.206Z" fill="#E0F0E3"/>
<path d="M217.827 904.223C217.827 923.227 233.23 938.631 252.234 938.631V899.265C252.234 888.642 256.189 878.904 262.74 871.467C259.435 870.405 255.894 869.815 252.234 869.815C233.23 869.815 217.827 885.219 217.827 904.223Z" fill="#F3AFAE"/>
<path d="M297.089 836.056C296.263 846.149 303.817 854.942 313.909 855.769C324.001 856.595 332.854 849.041 333.621 838.948C334.448 828.856 326.893 820.003 316.801 819.236C306.709 818.41 297.856 825.964 297.089 836.056Z" fill="#FEDE8C"/>
<path d="M226.679 882.445C220.836 868.222 218.239 855.651 217 845.558C222.016 844.614 230.102 842.489 238.601 837.06C247.748 831.276 253.06 823.367 256.011 819H256.07C260.91 821.066 269.644 824.843 280.504 824.843C290.596 824.843 298.564 822.305 303.285 820.357C307.652 829.446 312.197 841.545 314.971 856.654" stroke="#2D76F9" stroke-miterlimit="10"/>
<mask id="mask2_1_798" style="mask-type:alpha" maskUnits="userSpaceOnUse" x="262" y="-20" width="51" height="50">
<path d="M312.501 4.9853C312.501 18.7599 301.34 29.9706 287.516 29.9706C273.741 29.9706 262.53 18.8102 262.53 4.9853C262.53 -8.83956 273.741 -20 287.516 -20C301.34 -20 312.501 -8.83956 312.501 4.9853Z" fill="#FEDE8C"/>
</mask>
<g mask="url(#mask2_1_798)">
<path d="M312.501 4.9853C312.501 18.7599 301.34 29.9706 287.516 29.9706C273.741 29.9706 262.53 18.8102 262.53 4.9853C262.53 -8.83956 273.741 -20 287.516 -20C301.34 -20 312.501 -8.83956 312.501 4.9853Z" fill="#FFC839"/>
<g opacity="0.5">
<path d="M232.166 33.5689L239.395 33.1598L293.61 -21.0559L286.382 -20.6467L232.166 33.5689Z" fill="white"/>
<path d="M244.305 33.5689L251.533 33.1598L305.817 -21.0559L298.588 -20.6467L244.305 33.5689Z" fill="white"/>
<path d="M257.398 33.5689L264.627 33.1598L318.843 -21.0559L311.614 -20.6467L257.398 33.5689Z" fill="white"/>
<path d="M268.446 34.7966L275.675 34.3874L329.891 -19.8965L322.73 -19.4191L268.446 34.7966Z" fill="white"/>
<path d="M280.653 34.7966L287.882 34.3874L342.098 -19.8965L334.869 -19.4191L280.653 34.7966Z" fill="white"/>
<path d="M293.679 34.7966L300.908 34.3874L355.124 -19.8965L347.963 -19.4191L293.679 34.7966Z" fill="white"/>
</g>
</g>
<path d="M335.018 89.9861C314.25 89.9861 297.497 106.81 297.497 127.493C297.497 148.176 314.328 165 335.018 165V89.9861Z" fill="#A7DFFF"/>
<path d="M310.483 132.591C307.684 132.591 305.43 130.705 305.43 128.363V-7.92065H315.535V128.363C315.535 130.705 313.281 132.591 310.483 132.591Z" stroke="#2D76F9" stroke-miterlimit="10"/>
</g>
<defs>
<radialGradient id="paint0_radial_1_798" cx="0" cy="0" r="1" gradientUnits="userSpaceOnUse" gradientTransform="translate(161.416 283.215) rotate(77.885) scale(390.352 296.307)">
<stop stop-color="white"/>
<stop offset="0.535107" stop-color="#E7EDFF"/>
<stop offset="1" stop-color="#EEEAFF"/>
</radialGradient>
<radialGradient id="paint1_radial_1_798" cx="0" cy="0" r="1" gradientUnits="userSpaceOnUse" gradientTransform="translate(161.416 283.215) rotate(77.885) scale(390.352 296.307)">
<stop stop-color="white"/>
<stop offset="0.535107" stop-color="#E7EDFF"/>
<stop offset="1" stop-color="#EEEAFF"/>
</radialGradient>
</defs>
</svg>
