<svg width="1239" height="620" viewBox="0 0 1239 620" fill="none" xmlns="http://www.w3.org/2000/svg">
<mask id="mask0_1_290" style="mask-type:alpha" maskUnits="userSpaceOnUse" x="0" y="0" width="1239" height="621">
<rect width="1239" height="620" rx="40" transform="matrix(1 0 0 -1 0 620.001)" fill="url(#paint0_radial_1_290)"/>
</mask>
<g mask="url(#mask0_1_290)">
<rect width="1239" height="620" rx="40" transform="matrix(1 0 0 -1 0 620.001)" fill="url(#paint1_radial_1_290)"/>
<mask id="mask1_1_290" style="mask-type:alpha" maskUnits="userSpaceOnUse" x="1130" y="-22" width="79" height="79">
<path d="M1208.6 17.3C1208.6 38.9665 1191.05 56.6001 1169.3 56.6001C1147.63 56.6001 1130 39.0455 1130 17.3C1130 -4.44545 1147.63 -22 1169.3 -22C1191.05 -22 1208.6 -4.44545 1208.6 17.3Z" fill="#FEDE8C"/>
</mask>
<g mask="url(#mask1_1_290)">
<path d="M1208.6 17.3C1208.6 38.9665 1191.05 56.6001 1169.3 56.6001C1147.63 56.6001 1130 39.0455 1130 17.3C1130 -4.44545 1147.63 -22 1169.3 -22C1191.05 -22 1208.6 -4.44545 1208.6 17.3Z" fill="#FFC839"/>
<g opacity="0.5">
<path d="M1082.24 62.2602L1093.61 61.6166L1178.89 -23.6606L1167.52 -23.017L1082.24 62.2602Z" fill="white"/>
<path d="M1101.33 62.2602L1112.7 61.6166L1198.09 -23.6606L1186.72 -23.017L1101.33 62.2602Z" fill="white"/>
<path d="M1121.93 62.2602L1133.3 61.6166L1218.58 -23.6606L1207.2 -23.017L1121.93 62.2602Z" fill="white"/>
<path d="M1139.31 64.1912L1150.68 63.5476L1235.95 -21.8369L1224.69 -21.086L1139.31 64.1912Z" fill="white"/>
<path d="M1158.51 64.1912L1169.88 63.5476L1255.15 -21.8369L1243.78 -21.086L1158.51 64.1912Z" fill="white"/>
<path d="M1178.99 64.1912L1190.36 63.5476L1275.64 -21.8369L1264.38 -21.086L1178.99 64.1912Z" fill="white"/>
</g>
</g>
<path d="M1244.02 151C1211.35 151 1185 177.463 1185 209.996C1185 242.528 1211.47 268.991 1244.02 268.991V151Z" fill="#A7DFFF"/>
<path d="M1205.43 218.015C1201.02 218.015 1197.48 215.047 1197.48 211.364V-3H1213.37V211.364C1213.37 215.047 1209.83 218.015 1205.43 218.015Z" stroke="#2D76F9" stroke-miterlimit="10"/>
<path d="M1089.96 618.78H1239V491.833H1155.5C1135.9 491.833 1118.31 500.394 1106.35 514.019C1127.98 520.923 1143.63 541.176 1143.63 565.111C1143.63 594.753 1119.6 618.78 1089.96 618.78Z" fill="#A7D3B0"/>
<mask id="mask2_1_290" style="mask-type:alpha" maskUnits="userSpaceOnUse" x="1062" y="490" width="213" height="148">
<g opacity="0.8">
<path d="M1179.52 493.283C1189.07 497.28 1198.12 502.525 1206.66 508.27C1215.71 514.514 1224.25 521.758 1232.04 529.501C1239.83 537.244 1247.12 545.737 1253.15 554.979C1258.93 563.471 1263.96 572.713 1267.73 582.705C1269.49 587.201 1270.74 591.946 1271.75 596.692C1272.75 601.188 1273 605.684 1272.25 610.18C1270.99 618.173 1266.22 625.417 1259.69 630.163C1253.15 634.909 1244.86 637.157 1237.07 636.158C1232.8 635.658 1228.78 634.159 1225.01 631.911C1221.99 630.163 1219.23 627.665 1216.21 625.667C1211.94 622.17 1207.67 618.423 1203.14 614.926C1198.87 611.679 1194.6 608.931 1189.57 607.183C1183.54 604.935 1177.01 603.936 1170.48 603.686C1160.68 603.187 1150.62 604.435 1140.82 605.684C1135.29 606.434 1129.77 607.683 1123.99 607.683C1118.96 607.683 1113.93 607.183 1108.91 606.184C1099.36 603.936 1090.06 599.44 1082.77 592.946C1075.23 586.451 1069.45 577.959 1065.94 568.467C1062.92 559.974 1061.66 550.733 1063.67 541.99C1065.94 532.748 1071.72 524.755 1079.51 519.51C1083.78 516.513 1088.55 513.765 1093.58 512.266C1098.61 510.518 1103.63 509.769 1108.91 509.269C1118.46 508.27 1128.76 508.27 1137.81 505.023C1139.82 504.273 1141.83 503.524 1143.84 502.275C1145.85 501.026 1147.61 499.528 1149.37 498.029C1153.64 494.532 1158.66 492.284 1164.19 491.535C1169.47 490.535 1174.75 491.285 1179.52 493.283C1180.28 493.533 1180.53 492.534 1179.77 492.284C1169.72 488.287 1158.16 489.536 1149.62 496.031C1147.61 497.529 1145.85 499.278 1143.84 500.776C1141.83 502.025 1139.57 503.025 1137.56 503.774C1133.03 505.273 1128.01 506.022 1123.23 506.521C1112.93 507.521 1102.12 507.77 1092.32 511.267C1089.81 512.266 1087.55 513.266 1085.29 514.514C1083.02 516.013 1080.51 517.262 1078.25 519.01C1074.23 522.008 1070.96 525.255 1068.2 529.501C1063.17 536.995 1061.41 545.987 1062.17 554.729C1062.92 564.221 1066.44 573.712 1071.97 581.456C1077.5 589.698 1085.29 596.692 1094.08 601.188C1102.88 605.934 1112.93 608.432 1122.98 608.432C1128.51 608.432 1134.04 607.433 1139.57 606.683C1145.35 605.684 1151.13 605.185 1156.91 604.685C1164.95 604.186 1173.49 603.936 1181.53 605.435C1187.06 606.434 1192.59 608.682 1197.36 611.679C1202.14 614.427 1206.16 618.173 1210.43 621.67C1212.69 623.669 1215.21 625.667 1217.72 627.415C1220.73 629.913 1223.75 632.161 1227.27 633.91C1234.81 637.656 1243.35 638.156 1251.39 635.658C1259.18 633.16 1265.72 628.165 1269.99 621.171C1272.25 617.674 1273.51 613.677 1274.26 609.431C1275.01 604.935 1274.51 600.439 1273.51 595.943C1271.5 585.952 1267.98 576.46 1263.2 567.718C1258.18 557.976 1251.9 548.984 1244.86 540.492C1237.57 531.749 1229.53 523.756 1220.73 516.513C1212.44 509.519 1203.4 503.274 1193.85 498.029C1189.57 495.531 1185.05 493.533 1180.53 491.535C1179.27 492.034 1179.02 493.033 1179.52 493.283Z" fill="white"/>
<path d="M1244.92 597.471C1245.17 600.793 1245.17 604.883 1242.93 607.694C1240.93 609.739 1237.94 609.995 1235.44 609.739C1231.2 609.228 1227.21 607.439 1223.47 605.65C1218.48 603.349 1213.49 600.538 1208.5 597.726C1203.01 594.659 1197.52 591.337 1192.03 588.27C1186.54 584.947 1181.05 581.88 1175.31 579.068C1170.32 576.512 1165.08 573.957 1159.59 572.167C1155.35 570.634 1150.61 569.356 1146.12 569.612C1144.37 569.612 1142.37 569.867 1140.63 570.634C1137.38 571.912 1134.14 572.679 1130.65 573.19C1124.16 574.212 1117.42 573.701 1111.18 571.401C1106.19 569.356 1101.7 566.033 1098.21 561.688C1095.22 557.854 1093.47 552.998 1093.22 548.142C1092.97 543.286 1094.72 538.43 1097.71 534.596C1101.7 529.74 1107.44 526.673 1113.43 524.884C1117.67 523.606 1122.16 522.839 1126.65 523.094C1129.65 523.35 1132.89 523.861 1135.89 523.861C1138.38 523.861 1141.13 523.606 1143.62 522.839C1148.61 521.561 1153.35 518.749 1157.1 514.916C1159.59 512.36 1162.58 510.059 1166.08 508.781C1172.32 506.481 1179.05 507.759 1184.79 510.571C1192.28 514.404 1198.51 520.539 1204 526.928C1210.74 534.851 1216.73 543.286 1222.22 552.232C1228.21 561.688 1233.45 571.656 1238.69 581.624C1241.68 586.48 1244.43 591.337 1244.92 597.471C1244.92 598.237 1246.17 598.237 1246.17 597.471C1245.92 594.404 1245.17 591.592 1243.93 588.781C1242.93 586.225 1241.43 583.669 1240.18 581.113C1237.69 576.001 1234.94 570.889 1232.2 566.033C1226.71 556.321 1220.97 546.609 1214.23 537.663C1208.5 529.995 1202.51 522.328 1195.02 516.194C1189.53 511.593 1183.04 507.248 1175.81 506.481C1168.82 505.714 1162.34 508.526 1157.34 513.382C1155.35 515.171 1153.35 516.96 1151.11 518.494C1148.86 520.027 1146.12 521.05 1143.62 521.816C1140.88 522.583 1138.13 522.839 1135.39 522.839C1132.14 522.583 1128.9 522.328 1125.41 522.072C1123.16 522.072 1120.67 522.328 1118.42 522.839C1116.42 523.094 1114.43 523.606 1112.68 524.372C1109.44 525.395 1106.19 526.673 1103.45 528.717C1098.96 531.529 1095.22 535.874 1093.47 540.986C1091.97 545.586 1091.97 550.698 1093.72 555.299C1095.46 560.155 1098.71 564.5 1102.7 567.822C1107.44 571.656 1112.93 573.957 1118.92 574.723C1122.41 575.234 1125.91 575.234 1129.4 574.979C1131.39 574.723 1133.14 574.468 1135.14 573.957C1136.88 573.445 1138.88 573.19 1140.63 572.423C1144.37 570.889 1148.61 571.145 1152.35 571.656C1157.59 572.679 1162.58 574.723 1167.33 576.768C1173.06 579.324 1178.55 582.391 1184.04 585.458C1189.78 588.781 1195.52 592.103 1201.26 595.426C1206.5 598.493 1211.99 601.56 1217.23 604.372C1221.72 606.672 1226.21 608.972 1230.95 610.25C1234.2 611.273 1237.69 612.039 1240.93 611.017C1243.93 609.995 1245.42 607.439 1246.17 604.372C1246.67 602.327 1246.67 600.027 1246.42 597.982C1245.92 596.704 1244.68 596.704 1244.92 597.471Z" fill="white"/>
<path d="M1216.27 563.45C1220.51 569.645 1225.74 575.345 1228.24 582.531C1229.23 585.257 1229.98 588.727 1228.73 591.7C1227.99 593.187 1226.24 594.178 1224.5 594.178C1223.25 594.178 1222.25 593.435 1221.01 592.692C1213.28 587.735 1206.05 582.036 1199.07 576.336C1191.35 570.141 1183.87 563.45 1177.64 555.52C1175.14 552.051 1169.66 544.369 1175.64 541.395C1177.14 540.651 1178.88 540.404 1180.63 540.156C1181.87 540.156 1183.12 539.908 1184.37 540.156C1186.61 540.404 1188.6 541.147 1190.6 541.891C1198.82 545.36 1206.05 551.307 1211.78 557.998C1213.78 559.733 1215.03 561.468 1216.27 563.45C1216.77 563.946 1217.77 563.45 1217.27 562.954C1212.03 555.52 1205.3 548.829 1197.33 544.121C1193.34 541.643 1189.1 539.66 1184.37 539.165C1182.12 538.917 1179.63 539.165 1177.64 539.66C1174.89 540.404 1172.4 541.891 1171.9 544.616C1171.41 547.59 1173.15 550.812 1174.65 553.042C1177.14 557.007 1180.13 560.228 1183.37 563.698C1187.36 567.663 1191.35 571.38 1195.58 574.849C1203.06 581.292 1211.04 587.488 1219.26 592.939C1221.26 594.426 1223.5 595.665 1225.99 594.922C1229.23 593.931 1230.23 590.709 1230.23 587.488C1230.23 584.018 1228.49 580.549 1226.99 577.575C1225 574.106 1222.75 570.636 1220.26 567.415C1219.26 565.928 1218.02 564.441 1217.02 562.707C1217.02 562.211 1216.02 562.707 1216.27 563.45Z" fill="white"/>
</g>
</mask>
<g mask="url(#mask2_1_290)">
<g opacity="0.3">
<path d="M1179.52 493.283C1189.07 497.28 1198.12 502.525 1206.66 508.27C1215.71 514.514 1224.25 521.758 1232.04 529.501C1239.83 537.244 1247.12 545.737 1253.15 554.979C1258.93 563.471 1263.96 572.713 1267.73 582.705C1269.49 587.201 1270.74 591.946 1271.75 596.692C1272.75 601.188 1273 605.684 1272.25 610.18C1270.99 618.173 1266.22 625.417 1259.69 630.163C1253.15 634.909 1244.86 637.157 1237.07 636.158C1232.8 635.658 1228.78 634.159 1225.01 631.911C1221.99 630.163 1219.23 627.665 1216.21 625.667C1211.94 622.17 1207.67 618.423 1203.14 614.926C1198.87 611.679 1194.6 608.931 1189.57 607.183C1183.54 604.935 1177.01 603.936 1170.48 603.686C1160.68 603.187 1150.62 604.435 1140.82 605.684C1135.29 606.434 1129.77 607.683 1123.99 607.683C1118.96 607.683 1113.93 607.183 1108.91 606.184C1099.36 603.936 1090.06 599.44 1082.77 592.946C1075.23 586.451 1069.45 577.959 1065.94 568.467C1062.92 559.974 1061.66 550.733 1063.67 541.99C1065.94 532.748 1071.72 524.755 1079.51 519.51C1083.78 516.513 1088.55 513.765 1093.58 512.266C1098.61 510.518 1103.63 509.769 1108.91 509.269C1118.46 508.27 1128.76 508.27 1137.81 505.023C1139.82 504.273 1141.83 503.524 1143.84 502.275C1145.85 501.026 1147.61 499.528 1149.37 498.029C1153.64 494.532 1158.66 492.284 1164.19 491.535C1169.47 490.535 1174.75 491.285 1179.52 493.283C1180.28 493.533 1180.53 492.534 1179.77 492.284C1169.72 488.287 1158.16 489.536 1149.62 496.031C1147.61 497.529 1145.85 499.278 1143.84 500.776C1141.83 502.025 1139.57 503.025 1137.56 503.774C1133.03 505.273 1128.01 506.022 1123.23 506.521C1112.93 507.521 1102.12 507.77 1092.32 511.267C1089.81 512.266 1087.55 513.266 1085.29 514.514C1083.02 516.013 1080.51 517.262 1078.25 519.01C1074.23 522.008 1070.96 525.255 1068.2 529.501C1063.17 536.995 1061.41 545.987 1062.17 554.729C1062.92 564.221 1066.44 573.712 1071.97 581.456C1077.5 589.698 1085.29 596.692 1094.08 601.188C1102.88 605.934 1112.93 608.432 1122.98 608.432C1128.51 608.432 1134.04 607.433 1139.57 606.683C1145.35 605.684 1151.13 605.185 1156.91 604.685C1164.95 604.186 1173.49 603.936 1181.53 605.435C1187.06 606.434 1192.59 608.682 1197.36 611.679C1202.14 614.427 1206.16 618.173 1210.43 621.67C1212.69 623.669 1215.21 625.667 1217.72 627.415C1220.73 629.913 1223.75 632.161 1227.27 633.91C1234.81 637.656 1243.35 638.156 1251.39 635.658C1259.18 633.16 1265.72 628.165 1269.99 621.171C1272.25 617.674 1273.51 613.677 1274.26 609.431C1275.01 604.935 1274.51 600.439 1273.51 595.943C1271.5 585.952 1267.98 576.46 1263.2 567.718C1258.18 557.976 1251.9 548.984 1244.86 540.492C1237.57 531.749 1229.53 523.756 1220.73 516.513C1212.44 509.519 1203.4 503.274 1193.85 498.029C1189.57 495.531 1185.05 493.533 1180.53 491.535C1179.27 492.034 1179.02 493.033 1179.52 493.283Z" fill="white"/>
<path d="M1244.92 597.471C1245.17 600.793 1245.17 604.883 1242.93 607.694C1240.93 609.739 1237.94 609.995 1235.44 609.739C1231.2 609.228 1227.21 607.439 1223.47 605.65C1218.48 603.349 1213.49 600.538 1208.5 597.726C1203.01 594.659 1197.52 591.337 1192.03 588.27C1186.54 584.947 1181.05 581.88 1175.31 579.068C1170.32 576.512 1165.08 573.957 1159.59 572.167C1155.35 570.634 1150.61 569.356 1146.12 569.612C1144.37 569.612 1142.37 569.867 1140.63 570.634C1137.38 571.912 1134.14 572.679 1130.65 573.19C1124.16 574.212 1117.42 573.701 1111.18 571.401C1106.19 569.356 1101.7 566.033 1098.21 561.688C1095.22 557.854 1093.47 552.998 1093.22 548.142C1092.97 543.286 1094.72 538.43 1097.71 534.596C1101.7 529.74 1107.44 526.673 1113.43 524.884C1117.67 523.606 1122.16 522.839 1126.65 523.094C1129.65 523.35 1132.89 523.861 1135.89 523.861C1138.38 523.861 1141.13 523.606 1143.62 522.839C1148.61 521.561 1153.35 518.749 1157.1 514.916C1159.59 512.36 1162.58 510.059 1166.08 508.781C1172.32 506.481 1179.05 507.759 1184.79 510.571C1192.28 514.404 1198.51 520.539 1204 526.928C1210.74 534.851 1216.73 543.286 1222.22 552.232C1228.21 561.688 1233.45 571.656 1238.69 581.624C1241.68 586.48 1244.43 591.337 1244.92 597.471C1244.92 598.237 1246.17 598.237 1246.17 597.471C1245.92 594.404 1245.17 591.592 1243.93 588.781C1242.93 586.225 1241.43 583.669 1240.18 581.113C1237.69 576.001 1234.94 570.889 1232.2 566.033C1226.71 556.321 1220.97 546.609 1214.23 537.663C1208.5 529.995 1202.51 522.328 1195.02 516.194C1189.53 511.593 1183.04 507.248 1175.81 506.481C1168.82 505.714 1162.34 508.526 1157.34 513.382C1155.35 515.171 1153.35 516.96 1151.11 518.494C1148.86 520.027 1146.12 521.05 1143.62 521.816C1140.88 522.583 1138.13 522.839 1135.39 522.839C1132.14 522.583 1128.9 522.328 1125.41 522.072C1123.16 522.072 1120.67 522.328 1118.42 522.839C1116.42 523.094 1114.43 523.606 1112.68 524.372C1109.44 525.395 1106.19 526.673 1103.45 528.717C1098.96 531.529 1095.22 535.874 1093.47 540.986C1091.97 545.586 1091.97 550.698 1093.72 555.299C1095.46 560.155 1098.71 564.5 1102.7 567.822C1107.44 571.656 1112.93 573.957 1118.92 574.723C1122.41 575.234 1125.91 575.234 1129.4 574.979C1131.39 574.723 1133.14 574.468 1135.14 573.957C1136.88 573.445 1138.88 573.19 1140.63 572.423C1144.37 570.889 1148.61 571.145 1152.35 571.656C1157.59 572.679 1162.58 574.723 1167.33 576.768C1173.06 579.324 1178.55 582.391 1184.04 585.458C1189.78 588.781 1195.52 592.103 1201.26 595.426C1206.5 598.493 1211.99 601.56 1217.23 604.372C1221.72 606.672 1226.21 608.972 1230.95 610.25C1234.2 611.273 1237.69 612.039 1240.93 611.017C1243.93 609.995 1245.42 607.439 1246.17 604.372C1246.67 602.327 1246.67 600.027 1246.42 597.982C1245.92 596.704 1244.68 596.704 1244.92 597.471Z" fill="white"/>
<path d="M1216.27 563.45C1220.51 569.645 1225.74 575.345 1228.24 582.531C1229.23 585.257 1229.98 588.727 1228.73 591.7C1227.99 593.187 1226.24 594.178 1224.5 594.178C1223.25 594.178 1222.25 593.435 1221.01 592.692C1213.28 587.735 1206.05 582.036 1199.07 576.336C1191.35 570.141 1183.87 563.45 1177.64 555.52C1175.14 552.051 1169.66 544.369 1175.64 541.395C1177.14 540.651 1178.88 540.404 1180.63 540.156C1181.87 540.156 1183.12 539.908 1184.37 540.156C1186.61 540.404 1188.6 541.147 1190.6 541.891C1198.82 545.36 1206.05 551.307 1211.78 557.998C1213.78 559.733 1215.03 561.468 1216.27 563.45C1216.77 563.946 1217.77 563.45 1217.27 562.954C1212.03 555.52 1205.3 548.829 1197.33 544.121C1193.34 541.643 1189.1 539.66 1184.37 539.165C1182.12 538.917 1179.63 539.165 1177.64 539.66C1174.89 540.404 1172.4 541.891 1171.9 544.616C1171.41 547.59 1173.15 550.812 1174.65 553.042C1177.14 557.007 1180.13 560.228 1183.37 563.698C1187.36 567.663 1191.35 571.38 1195.58 574.849C1203.06 581.292 1211.04 587.488 1219.26 592.939C1221.26 594.426 1223.5 595.665 1225.99 594.922C1229.23 593.931 1230.23 590.709 1230.23 587.488C1230.23 584.018 1228.49 580.549 1226.99 577.575C1225 574.106 1222.75 570.636 1220.26 567.415C1219.26 565.928 1218.02 564.441 1217.02 562.707C1217.02 562.211 1216.02 562.707 1216.27 563.45Z" fill="white"/>
</g>
</g>
<path d="M1089.96 557.286V618.688C1119.6 618.688 1143.63 594.661 1143.63 565.019C1143.63 541.084 1127.98 520.831 1106.35 513.927C1096.13 525.526 1089.96 540.716 1089.96 557.286Z" fill="#E0F0E3"/>
<path d="M1036.29 565.111C1036.29 594.753 1060.32 618.78 1089.96 618.78V557.378C1089.96 540.808 1096.13 525.618 1106.35 514.019C1101.19 512.362 1095.67 511.441 1089.96 511.441C1060.32 511.441 1036.29 535.468 1036.29 565.111Z" fill="#F3AFAE"/>
<path d="M1159.92 458.784C1158.63 474.526 1170.42 488.243 1186.16 489.531C1201.9 490.82 1215.71 479.037 1216.91 463.295C1218.2 447.553 1206.41 433.745 1190.67 432.548C1174.93 431.259 1161.12 443.042 1159.92 458.784Z" fill="#FEDE8C"/>
<path d="M1050.1 531.142C1040.98 508.956 1036.93 489.347 1035 473.606C1042.83 472.133 1055.44 468.819 1068.69 460.349C1082.96 451.328 1091.25 438.992 1095.85 432.18H1095.94C1103.49 435.402 1117.12 441.293 1134.05 441.293C1149.8 441.293 1162.22 437.335 1169.59 434.297C1176.4 448.474 1183.49 467.346 1187.82 490.912" stroke="#2D76F9" stroke-miterlimit="10"/>
</g>
<defs>
<radialGradient id="paint0_radial_1_290" cx="0" cy="0" r="1" gradientUnits="userSpaceOnUse" gradientTransform="translate(597 187) rotate(39.7497) scale(394.098 716.715)">
<stop stop-color="white"/>
<stop offset="0.535107" stop-color="#E7EDFF"/>
<stop offset="1" stop-color="#EEEAFF"/>
</radialGradient>
<radialGradient id="paint1_radial_1_290" cx="0" cy="0" r="1" gradientUnits="userSpaceOnUse" gradientTransform="translate(597 187) rotate(39.7497) scale(394.098 716.715)">
<stop stop-color="white"/>
<stop offset="0.535107" stop-color="#E7EDFF"/>
<stop offset="1" stop-color="#EEEAFF"/>
</radialGradient>
</defs>
</svg>
